<svg xmlns="http://www.w3.org/2000/svg" xmlns:xlink="http://www.w3.org/1999/xlink" width="100.704" height="89.719" viewBox="0 0 100.704 89.719">
  <defs>
    <clipPath id="clip-path">
      <path id="Path_32095" data-name="Path 32095" d="M0,38.942H100.7V-50.777H0Z" transform="translate(0 50.777)" fill="none"/>
    </clipPath>
  </defs>
  <g id="Group_26631" data-name="Group 26631" clip-path="url(#clip-path)">
    <g id="Group_26523" data-name="Group 26523" transform="translate(34.424 60.499)">
      <path id="Path_31983" data-name="Path 31983" d="M10.369,1.18A2.721,2.721,0,0,0,8.261-1.468a2.783,2.783,0,0,0-.611-.071A2.72,2.72,0,0,0,4.929,1.18V4.092H2.268V1.18A2.721,2.721,0,0,0,.16-1.468a2.8,2.8,0,0,0-.613-.071A2.719,2.719,0,0,0-3.173,1.18V4.092H-5.834V1.18A2.721,2.721,0,0,0-7.942-1.468a2.8,2.8,0,0,0-.613-.071A2.719,2.719,0,0,0-11.274,1.18V4.092H-13.52V6A21.431,21.431,0,0,0-.454,10.416,21.431,21.431,0,0,0,12.611,6l0-1.9H10.369Z" transform="translate(13.52 1.539)" fill="#71d7e6"/>
    </g>
    <g id="Group_26524" data-name="Group 26524" transform="translate(35.358 40.17)">
      <path id="Path_31984" data-name="Path 31984" d="M3.149,6.478l4.067-3.87L18.479,2.02V-1.718l4.075-.417,4.38,2.56.18.09A18.763,18.763,0,0,1,30.1-7.173c-16.288-3.1-34.208.436-34.208.436,0,6.05,2.15,9.8,7.255,13.215" transform="translate(4.106 8.447)" fill="#e3e9ec"/>
    </g>
    <g id="Group_26525" data-name="Group 26525" transform="translate(41.28 50.639)">
      <path id="Path_31985" data-name="Path 31985" d="M9.839,1.085c-1.885,1.141-4.4,2.945-5.645,5.059H-12.829l1.334-3.1L-7.427-.827,3.835-1.415l4.226,2.7Z" transform="translate(12.829 1.415)" fill="#71d7e6"/>
    </g>
    <g id="Group_26526" data-name="Group 26526" transform="translate(57.943 46.899)">
      <path id="Path_31986" data-name="Path 31986" d="M0,0,4.226,2.567v3.87" fill="none" stroke="#2b2e34" stroke-linecap="round" stroke-linejoin="round" stroke-width="0.175"/>
    </g>
    <g id="Group_26527" data-name="Group 26527" transform="translate(57.943 46.483)">
      <path id="Path_31987" data-name="Path 31987" d="M1.834,1.295,6.063.872l-4.38-2.56-4.075.415V2.468l4.226,2.7,1.778-.2" transform="translate(2.392 1.688)" fill="none" stroke="#2b2e34" stroke-linecap="round" stroke-linejoin="round" stroke-width="0.175"/>
    </g>
    <g id="Group_26528" data-name="Group 26528" transform="translate(58.842 48.378)">
      <path id="Path_31988" data-name="Path 31988" d="M0,0V2.041" fill="none" stroke="#2b2e34" stroke-linecap="round" stroke-linejoin="round" stroke-width="0.175"/>
    </g>
    <g id="Group_26529" data-name="Group 26529" transform="translate(59.846 48.989)">
      <path id="Path_31989" data-name="Path 31989" d="M0,0V2.067" transform="translate(0 0)" fill="none" stroke="#2b2e34" stroke-linecap="round" stroke-linejoin="round" stroke-width="0.175"/>
    </g>
    <g id="Group_26530" data-name="Group 26530" transform="translate(60.955 49.662)">
      <path id="Path_31990" data-name="Path 31990" d="M0,0V2.1" fill="none" stroke="#2b2e34" stroke-linecap="round" stroke-linejoin="round" stroke-width="0.175"/>
    </g>
    <g id="Group_26531" data-name="Group 26531" transform="translate(58.304 35.382)">
      <path id="Path_31991" data-name="Path 31991" d="M2.1,1.2A11.792,11.792,0,0,1,8.518,4.5,19.122,19.122,0,0,0,5.294,14.895S-.6,17.614-2.744,21.252H16.924s0-14.029-3.4-21.949l-2.064-.855C4.315-1.778,2.1,1.2,2.1,1.2" transform="translate(2.744 1.564)" fill="#85c957"/>
    </g>
    <g id="Group_26532" data-name="Group 26532" transform="translate(33.309 38.145)">
      <path id="Path_31992" data-name="Path 31992" d="M12.953,0a11.837,11.837,0,0,1,6.414,3.3C3.08.2-14.84,3.735-14.84,3.735A9.876,9.876,0,0,0-16.89,0Z" transform="translate(16.89)" fill="#71d7e6"/>
    </g>
    <g id="Group_26533" data-name="Group 26533" transform="translate(15.815 31.692)">
      <path id="Path_31993" data-name="Path 31993" d="M3.521,0,12.9,6.453a10.1,10.1,0,0,1,2.048,3.735c0,6.052,2.15,9.806,7.257,13.217l-1.336,3.1H-3.4S-8.841,6.7,3.521,0" transform="translate(4.591)" fill="#85c957"/>
    </g>
    <g id="Group_26534" data-name="Group 26534" transform="translate(35.357 40.17)">
      <path id="Path_31994" data-name="Path 31994" d="M0,.742S17.922-2.8,34.21.308" transform="translate(0 0.968)" fill="none" stroke="#2b2e34" stroke-width="0.175"/>
    </g>
    <g id="Group_26535" data-name="Group 26535" transform="translate(40.141 41.13)">
      <path id="Path_31995" data-name="Path 31995" d="M0,0C0,4.41.534,7.8,4.776,11.821" fill="none" stroke="#2b2e34" stroke-width="0.175"/>
    </g>
    <g id="Group_26536" data-name="Group 26536" transform="translate(43.618 40.728)">
      <path id="Path_31996" data-name="Path 31996" d="M0,0C.035,5.532.325,7.405,3.062,10.5" fill="none" stroke="#2b2e34" stroke-width="0.175"/>
    </g>
    <g id="Group_26537" data-name="Group 26537" transform="translate(43.622 40.978)">
      <path id="Path_31997" data-name="Path 31997" d="M0,.325A89.011,89.011,0,0,1,25.391.671" transform="translate(0 0.424)" fill="none" stroke="#2b2e34" stroke-width="0.175"/>
    </g>
    <g id="Group_26538" data-name="Group 26538" transform="translate(23.926 31.691)">
      <path id="Path_31998" data-name="Path 31998" d="M8.111,10.159C3.006,6.749.856,2.994.856-3.056a9.908,9.908,0,0,0-2.05-3.737c-.625-.8-8.331-5.486-9.382-6.453" transform="translate(10.576 13.246)" fill="none" stroke="#2b2e34" stroke-width="0.175"/>
    </g>
    <g id="Group_26539" data-name="Group 26539" transform="translate(33.309 35.393)">
      <path id="Path_31999" data-name="Path 31999" d="M17.423.045c-7.672-.728-10.3,2.649-10.3,2.649H-22.718" transform="translate(22.718 0.058)" fill="none" stroke="#2b2e34" stroke-width="0.175"/>
    </g>
    <g id="Group_26540" data-name="Group 26540" transform="translate(63.152 38.145)">
      <path id="Path_32000" data-name="Path 32000" d="M0,0A12.45,12.45,0,0,1,6.414,3.3" fill="none" stroke="#2b2e34" stroke-width="0.175"/>
    </g>
    <g id="Group_26541" data-name="Group 26541" transform="translate(37.744 35.23)">
      <path id="Path_32001" data-name="Path 32001" d="M1.959,1.7H-2.554L-.3-2.211Z" transform="translate(2.554 2.211)" fill="#fff"/>
    </g>
    <g id="Group_26542" data-name="Group 26542" transform="translate(37.744 35.23)">
      <path id="Path_32002" data-name="Path 32002" d="M1.959,1.7H-2.554L-.3-2.211Z" transform="translate(2.554 2.211)" fill="none" stroke="#2b2e34" stroke-linecap="round" stroke-linejoin="round" stroke-width="0.175"/>
    </g>
    <g id="Group_26543" data-name="Group 26543" transform="translate(36.343 39.137)">
      <path id="Path_32003" data-name="Path 32003" d="M0,0H6.859V.875H.8Z" fill="#fff"/>
    </g>
    <g id="Group_26544" data-name="Group 26544" transform="translate(36.343 39.137)">
      <path id="Path_32004" data-name="Path 32004" d="M0,0H6.859V.875H.8Z" fill="none" stroke="#2b2e34" stroke-linecap="round" stroke-linejoin="round" stroke-width="0.175"/>
    </g>
    <g id="Group_26545" data-name="Group 26545" transform="translate(45.941 36.602)">
      <path id="Path_32005" data-name="Path 32005" d="M1.107.959H-1.444L-.168-1.25Z" transform="translate(1.444 1.25)" fill="#fff"/>
    </g>
    <g id="Group_26546" data-name="Group 26546" transform="translate(45.941 36.602)">
      <path id="Path_32006" data-name="Path 32006" d="M1.107.959H-1.444L-.168-1.25Z" transform="translate(1.444 1.25)" fill="none" stroke="#2b2e34" stroke-linecap="round" stroke-linejoin="round" stroke-width="0.175"/>
    </g>
    <g id="Group_26547" data-name="Group 26547" transform="translate(45.149 38.811)">
      <path id="Path_32007" data-name="Path 32007" d="M0,0H3.878V.495H.452Z" fill="#fff"/>
    </g>
    <g id="Group_26548" data-name="Group 26548" transform="translate(45.149 38.811)">
      <path id="Path_32008" data-name="Path 32008" d="M0,0H3.878V.495H.452Z" fill="none" stroke="#2b2e34" stroke-linecap="round" stroke-linejoin="round" stroke-width="0.175"/>
    </g>
    <g id="Group_26549" data-name="Group 26549" transform="translate(26.965 37.629)">
      <path id="Path_32009" data-name="Path 32009" d="M1.081,1.467H2.495L.542-1.913-1.41,1.467H0L.542.534Z" transform="translate(1.41 1.913)" fill="#fff"/>
    </g>
    <g id="Group_26550" data-name="Group 26550" transform="translate(26.965 37.629)">
      <path id="Path_32010" data-name="Path 32010" d="M1.081,1.467H2.495L.542-1.913-1.41,1.467H0L.542.534Z" transform="translate(1.41 1.913)" fill="none" stroke="#2b2e34" stroke-linecap="round" stroke-linejoin="round" stroke-width="0.175"/>
    </g>
    <g id="Group_26551" data-name="Group 26551" transform="translate(28.617 37.107)">
      <path id="Path_32011" data-name="Path 32011" d="M.262,0l-.3.521L-.341,0" transform="translate(0.341)" fill="none" stroke="#2b2e34" stroke-linecap="round" stroke-linejoin="round" stroke-width="0.175"/>
    </g>
    <g id="Group_26552" data-name="Group 26552" transform="translate(22.765 51.625)">
      <path id="Path_32012" data-name="Path 32012" d="M0,2.261,7.918-2.948H12.9L9.473,2.261Z" transform="translate(0 2.948)" fill="#fff"/>
    </g>
    <g id="Group_26553" data-name="Group 26553" transform="translate(22.765 51.625)">
      <path id="Path_32013" data-name="Path 32013" d="M0,2.261,7.918-2.948H12.9L9.473,2.261Z" transform="translate(0 2.948)" fill="none" stroke="#2b2e34" stroke-linecap="round" stroke-linejoin="round" stroke-width="0.175"/>
    </g>
    <g id="Group_26554" data-name="Group 26554" transform="translate(25.313 52.084)">
      <path id="Path_32014" data-name="Path 32014" d="M2.38,0H6.037L2.869,3.946H-3.1Z" transform="translate(3.103)" fill="#71d7e6"/>
    </g>
    <g id="Group_26555" data-name="Group 26555" transform="translate(25.313 52.084)">
      <path id="Path_32015" data-name="Path 32015" d="M2.38,0H6.037L2.869,3.946H-3.1Z" transform="translate(3.103)" fill="none" stroke="#2b2e34" stroke-linecap="round" stroke-linejoin="round" stroke-width="0.175"/>
    </g>
    <path id="Path_32016" data-name="Path 32016" d="M22.345-22.492H17.366v1.647h4.979Z" transform="translate(13.319 72.47)" fill="#fff"/>
    <g id="Group_26556" data-name="Group 26556" transform="translate(30.684 49.977)">
      <path id="Path_32017" data-name="Path 32017" d="M2.161,0H-2.818V1.647H2.161Z" transform="translate(2.818)" fill="none" stroke="#2b2e34" stroke-linecap="round" stroke-linejoin="round" stroke-width="0.175"/>
    </g>
    <g id="Group_26557" data-name="Group 26557" transform="translate(30.684 48.675)">
      <path id="Path_32018" data-name="Path 32018" d="M1.786,0H-1.467l-.862,1.3H2.65Z" transform="translate(2.329)" fill="#e3e9ec"/>
    </g>
    <g id="Group_26558" data-name="Group 26558" transform="translate(30.684 48.675)">
      <path id="Path_32019" data-name="Path 32019" d="M1.786,0H-1.467l-.862,1.3H2.65Z" transform="translate(2.329)" fill="none" stroke="#2b2e34" stroke-linecap="round" stroke-linejoin="round" stroke-width="0.175"/>
    </g>
    <g id="Group_26559" data-name="Group 26559" transform="translate(31.66 50.705)">
      <path id="Path_32020" data-name="Path 32020" d="M.166,0H-.217V.919H.166Z" transform="translate(0.217)" fill="none" stroke="#2b2e34" stroke-linecap="round" stroke-linejoin="round" stroke-width="0.175"/>
    </g>
    <g id="Group_26560" data-name="Group 26560" transform="translate(32.982 50.705)">
      <path id="Path_32021" data-name="Path 32021" d="M.166,0H-.217V.919H.166Z" transform="translate(0.217)" fill="none" stroke="#2b2e34" stroke-linecap="round" stroke-linejoin="round" stroke-width="0.175"/>
    </g>
    <g id="Group_26561" data-name="Group 26561" transform="translate(34.303 50.705)">
      <path id="Path_32022" data-name="Path 32022" d="M.166,0H-.217V.919H.166Z" transform="translate(0.217)" fill="none" stroke="#2b2e34" stroke-linecap="round" stroke-linejoin="round" stroke-width="0.175"/>
    </g>
    <g id="Group_26562" data-name="Group 26562" transform="translate(36.67 60.499)">
      <path id="Path_32023" data-name="Path 32023" d="M0,1.18V4.092l1.244-.606V.913A2.4,2.4,0,0,1,3.332-1.468a2.8,2.8,0,0,0-.613-.071A2.719,2.719,0,0,0,0,1.18" transform="translate(0 1.539)" fill="#f0e665"/>
    </g>
    <g id="Group_26563" data-name="Group 26563" transform="translate(36.67 60.499)">
      <path id="Path_32024" data-name="Path 32024" d="M0,1.18V4.092l1.244-.606V.913A2.4,2.4,0,0,1,3.332-1.468a2.8,2.8,0,0,0-.613-.071A2.719,2.719,0,0,0,0,1.18Z" transform="translate(0 1.539)" fill="none" stroke="#2b2e34" stroke-linejoin="round" stroke-width="0.175"/>
    </g>
    <g id="Group_26564" data-name="Group 26564" transform="translate(44.771 60.499)">
      <path id="Path_32025" data-name="Path 32025" d="M0,1.18V4.092l1.244-.606V.913A2.4,2.4,0,0,1,3.332-1.468a2.8,2.8,0,0,0-.613-.071A2.719,2.719,0,0,0,0,1.18" transform="translate(0 1.539)" fill="#f0e665"/>
    </g>
    <g id="Group_26565" data-name="Group 26565" transform="translate(44.771 60.499)">
      <path id="Path_32026" data-name="Path 32026" d="M0,1.18V4.092l1.244-.606V.913A2.4,2.4,0,0,1,3.332-1.468a2.8,2.8,0,0,0-.613-.071A2.719,2.719,0,0,0,0,1.18Z" transform="translate(0 1.539)" fill="none" stroke="#2b2e34" stroke-linejoin="round" stroke-width="0.175"/>
    </g>
    <g id="Group_26566" data-name="Group 26566" transform="translate(52.873 60.499)">
      <path id="Path_32027" data-name="Path 32027" d="M0,1.18V4.092l1.244-.606V.913A2.4,2.4,0,0,1,3.332-1.468a2.8,2.8,0,0,0-.613-.071A2.719,2.719,0,0,0,0,1.18" transform="translate(0 1.539)" fill="#f0e665"/>
    </g>
    <g id="Group_26567" data-name="Group 26567" transform="translate(52.873 60.499)">
      <path id="Path_32028" data-name="Path 32028" d="M0,1.18V4.092l1.244-.606V.913A2.4,2.4,0,0,1,3.332-1.468a2.8,2.8,0,0,0-.613-.071A2.719,2.719,0,0,0,0,1.18Z" transform="translate(0 1.539)" fill="none" stroke="#2b2e34" stroke-linejoin="round" stroke-width="0.175"/>
    </g>
    <g id="Group_26568" data-name="Group 26568" transform="translate(34.423 60.571)">
      <path id="Path_32029" data-name="Path 32029" d="M2.421,0A2.4,2.4,0,0,0,.333,2.382V4.954l-1.244.6H-3.157" transform="translate(3.157)" fill="none" stroke="#2b2e34" stroke-width="0.175"/>
    </g>
    <g id="Group_26569" data-name="Group 26569" transform="translate(36.67 60.498)">
      <path id="Path_32030" data-name="Path 32030" d="M4.963.031A2.4,2.4,0,0,0,2.874,2.413V4.986l-1.244.6H-1.031V2.68A2.719,2.719,0,0,0-3.139.031a2.7,2.7,0,0,0-.613-.072A2.721,2.721,0,0,0-6.471,2.68V5.59" transform="translate(6.471 0.041)" fill="none" stroke="#2b2e34" stroke-linecap="round" stroke-linejoin="round" stroke-width="0.175"/>
    </g>
    <g id="Group_26570" data-name="Group 26570" transform="translate(44.771 60.498)">
      <path id="Path_32031" data-name="Path 32031" d="M4.963.031A2.4,2.4,0,0,0,2.874,2.413V4.986l-1.244.6H-1.031V2.68A2.719,2.719,0,0,0-3.139.031a2.7,2.7,0,0,0-.613-.072A2.721,2.721,0,0,0-6.471,2.68V5.59" transform="translate(6.471 0.041)" fill="none" stroke="#2b2e34" stroke-linecap="round" stroke-linejoin="round" stroke-width="0.175"/>
    </g>
    <g id="Group_26571" data-name="Group 26571" transform="translate(52.873 60.499)">
      <path id="Path_32032" data-name="Path 32032" d="M0,2.444V-.468A2.719,2.719,0,0,1,2.719-3.187a2.7,2.7,0,0,1,.613.072A2.719,2.719,0,0,1,5.44-.468V2.444H7.686" transform="translate(0 3.187)" fill="none" stroke="#2b2e34" stroke-width="0.175"/>
    </g>
    <g id="Group_26572" data-name="Group 26572" transform="translate(16.551 58.199)">
      <path id="Path_32033" data-name="Path 32033" d="M0,0H61.42" fill="none" stroke="#2b2e34" stroke-width="0.175"/>
    </g>
    <g id="Group_26573" data-name="Group 26573" transform="translate(58.302 36.249)">
      <path id="Path_32034" data-name="Path 32034" d="M7.06,0A19.512,19.512,0,0,0-1.167,15.59s-1.034.479-2.392,1.3c-1.887,1.141-4.4,2.945-5.645,5.059" transform="translate(9.205)" fill="none" stroke="#2b2e34" stroke-linecap="round" stroke-linejoin="round" stroke-width="0.175"/>
    </g>
    <g id="Group_26574" data-name="Group 26574" transform="translate(41.279 50.638)">
      <path id="Path_32035" data-name="Path 32035" d="M0,3.282,1.334.179,5.4-3.691l11.262-.588" transform="translate(0 4.279)" fill="none" stroke="#2b2e34" stroke-width="0.175"/>
    </g>
    <g id="Group_26575" data-name="Group 26575" transform="translate(13.061 16.495)">
      <path id="Path_32036" data-name="Path 32036" d="M14.944,27.618a29.2,29.2,0,0,1-29.2-29.2,29.2,29.2,0,0,1,29.2-29.2,29.2,29.2,0,0,1,29.2,29.2,29.2,29.2,0,0,1-29.2,29.2m0-63.629A34.431,34.431,0,0,0-19.486-1.579a34.43,34.43,0,0,0,34.43,34.43,34.43,34.43,0,0,0,34.43-34.43,34.431,34.431,0,0,0-34.43-34.432" transform="translate(19.486 36.011)" fill="#fff"/>
    </g>
    <g id="Group_26576" data-name="Group 26576" transform="translate(9.328 39.126)">
      <path id="Path_32037" data-name="Path 32037" d="M2.178,1.724l.4-1.488a1.443,1.443,0,0,0,.044-.611A.939.939,0,0,0,2.4-.859a1.035,1.035,0,0,0-.512-.293.868.868,0,0,0-.546.005.918.918,0,0,0-.412.309,1.567,1.567,0,0,0-.262.551L.261,1.2Zm-2.6-.709L-.063-.322A1.117,1.117,0,0,0-.08-1.047a.745.745,0,0,0-.537-.426.737.737,0,0,0-.677.1,1.129,1.129,0,0,0-.378.617L-2.036.577ZM2.764,2.282a.381.381,0,0,1-.474.272L-2.554,1.236a.37.37,0,0,1-.239-.18A.384.384,0,0,1-2.824.763l.465-1.71a1.932,1.932,0,0,1,.422-.8,1.532,1.532,0,0,1,.684-.436,1.475,1.475,0,0,1,.83,0,1.147,1.147,0,0,1,.581.362,1.36,1.36,0,0,1,.306.64,1.463,1.463,0,0,1,.657-.636,1.362,1.362,0,0,1,.958-.046,1.672,1.672,0,0,1,.809.47,1.678,1.678,0,0,1,.422.809A2.082,2.082,0,0,1,3.27.422Z" transform="translate(2.84 2.248)" fill="#2b2e34"/>
    </g>
    <g id="Group_26577" data-name="Group 26577" transform="translate(13.084 34.586)">
      <path id="Path_32038" data-name="Path 32038" d="M2,.589a.365.365,0,0,1-.5.193L.462.323-.2-.123.292-.579,1.8.091A.368.368,0,0,1,2,.589M.736,1.847a1.251,1.251,0,0,0,.106-.691A1.277,1.277,0,0,0,.577.529,1.474,1.474,0,0,0,0,.086,1.481,1.481,0,0,0-.726-.047a1.288,1.288,0,0,0-.643.226,1.255,1.255,0,0,0-.438.544,1.255,1.255,0,0,0-.106.686,1.312,1.312,0,0,0,.262.636,1.471,1.471,0,0,0,.585.449,1.439,1.439,0,0,0,.717.127A1.3,1.3,0,0,0,.3,2.388a1.273,1.273,0,0,0,.438-.541m.55.406a1.78,1.78,0,0,1-.64.777A1.913,1.913,0,0,1-.3,3.356a2.194,2.194,0,0,1-1.06-.2,2.057,2.057,0,0,1-.853-.673,1.994,1.994,0,0,1-.378-.97A2.023,2.023,0,0,1-2.418.453a2,2,0,0,1,.668-.841A2.021,2.021,0,0,1-.78-.757,2.072,2.072,0,0,1,.292-.579L.175-.314a2.171,2.171,0,0,1,.859.652,1.922,1.922,0,0,1,.4.917,1.794,1.794,0,0,1-.147,1" transform="translate(2.604 0.768)" fill="#2b2e34"/>
    </g>
    <g id="Group_26578" data-name="Group 26578" transform="translate(14.975 30.403)">
      <path id="Path_32039" data-name="Path 32039" d="M.593,1.19a1.469,1.469,0,0,1-.571-.6A1.635,1.635,0,0,1-.154-.2a1.652,1.652,0,0,1,.242-.806A1.233,1.233,0,0,1,.554-1.5a.307.307,0,0,1,.382.035.278.278,0,0,1,.092.155.287.287,0,0,1-.014.159.428.428,0,0,1-.1.15A2.076,2.076,0,0,0,.464-.28,1.146,1.146,0,0,0,.418.388.773.773,0,0,0,.787.866Zm2.179,1.3a.388.388,0,0,1-.221.187.364.364,0,0,1-.288-.062L-.578.909A.365.365,0,0,1-.764.686.367.367,0,0,1-.706.4.378.378,0,0,1-.483.209.38.38,0,0,1-.2.275L2.644,1.981a.378.378,0,0,1,.187.221.378.378,0,0,1-.06.288" transform="translate(0.773 1.551)" fill="#2b2e34"/>
    </g>
    <g id="Group_26579" data-name="Group 26579" transform="translate(17.057 27.296)">
      <path id="Path_32040" data-name="Path 32040" d="M.565,1.178A1.473,1.473,0,0,1,.06.524,1.6,1.6,0,0,1-.034-.284a1.65,1.65,0,0,1,.325-.777A1.221,1.221,0,0,1,.805-1.5a.307.307,0,0,1,.376.074.291.291,0,0,1,.076.164.287.287,0,0,1-.032.157.421.421,0,0,1-.111.138A2.057,2.057,0,0,0,.59-.3,1.163,1.163,0,0,0,.473.361a.772.772,0,0,0,.32.514ZM2.6,2.7a.376.376,0,0,1-.239.164.367.367,0,0,1-.279-.09L-.571.776A.375.375,0,0,1-.734.534.379.379,0,0,1-.645.257.385.385,0,0,1-.4.091.377.377,0,0,1-.126.185L2.523,2.178a.366.366,0,0,1,.163.239A.352.352,0,0,1,2.6,2.7" transform="translate(0.737 1.535)" fill="#2b2e34"/>
    </g>
    <g id="Group_26580" data-name="Group 26580" transform="translate(19.803 24.513)">
      <path id="Path_32041" data-name="Path 32041" d="M2.035.981A.362.362,0,0,1,1.77,1.1.367.367,0,0,1,1.5,1L.678.213.206-.431.823-.692,2.021.446a.365.365,0,0,1,.122.265.361.361,0,0,1-.108.27m-1.611.76a1.263,1.263,0,0,0,.332-.615A1.3,1.3,0,0,0,.718.446a1.467,1.467,0,0,0-.4-.611A1.486,1.486,0,0,0-.314-.535,1.277,1.277,0,0,0-1-.538a1.243,1.243,0,0,0-.6.364,1.262,1.262,0,0,0-.33.611,1.312,1.312,0,0,0,.034.686,1.454,1.454,0,0,0,.4.618A1.425,1.425,0,0,0-.858,2.1a1.314,1.314,0,0,0,.687,0,1.288,1.288,0,0,0,.594-.36M.8,2.308a1.785,1.785,0,0,1-.866.518,1.94,1.94,0,0,1-1-.014,2.2,2.2,0,0,1-.931-.542,2.08,2.08,0,0,1-.578-.922A2.019,2.019,0,0,1-2.6.306a2.049,2.049,0,0,1,.521-.942A2.015,2.015,0,0,1-1.165-1.2,2.029,2.029,0,0,1-.126-1.222a2.058,2.058,0,0,1,.949.53l-.2.208a2.183,2.183,0,0,1,.59.9,1.926,1.926,0,0,1,.064,1A1.782,1.782,0,0,1,.8,2.308" transform="translate(2.653 1.279)" fill="#2b2e34"/>
    </g>
    <g id="Group_26581" data-name="Group 26581" transform="translate(23.565 21.053)">
      <path id="Path_32042" data-name="Path 32042" d="M1.9,2.174a2.378,2.378,0,0,1-.9.447,2.075,2.075,0,0,1-.988,0,.32.32,0,0,1-.217-.161.333.333,0,0,1-.019-.258A.361.361,0,0,1-.05,1.986a.382.382,0,0,1,.276-.028,1.373,1.373,0,0,0,.64,0,1.615,1.615,0,0,0,.629-.316A1.307,1.307,0,0,0,1.9,1.1,1.227,1.227,0,0,0,1.968.408,1.716,1.716,0,0,0,1.6-.343L.952-1.171l-.21-.663.475-.177L2.207-.752a2.18,2.18,0,0,1,.454,1,1.984,1.984,0,0,1-.1,1.044,2.036,2.036,0,0,1-.668.883M.472.341A1.3,1.3,0,0,0,.9-.221,1.239,1.239,0,0,0,.959-.892a1.5,1.5,0,0,0-.313-.67,1.561,1.561,0,0,0-.58-.465,1.251,1.251,0,0,0-.668-.1,1.305,1.305,0,0,0-.647.283,1.285,1.285,0,0,0-.426.562,1.255,1.255,0,0,0-.062.677,1.5,1.5,0,0,0,.313.673A1.461,1.461,0,0,0-.845.527a1.26,1.26,0,0,0,.671.1A1.3,1.3,0,0,0,.472.341m.3.615a1.821,1.821,0,0,1-.935.4A1.847,1.847,0,0,1-1.143,1.2a2.236,2.236,0,0,1-.85-.686,2.121,2.121,0,0,1-.456-1,1.913,1.913,0,0,1,.118-1.02,2.1,2.1,0,0,1,.67-.862A2.085,2.085,0,0,1-.67-2.813a1.913,1.913,0,0,1,1.018.124,2.137,2.137,0,0,1,.869.679l-.345.27a2.393,2.393,0,0,1,.481.977,1.81,1.81,0,0,1-.037.954A1.593,1.593,0,0,1,.769.956" transform="translate(2.472 2.834)" fill="#2b2e34"/>
    </g>
    <g id="Group_26582" data-name="Group 26582" transform="translate(27.784 18.244)">
      <path id="Path_32043" data-name="Path 32043" d="M1.381,1.64A2.231,2.231,0,0,1,.3,1.963,1.915,1.915,0,0,1-.71,1.714,2.075,2.075,0,0,1-1.48.931,2.179,2.179,0,0,1-1.8-.123a1.892,1.892,0,0,1,.246-.984,2.024,2.024,0,0,1,.763-.751A1.851,1.851,0,0,1,.2-2.138a1.672,1.672,0,0,1,.9.288,2.339,2.339,0,0,1,.71.783.309.309,0,0,1,.034.251.331.331,0,0,1-.164.2L-.9.894-1.2.382,1.361-1.113,1.2-.781a1.558,1.558,0,0,0-.463-.5,1.137,1.137,0,0,0-.58-.2,1.122,1.122,0,0,0-.631.171A1.339,1.339,0,0,0-1-.783a1.181,1.181,0,0,0-.138.668A1.66,1.66,0,0,0-.9.6a1.44,1.44,0,0,0,.527.534,1.344,1.344,0,0,0,.7.177,1.466,1.466,0,0,0,.74-.217A1.36,1.36,0,0,0,1.423.778,1.43,1.43,0,0,0,1.66.412.417.417,0,0,1,1.826.218.321.321,0,0,1,2.059.17.352.352,0,0,1,2.3.315a.26.26,0,0,1,.014.258,2.044,2.044,0,0,1-.376.6,2.265,2.265,0,0,1-.555.47" transform="translate(1.8 2.138)" fill="#2b2e34"/>
    </g>
    <g id="Group_26583" data-name="Group 26583" transform="translate(62.061 17.152)">
      <path id="Path_32044" data-name="Path 32044" d="M.609,1.651a1.25,1.25,0,0,0,.68.159,1.271,1.271,0,0,0,.648-.219,1.464,1.464,0,0,0,.488-.546A1.472,1.472,0,0,0,2.613.336a1.3,1.3,0,0,0-.178-.656A1.258,1.258,0,0,0,1.926-.8a1.269,1.269,0,0,0-.677-.157A1.316,1.316,0,0,0,.6-.747,1.426,1.426,0,0,0,.108-.2a1.468,1.468,0,0,0-.184.71,1.305,1.305,0,0,0,.18.664,1.258,1.258,0,0,0,.505.479m-.316.588A2.044,2.044,0,0,1-.5,1.506a2.019,2.019,0,0,1-.3-1A2.059,2.059,0,0,1-.532-.546a2.169,2.169,0,0,1,.716-.807,1.926,1.926,0,0,1,.945-.325,1.781,1.781,0,0,1,.982.223,1.8,1.8,0,0,1,.627.542,1.836,1.836,0,0,1,.315.73L4-1.947a.355.355,0,0,1,.224-.191.359.359,0,0,1,.286.037.367.367,0,0,1,.193.221.37.37,0,0,1-.037.29l-1.6,2.979a2.079,2.079,0,0,1-.737.8,2.018,2.018,0,0,1-.993.3A2.009,2.009,0,0,1,.293,2.239" transform="translate(0.794 2.152)" fill="#2b2e34"/>
    </g>
    <g id="Group_26584" data-name="Group 26584" transform="translate(66.475 20.436)">
      <path id="Path_32045" data-name="Path 32045" d="M.4,1.648A2.23,2.23,0,0,1-.331.789,1.925,1.925,0,0,1-.5-.241,2.058,2.058,0,0,1-.093-1.259a2.173,2.173,0,0,1,.839-.712,1.885,1.885,0,0,1,1-.168,2.021,2.021,0,0,1,.991.4,1.858,1.858,0,0,1,.65.793,1.683,1.683,0,0,1,.1.944,2.344,2.344,0,0,1-.436.965.318.318,0,0,1-.216.131.339.339,0,0,1-.253-.071L.173-.743l.35-.477L2.913.535,2.545.522A1.582,1.582,0,0,0,2.819-.1a1.13,1.13,0,0,0-.049-.61,1.12,1.12,0,0,0-.406-.511A1.345,1.345,0,0,0,1.671-1.5,1.177,1.177,0,0,0,1-1.359a1.644,1.644,0,0,0-.558.5,1.422,1.422,0,0,0-.281.694,1.368,1.368,0,0,0,.115.71,1.484,1.484,0,0,0,.495.592,1.41,1.41,0,0,0,.429.21,1.492,1.492,0,0,0,.429.072.432.432,0,0,1,.246.072.325.325,0,0,1,.136.2.35.35,0,0,1-.037.276.263.263,0,0,1-.231.115,2.039,2.039,0,0,1-.7-.108A2.247,2.247,0,0,1,.4,1.648" transform="translate(0.515 2.149)" fill="#2b2e34"/>
    </g>
    <g id="Group_26585" data-name="Group 26585" transform="translate(71.027 23.365)">
      <path id="Path_32046" data-name="Path 32046" d="M.045,1.757a.361.361,0,0,1-.1-.274.381.381,0,0,1,.129-.265l3.689-3.4a.377.377,0,0,1,.277-.1.362.362,0,0,1,.263.12.377.377,0,0,1,.1.277.371.371,0,0,1-.125.269L.873,1.517l1.82,1.974a.378.378,0,0,1-.023.544.364.364,0,0,1-.276.1.371.371,0,0,1-.269-.125Z" transform="translate(0.058 2.291)" fill="#2b2e34"/>
    </g>
    <g id="Group_26586" data-name="Group 26586" transform="translate(74.441 28.735)">
      <path id="Path_32047" data-name="Path 32047" d="M.6,1.992a.369.369,0,0,1,.1-.527L1.627.819,2.353.486l.133.657-1.359.944a.37.37,0,0,1-.284.065A.363.363,0,0,1,.6,1.992M.184.26A1.266,1.266,0,0,0,.717.711a1.269,1.269,0,0,0,.675.1A1.439,1.439,0,0,0,2.071.547,1.475,1.475,0,0,0,2.562,0,1.28,1.28,0,0,0,2.7-.667a1.265,1.265,0,0,0-.235-.659,1.27,1.27,0,0,0-.532-.447,1.306,1.306,0,0,0-.679-.106,1.433,1.433,0,0,0-.687.263,1.439,1.439,0,0,0-.482.548A1.3,1.3,0,0,0-.05-.4,1.266,1.266,0,0,0,.184.26M-.449.518A1.788,1.788,0,0,1-.781-.434a1.919,1.919,0,0,1,.217-.975,2.183,2.183,0,0,1,.719-.8,2.055,2.055,0,0,1,1.02-.378A1.986,1.986,0,0,1,2.2-2.408a2.015,2.015,0,0,1,.816.7A2.011,2.011,0,0,1,3.385-.7,2.025,2.025,0,0,1,3.2.322a2.076,2.076,0,0,1-.71.822L2.32.907a2.188,2.188,0,0,1-1,.394,1.917,1.917,0,0,1-.989-.14A1.779,1.779,0,0,1-.449.518" transform="translate(0.783 2.597)" fill="#2b2e34"/>
    </g>
    <g id="Group_26587" data-name="Group 26587" transform="translate(76.599 32.696)">
      <path id="Path_32048" data-name="Path 32048" d="M.61,2.065a.371.371,0,0,1-.025-.29A.367.367,0,0,1,.78,1.558L2.411.742A1.345,1.345,0,0,0,2.959.295a.989.989,0,0,0,.168-.551,1.371,1.371,0,0,0-.154-.6A1.263,1.263,0,0,0,2.607-1.3a1.082,1.082,0,0,0-.481-.207.831.831,0,0,0-.5.085l-.21-.419a1.548,1.548,0,0,1,.848-.17,1.63,1.63,0,0,1,.8.293,1.812,1.812,0,0,1,.588.693,1.915,1.915,0,0,1,.214.917,1.583,1.583,0,0,1-.29.857,2.114,2.114,0,0,1-.823.673l-1.633.816a.371.371,0,0,1-.29.025A.362.362,0,0,1,.61,2.065M-.752-.661a.364.364,0,0,1-.025-.29.362.362,0,0,1,.194-.217L2.376-2.647a.368.368,0,0,1,.293-.027.374.374,0,0,1,.214.2.373.373,0,0,1,.03.292.371.371,0,0,1-.2.216L-.245-.491a.376.376,0,0,1-.288.028.364.364,0,0,1-.219-.2" transform="translate(0.796 2.693)" fill="#2b2e34"/>
    </g>
    <g id="Group_26588" data-name="Group 26588" transform="translate(78.957 37.762)">
      <path id="Path_32049" data-name="Path 32049" d="M.338,1.082a1.255,1.255,0,0,0,.385.583,1.283,1.283,0,0,0,.618.288,1.463,1.463,0,0,0,.724-.06,1.482,1.482,0,0,0,.625-.387,1.314,1.314,0,0,0,.327-.6,1.273,1.273,0,0,0-.041-.7,1.269,1.269,0,0,0-.383-.581,1.313,1.313,0,0,0-.62-.293,1.467,1.467,0,0,0-.735.058,1.446,1.446,0,0,0-.617.389A1.325,1.325,0,0,0,.3.388a1.28,1.28,0,0,0,.039.694M.248,2.862a.365.365,0,0,1,.24-.477l1.076-.357.792-.113-.06.668L.725,3.1a.366.366,0,0,1-.29-.018.354.354,0,0,1-.187-.223m-.59-1.71A1.787,1.787,0,0,1-.39.144,1.919,1.919,0,0,1,.094-.73,2.165,2.165,0,0,1,1.011-1.3,2.064,2.064,0,0,1,2.1-1.37a2.012,2.012,0,0,1,.931.465,2.038,2.038,0,0,1,.585.9A2.025,2.025,0,0,1,3.681,1.07a2,2,0,0,1-.472.924,2.048,2.048,0,0,1-.914.588L2.2,2.309A2.2,2.2,0,0,1,1.13,2.4a1.926,1.926,0,0,1-.91-.413,1.782,1.782,0,0,1-.562-.838" transform="translate(0.441 1.411)" fill="#2b2e34"/>
    </g>
    <g id="Group_26589" data-name="Group 26589" transform="translate(80.198 42.511)">
      <path id="Path_32050" data-name="Path 32050" d="M.155,1.746a.362.362,0,0,1,.058-.284.372.372,0,0,1,.247-.154L3.717.73a.368.368,0,0,1,.29.058.372.372,0,0,1,.148.249.371.371,0,0,1-.053.288.372.372,0,0,1-.253.15L.593,2.052A.368.368,0,0,1,.309,2a.36.36,0,0,1-.154-.251M-.169.138A1.892,1.892,0,0,1-.112-.8a1.572,1.572,0,0,1,.521-.74,2.111,2.111,0,0,1,.981-.412l1.8-.318a.363.363,0,0,1,.284.058.372.372,0,0,1,.154.247.374.374,0,0,1-.06.286.364.364,0,0,1-.247.154l-1.8.318a1.342,1.342,0,0,0-.648.272.976.976,0,0,0-.322.486A1.375,1.375,0,0,0,.529.167,1.22,1.22,0,0,0,.754.7a1.043,1.043,0,0,0,.4.332.836.836,0,0,0,.5.062l.081.459a1.561,1.561,0,0,1-.857-.078A1.617,1.617,0,0,1,.2.974,1.8,1.8,0,0,1-.169.138" transform="translate(0.202 2.277)" fill="#2b2e34"/>
    </g>
    <g id="Group_26590" data-name="Group 26590" transform="translate(36.587 8.174)">
      <path id="Path_32051" data-name="Path 32051" d="M2.238,6.571a3.065,3.065,0,0,0,1.59-.406,2.862,2.862,0,0,0,1.087-1.14,3.5,3.5,0,0,0,.4-1.679,3.48,3.48,0,0,0-.4-1.691A2.957,2.957,0,0,0,3.828.516,3,3,0,0,0,2.238.1,3,3,0,0,0,.648.516,2.881,2.881,0,0,0-.428,1.655,3.558,3.558,0,0,0-.812,3.346,3.572,3.572,0,0,0-.428,5.025,2.791,2.791,0,0,0,.648,6.165a3.06,3.06,0,0,0,1.59.406M-2.194.537,2.9-7.955a1.173,1.173,0,0,1,1.011-.613,1.133,1.133,0,0,1,.767.263,1.124,1.124,0,0,1,.385.657,1.084,1.084,0,0,1-.166.79L1.777-1.679ZM2.259,8.546a5.34,5.34,0,0,1-2.687-.67A4.782,4.782,0,0,1-2.261,6.034a5.407,5.407,0,0,1-.657-2.687A5.453,5.453,0,0,1-2.261.636,4.77,4.77,0,0,1-.428-1.207a5.322,5.322,0,0,1,2.687-.67,5.264,5.264,0,0,1,2.677.67A4.779,4.779,0,0,1,6.758.636a5.453,5.453,0,0,1,.657,2.71,5.407,5.407,0,0,1-.657,2.687A4.791,4.791,0,0,1,4.936,7.877a5.281,5.281,0,0,1-2.677.67" transform="translate(2.918 8.568)" fill="#2b2e34"/>
    </g>
    <g id="Group_26591" data-name="Group 26591" transform="translate(47.908 8.13)">
      <path id="Path_32052" data-name="Path 32052" d="M2.276,6.457a2.049,2.049,0,0,0,1.668-.823A5.565,5.565,0,0,0,4.93,3.384,14.3,14.3,0,0,0,5.261.159a14.3,14.3,0,0,0-.33-3.225,5.672,5.672,0,0,0-.986-2.26,2.04,2.04,0,0,0-1.668-.834,2.05,2.05,0,0,0-1.668.822A5.587,5.587,0,0,0-.379-3.088,14.529,14.529,0,0,0-.708.159,14.529,14.529,0,0,0-.379,3.407a5.4,5.4,0,0,0,1,2.239,2.068,2.068,0,0,0,1.657.811m0,2.281A4.182,4.182,0,0,1-.565,7.718a6.342,6.342,0,0,1-1.788-2.94A15.245,15.245,0,0,1-2.968.159a15.253,15.253,0,0,1,.615-4.619A6.342,6.342,0,0,1-.565-7.4a4.182,4.182,0,0,1,2.841-1.02A4.131,4.131,0,0,1,5.117-7.378,6.524,6.524,0,0,1,6.906-4.415,15.07,15.07,0,0,1,7.52.159a15.07,15.07,0,0,1-.615,4.575A6.5,6.5,0,0,1,5.117,7.7,4.124,4.124,0,0,1,2.276,8.738" transform="translate(2.968 8.419)" fill="#2b2e34"/>
    </g>
    <g id="Group_26592" data-name="Group 26592" transform="translate(38.711 26.989)">
      <path id="Path_32053" data-name="Path 32053" d="M2.146,2.369a.489.489,0,0,1-.5-.5V.351L1.83-.7l.82.357V1.865a.489.489,0,0,1-.5.5m-2.214-.86a1.677,1.677,0,0,0,.9-.242A1.715,1.715,0,0,0,1.453.6,1.946,1.946,0,0,0,1.681-.34a1.963,1.963,0,0,0-.228-.954,1.715,1.715,0,0,0-.622-.663,1.693,1.693,0,0,0-.9-.242,1.7,1.7,0,0,0-.9.242,1.742,1.742,0,0,0-.633.663,1.927,1.927,0,0,0-.231.954A1.91,1.91,0,0,0-1.6.6a1.742,1.742,0,0,0,.633.663,1.686,1.686,0,0,0,.9.242m-.2.891a2.378,2.378,0,0,1-1.3-.36,2.562,2.562,0,0,1-.9-.981A2.906,2.906,0,0,1-2.8-.34a2.753,2.753,0,0,1,.36-1.4,2.7,2.7,0,0,1,.979-.984,2.715,2.715,0,0,1,1.391-.36,2.675,2.675,0,0,1,1.384.36,2.7,2.7,0,0,1,.974.984,2.753,2.753,0,0,1,.36,1.4H2.264a2.906,2.906,0,0,1-.33,1.4,2.575,2.575,0,0,1-.9.981,2.387,2.387,0,0,1-1.3.36" transform="translate(2.798 3.089)" fill="#2b2e34"/>
    </g>
    <g id="Group_26593" data-name="Group 26593" transform="translate(45.662 26.98)">
      <path id="Path_32054" data-name="Path 32054" d="M1.983,2.373a.489.489,0,0,1-.5-.5V-.564a1.809,1.809,0,0,0-.208-.919,1.311,1.311,0,0,0-.558-.53,1.812,1.812,0,0,0-.806-.173,1.636,1.636,0,0,0-.751.17,1.39,1.39,0,0,0-.534.449,1.1,1.1,0,0,0-.2.648H-2.2a2.079,2.079,0,0,1,.3-1.113,2.18,2.18,0,0,1,.825-.776A2.417,2.417,0,0,1,.1-3.094,2.529,2.529,0,0,1,1.325-2.8a2.1,2.1,0,0,1,.85.855A2.815,2.815,0,0,1,2.486-.564V1.869a.489.489,0,0,1-.5.5m-4.064,0a.489.489,0,0,1-.36-.143.489.489,0,0,1-.143-.36v-4.41a.484.484,0,0,1,.143-.366.5.5,0,0,1,.36-.138.494.494,0,0,1,.366.138.5.5,0,0,1,.14.366v4.41a.5.5,0,0,1-.14.36.484.484,0,0,1-.366.143" transform="translate(2.585 3.094)" fill="#2b2e34"/>
    </g>
    <g id="Group_26594" data-name="Group 26594" transform="translate(52.05 26.989)">
      <path id="Path_32055" data-name="Path 32055" d="M1.008,2.382A3.755,3.755,0,0,1-.273,2.17a2.467,2.467,0,0,1-.914-.539.429.429,0,0,1-.124-.362.472.472,0,0,1,.193-.33A.506.506,0,0,1-.727.806.526.526,0,0,1-.4.977a1.6,1.6,0,0,0,.539.352,2.02,2.02,0,0,0,.827.163A1.667,1.667,0,0,0,1.844,1.3.585.585,0,0,0,2.155.82.6.6,0,0,0,1.874.306,2.719,2.719,0,0,0,.81-.051,3.12,3.12,0,0,1-.639-.643a1.245,1.245,0,0,1-.449-.97,1.2,1.2,0,0,1,.3-.834,1.779,1.779,0,0,1,.76-.495,2.891,2.891,0,0,1,.97-.164A2.989,2.989,0,0,1,2.095-2.9a1.966,1.966,0,0,1,.8.574.461.461,0,0,1,.129.33.386.386,0,0,1-.17.292.481.481,0,0,1-.375.069.712.712,0,0,1-.366-.177,1.338,1.338,0,0,0-.534-.327,2.226,2.226,0,0,0-.663-.09,1.654,1.654,0,0,0-.737.148.469.469,0,0,0-.3.436.575.575,0,0,0,.094.32.792.792,0,0,0,.371.258,4.739,4.739,0,0,0,.811.223,4.455,4.455,0,0,1,1.171.375,1.571,1.571,0,0,1,.618.53,1.3,1.3,0,0,1,.187.7,1.46,1.46,0,0,1-.242.822,1.674,1.674,0,0,1-.712.583,2.785,2.785,0,0,1-1.171.217" transform="translate(1.314 3.106)" fill="#2b2e34"/>
    </g>
    <g id="Group_26595" data-name="Group 26595" transform="translate(21.695 62.829)">
      <path id="Path_32056" data-name="Path 32056" d="M.013.77A.206.206,0,0,1-.008.6.217.217,0,0,1,.1.468L2.651-.972A.217.217,0,0,1,2.823-1a.212.212,0,0,1,.133.1.216.216,0,0,1,.021.171.209.209,0,0,1-.108.134L.515.745l.77,1.362a.219.219,0,0,1,.023.171.224.224,0,0,1-.108.136.224.224,0,0,1-.307-.087Z" transform="translate(0.017 1.004)" fill="#2b2e34"/>
    </g>
    <g id="Group_26596" data-name="Group 26596" transform="translate(23.478 65.91)">
      <path id="Path_32057" data-name="Path 32057" d="M.109.844A1.3,1.3,0,0,1-.133.234a1.116,1.116,0,0,1,.094-.6A1.211,1.211,0,0,1,.377-.854a1.277,1.277,0,0,1,.6-.239A1.091,1.091,0,0,1,1.559-1a1.176,1.176,0,0,1,.474.406,1.091,1.091,0,0,1,.212.558.971.971,0,0,1-.122.541A1.348,1.348,0,0,1,1.7.957.183.183,0,0,1,1.559.99.2.2,0,0,1,1.432.9L.428-.52l.283-.2L1.708.7l-.2-.076A.926.926,0,0,0,1.773.326.66.66,0,0,0,1.86-.02a.653.653,0,0,0-.131-.359A.8.8,0,0,0,1.4-.662.7.7,0,0,0,1-.708a.96.96,0,0,0-.4.171A.835.835,0,0,0,.317-.2.771.771,0,0,0,.25.209.846.846,0,0,0,.413.628a.782.782,0,0,0,.2.2.852.852,0,0,0,.224.12.246.246,0,0,1,.122.087A.194.194,0,0,1,1,1.165a.205.205,0,0,1-.072.145.158.158,0,0,1-.15.021,1.228,1.228,0,0,1-.366-.189,1.3,1.3,0,0,1-.3-.3" transform="translate(0.142 1.1)" fill="#2b2e34"/>
    </g>
    <g id="Group_26597" data-name="Group 26597" transform="translate(26.053 68.314)">
      <path id="Path_32058" data-name="Path 32058" d="M.413.255A.209.209,0,0,1,.351.112.173.173,0,0,1,.409-.017.184.184,0,0,1,.549-.07.207.207,0,0,1,.687,0l.675.737a.209.209,0,0,1,.062.143.173.173,0,0,1-.065.134.168.168,0,0,1-.133.048A.215.215,0,0,1,1.088.991Zm-.758,2a.715.715,0,0,1-.182-.362.771.771,0,0,1,.039-.4.911.911,0,0,1,.247-.364L1.28-.27a.211.211,0,0,1,.155-.062.216.216,0,0,1,.15.074.21.21,0,0,1,.06.155.207.207,0,0,1-.072.15L.051,1.442A.44.44,0,0,0-.1,1.707a.291.291,0,0,0,.072.253l.1.108a.177.177,0,0,1,.044.138A.224.224,0,0,1,.04,2.35.2.2,0,0,1-.124,2.4a.262.262,0,0,1-.168-.1Z" transform="translate(0.538 0.332)" fill="#2b2e34"/>
    </g>
    <g id="Group_26598" data-name="Group 26598" transform="translate(27.336 70.295)">
      <path id="Path_32059" data-name="Path 32059" d="M.29.788A.742.742,0,0,0,.652.981.708.708,0,0,0,1.045.954.864.864,0,0,0,1.4.712.883.883,0,0,0,1.615.336a.734.734,0,0,0,0-.4A.764.764,0,0,0,1.389-.4.766.766,0,0,0,1.025-.6a.741.741,0,0,0-.4.028.869.869,0,0,0-.359.242A.875.875,0,0,0,.06.048.745.745,0,0,0,.067.442.769.769,0,0,0,.29.788m-.263.286A1.221,1.221,0,0,1-.325.542a1.106,1.106,0,0,1-.023-.6A1.218,1.218,0,0,1-.04-.615,1.249,1.249,0,0,1,.5-.972,1.114,1.114,0,0,1,1.094-1a1.221,1.221,0,0,1,.558.307A1.207,1.207,0,0,1,2-.163a1.124,1.124,0,0,1,.023.6A1.246,1.246,0,0,1,1.712,1a1.262,1.262,0,0,1-.532.355,1.1,1.1,0,0,1-.6.027,1.2,1.2,0,0,1-.558-.306" transform="translate(0.378 1.027)" fill="#2b2e34"/>
    </g>
    <g id="Group_26599" data-name="Group 26599" transform="translate(29.644 71.888)">
      <path id="Path_32060" data-name="Path 32060" d="M.53,1.306a.214.214,0,0,1-.09-.145A.217.217,0,0,1,.484,1L1.631-.553a.209.209,0,0,1,.147-.092A.223.223,0,0,1,1.94-.6a.216.216,0,0,1,.092.145.215.215,0,0,1-.046.164L.839,1.26A.219.219,0,0,1,.7,1.35.211.211,0,0,1,.53,1.306M-.251.754A1.094,1.094,0,0,1-.6.334.916.916,0,0,1-.682-.187,1.248,1.248,0,0,1-.431-.756L.2-1.612A.21.21,0,0,1,.346-1.7a.216.216,0,0,1,.164.042.214.214,0,0,1,.09.145.217.217,0,0,1-.044.164l-.633.855A.779.779,0,0,0-.24-.118.57.57,0,0,0-.182.217.789.789,0,0,0,.055.486.71.71,0,0,0,.364.624.613.613,0,0,0,.67.6.48.48,0,0,0,.906.427l.219.161A.917.917,0,0,1,.731.9.955.955,0,0,1,.238.961,1.052,1.052,0,0,1-.251.754" transform="translate(0.691 1.702)" fill="#2b2e34"/>
    </g>
    <g id="Group_26600" data-name="Group 26600" transform="translate(31.924 73.594)">
      <path id="Path_32061" data-name="Path 32061" d="M.381.346A.876.876,0,0,1,.73.013a.957.957,0,0,1,.933.042.706.706,0,0,1,.288.272A.177.177,0,0,1,1.93.551.161.161,0,0,1,1.84.6.155.155,0,0,1,1.746.595.252.252,0,0,1,1.66.538,1.226,1.226,0,0,0,1.239.273.672.672,0,0,0,.849.245.444.444,0,0,0,.57.46ZM-.381,1.614a.228.228,0,0,1-.11-.129.211.211,0,0,1,.035-.168l1-1.656A.218.218,0,0,1,.677-.446a.222.222,0,0,1,.166.035A.217.217,0,0,1,.955-.28a.22.22,0,0,1-.039.166l-1,1.654a.223.223,0,0,1-.129.11.219.219,0,0,1-.168-.035" transform="translate(0.496 0.451)" fill="#2b2e34"/>
    </g>
    <g id="Group_26601" data-name="Group 26601" transform="translate(33.894 74.651)">
      <path id="Path_32062" data-name="Path 32062" d="M.75,1.273a.216.216,0,0,1-.115-.125A.212.212,0,0,1,.647.978L1.112.02a.8.8,0,0,0,.094-.4A.578.578,0,0,0,1.085-.7.792.792,0,0,0,.8-.918.741.741,0,0,0,.472-1a.631.631,0,0,0-.3.076.481.481,0,0,0-.2.217L-.27-.821a.9.9,0,0,1,.33-.38.959.959,0,0,1,.474-.148,1.049,1.049,0,0,1,.518.111,1.094,1.094,0,0,1,.426.346.934.934,0,0,1,.171.5,1.233,1.233,0,0,1-.141.6l-.463.958a.216.216,0,0,1-.125.115.212.212,0,0,1-.17-.012M-.851.5A.211.211,0,0,1-.966.372.215.215,0,0,1-.954.2l.841-1.737a.216.216,0,0,1,.127-.117.216.216,0,0,1,.168.014A.219.219,0,0,1,.3-1.511a.226.226,0,0,1-.016.171L-.556.4A.216.216,0,0,1-.68.512.211.211,0,0,1-.851.5" transform="translate(0.978 1.66)" fill="#2b2e34"/>
    </g>
    <g id="Group_26602" data-name="Group 26602" transform="translate(36.894 76.079)">
      <path id="Path_32063" data-name="Path 32063" d="M.747,1.15A.215.215,0,0,1,.613.869L.836.245l.231-.4.286.267-.323.908a.222.222,0,0,1-.113.129.217.217,0,0,1-.17.005M-.039.47A.75.75,0,0,0,.367.5.746.746,0,0,0,.721.321.855.855,0,0,0,.954-.034.88.88,0,0,0,1-.462.747.747,0,0,0,.841-.826a.737.737,0,0,0-.336-.231.724.724,0,0,0-.4-.032.747.747,0,0,0-.357.18A.841.841,0,0,0-.493-.55a.832.832,0,0,0-.042.422A.767.767,0,0,0-.373.238.737.737,0,0,0-.039.47M-.251.807A1.038,1.038,0,0,1-.732.47a1.121,1.121,0,0,1-.23-.537A1.29,1.29,0,0,1-.893-.693a1.2,1.2,0,0,1,.355-.525A1.171,1.171,0,0,1,.01-1.479a1.176,1.176,0,0,1,.625.055,1.172,1.172,0,0,1,.518.352,1.169,1.169,0,0,1,.256.55,1.2,1.2,0,0,1-.057.631L1.194.051A1.265,1.265,0,0,1,.851.579a1.1,1.1,0,0,1-.516.27A1.047,1.047,0,0,1-.251.807" transform="translate(0.974 1.499)" fill="#2b2e34"/>
    </g>
    <g id="Group_26603" data-name="Group 26603" transform="translate(39.706 76.782)">
      <path id="Path_32064" data-name="Path 32064" d="M.825,1.183a.217.217,0,0,1-.14-.1A.222.222,0,0,1,.66.918L.908-.118a.8.8,0,0,0,0-.413A.557.557,0,0,0,.728-.812.808.808,0,0,0,.4-.968a.7.7,0,0,0-.337,0,.619.619,0,0,0-.272.136.479.479,0,0,0-.15.256L-.622-.643A.9.9,0,0,1-.38-1.084a.952.952,0,0,1,.429-.247,1.054,1.054,0,0,1,.53,0,1.109,1.109,0,0,1,.489.247.929.929,0,0,1,.276.451,1.259,1.259,0,0,1-.007.622L1.09,1.018a.207.207,0,0,1-.1.14.212.212,0,0,1-.168.025M-.905.771a.211.211,0,0,1-.14-.1A.211.211,0,0,1-1.068.506l.445-1.876a.211.211,0,0,1,.1-.141.216.216,0,0,1,.166-.023.222.222,0,0,1,.143.1.214.214,0,0,1,.021.17L-.64.608a.224.224,0,0,1-.094.14A.218.218,0,0,1-.905.771" transform="translate(1.075 1.542)" fill="#2b2e34"/>
    </g>
    <g id="Group_26604" data-name="Group 26604" transform="translate(42.713 76.653)">
      <path id="Path_32065" data-name="Path 32065" d="M.367,1.375A.708.708,0,0,1,0,1.209.768.768,0,0,1-.226.872.906.906,0,0,1-.263.433l.3-2.041a.208.208,0,0,1,.081-.145.2.2,0,0,1,.164-.037.213.213,0,0,1,.145.083.213.213,0,0,1,.037.163L.166.5A.441.441,0,0,0,.217.8a.291.291,0,0,0,.214.15L.576.969a.168.168,0,0,1,.122.08.214.214,0,0,1,.03.161.191.191,0,0,1-.094.145.267.267,0,0,1-.189.032ZM-.3-.653A.2.2,0,0,1-.44-.726.164.164,0,0,1-.477-.862.181.181,0,0,1-.4-.991a.212.212,0,0,1,.154-.03L.74-.874A.21.21,0,0,1,.878-.8a.179.179,0,0,1,.035.145.162.162,0,0,1-.074.12.2.2,0,0,1-.154.03Z" transform="translate(0.479 1.793)" fill="#2b2e34"/>
    </g>
    <g id="Group_26605" data-name="Group 26605" transform="translate(45.84 76.716)">
      <path id="Path_32066" data-name="Path 32066" d="M.512,1.3a.745.745,0,0,0,.4-.1A.745.745,0,0,0,1.184.911.877.877,0,0,0,1.292.5.868.868,0,0,0,1.2.08.758.758,0,0,0,.931-.211.738.738,0,0,0,.539-.324a.764.764,0,0,0-.394.1A.775.775,0,0,0-.136.059.837.837,0,0,0-.244.473.847.847,0,0,0-.15.89a.782.782,0,0,0,.272.3.741.741,0,0,0,.39.113m-.007.389a1.167,1.167,0,0,1-.6-.168A1.147,1.147,0,0,1-.52,1.082,1.2,1.2,0,0,1-.668.465a1.278,1.278,0,0,1,.154-.61,1.143,1.143,0,0,1,.4-.422A1.042,1.042,0,0,1,.458-.715,1.072,1.072,0,0,1,.928-.6a1.057,1.057,0,0,1,.359.293l.019-1.166a.219.219,0,0,1,.065-.161.218.218,0,0,1,.159-.057.216.216,0,0,1,.159.062.229.229,0,0,1,.058.163L1.716.5a1.222,1.222,0,0,1-.168.611,1.181,1.181,0,0,1-.433.422,1.177,1.177,0,0,1-.61.148" transform="translate(0.668 1.692)" fill="#2b2e34"/>
    </g>
    <g id="Group_26606" data-name="Group 26606" transform="translate(48.945 77.576)">
      <path id="Path_32067" data-name="Path 32067" d="M.582,1.038a1.306,1.306,0,0,1-.648-.1A1.133,1.133,0,0,1-.54.559a1.182,1.182,0,0,1-.212-.6A1.274,1.274,0,0,1-.66-.681a1.106,1.106,0,0,1,.375-.459A1.2,1.2,0,0,1,.3-1.348a1.086,1.086,0,0,1,.59.1A.981.981,0,0,1,1.3-.874a1.364,1.364,0,0,1,.18.59.174.174,0,0,1-.044.14A.191.191,0,0,1,1.3-.077L-.438.078-.469-.266,1.255-.42l-.166.136a.943.943,0,0,0-.12-.378A.659.659,0,0,0,.711-.911.647.647,0,0,0,.336-.977a.786.786,0,0,0-.41.145.7.7,0,0,0-.239.318.967.967,0,0,0-.053.433A.841.841,0,0,0-.22.333.79.79,0,0,0,.1.6.848.848,0,0,0,.548.667.785.785,0,0,0,.819.592.822.822,0,0,0,1.034.458.248.248,0,0,1,1.169.4.193.193,0,0,1,1.3.43a.2.2,0,0,1,.09.136.154.154,0,0,1-.057.14A1.194,1.194,0,0,1,.992.928a1.325,1.325,0,0,1-.41.11" transform="translate(0.759 1.353)" fill="#2b2e34"/>
    </g>
    <g id="Group_26607" data-name="Group 26607" transform="translate(51.646 77.221)">
      <path id="Path_32068" data-name="Path 32068" d="M.533,1.034a1.575,1.575,0,0,1-.567.009A1.058,1.058,0,0,1-.47.884.184.184,0,0,1-.552.739.2.2,0,0,1-.495.582.217.217,0,0,1-.338.493.229.229,0,0,1-.182.541a.663.663,0,0,0,.26.108A.863.863,0,0,0,.447.654.713.713,0,0,0,.807.5.247.247,0,0,0,.9.271a.259.259,0,0,0-.161-.2A1.159,1.159,0,0,0,.256,0a1.369,1.369,0,0,1-.67-.141.544.544,0,0,1-.27-.382A.523.523,0,0,1-.622-.9a.778.778,0,0,1,.288-.272,1.266,1.266,0,0,1,.4-.147,1.327,1.327,0,0,1,.514,0,.873.873,0,0,1,.39.184.2.2,0,0,1,.081.133.161.161,0,0,1-.049.14.221.221,0,0,1-.155.06A.309.309,0,0,1,.678-.857a.577.577,0,0,0-.256-.1A.982.982,0,0,0,.13-.941a.73.73,0,0,0-.306.122.209.209,0,0,0-.1.212A.253.253,0,0,0-.2-.478.343.343,0,0,0-.025-.4a2.045,2.045,0,0,0,.368.03A1.939,1.939,0,0,1,.876-.3a.68.68,0,0,1,.307.18A.558.558,0,0,1,1.32.168a.638.638,0,0,1-.039.373.76.76,0,0,1-.26.307,1.235,1.235,0,0,1-.488.186" transform="translate(0.695 1.348)" fill="#2b2e34"/>
    </g>
    <g id="Group_26608" data-name="Group 26608" transform="translate(55.269 76.222)">
      <path id="Path_32069" data-name="Path 32069" d="M1.085.876A.217.217,0,0,1,.915.867.211.211,0,0,1,.805.738L.593.111.523-.35l.39.034L1.222.6a.214.214,0,0,1-.138.279M.046.83A.725.725,0,0,0,.385.6.748.748,0,0,0,.549.242.83.83,0,0,0,.512-.18.872.872,0,0,0,.284-.544.75.75,0,0,0-.067-.732a.732.732,0,0,0-.406.027.725.725,0,0,0-.337.226.756.756,0,0,0-.17.362A.834.834,0,0,0-.942.311.83.83,0,0,0-.714.669.751.751,0,0,0-.359.855.737.737,0,0,0,.046.83m.044.4A1.049,1.049,0,0,1-.5,1.26,1.126,1.126,0,0,1-1.011.98,1.3,1.3,0,0,1-1.345.447a1.2,1.2,0,0,1-.046-.633A1.168,1.168,0,0,1-1.124-.73,1.2,1.2,0,0,1-.6-1.075a1.166,1.166,0,0,1,.624-.044,1.185,1.185,0,0,1,.542.27,1.2,1.2,0,0,1,.346.532L.754-.263A1.289,1.289,0,0,1,.812.364,1.13,1.13,0,0,1,.576.9a1.062,1.062,0,0,1-.486.332" transform="translate(1.414 1.142)" fill="#2b2e34"/>
    </g>
    <g id="Group_26609" data-name="Group 26609" transform="translate(57.854 75.064)">
      <path id="Path_32070" data-name="Path 32070" d="M1.19.84a.211.211,0,0,1-.17.009A.206.206,0,0,1,.9.732L.448-.233A.788.788,0,0,0,.2-.558a.579.579,0,0,0-.32-.108.812.812,0,0,0-.352.08.729.729,0,0,0-.267.2A.613.613,0,0,0-.87-.1.487.487,0,0,0-.829.19L-1.077.3a.914.914,0,0,1-.085-.5A.955.955,0,0,1-.978-.651,1.071,1.071,0,0,1-.564-.984a1.123,1.123,0,0,1,.539-.11.929.929,0,0,1,.495.184,1.222,1.222,0,0,1,.38.491L1.3.546a.212.212,0,0,1,.011.17A.217.217,0,0,1,1.19.84m-1.613.749a.219.219,0,0,1-.17.011.219.219,0,0,1-.122-.117L-1.529-.268A.224.224,0,0,1-1.54-.439a.225.225,0,0,1,.118-.12A.218.218,0,0,1-1.25-.574a.225.225,0,0,1,.122.12L-.315,1.3a.22.22,0,0,1,.012.17.212.212,0,0,1-.12.124" transform="translate(1.552 1.095)" fill="#2b2e34"/>
    </g>
    <g id="Group_26610" data-name="Group 26610" transform="translate(60.482 73.634)">
      <path id="Path_32071" data-name="Path 32071" d="M1.241.777A.213.213,0,0,1,.938.7L.387-.209A.8.8,0,0,0,.1-.506.574.574,0,0,0-.228-.577.794.794,0,0,0-.569-.46a.736.736,0,0,0-.244.233.622.622,0,0,0-.1.29A.476.476,0,0,0-.837.349L-1.071.49A.923.923,0,0,1-1.21.006a.946.946,0,0,1,.134-.477A1.042,1.042,0,0,1-.7-.845a1.1,1.1,0,0,1,.525-.166.917.917,0,0,1,.511.127,1.236,1.236,0,0,1,.431.447l.55.912a.208.208,0,0,1,.028.166.213.213,0,0,1-.1.136M-.281,1.7a.219.219,0,0,1-.168.028.213.213,0,0,1-.134-.1l-1-1.65a.212.212,0,0,1-.03-.17.209.209,0,0,1,.1-.133.21.21,0,0,1,.168-.032A.219.219,0,0,1-1.2-.257l1,1.65a.217.217,0,0,1,.03.166.212.212,0,0,1-.1.138" transform="translate(1.618 1.013)" fill="#2b2e34"/>
    </g>
    <g id="Group_26611" data-name="Group 26611" transform="translate(63.103 70.994)">
      <path id="Path_32072" data-name="Path 32072" d="M.908,1.355a1.293,1.293,0,0,1-.6.262,1.1,1.1,0,0,1-.6-.074,1.2,1.2,0,0,1-.5-.4,1.282,1.282,0,0,1-.26-.588A1.114,1.114,0,0,1-.983-.034a1.193,1.193,0,0,1,.39-.488,1.1,1.1,0,0,1,.553-.23.985.985,0,0,1,.542.1,1.369,1.369,0,0,1,.466.4A.192.192,0,0,1,1.007-.1.2.2,0,0,1,.925.03L-.465,1.081-.674.806.706-.239l-.069.2a.915.915,0,0,0-.3-.256.647.647,0,0,0-.35-.074.65.65,0,0,0-.353.141.79.79,0,0,0-.27.341.692.692,0,0,0-.034.4A.963.963,0,0,0-.488.908a.814.814,0,0,0,.343.272.774.774,0,0,0,.415.055.854.854,0,0,0,.413-.177.814.814,0,0,0,.189-.2A.838.838,0,0,0,.984.625.258.258,0,0,1,1.067.5.182.182,0,0,1,1.2.457a.2.2,0,0,1,.148.067.149.149,0,0,1,.025.148,1.178,1.178,0,0,1-.177.371,1.29,1.29,0,0,1-.288.311M-.827-.788A.213.213,0,0,1-.99-.742a.218.218,0,0,1-.145-.088.208.208,0,0,1-.048-.148l.083-.594a.2.2,0,0,1,.085-.147.209.209,0,0,1,.166-.044.232.232,0,0,1,.145.09A.272.272,0,0,1-.665-1.6a.147.147,0,0,1,0,.083l-.081.588a.2.2,0,0,1-.085.14" transform="translate(1.184 1.767)" fill="#2b2e34"/>
    </g>
    <g id="Group_26612" data-name="Group 26612" transform="translate(65.259 70.297)">
      <path id="Path_32073" data-name="Path 32073" d="M.9.879A1.286,1.286,0,0,1,.321,1.2a1.11,1.11,0,0,1-.608-.018A1.207,1.207,0,0,1-.824.829,1.266,1.266,0,0,1-1.135.268a1.07,1.07,0,0,1,.018-.592A1.2,1.2,0,0,1-.776-.846a1.1,1.1,0,0,1,.528-.283A.983.983,0,0,1,.3-1.075a1.358,1.358,0,0,1,.5.359.179.179,0,0,1,.049.138.188.188,0,0,1-.067.136L-.5.736-.732.481.544-.688.495-.48A.935.935,0,0,0,.169-.706.664.664,0,0,0-.186-.747a.657.657,0,0,0-.337.175.787.787,0,0,0-.239.364.7.7,0,0,0,.005.4A.946.946,0,0,0-.536.566.818.818,0,0,0-.17.8.766.766,0,0,0,.249.821a.877.877,0,0,0,.4-.216A.8.8,0,0,0,.813.382.79.79,0,0,0,.9.144.244.244,0,0,1,.973.013.184.184,0,0,1,1.1-.043.206.206,0,0,1,1.254.01.154.154,0,0,1,1.3.154a1.225,1.225,0,0,1-.141.389A1.331,1.331,0,0,1,.9.879" transform="translate(1.168 1.146)" fill="#2b2e34"/>
    </g>
    <g id="Group_26613" data-name="Group 26613" transform="translate(67.063 68.461)">
      <path id="Path_32074" data-name="Path 32074" d="M.911.866a1.663,1.663,0,0,1-.445.353,1.089,1.089,0,0,1-.443.138A.19.19,0,0,1-.132,1.29a.2.2,0,0,1-.049-.159A.224.224,0,0,1-.111.965.235.235,0,0,1,.043.909.7.7,0,0,0,.315.838.892.892,0,0,0,.61.617.717.717,0,0,0,.806.28.253.253,0,0,0,.741.036a.262.262,0,0,0-.249-.06,1.185,1.185,0,0,0-.428.24,1.371,1.371,0,0,1-.618.3A.54.54,0,0,1-1,.372.519.519,0,0,1-1.183.031.773.773,0,0,1-1.12-.362,1.251,1.251,0,0,1-.888-.724a1.323,1.323,0,0,1,.406-.315.886.886,0,0,1,.422-.09.206.206,0,0,1,.145.055A.17.17,0,0,1,.13-.932a.208.208,0,0,1-.087.141.317.317,0,0,1-.166.067.6.6,0,0,0-.263.076,1.057,1.057,0,0,0-.223.189.725.725,0,0,0-.168.283A.2.2,0,0,0-.726.05.258.258,0,0,0-.593.114.346.346,0,0,0-.4.068a2.062,2.062,0,0,0,.309-.2A2.032,2.032,0,0,1,.375-.4.7.7,0,0,1,.729-.443.55.55,0,0,1,1.01-.3.638.638,0,0,1,1.2.02a.736.736,0,0,1-.019.4A1.238,1.238,0,0,1,.911.866" transform="translate(1.187 1.13)" fill="#2b2e34"/>
    </g>
    <g id="Group_26614" data-name="Group 26614" transform="translate(68.941 65.078)">
      <path id="Path_32075" data-name="Path 32075" d="M1,.9a.6.6,0,0,0,.111-.3.576.576,0,0,0-.064-.3A.7.7,0,0,0,.822.037.669.669,0,0,0,.5-.087.589.589,0,0,0,.2-.039.6.6,0,0,0-.049.174a.612.612,0,0,0-.11.3.566.566,0,0,0,.067.3.7.7,0,0,0,.231.251.709.709,0,0,0,.316.125.557.557,0,0,0,.3-.048A.623.623,0,0,0,1,.9m.323.216a1.064,1.064,0,0,1-.408.364.937.937,0,0,1-.5.092,1.059,1.059,0,0,1-.511-.193A1.077,1.077,0,0,1-.462.964a.947.947,0,0,1-.1-.5A1.038,1.038,0,0,1-.367-.05,1.04,1.04,0,0,1,.041-.41a.944.944,0,0,1,.5-.09,1.063,1.063,0,0,1,.514.194A1.074,1.074,0,0,1,1.421.1a.95.95,0,0,1,.1.5,1.007,1.007,0,0,1-.189.509M-.471.943-1.284-.831a.232.232,0,0,1,.012-.233.233.233,0,0,1,.129-.1.231.231,0,0,1,.15.011.218.218,0,0,1,.11.115L-.388.051Z" transform="translate(1.309 1.168)" fill="#2b2e34"/>
    </g>
    <g id="Group_26615" data-name="Group 26615" transform="translate(69.899 63.018)">
      <path id="Path_32076" data-name="Path 32076" d="M1.161.814A.4.4,0,0,0,1.181.448,1.1,1.1,0,0,0,.887.061,2.828,2.828,0,0,0,.364-.3,2.851,2.851,0,0,0-.222-.557,1.091,1.091,0,0,0-.706-.6a.4.4,0,0,0-.3.207.4.4,0,0,0-.019.366A1.1,1.1,0,0,0-.736.355,2.83,2.83,0,0,0-.21.722,2.817,2.817,0,0,0,.382.978a1.066,1.066,0,0,0,.481.042.407.407,0,0,0,.3-.207m.392.219a.823.823,0,0,1-.447.39,1.236,1.236,0,0,1-.679.027,3.086,3.086,0,0,1-.855-.337,3.026,3.026,0,0,1-.735-.55A1.237,1.237,0,0,1-1.5-.027a.827.827,0,0,1,.1-.588A.822.822,0,0,1-.947-1a1.281,1.281,0,0,1,.68-.023,3.023,3.023,0,0,1,.848.334,3.016,3.016,0,0,1,.728.544,1.294,1.294,0,0,1,.337.594.808.808,0,0,1-.094.588" transform="translate(1.514 1.061)" fill="#2b2e34"/>
    </g>
    <g id="Group_26616" data-name="Group 26616" transform="translate(31.483 59.099)">
      <path id="Path_32077" data-name="Path 32077" d="M0,0H32.015" fill="none" stroke="#2b2e34" stroke-linecap="round" stroke-linejoin="round" stroke-width="0.175"/>
    </g>
    <g id="Group_26617" data-name="Group 26617" transform="translate(22.594 40.54)">
      <path id="Path_32078" data-name="Path 32078" d="M.626.821-.1-1.071-.816.821Z" transform="translate(0.816 1.071)" fill="#e3e9ec"/>
    </g>
    <g id="Group_26618" data-name="Group 26618" transform="translate(22.594 40.54)">
      <path id="Path_32079" data-name="Path 32079" d="M.626.821-.1-1.071-.816.821Z" transform="translate(0.816 1.071)" fill="none" stroke="#2b2e34" stroke-linejoin="round" stroke-width="0.175"/>
    </g>
    <path id="Path_32080" data-name="Path 32080" d="M14.229-24.184H12.787v-2.578h1.442Z" transform="translate(9.807 69.195)" fill="#fff"/>
    <g id="Group_26619" data-name="Group 26619" transform="translate(22.594 42.432)">
      <path id="Path_32081" data-name="Path 32081" d="M.626,1.119H-.816V-1.459H.626Z" transform="translate(0.816 1.459)" fill="none" stroke="#2b2e34" stroke-linejoin="round" stroke-width="0.175"/>
    </g>
    <g id="Group_26620" data-name="Group 26620" transform="translate(24.035 43.02)">
      <path id="Path_32082" data-name="Path 32082" d="M1.209.3H-1.577V-.4h2.2Z" transform="translate(1.577 0.397)" fill="#e3e9ec"/>
    </g>
    <g id="Group_26621" data-name="Group 26621" transform="translate(24.035 43.02)">
      <path id="Path_32083" data-name="Path 32083" d="M1.209.3H-1.577V-.4h2.2Z" transform="translate(1.577 0.397)" fill="none" stroke="#2b2e34" stroke-linecap="round" stroke-linejoin="round" stroke-width="0.175"/>
    </g>
    <path id="Path_32084" data-name="Path 32084" d="M16.389-24.744H13.6v-1.288h2.786Z" transform="translate(10.433 69.755)" fill="#fff"/>
    <g id="Group_26622" data-name="Group 26622" transform="translate(24.035 43.722)">
      <path id="Path_32085" data-name="Path 32085" d="M1.209.559H-1.577V-.729H1.209Z" transform="translate(1.577 0.729)" fill="none" stroke="#2b2e34" stroke-linecap="round" stroke-linejoin="round" stroke-width="0.175"/>
    </g>
    <path id="Path_32086" data-name="Path 32086" d="M13.68-22.847H11.56v-1.611h2.12Z" transform="translate(8.866 70.962)" fill="#fff"/>
    <g id="Group_26623" data-name="Group 26623" transform="translate(20.425 46.504)">
      <path id="Path_32087" data-name="Path 32087" d="M.92.7H-1.2V-.912H.92Z" transform="translate(1.2 0.912)" fill="none" stroke="#2b2e34" stroke-linecap="round" stroke-linejoin="round" stroke-width="0.175"/>
    </g>
    <g id="Group_26624" data-name="Group 26624" transform="translate(20.425 44.857)">
      <path id="Path_32088" data-name="Path 32088" d="M.46,0-.6,1.649H1.52Z" transform="translate(0.6)" fill="#e3e9ec"/>
    </g>
    <g id="Group_26625" data-name="Group 26625" transform="translate(20.425 44.857)">
      <path id="Path_32089" data-name="Path 32089" d="M.46,0-.6,1.649H1.52Z" transform="translate(0.6)" fill="none" stroke="#2b2e34" stroke-linecap="round" stroke-linejoin="round" stroke-width="0.175"/>
    </g>
    <g id="Group_26626" data-name="Group 26626" transform="translate(21.485 44.631)">
      <path id="Path_32090" data-name="Path 32090" d="M0,.1,3.14-.128,4.1,1.157l-3.039.59Z" transform="translate(0 0.128)" fill="#e3e9ec"/>
    </g>
    <g id="Group_26627" data-name="Group 26627" transform="translate(21.485 44.631)">
      <path id="Path_32091" data-name="Path 32091" d="M0,.1,3.14-.128,4.1,1.157l-3.039.59Z" transform="translate(0 0.128)" fill="none" stroke="#2b2e34" stroke-linecap="round" stroke-linejoin="round" stroke-width="0.175"/>
    </g>
    <g id="Group_26628" data-name="Group 26628" transform="translate(22.545 45.916)">
      <path id="Path_32092" data-name="Path 32092" d="M0,.255V1.867L3.039.93V-.333Z" transform="translate(0 0.333)" fill="#fff"/>
    </g>
    <g id="Group_26629" data-name="Group 26629" transform="translate(22.545 45.916)">
      <path id="Path_32093" data-name="Path 32093" d="M0,.255V1.867L3.039.93V-.333Z" transform="translate(0 0.333)" fill="none" stroke="#2b2e34" stroke-linecap="round" stroke-linejoin="round" stroke-width="0.175"/>
    </g>
    <g id="Group_26630" data-name="Group 26630" transform="translate(21.174 47.288)">
      <path id="Path_32094" data-name="Path 32094" d="M.27,0H-.352V.827H.27Z" transform="translate(0.352)" fill="none" stroke="#2b2e34" stroke-linecap="round" stroke-linejoin="round" stroke-width="0.175"/>
    </g>
  </g>
</svg>
