<svg xmlns="http://www.w3.org/2000/svg" xmlns:xlink="http://www.w3.org/1999/xlink" width="198.835" height="87.659" viewBox="0 0 198.835 87.659">
  <defs>
    <clipPath id="clip-path">
      <path id="Path_31931" data-name="Path 31931" d="M178.415,35.653H377.25V-52.006H178.415Z" transform="translate(-178.415 52.006)" fill="none"/>
    </clipPath>
  </defs>
  <g id="Group_26451" data-name="Group 26451" clip-path="url(#clip-path)">
    <g id="Group_26425" data-name="Group 26425" transform="translate(108.433 31.751)">
      <path id="Path_31905" data-name="Path 31905" d="M3.99,5.037a6.825,6.825,0,0,1-.312,2.129,4.574,4.574,0,0,1-.888,1.61A3.9,3.9,0,0,1,1.4,9.8a4.519,4.519,0,0,1-1.834.361,6.363,6.363,0,0,1-2.886-.637A8.053,8.053,0,0,1-5.41,8.067l1.618-2A4.591,4.591,0,0,0-2.348,7.177a3.365,3.365,0,0,0,.915.312,4.339,4.339,0,0,0,.7.072A2.636,2.636,0,0,0,.2,7.4a2.419,2.419,0,0,0,.732-.42A2.042,2.042,0,0,0,1.591,5.4a1.8,1.8,0,0,0-.351-1.082,2.132,2.132,0,0,0-.7-.625A3.37,3.37,0,0,0-.2,3.306c-.26-.1-.494-.184-.7-.265A.66.66,0,0,0-1.08,2.98a.264.264,0,0,1-.137-.059.265.265,0,0,1-.118-.049q-.41-.144-1.18-.506a7.3,7.3,0,0,1-1.53-.984A4.511,4.511,0,0,1-5.82-2.225a6.323,6.323,0,0,1,.4-2.393A4.53,4.53,0,0,1-4.377-6.2a3.826,3.826,0,0,1,1.434-.878,4.891,4.891,0,0,1,1.551-.265,6,6,0,0,1,2.36.41,7.981,7.981,0,0,1,1.52.817,4.455,4.455,0,0,1,.5.42c.137.137.256.261.361.373L1.689-3.26A4.453,4.453,0,0,0,.615-4.246,3.342,3.342,0,0,0-1.1-4.726a2.676,2.676,0,0,0-.78.12,2.711,2.711,0,0,0-.683.314,2.041,2.041,0,0,0-.858,1.707A1.769,1.769,0,0,0-3.071-1.48a2.5,2.5,0,0,0,.7.649,3.688,3.688,0,0,0,.78.384q.41.147.76.265l.234.072c.066.032.189.081.371.145A5.092,5.092,0,0,1,.42.324c.248.128.517.281.811.457a6.953,6.953,0,0,1,.868.625A4.57,4.57,0,0,1,3.99,5.037" transform="translate(5.82 7.347)"/>
    </g>
    <g id="Group_26426" data-name="Group 26426" transform="translate(123.021 32.112)">
      <path id="Path_31906" data-name="Path 31906" d="M2.221,6.846-3.24-9.986H-.7L3.45,2.831,7.312-9.986h2.5L4.738,6.846Z" transform="translate(3.24 9.986)"/>
    </g>
    <g id="Group_26427" data-name="Group 26427" transform="translate(141.022 31.751)">
      <path id="Path_31907" data-name="Path 31907" d="M2.888,1.174a3.884,3.884,0,0,0-1.814.445A4.864,4.864,0,0,0-.467,2.9,6.115,6.115,0,0,0-1.51,4.8a6.874,6.874,0,0,0-.361,2.237A6.975,6.975,0,0,0-1.51,9.29,6.08,6.08,0,0,0-.467,11.2a4.714,4.714,0,0,0,1.541,1.274,3.976,3.976,0,0,0,1.814.433,4.043,4.043,0,0,0,1.824-.433A4.7,4.7,0,0,0,6.262,11.2,5.957,5.957,0,0,0,7.3,9.29a7.158,7.158,0,0,0,.351-2.249A7.055,7.055,0,0,0,7.3,4.8,5.988,5.988,0,0,0,6.262,2.9,4.843,4.843,0,0,0,4.711,1.619a3.949,3.949,0,0,0-1.824-.445m0-2.886a5.82,5.82,0,0,1,2.759.686A7.287,7.287,0,0,1,7.91.848a9.2,9.2,0,0,1,1.52,2.79,10.293,10.293,0,0,1,.556,3.4,10.276,10.276,0,0,1-.556,3.4,9.162,9.162,0,0,1-1.52,2.79,7.269,7.269,0,0,1-2.264,1.876,5.82,5.82,0,0,1-2.759.686,5.825,5.825,0,0,1-2.759-.686,7.244,7.244,0,0,1-2.262-1.876,9.13,9.13,0,0,1-1.522-2.79,10.276,10.276,0,0,1-.556-3.4,10.293,10.293,0,0,1,.556-3.4A9.169,9.169,0,0,1-2.134.848,7.261,7.261,0,0,1,.128-1.026a5.825,5.825,0,0,1,2.759-.686" transform="translate(4.212 1.712)"/>
    </g>
    <g id="Group_26428" data-name="Group 26428" transform="translate(161.716 32.136)">
      <path id="Path_31908" data-name="Path 31908" d="M3.133,5.663V8.548h-7.7V-8.26h2.34V5.663Z" transform="translate(4.57 8.26)"/>
    </g>
    <g id="Group_26429" data-name="Group 26429" transform="translate(172.501 32.112)">
      <path id="Path_31909" data-name="Path 31909" d="M4.212,1.174h-4V15.12H-2.127V1.174H-6.144V-1.712H4.212Z" transform="translate(6.144 1.712)"/>
    </g>
    <g id="Group_26430" data-name="Group 26430" transform="translate(88.075 51.982)">
      <path id="Path_31910" data-name="Path 31910" d="M.25,2.868h.785a4.48,4.48,0,0,0,.924-.062,1.013,1.013,0,0,0,.43-.214,1.288,1.288,0,0,0,.346-.521,1.9,1.9,0,0,0,.13-.708A2.125,2.125,0,0,0,2.723.555a1.138,1.138,0,0,0-.4-.521,1.191,1.191,0,0,0-.413-.163A3.938,3.938,0,0,0,1.169-.18H.25ZM.25-.78h.767a1.788,1.788,0,0,0,1.2-.315A1.346,1.346,0,0,0,2.559-2.14a1.5,1.5,0,0,0-.339-1.112,1.729,1.729,0,0,0-1.2-.325H.25ZM-.365,3.469V-4.183H.81A5.231,5.231,0,0,1,1.922-4.1a1.4,1.4,0,0,1,.583.288,1.887,1.887,0,0,1,.512.7,2.346,2.346,0,0,1,.175.917,1.855,1.855,0,0,1-.281,1.04,1.319,1.319,0,0,1-.777.565A1.567,1.567,0,0,1,3.156,0a1.94,1.94,0,0,1,.369,1.217,2.987,2.987,0,0,1-.142.957,1.947,1.947,0,0,1-.435.721,1.624,1.624,0,0,1-.711.442,5.4,5.4,0,0,1-1.419.128Z" transform="translate(0.365 4.183)"/>
    </g>
    <g id="Group_26431" data-name="Group 26431" transform="translate(92.858 54.826)">
      <path id="Path_31911" data-name="Path 31911" d="M.257,1.033A2.3,2.3,0,0,0,.616,2.417,1.189,1.189,0,0,0,1.639,2.9a1.177,1.177,0,0,0,1.018-.531A2.507,2.507,0,0,0,3.03.913,2.169,2.169,0,0,0,2.659-.428,1.2,1.2,0,0,0,1.648-.917,1.187,1.187,0,0,0,.631-.4,2.4,2.4,0,0,0,.257,1.033M3.021,3.3V2.454a1.743,1.743,0,0,1-.571.782,1.432,1.432,0,0,1-.866.27A1.72,1.72,0,0,1,.163,2.82,2.842,2.842,0,0,1-.375,1.011,2.931,2.931,0,0,1,.156-.8a1.644,1.644,0,0,1,1.372-.7,1.577,1.577,0,0,1,.9.258,1.659,1.659,0,0,1,.59.76v-.846h.566V3.3Z" transform="translate(0.375 1.507)"/>
    </g>
    <g id="Group_26432" data-name="Group 26432" transform="translate(97.88 54.815)">
      <path id="Path_31912" data-name="Path 31912" d="M0,1.624l.541-.351a1.211,1.211,0,0,0,.388.583.984.984,0,0,0,.624.2.783.783,0,0,0,.573-.206A.735.735,0,0,0,2.338,1.3Q2.338.762,1.5.39C1.443.367,1.4.345,1.364.328A2.566,2.566,0,0,1,.457-.265,1.131,1.131,0,0,1,.2-1.021,1.33,1.33,0,0,1,.568-1.99a1.281,1.281,0,0,1,.957-.379,1.447,1.447,0,0,1,.85.244,1.4,1.4,0,0,1,.512.7l-.521.33a.939.939,0,0,0-.324-.5.892.892,0,0,0-.555-.174.648.648,0,0,0-.487.2.668.668,0,0,0-.192.489A.644.644,0,0,0,1-.608a2.433,2.433,0,0,0,.785.413,2.068,2.068,0,0,1,.909.58,1.431,1.431,0,0,1,.233.868,1.341,1.341,0,0,1-.4,1.02,1.506,1.506,0,0,1-1.082.381,1.5,1.5,0,0,1-.9-.27A1.5,1.5,0,0,1,0,1.624" transform="translate(0 2.369)"/>
    </g>
    <g id="Group_26433" data-name="Group 26433" transform="translate(101.609 54.825)">
      <path id="Path_31913" data-name="Path 31913" d="M1.3.8A1.521,1.521,0,0,0,.926-.19a1.183,1.183,0,0,0-.9-.351,1.155,1.155,0,0,0-.866.366,1.559,1.559,0,0,0-.4.973Zm.674.548H-1.283a2.49,2.49,0,0,0,.4,1.412,1.182,1.182,0,0,0,1,.512,1.235,1.235,0,0,0,.8-.276,2.042,2.042,0,0,0,.568-.838L2,2.481a2.516,2.516,0,0,1-.77,1.037A1.843,1.843,0,0,1,.117,3.85a1.792,1.792,0,0,1-1.458-.683A2.742,2.742,0,0,1-1.9,1.377,2.886,2.886,0,0,1-1.346-.462,1.756,1.756,0,0,1,.1-1.163a1.655,1.655,0,0,1,1.364.646,2.688,2.688,0,0,1,.512,1.723Z" transform="translate(1.897 1.163)"/>
    </g>
    <g id="Group_26434" data-name="Group 26434" transform="translate(109.057 54.825)">
      <path id="Path_31914" data-name="Path 31914" d="M1.432.415A2.075,2.075,0,0,0,.822.078,2.031,2.031,0,0,0,.156-.035,1.487,1.487,0,0,0-1.057.516a2.246,2.246,0,0,0-.453,1.473,1.945,1.945,0,0,0,.469,1.343,1.535,1.535,0,0,0,1.2.528,1.849,1.849,0,0,0,.673-.131A2.483,2.483,0,0,0,1.5,3.338v.7a2.264,2.264,0,0,1-.664.29,3,3,0,0,1-.782.1,1.94,1.94,0,0,1-1.539-.7,2.643,2.643,0,0,1-.6-1.785A2.682,2.682,0,0,1-1.464.1a2.07,2.07,0,0,1,1.63-.71,2.791,2.791,0,0,1,.694.083,2.106,2.106,0,0,1,.58.231Z" transform="translate(2.089 0.605)"/>
    </g>
    <g id="Group_26435" data-name="Group 26435" transform="translate(113.337 54.826)">
      <path id="Path_31915" data-name="Path 31915" d="M.257,1.033A2.3,2.3,0,0,0,.616,2.417,1.191,1.191,0,0,0,1.639,2.9a1.177,1.177,0,0,0,1.018-.531A2.507,2.507,0,0,0,3.03.913,2.169,2.169,0,0,0,2.659-.428,1.2,1.2,0,0,0,1.648-.917,1.187,1.187,0,0,0,.631-.4,2.4,2.4,0,0,0,.257,1.033M3.02,3.3V2.454a1.728,1.728,0,0,1-.57.782,1.432,1.432,0,0,1-.866.27A1.72,1.72,0,0,1,.163,2.82,2.842,2.842,0,0,1-.375,1.011,2.931,2.931,0,0,1,.156-.8a1.644,1.644,0,0,1,1.372-.7,1.577,1.577,0,0,1,.9.258,1.645,1.645,0,0,1,.588.76v-.846h.57V3.3Z" transform="translate(0.375 1.507)"/>
    </g>
    <g id="Group_26436" data-name="Group 26436" transform="translate(118.826 54.825)">
      <path id="Path_31916" data-name="Path 31916" d="M0,1.956V-2.681H.541v.716a1.744,1.744,0,0,1,.612-.666,1.564,1.564,0,0,1,.834-.222,1.377,1.377,0,0,1,1.085.438A1.791,1.791,0,0,1,3.46-1.191V1.956H2.882V-.9a1.7,1.7,0,0,0-.256-1.033.932.932,0,0,0-.792-.337,1.09,1.09,0,0,0-.957.437A2.411,2.411,0,0,0,.568-.465v2.42Z" transform="translate(0 2.853)"/>
    </g>
    <g id="Group_26437" data-name="Group 26437" transform="translate(123.414 54.826)">
      <path id="Path_31917" data-name="Path 31917" d="M.9,1.794a1.451,1.451,0,0,0,1.144-.551A2.017,2.017,0,0,0,2.517-.109,2.03,2.03,0,0,0,2.05-1.467,1.45,1.45,0,0,0,.9-2.017a1.445,1.445,0,0,0-1.141.549A2.022,2.022,0,0,0-.7-.109,2.016,2.016,0,0,0-.238,1.243,1.442,1.442,0,0,0,.9,1.794m-.019.6a1.885,1.885,0,0,1-.841-.2,2.363,2.363,0,0,1-.73-.561A2.388,2.388,0,0,1-1.158.843a2.862,2.862,0,0,1-.16-.962,2.817,2.817,0,0,1,.165-.962,2.511,2.511,0,0,1,.477-.8A2.188,2.188,0,0,1,.039-2.43a1.986,1.986,0,0,1,.846-.187,2.055,2.055,0,0,1,.863.187,2.231,2.231,0,0,1,.726.544,2.5,2.5,0,0,1,.487.811,2.71,2.71,0,0,1,.169.956,2.769,2.769,0,0,1-.165.954,2.464,2.464,0,0,1-.48.8,2.275,2.275,0,0,1-.737.561,1.988,1.988,0,0,1-.863.2" transform="translate(1.318 2.617)"/>
    </g>
    <g id="Group_26438" data-name="Group 26438" transform="translate(128.686 52.907)">
      <path id="Path_31918" data-name="Path 31918" d="M.941.209a.534.534,0,0,1,.135-.362A.415.415,0,0,1,1.4-.305a.406.406,0,0,1,.317.152.546.546,0,0,1,.13.362.522.522,0,0,1-.126.362A.407.407,0,0,1,1.4.713.425.425,0,0,1,1.071.571.516.516,0,0,1,.941.209M-.68.209A.546.546,0,0,1-.55-.153.4.4,0,0,1-.235-.305a.418.418,0,0,1,.322.152A.532.532,0,0,1,.22.209.516.516,0,0,1,.09.57.416.416,0,0,1-.235.713.412.412,0,0,1-.556.575.529.529,0,0,1-.68.209m2.5,3.364a1.539,1.539,0,0,0-.374-.988,1.183,1.183,0,0,0-.9-.351A1.146,1.146,0,0,0-.318,2.6a1.57,1.57,0,0,0-.4.973Zm.674.548H-.759a2.464,2.464,0,0,0,.4,1.412,1.181,1.181,0,0,0,1,.511,1.218,1.218,0,0,0,.794-.276A2.019,2.019,0,0,0,2,4.932l.523.324a2.505,2.505,0,0,1-.769,1.038,1.847,1.847,0,0,1-1.116.332A1.792,1.792,0,0,1-.817,5.943a2.742,2.742,0,0,1-.556-1.79A2.894,2.894,0,0,1-.822,2.313a1.751,1.751,0,0,1,1.445-.7,1.652,1.652,0,0,1,1.364.646A2.7,2.7,0,0,1,2.5,3.981Z" transform="translate(1.373 0.305)"/>
    </g>
    <g id="Group_26439" data-name="Group 26439" transform="translate(136 54.815)">
      <path id="Path_31919" data-name="Path 31919" d="M0,1.624l.541-.351a1.211,1.211,0,0,0,.388.583.984.984,0,0,0,.624.2.786.786,0,0,0,.573-.206A.735.735,0,0,0,2.338,1.3C2.338.94,2.058.638,1.5.39,1.443.367,1.4.345,1.364.328A2.566,2.566,0,0,1,.457-.265,1.131,1.131,0,0,1,.2-1.021,1.33,1.33,0,0,1,.568-1.99a1.276,1.276,0,0,1,.957-.379,1.447,1.447,0,0,1,.85.244,1.4,1.4,0,0,1,.512.7l-.521.33a.949.949,0,0,0-.324-.5.9.9,0,0,0-.555-.174.648.648,0,0,0-.487.2.668.668,0,0,0-.192.489A.644.644,0,0,0,1-.608a2.433,2.433,0,0,0,.785.413,2.068,2.068,0,0,1,.909.58,1.431,1.431,0,0,1,.233.868,1.341,1.341,0,0,1-.4,1.02,1.506,1.506,0,0,1-1.082.381,1.5,1.5,0,0,1-.9-.27A1.49,1.49,0,0,1,0,1.624" transform="translate(0 2.369)"/>
    </g>
    <g id="Group_26440" data-name="Group 26440" transform="translate(140.08 54.825)">
      <path id="Path_31920" data-name="Path 31920" d="M1.351,1.025A2.429,2.429,0,0,0,.989-.389a1.162,1.162,0,0,0-1-.514,1.209,1.209,0,0,0-1.028.5A2.252,2.252,0,0,0-1.411.968a2.306,2.306,0,0,0,.4,1.419,1.258,1.258,0,0,0,1.055.531,1.107,1.107,0,0,0,.964-.5,2.435,2.435,0,0,0,.344-1.394M-1.971,5.647V-1.321h.549v.866a1.913,1.913,0,0,1,.615-.77,1.427,1.427,0,0,1,.85-.27,1.671,1.671,0,0,1,1.392.688,2.9,2.9,0,0,1,.531,1.822,2.94,2.94,0,0,1-.517,1.82,1.639,1.639,0,0,1-1.377.683A1.478,1.478,0,0,1-.8,3.25a1.946,1.946,0,0,1-.619-.792V5.647Z" transform="translate(1.971 1.495)"/>
    </g>
    <g id="Group_26441" data-name="Group 26441" transform="translate(144.859 54.826)">
      <path id="Path_31921" data-name="Path 31921" d="M.9,1.794a1.451,1.451,0,0,0,1.144-.551A2.017,2.017,0,0,0,2.517-.109,2.03,2.03,0,0,0,2.05-1.467,1.45,1.45,0,0,0,.9-2.017a1.445,1.445,0,0,0-1.141.549A2.022,2.022,0,0,0-.7-.109,2.016,2.016,0,0,0-.238,1.243,1.442,1.442,0,0,0,.9,1.794m-.019.6a1.885,1.885,0,0,1-.841-.2,2.363,2.363,0,0,1-.73-.561A2.388,2.388,0,0,1-1.158.843a2.862,2.862,0,0,1-.16-.962,2.817,2.817,0,0,1,.165-.962,2.511,2.511,0,0,1,.477-.8A2.188,2.188,0,0,1,.039-2.43a1.986,1.986,0,0,1,.846-.187,2.055,2.055,0,0,1,.863.187,2.231,2.231,0,0,1,.726.544,2.5,2.5,0,0,1,.487.811,2.71,2.71,0,0,1,.169.956,2.769,2.769,0,0,1-.165.954,2.464,2.464,0,0,1-.48.8,2.293,2.293,0,0,1-.737.561,1.988,1.988,0,0,1-.863.2" transform="translate(1.318 2.617)"/>
    </g>
    <g id="Group_26442" data-name="Group 26442" transform="translate(150.482 54.826)">
      <path id="Path_31922" data-name="Path 31922" d="M.231.448A2.8,2.8,0,0,1,.848-.4a1.072,1.072,0,0,1,.7-.249A1.2,1.2,0,0,1,1.8-.629a1.482,1.482,0,0,1,.243.074L1.853.051A1.689,1.689,0,0,0,1.66,0a.952.952,0,0,0-.19-.02A1.043,1.043,0,0,0,.593.521,2.4,2.4,0,0,0,.231,1.876V4.155H-.337V-.482H.231Z" transform="translate(0.337 0.654)"/>
    </g>
    <g id="Group_26443" data-name="Group 26443" transform="translate(152.828 53.096)">
      <path id="Path_31923" data-name="Path 31923" d="M.306,1H-.447V.447H.306v-1.9h.56v1.9h.823V1H.866V5.084H.306Z" transform="translate(0.447 1.454)"/>
    </g>
    <g id="Group_26444" data-name="Group 26444" transform="translate(158.535 54.825)">
      <path id="Path_31924" data-name="Path 31924" d="M0,1.956V-2.681H.541v.716a1.744,1.744,0,0,1,.612-.666,1.564,1.564,0,0,1,.834-.222,1.377,1.377,0,0,1,1.085.438A1.791,1.791,0,0,1,3.46-1.191V1.956H2.882V-.9a1.7,1.7,0,0,0-.256-1.033.932.932,0,0,0-.792-.337,1.09,1.09,0,0,0-.957.437A2.411,2.411,0,0,0,.568-.465v2.42Z" transform="translate(0 2.853)"/>
    </g>
    <g id="Group_26445" data-name="Group 26445" transform="translate(163.096 54.826)">
      <path id="Path_31925" data-name="Path 31925" d="M.257,1.033A2.3,2.3,0,0,0,.616,2.417,1.191,1.191,0,0,0,1.639,2.9a1.177,1.177,0,0,0,1.018-.531A2.507,2.507,0,0,0,3.03.913,2.169,2.169,0,0,0,2.659-.428,1.2,1.2,0,0,0,1.648-.917,1.187,1.187,0,0,0,.631-.4,2.4,2.4,0,0,0,.257,1.033M3.02,3.3V2.454a1.728,1.728,0,0,1-.57.782,1.432,1.432,0,0,1-.866.27A1.72,1.72,0,0,1,.163,2.82,2.842,2.842,0,0,1-.375,1.011,2.931,2.931,0,0,1,.156-.8a1.644,1.644,0,0,1,1.372-.7,1.577,1.577,0,0,1,.9.258,1.645,1.645,0,0,1,.588.76v-.846h.57V3.3Z" transform="translate(0.375 1.507)"/>
    </g>
    <g id="Group_26446" data-name="Group 26446" transform="translate(167.951 53.096)">
      <path id="Path_31926" data-name="Path 31926" d="M.306,1H-.447V.447H.306v-1.9h.56v1.9h.823V1H.866V5.084H.306Z" transform="translate(0.447 1.454)"/>
    </g>
    <g id="Group_26447" data-name="Group 26447" transform="translate(170.933 54.998)">
      <path id="Path_31927" data-name="Path 31927" d="M.231,0V2.316A3.032,3.032,0,0,0,.5,3.806a.969.969,0,0,0,.9.433A.979.979,0,0,0,2.3,3.8a2.965,2.965,0,0,0,.273-1.485V0h.563V2.645a2.621,2.621,0,0,1-.438,1.64A1.543,1.543,0,0,1,1.4,4.841a1.56,1.56,0,0,1-1.3-.556,2.6,2.6,0,0,1-.443-1.64V0Z" transform="translate(0.337)"/>
    </g>
    <g id="Group_26448" data-name="Group 26448" transform="translate(175.918 54.826)">
      <path id="Path_31928" data-name="Path 31928" d="M.231.448A2.8,2.8,0,0,1,.848-.4a1.072,1.072,0,0,1,.7-.249A1.2,1.2,0,0,1,1.8-.629a1.482,1.482,0,0,1,.243.074L1.853.051A1.689,1.689,0,0,0,1.66,0a.952.952,0,0,0-.19-.02A1.043,1.043,0,0,0,.593.521,2.4,2.4,0,0,0,.231,1.876V4.155H-.337V-.482H.231Z" transform="translate(0.337 0.654)"/>
    </g>
    <g id="Group_26449" data-name="Group 26449" transform="translate(178.547 54.825)">
      <path id="Path_31929" data-name="Path 31929" d="M1.3.8A1.521,1.521,0,0,0,.926-.19a1.183,1.183,0,0,0-.9-.351,1.155,1.155,0,0,0-.866.366,1.559,1.559,0,0,0-.4.973Zm.674.548H-1.283a2.49,2.49,0,0,0,.4,1.412,1.182,1.182,0,0,0,1,.512,1.235,1.235,0,0,0,.8-.276,2.042,2.042,0,0,0,.568-.838L2,2.481a2.516,2.516,0,0,1-.77,1.037A1.843,1.843,0,0,1,.117,3.85a1.792,1.792,0,0,1-1.458-.683A2.742,2.742,0,0,1-1.9,1.377,2.886,2.886,0,0,1-1.346-.462,1.756,1.756,0,0,1,.1-1.163a1.655,1.655,0,0,1,1.364.646,2.688,2.688,0,0,1,.512,1.723Z" transform="translate(1.897 1.163)"/>
    </g>
    <g id="Group_26450" data-name="Group 26450" transform="translate(24.854 49.61)">
      <path id="Path_31930" data-name="Path 31930" d="M5.652,4.058Q4.886,1.61,4.12-.84,3.286-3.379,2.453-5.919a6.49,6.49,0,0,1-1.3,1.667C1-4.112-1.231-2.1-2.568-2.779c-.905-.462-.745-1.836-1.532-2.016-.509-.116-1.048.351-1.4.72Q-6.869-.007-8.245,4.063l13.9-.005" transform="translate(8.245 5.919)" fill="#94ec23"/>
    </g>
  </g>
</svg>
