<svg xmlns="http://www.w3.org/2000/svg" width="516.212" height="167.951" viewBox="0 0 516.212 167.951">
  <g id="Group_26841" data-name="Group 26841" transform="translate(-731.107 -718.892)">
    <g id="Group_26837" data-name="Group 26837" transform="translate(731.107 718.892)">
      <path id="Path_41292" data-name="Path 41292" d="M1246.039,796.619c-.194-11.614.312-24.666-4.017-35.593a4.167,4.167,0,0,0-1.252-1.691,4.113,4.113,0,0,0-2.046-4.848c-7.488-4.686-14.625-10.708-23.01-13.733-8.105-2.922-17.654-6.334-26.269-6.916-9.445-.64-17.563,2.542-25.126,7.984-1.853,1.332-3.587,2.8-5.5,4.038-1.336.867-3.318,1.142-3.255,1.354-3.965-1.022-8.665-4.884-12.046-6.707-7.37-3.976-13.555-9.488-20.861-13.437-7.042-3.808-15.142-4.55-23.043-4.9-16.423-4.986-37.438-5.053-50.094,5.28a8.055,8.055,0,0,0-1.265,1.29c-4.948,2.651-10.041,5.046-14.586,8.391-5.913,4.352-9.6,11.4-16.179,14.6-6.348,3.095-12.556,5.715-18.462,9.684-5.712,3.837-10.906,8.89-16.892,12.335a56.328,56.328,0,0,0-9.882-7.4,38.378,38.378,0,0,0-28.653-4.4c0-.05,0-.1.005-.152a9.753,9.753,0,0,0-1.636.592,35.875,35.875,0,0,0-3.441,1.222c-11.967,3.783-24.923,10.581-33.8,19.875-5.1-5.055-11.564-8.776-18.669-8.435a20.766,20.766,0,0,0-5.307-.517c-3.05.121-5.986,1.09-8.987,1.568a23.95,23.95,0,0,0-5.938,1.57,3.385,3.385,0,0,1-4.008-2.137c-.815-1.78-.992-3.794-1.582-5.649a10.088,10.088,0,0,0-2.852-4.438,7.016,7.016,0,0,0-2.321-1.439,1.531,1.531,0,0,0-1.165-.5c-2.162-.1-4.162-1.209-6.379-.856-1.745.278-2.7,1.431-3.68,2.784a35.5,35.5,0,0,0-3.063,5.464c-.4.833-.847,1.646-1.283,2.462-.451-1.256-.981-2.487-1.505-3.712q-.573-1.343-1.084-2.706a13.484,13.484,0,0,0-.755-4.235c-.919-2.326-3.143-4.085-4.993-5.66-4.094-3.487-7.786-7.618-13.039-9.358a15.114,15.114,0,0,0-14.561,2.927c-2.809,2.447-4.675,5.826-7.47,8.3-.239.209-.492.4-.737.6-.094.077-.551.241-.262.219-.851.062-1.548-1.163-1.943-1.766a15.172,15.172,0,0,0-4.4-4.825,9.1,9.1,0,0,0-5.867-1.42,2.066,2.066,0,0,0-.833-.228,8.323,8.323,0,0,0-2.044.155c-6.666.737-12.242,4.862-15.993,10.43-2.3,3.407-4.079,7.262-4.074,11.445,0,2.091.166,4.179.166,6.275a36.2,36.2,0,0,0,.162,3.819c-4.782-1.52-9.936-3.238-14.686-1.407-6.416,2.472-5.626,10.628-5.544,16.395-.005.205,0,.412.007.619v.1a24.344,24.344,0,0,0,1.614,9.866c-.715.043-1.438.075-2.108.105a15.124,15.124,0,0,0-6.482,1.288c-.064.034-.116.075-.178.111-1.959,2.048-2.066,4.932-1.464,7.863a21.054,21.054,0,0,0,.949,6.935c.869,3.395,1.641,6.816,2.57,10.194.442,1.6.938,3.189,1.529,4.743.391,1.029.781,2.611,1.627,3.4a3.008,3.008,0,0,0,2.34.453,32.843,32.843,0,0,0,4.938-.15,3.038,3.038,0,0,0,.737-.291c.271,0,.541,0,.812.007a18.958,18.958,0,0,0,1.959.12c.539,0,1.076-.03,1.614-.057a21.461,21.461,0,0,0,5.963.612c4.313.055,8.633-.061,12.945-.146,5.589-.112,11.182-.071,16.773-.132,5.417-.057,10.949-.425,16.355-.037,4.313.309,8.819,1.347,13.114.467a398.171,398.171,0,0,0,48.007-1.345,108.76,108.76,0,0,1,13.637-.451c1.67.062,3.339.125,5.007.173a90.321,90.321,0,0,0,26.888,2.46c9.989-.73,19.695-2.508,29.659-2.565a9.385,9.385,0,0,0,2.417.2c.323-.009.644,0,.965-.009,2.016.137,4.088.089,6.163.093.205,0,.387-.028.583-.037,8.327.343,16.609,1.4,24.946,1.042,10.092,4.527,23.528,2.224,33.872.779,13.154-1.839,26.373-1.771,39.548-2.679,3.118.439,6.245.771,9.176,1.245,9.229,1.495,18.906,1.543,28.237,1.628,19.668.177,39.247-2.194,58.938-1.862,9.524.159,18.935,1.691,28.439,1.882,9.258.185,18.508-.833,27.768-.671,8.428.148,18.774,1.755,27.534-.417,7.552,2.706,20.494-.965,19.86-8.687C1246.237,822.53,1246.253,809.571,1246.039,796.619Z" transform="translate(-731.107 -718.892)" fill="#388d56"/>
      <path id="Path_41293" data-name="Path 41293" d="M791.837,749.995,791.8,750h0Z" transform="translate(-683.538 -694.515)" fill="#388d56"/>
    </g>
    <g id="Group_26838" data-name="Group 26838" transform="translate(771.136 756.837)">
      <path id="Path_41294" data-name="Path 41294" d="M858.954,796.331a6.739,6.739,0,0,0-6.231-3.493l-.225-.144-.005.005c-.07-.045-.13-.095-.2-.136a1.636,1.636,0,0,0-1.236-.062c-6.9-2.553-15.449-3.163-22.607-4.138-6.832-.929-15.18-1.927-22.226-.469a10.555,10.555,0,0,1-1.063-.139c-.109-.144-.221-.285-.328-.43a53.7,53.7,0,0,1-5.6-9.368,39.7,39.7,0,0,1-2.9-8.906,11.325,11.325,0,0,0,.05-7.171,6.273,6.273,0,0,0-.5-.985c.355.59,2.945-1.224,5.348-3.13,2.037-1.616,3.94-3.3,4.233-3.637,3.107-3.617,3.594-9,1.671-13.585-.189-.451-.844-.412-1.17-.316a22.2,22.2,0,0,0-11,7.659,15.845,15.845,0,0,0-3.373,8.593,16.87,16.87,0,0,0-8.446-.892c-3.464.366-7.74,1.143-10.544,3.773-.141.13-.255.273-.38.41-4.782-5.983-10.383-11.687-17.8-10.619a.9.9,0,0,0-.862.788c-.187,2.125.865,4.417,1.718,6.2a31.823,31.823,0,0,0,4.042,6.446c3.016,3.66,7.328,3.978,11.493,3.928a10.03,10.03,0,0,0,.8,3.987,12.636,12.636,0,0,0,1.224,3.25,34.778,34.778,0,0,0,2.793,4.557,38.862,38.862,0,0,0,3.523,4.379,17.054,17.054,0,0,0,.994,1.438,4.625,4.625,0,0,0,5.383,1.632,6.844,6.844,0,0,0,1.322-.676,92.054,92.054,0,0,0,3.305,9.561,78.837,78.837,0,0,0,8.371,15.726,28.246,28.246,0,0,0,3.867,4.647c-.013.068-.023.134-.036.2q-.393,1.539-.808,3.073a.722.722,0,0,0-.116.325c-.005.066-.018.132-.023.2-1.379,5.077-4.873,17.736-6.056,22.845q-.586,2.528-1.174,5.055a15.228,15.228,0,0,0-.61,4.786,1.745,1.745,0,0,0,2.5,1.611,2.506,2.506,0,0,0,.9-.537,1.322,1.322,0,0,0,.2-.091,2,2,0,0,0,.421-.364,1.835,1.835,0,0,0,.244-.362c.02-.034.032-.071.05-.105a.473.473,0,0,0,.207-.277c1.636-6.648,5.253-20.916,6.819-27.589a12.05,12.05,0,0,0,.294,1.482.689.689,0,0,0,.178.292c.148,6.577.328,21.8.51,28.383.009.3.332.491.54.539,1.962.458,4.4.212,4.806-2.581a19.564,19.564,0,0,0,.025-3.755c-.1-2.066-.059-12.786-.087-14.854-.059-4.449-.032-8.9-.166-13.343,8.93.307,18.74-3.623,27.458-5.314a28.644,28.644,0,0,0,8.171-2.479,19.341,19.341,0,0,0,3.346-.788c.7-.234,1.513-.5,2.285-.84a9.151,9.151,0,0,0,3.145-.771c3.35-1.591,3.543-5.333,2.635-8.6-.007-.3-.034-.6-.064-.892-.029-.271-.061-.544-.082-.817,0-.045,0-.087-.005-.134a.491.491,0,0,0,.128-.448l-.014-.045c.592-.048,1.272-.244,1.345-.79A2.293,2.293,0,0,0,858.954,796.331Z" transform="translate(-753.548 -740.164)" fill="#f5a76e"/>
      <path id="Path_41295" data-name="Path 41295" d="M783.464,761.718c-.007-.077-.005-.168-.009-.248a25.855,25.855,0,0,1-.92-2.583c-.243-.79-.558-1.579-.8-2.38a1.121,1.121,0,0,0-.516.446c-.689,1.379-.871,2.966-1.5,4.39a27.03,27.03,0,0,1-2.479,4.3,30.046,30.046,0,0,1-2.809,3.607c-.193.2-.382.4-.569.6-.189.171-.367.355-.558.523l-.116.1a12.31,12.31,0,0,1-.963,1.34c-.055.07-.12.134-.177.2l0,0c.123.367.218.744.314,1.118.193.762.387,1.523.64,2.269l.016.032c.039.057.1.095.127.164.07.185.1.378.161.567.25.589.528,1.167.821,1.734a5.1,5.1,0,0,1,.492,1.279c.061.287.1.578.151.867.125.328.252.655.38.983.549,1.422,1.256,2.79,1.818,4.208a2.29,2.29,0,0,0,.293.194c.724.335,2.226.118,2.278-.869a5.686,5.686,0,0,0-.978-3.179c.043.014.075.043.12.053a1.889,1.889,0,0,0,2.538-1.875,13.414,13.414,0,0,0-.5-1.975c-.248-1.022-.389-2.083-.731-3.079-.055-.162-.139-.31-.209-.466.519-.05,1.081-.253,1.2-.708a5.494,5.494,0,0,0-.159-2.868,1.14,1.14,0,0,0,.662-.585,5.2,5.2,0,0,0,.269-2.506,1.209,1.209,0,0,0,1.015-.71,6.509,6.509,0,0,0,.029-2.891,1.382,1.382,0,0,0,.23-.171A2.458,2.458,0,0,0,783.464,761.718Z" transform="translate(-739.051 -727.355)" fill="#f5883b"/>
      <path id="Path_41296" data-name="Path 41296" d="M766.3,753.166c-.139-.082-.264-.319-.424-.435a3.333,3.333,0,0,0-1.008-.435c-.346-.105-.7-.225-1.054-.334a.365.365,0,0,0-.055-.15,18.484,18.484,0,0,0-1.468-1.327,8.188,8.188,0,0,0-.8-.806c-.209-.162-.437-.294-.64-.466a12.222,12.222,0,0,0-1.415-1.142,3.127,3.127,0,0,0-1.106-.4.559.559,0,0,0-.02-.1c-.2-.469-.936-.489-1.341-.384a1.226,1.226,0,0,0-.876.769,2.622,2.622,0,0,0,.094,1.96,2.565,2.565,0,0,0,1.288,1.318,2.52,2.52,0,0,0,2.274-.07c.068.068.137.137.205.211a.55.55,0,0,0-.086.71l-.013.036c-.052.127-.1.252-.164.373-.1.2-.223.391-.305.6-.161.41.323.7.64.778a1.8,1.8,0,0,0,1.457-.266c.137-.1.262-.219.394-.33.018-.016.054-.037.086-.061l.043.011a2.886,2.886,0,0,1,.428.139c.4.162.8.3,1.2.441a3.588,3.588,0,0,1,.73.553,1.8,1.8,0,0,0,1.937.011C766.852,754.009,766.868,753.5,766.3,753.166Z" transform="translate(-751.677 -734.704)" fill="#f5883b"/>
      <path id="Path_41297" data-name="Path 41297" d="M785.931,744.583q.254-.217.508-.428c.28-.216.564-.428.86-.63a.415.415,0,0,0,.016-.726,1.261,1.261,0,0,0-1.172-.055c-.063.029-.111.071-.173.1l0,0-.161.1a14.984,14.984,0,0,0-3.15,2.173,1.233,1.233,0,0,0-.437.316,33.959,33.959,0,0,0-2.476,2.9,6.7,6.7,0,0,0-1.448,2.9.417.417,0,0,0,.018.109,16.636,16.636,0,0,0-1.686,3.132c-.308.785,1.448.8,1.764.309.931-1.457,1.894-2.859,2.931-4.22.155.034.31.066.464.1a.991.991,0,0,1,.291.082c.166.093.251.31.407.433a1.891,1.891,0,0,0,2.337-.257c.844-.89-.323-1.705-1.236-1.9l.262-.182c.362-.25.7-.526,1.047-.8.387-.3,1.052-.585,1.188-1.1.166-.631-.64-.97-1.117-1.079-.093-.021-.193-.018-.287-.034.2-.212.391-.433.594-.644S785.708,744.776,785.931,744.583Z" transform="translate(-735.486 -738.234)" fill="#f5883b"/>
      <path id="Path_41298" data-name="Path 41298" d="M776.763,763.646a19.271,19.271,0,0,0,1.359-4.87,16.938,16.938,0,0,0-.6-7.246" transform="translate(-735.352 -731.256)" fill="none" stroke="#a64c1a" stroke-miterlimit="10" stroke-width="0.258"/>
      <path id="Path_41299" data-name="Path 41299" d="M772.7,769.327c2.749-3.419,5.571-7.008,7.242-11" transform="translate(-738.534 -725.932)" fill="none" stroke="#a64c1a" stroke-miterlimit="10" stroke-width="0.258"/>
      <path id="Path_41300" data-name="Path 41300" d="M769.2,764.163a3.486,3.486,0,0,0,4.936-.491,5.245,5.245,0,0,0-4.9.137" transform="translate(-741.278 -722.163)" fill="#a64c1a" stroke="#a64c1a" stroke-miterlimit="10" stroke-width="0.258"/>
      <path id="Path_41301" data-name="Path 41301" d="M776.732,754.976a18.106,18.106,0,0,1,9.4-12.269,1.233,1.233,0,0,1,.847-.187c.583.159.6,1.054.191,1.5a5.208,5.208,0,0,1-1.575.872c-.539.275-1.056.822-.91,1.409a2.836,2.836,0,0,1,1.705.326,5.341,5.341,0,0,1-2.845,2.463,1.291,1.291,0,1,1-.246,2.5c-.535-.18-.906-.694-1.438-.887s-1.316.35-.979.8" transform="translate(-735.377 -738.336)" fill="none" stroke="#a64c1a" stroke-miterlimit="10" stroke-width="0.258"/>
      <path id="Path_41302" data-name="Path 41302" d="M767.066,754.407a50.349,50.349,0,0,0-8.612-6.935,2.278,2.278,0,0,0-1.641-.51c-1.063.236-1.229,1.709-.906,2.749a3.607,3.607,0,0,0,1.6,2.208,1.862,1.862,0,0,0,2.458-.578c.5.337.16,1.1-.145,1.623s-.314,1.456.289,1.454a1.084,1.084,0,0,0,.537-.227,3.392,3.392,0,0,1,3.384-.059" transform="translate(-751.814 -734.86)" fill="none" stroke="#a64c1a" stroke-miterlimit="10" stroke-width="0.258"/>
      <path id="Path_41303" data-name="Path 41303" d="M775.727,757.113a.762.762,0,0,0-.583,1.147.8.8,0,0,0,1.306-.136.841.841,0,0,0-.721-1.129" transform="translate(-736.71 -726.973)" fill="#a64c1a"/>
      <path id="Path_41304" data-name="Path 41304" d="M765.449,757.9a.955.955,0,0,0,1.265,1.422,3.093,3.093,0,0,0-1.159-1.4" transform="translate(-744.413 -726.265)" fill="#a64c1a"/>
      <path id="Path_41305" data-name="Path 41305" d="M775.64,773.626a72.26,72.26,0,0,0,8.744,13.282,26.355,26.355,0,0,1,2.6,3.43c2.067,3.546,2.01,7.891,1.894,11.994" transform="translate(-736.232 -713.938)" fill="none" stroke="#a64c1a" stroke-miterlimit="10" stroke-width="0.258"/>
      <path id="Path_41306" data-name="Path 41306" d="M802.115,773.262c-1.081,2.925.064,6.25,1.876,8.787s4.249,4.563,6.22,6.98c4.242,5.2,6.108,11.96,6.976,18.619" transform="translate(-715.811 -714.224)" fill="none" stroke="#a64c1a" stroke-miterlimit="10" stroke-width="0.258"/>
    </g>
    <path id="Path_41307" data-name="Path 41307" d="M1193.606,840.329c-.185-7.271.323-14.474.717-21.726.294-5.428.532-10.861.671-16.295a.8.8,0,0,1-.376-.507c-1.265-7.2-.55-14.463-.182-21.716a.984.984,0,0,1-.633-.608c-2.436-8.962-1.076-18.341-.292-27.5a18.117,18.117,0,0,0-4.729,1.748c-14.72-3.236-31.76.034-45.108,5.068-8.833,3.33-16.341,8.651-23.86,14.249-7.856,5.847-14.773,11.206-25.071,9.829-11.459-1.534-21.644-7.8-31.557-13.311a83.074,83.074,0,0,0-30.119-10.169,77.656,77.656,0,0,0-24.015,1c-5.485.169-11.839,2.563-15.281,4.065-6.609,2.882-11.705,7.608-16.935,12.438-1.812,1.673-3.776,3.229-5.578,4.905-4.912-2.972-9.941-4.238-16.944-2.727a48.618,48.618,0,0,0-9.75,3.188,25.474,25.474,0,0,0-4.245.2,6.1,6.1,0,0,0-1.192-.278c-9.9-1.142-16.389,7.624-25.371,9.286-3.116.578-6.894-2.9-10.39-3.658a17.349,17.349,0,0,0-4.133-.43c-5.492-1-9.518.037-14.8,1.671-5.141,1.591-10.428.851-15.553,2.859-3.994,1.566-4.215,2.7-8.127.608a18.719,18.719,0,0,0-5.225-2.356c-3.4-.719-6.607.141-9.711,1.363-.287-.027-.559-.087-.853-.089-5.4-2.761-13.261-1.448-18.564,2.16a13.445,13.445,0,0,0-8.692,1.315c-5.489,3.072-4.383,6.605-2.972,10.813a10.108,10.108,0,0,0-4.795,2.46c-5.651,3.073-8.721,10.378-7.437,17.591A16.6,16.6,0,0,0,789.6,831.24c-2.713,3.038-2.774,4.961-2.654,8.673.1,3.091-.116,6.643,1.076,10.078-2.115,1.545-3.637,3.63-3.25,6.163a3.633,3.633,0,0,0-.644,1.441,9.67,9.67,0,0,0,.822,1.457,8.91,8.91,0,0,1,.985.367,1.78,1.78,0,0,1,.446.3c1.217-.007,2.428.03,3.63.137a3.67,3.67,0,0,1,.865-.148c7.215-.217,14.575-.713,21.764.259a4.572,4.572,0,0,1,.726-.061c.954,0,1.907,0,2.861,0a2.941,2.941,0,0,1,.906.157c.507.025,1.011.063,1.518.066a2.95,2.95,0,0,1,.74.107c8.548-.057,17.1.223,25.652.128,7.572,1.2,15.594.134,23.144-.36,7.337-.478,14.762-1.036,22.167-1.472a5.466,5.466,0,0,0,1.115.1c8.61-.239,16.926,2.329,25.518,2.233a136.073,136.073,0,0,0,14.639-.84c11.717,1.693,22.734-.985,34.7-1.85,11.923-.862,23.96-.36,35.945-.348a47.512,47.512,0,0,0,8.74-.271c.271-.03.587-.086.906-.141q7.559.415,15.157.314a26.751,26.751,0,0,0,6.661-.878c6.163.169,12.326-.066,17.806.185,17.092.785,33.893-2.415,50.9-3.307,16.712-.876,33.442,1.186,50.165.781,13.767-.332,27.786.906,41.539-.287C1193.968,849.59,1193.726,844.961,1193.606,840.329Z" transform="translate(41.554 25.931)" fill="#43a567"/>
    <g id="Group_26839" data-name="Group 26839" transform="translate(837.774 789.878)" opacity="0.6">
      <path id="Path_41308" data-name="Path 41308" d="M790.906,801.373a22.488,22.488,0,0,1,1.843,8.9" transform="translate(-790.906 -725.233)" fill="none" stroke="#8dcd65" stroke-miterlimit="10" stroke-width="0.587"/>
      <path id="Path_41309" data-name="Path 41309" d="M800.048,809.265v-5.189" transform="translate(-783.741 -723.114)" fill="none" stroke="#8dcd65" stroke-miterlimit="10" stroke-width="0.587"/>
      <path id="Path_41310" data-name="Path 41310" d="M799.245,797.982l1.529-7.4" transform="translate(-784.37 -733.694)" fill="none" stroke="#8dcd65" stroke-miterlimit="10" stroke-width="0.587"/>
      <path id="Path_41311" data-name="Path 41311" d="M806.12,787.264a34.538,34.538,0,0,1,4.7-5.658" transform="translate(-778.982 -740.726)" fill="none" stroke="#8dcd65" stroke-miterlimit="10" stroke-width="0.587"/>
      <path id="Path_41312" data-name="Path 41312" d="M807.736,795.97a18.514,18.514,0,0,0,.76,5.929" transform="translate(-777.724 -729.468)" fill="none" stroke="#8dcd65" stroke-miterlimit="10" stroke-width="0.587"/>
      <path id="Path_41313" data-name="Path 41313" d="M808.984,805.946v2.224" transform="translate(-776.737 -721.649)" fill="none" stroke="#8dcd65" stroke-miterlimit="10" stroke-width="0.587"/>
      <path id="Path_41314" data-name="Path 41314" d="M813.781,794.937a26.688,26.688,0,0,1,2.854-7.1" transform="translate(-772.977 -735.84)" fill="none" stroke="#8dcd65" stroke-miterlimit="10" stroke-width="0.587"/>
      <path id="Path_41315" data-name="Path 41315" d="M816.037,799.714l1.092,5.935" transform="translate(-771.209 -726.533)" fill="none" stroke="#8dcd65" stroke-miterlimit="10" stroke-width="0.587"/>
      <path id="Path_41316" data-name="Path 41316" d="M816.258,778.513" transform="translate(-771.036 -743.15)" fill="none" stroke="#8dcd65" stroke-miterlimit="10" stroke-width="0.587"/>
      <path id="Path_41317" data-name="Path 41317" d="M825.353,803.144l-2.57,8.266" transform="translate(-765.922 -723.845)" fill="none" stroke="#8dcd65" stroke-miterlimit="10" stroke-width="0.587"/>
      <path id="Path_41318" data-name="Path 41318" d="M824.2,793.5a19.6,19.6,0,0,1,10.637,6.9" transform="translate(-764.814 -731.407)" fill="none" stroke="#8dcd65" stroke-miterlimit="10" stroke-width="0.587"/>
      <path id="Path_41319" data-name="Path 41319" d="M823.667,788.652a8.329,8.329,0,0,1,5.294-5.045" transform="translate(-765.229 -739.157)" fill="none" stroke="#8dcd65" stroke-miterlimit="10" stroke-width="0.587"/>
      <path id="Path_41320" data-name="Path 41320" d="M821.947,781.446l5.144-2.792" transform="translate(-766.577 -743.039)" fill="none" stroke="#8dcd65" stroke-miterlimit="10" stroke-width="0.587"/>
      <path id="Path_41321" data-name="Path 41321" d="M834.265,785.012a28.9,28.9,0,0,1,11.4-7.13" transform="translate(-756.923 -743.644)" fill="none" stroke="#8dcd65" stroke-miterlimit="10" stroke-width="0.587"/>
      <path id="Path_41322" data-name="Path 41322" d="M835.956,790.809a32.938,32.938,0,0,0,7.153-2.333" transform="translate(-755.597 -735.341)" fill="none" stroke="#8dcd65" stroke-miterlimit="10" stroke-width="0.587"/>
      <path id="Path_41323" data-name="Path 41323" d="M833.516,806.586a12.061,12.061,0,0,0,5.207-.937" transform="translate(-757.51 -721.881)" fill="none" stroke="#8dcd65" stroke-miterlimit="10" stroke-width="0.587"/>
      <path id="Path_41324" data-name="Path 41324" d="M838.194,799.708a48.671,48.671,0,0,1,10.679-1.718" transform="translate(-753.843 -727.884)" fill="none" stroke="#8dcd65" stroke-miterlimit="10" stroke-width="0.587"/>
      <path id="Path_41325" data-name="Path 41325" d="M844.506,782.987a14.59,14.59,0,0,1,6.188-.958" transform="translate(-748.896 -740.417)" fill="none" stroke="#8dcd65" stroke-miterlimit="10" stroke-width="0.587"/>
      <path id="Path_41326" data-name="Path 41326" d="M851.763,787.99a31.328,31.328,0,0,1,5.938-6.43" transform="translate(-743.208 -740.762)" fill="none" stroke="#8dcd65" stroke-miterlimit="10" stroke-width="0.587"/>
      <path id="Path_41327" data-name="Path 41327" d="M860.246,780.177l8.441-4.12" transform="translate(-736.56 -745.075)" fill="none" stroke="#8dcd65" stroke-miterlimit="10" stroke-width="0.587"/>
      <path id="Path_41328" data-name="Path 41328" d="M845.5,806.322c-.021-.161-.289.055-.171.166s.309.03.448-.05q2.705-1.6,5.4-3.216" transform="translate(-748.273 -723.784)" fill="none" stroke="#8dcd65" stroke-miterlimit="10" stroke-width="0.587"/>
      <path id="Path_41329" data-name="Path 41329" d="M851.928,799.331l4.952-5.861" transform="translate(-743.079 -731.427)" fill="none" stroke="#8dcd65" stroke-miterlimit="10" stroke-width="0.587"/>
      <path id="Path_41330" data-name="Path 41330" d="M859.767,791.814a23.31,23.31,0,0,1,9.834-6" transform="translate(-736.935 -737.428)" fill="none" stroke="#8dcd65" stroke-miterlimit="10" stroke-width="0.587"/>
      <path id="Path_41331" data-name="Path 41331" d="M859.933,799.108l6.495-.51" transform="translate(-736.805 -727.408)" fill="none" stroke="#8dcd65" stroke-miterlimit="10" stroke-width="0.587"/>
      <path id="Path_41332" data-name="Path 41332" d="M858.377,806.111a73.879,73.879,0,0,0,11.421.678" transform="translate(-738.025 -721.519)" fill="none" stroke="#8dcd65" stroke-miterlimit="10" stroke-width="0.587"/>
      <path id="Path_41333" data-name="Path 41333" d="M845.725,792.089a11.472,11.472,0,0,1,3.418-.772" transform="translate(-747.941 -733.114)" fill="none" stroke="#8dcd65" stroke-miterlimit="10" stroke-width="0.587"/>
      <path id="Path_41334" data-name="Path 41334" d="M884.993,785.628a13.876,13.876,0,0,1,2.471-8.694" transform="translate(-717.182 -744.387)" fill="none" stroke="#8dcd65" stroke-miterlimit="10" stroke-width="0.587"/>
      <path id="Path_41335" data-name="Path 41335" d="M892.2,775.213a34.268,34.268,0,0,1,6.9-5.323" transform="translate(-711.518 -749.908)" fill="none" stroke="#8dcd65" stroke-miterlimit="10" stroke-width="0.587"/>
      <path id="Path_41336" data-name="Path 41336" d="M904.54,766.839a24.37,24.37,0,0,1,7.371-1.907" transform="translate(-701.844 -753.794)" fill="none" stroke="#8dcd65" stroke-miterlimit="10" stroke-width="0.587"/>
      <path id="Path_41337" data-name="Path 41337" d="M884.717,787.844a19.962,19.962,0,0,0-7.668,5.542" transform="translate(-723.39 -735.836)" fill="none" stroke="#8dcd65" stroke-miterlimit="10" stroke-width="0.587"/>
      <path id="Path_41338" data-name="Path 41338" d="M875.048,796.69A17.2,17.2,0,0,0,871,804.118" transform="translate(-728.129 -728.903)" fill="none" stroke="#8dcd65" stroke-miterlimit="10" stroke-width="0.587"/>
      <path id="Path_41339" data-name="Path 41339" d="M878.219,809.9a12.1,12.1,0,0,1,2.594-9.572" transform="translate(-722.594 -726.054)" fill="none" stroke="#8dcd65" stroke-miterlimit="10" stroke-width="0.587"/>
      <path id="Path_41340" data-name="Path 41340" d="M885.03,798.3a17.993,17.993,0,0,1,6.356-5.838" transform="translate(-717.135 -732.215)" fill="none" stroke="#8dcd65" stroke-miterlimit="10" stroke-width="0.587"/>
      <path id="Path_41341" data-name="Path 41341" d="M891.958,789.791a31.466,31.466,0,0,1,1.534-8.359" transform="translate(-711.705 -740.862)" fill="none" stroke="#8dcd65" stroke-miterlimit="10" stroke-width="0.587"/>
      <path id="Path_41342" data-name="Path 41342" d="M899.289,779.26a15.693,15.693,0,0,1,8.405-5.719" transform="translate(-705.959 -747.047)" fill="none" stroke="#8dcd65" stroke-miterlimit="10" stroke-width="0.587"/>
      <path id="Path_41343" data-name="Path 41343" d="M888.643,808.917a13.8,13.8,0,0,1,5.715-7.809" transform="translate(-714.303 -725.441)" fill="none" stroke="#8dcd65" stroke-miterlimit="10" stroke-width="0.587"/>
      <path id="Path_41344" data-name="Path 41344" d="M897.536,797.8l3.856-5.756" transform="translate(-707.333 -732.541)" fill="none" stroke="#8dcd65" stroke-miterlimit="10" stroke-width="0.587"/>
      <path id="Path_41345" data-name="Path 41345" d="M902.416,788.329a14.252,14.252,0,0,1,7.61-7.454" transform="translate(-703.508 -741.298)" fill="none" stroke="#8dcd65" stroke-miterlimit="10" stroke-width="0.587"/>
      <path id="Path_41346" data-name="Path 41346" d="M901.066,807.367a15.778,15.778,0,0,1,4.993-5.927" transform="translate(-704.566 -725.18)" fill="none" stroke="#8dcd65" stroke-miterlimit="10" stroke-width="0.587"/>
      <path id="Path_41347" data-name="Path 41347" d="M908.282,797.042l2.588-4.468" transform="translate(-698.911 -732.129)" fill="none" stroke="#8dcd65" stroke-miterlimit="10" stroke-width="0.587"/>
      <path id="Path_41348" data-name="Path 41348" d="M874.373,783.964h6.407" transform="translate(-725.487 -738.878)" fill="none" stroke="#8dcd65" stroke-miterlimit="10" stroke-width="0.587"/>
      <path id="Path_41349" data-name="Path 41349" d="M873.836,775.692l7.039.715" transform="translate(-725.908 -745.361)" fill="none" stroke="#8dcd65" stroke-miterlimit="10" stroke-width="0.587"/>
      <path id="Path_41350" data-name="Path 41350" d="M880.3,771.2l4.481,1.3" transform="translate(-720.839 -748.885)" fill="none" stroke="#8dcd65" stroke-miterlimit="10" stroke-width="0.587"/>
      <path id="Path_41351" data-name="Path 41351" d="M914.51,792.524a43.022,43.022,0,0,1,11.4-7.146" transform="translate(-694.029 -737.769)" fill="none" stroke="#8dcd65" stroke-miterlimit="10" stroke-width="1"/>
      <path id="Path_41352" data-name="Path 41352" d="M928.084,784.6l10.9-2.406" transform="translate(-683.391 -740.267)" fill="none" stroke="#8dcd65" stroke-miterlimit="10" stroke-width="1"/>
      <path id="Path_41353" data-name="Path 41353" d="M944.884,781.3l9.543-2.128" transform="translate(-670.223 -742.636)" fill="none" stroke="#8dcd65" stroke-miterlimit="10" stroke-width="1"/>
      <path id="Path_41354" data-name="Path 41354" d="M958.021,778.042a32.755,32.755,0,0,0,5.99-3.011" transform="translate(-659.927 -745.879)" fill="none" stroke="#8dcd65" stroke-miterlimit="10" stroke-width="1"/>
      <path id="Path_41355" data-name="Path 41355" d="M915.986,779.909a44.157,44.157,0,0,1,8.8-3.653" transform="translate(-692.873 -744.919)" fill="none" stroke="#8dcd65" stroke-miterlimit="10" stroke-width="1"/>
      <path id="Path_41356" data-name="Path 41356" d="M933.734,774.844l11.188-1.762" transform="translate(-678.962 -747.407)" fill="none" stroke="#8dcd65" stroke-miterlimit="10" stroke-width="1"/>
      <path id="Path_41357" data-name="Path 41357" d="M912.833,771.322l8.145-2.267" transform="translate(-695.344 -750.563)" fill="none" stroke="#8dcd65" stroke-miterlimit="10" stroke-width="1"/>
      <path id="Path_41358" data-name="Path 41358" d="M927.171,767.433a79.671,79.671,0,0,0,9.811.173" transform="translate(-684.106 -751.834)" fill="none" stroke="#8dcd65" stroke-miterlimit="10" stroke-width="1"/>
      <path id="Path_41359" data-name="Path 41359" d="M918.6,763.5a30.833,30.833,0,0,1,9.036-1.75" transform="translate(-690.825 -756.285)" fill="none" stroke="#8dcd65" stroke-miterlimit="10" stroke-width="1"/>
      <path id="Path_41360" data-name="Path 41360" d="M913.585,807.668a72.1,72.1,0,0,0,7.668-7.585" transform="translate(-694.754 -726.244)" fill="none" stroke="#8dcd65" stroke-miterlimit="10" stroke-width="1"/>
      <path id="Path_41361" data-name="Path 41361" d="M926.827,795.45a65.8,65.8,0,0,1,8.528-3.922" transform="translate(-684.376 -732.949)" fill="none" stroke="#8dcd65" stroke-miterlimit="10" stroke-width="1"/>
      <path id="Path_41362" data-name="Path 41362" d="M942.9,789.706a41.392,41.392,0,0,0,9.82-3.218" transform="translate(-671.78 -736.899)" fill="none" stroke="#8dcd65" stroke-miterlimit="10" stroke-width="1"/>
      <path id="Path_41363" data-name="Path 41363" d="M960.969,784.114a34.511,34.511,0,0,0,8.535-5.48" transform="translate(-657.617 -743.055)" fill="none" stroke="#8dcd65" stroke-miterlimit="10" stroke-width="1"/>
      <path id="Path_41364" data-name="Path 41364" d="M973.118,774.185a57.383,57.383,0,0,1,6.022-5.416" transform="translate(-648.094 -750.786)" fill="none" stroke="#8dcd65" stroke-miterlimit="10" stroke-width="1"/>
      <path id="Path_41365" data-name="Path 41365" d="M985.187,766.559a51.323,51.323,0,0,1,11.177-5.423" transform="translate(-638.635 -756.769)" fill="none" stroke="#8dcd65" stroke-miterlimit="10" stroke-width="1"/>
      <path id="Path_41366" data-name="Path 41366" d="M1000.765,759.232a39.727,39.727,0,0,1,6.536-.544" transform="translate(-626.426 -758.688)" fill="none" stroke="#8dcd65" stroke-miterlimit="10" stroke-width="1"/>
      <path id="Path_41367" data-name="Path 41367" d="M934.206,806.037a73.834,73.834,0,0,1,7.579-7.674" transform="translate(-678.592 -727.592)" fill="none" stroke="#8dcd65" stroke-miterlimit="10" stroke-width="1"/>
      <path id="Path_41368" data-name="Path 41368" d="M949.008,806.227a63.238,63.238,0,0,0,4.629-7.08" transform="translate(-666.991 -726.978)" fill="none" stroke="#8dcd65" stroke-miterlimit="10" stroke-width="1"/>
      <path id="Path_41369" data-name="Path 41369" d="M960.765,794.6a49.742,49.742,0,0,1,7.631-5.981" transform="translate(-657.776 -735.228)" fill="none" stroke="#8dcd65" stroke-miterlimit="10" stroke-width="1"/>
      <path id="Path_41370" data-name="Path 41370" d="M976.027,786.766a42.979,42.979,0,0,0,5.487-6.233" transform="translate(-645.814 -741.566)" fill="none" stroke="#8dcd65" stroke-miterlimit="10" stroke-width="1"/>
      <path id="Path_41371" data-name="Path 41371" d="M988.251,775.912l5.717-4.088" transform="translate(-636.234 -748.393)" fill="none" stroke="#8dcd65" stroke-miterlimit="10" stroke-width="1"/>
      <path id="Path_41372" data-name="Path 41372" d="M1002.911,768.407a47.9,47.9,0,0,1,6.256-1.912" transform="translate(-624.744 -752.569)" fill="none" stroke="#8dcd65" stroke-miterlimit="10" stroke-width="1"/>
      <path id="Path_41373" data-name="Path 41373" d="M963.208,803.92l7.625-5.992" transform="translate(-655.862 -727.933)" fill="none" stroke="#8dcd65" stroke-miterlimit="10" stroke-width="1"/>
      <path id="Path_41374" data-name="Path 41374" d="M977.122,795.725l6.521-4.65" transform="translate(-644.956 -733.304)" fill="none" stroke="#8dcd65" stroke-miterlimit="10" stroke-width="1"/>
      <path id="Path_41375" data-name="Path 41375" d="M990.1,786.475l5.728-5.164" transform="translate(-634.787 -740.957)" fill="none" stroke="#8dcd65" stroke-miterlimit="10" stroke-width="1"/>
      <path id="Path_41376" data-name="Path 41376" d="M1002.9,778.571a23.977,23.977,0,0,0,5.5-2.9" transform="translate(-624.755 -745.377)" fill="none" stroke="#8dcd65" stroke-miterlimit="10" stroke-width="1"/>
      <path id="Path_41377" data-name="Path 41377" d="M983.661,805.487a34.612,34.612,0,0,0,9.6-6.456" transform="translate(-639.831 -727.069)" fill="none" stroke="#8dcd65" stroke-miterlimit="10" stroke-width="1"/>
      <path id="Path_41378" data-name="Path 41378" d="M996.194,796.3a36.924,36.924,0,0,0,6.728-6.341" transform="translate(-630.008 -734.18)" fill="none" stroke="#8dcd65" stroke-miterlimit="10" stroke-width="1"/>
      <path id="Path_41379" data-name="Path 41379" d="M1006.708,786.72l2.749-1.307" transform="translate(-621.768 -737.742)" fill="none" stroke="#8dcd65" stroke-miterlimit="10" stroke-width="1"/>
      <path id="Path_41380" data-name="Path 41380" d="M999.99,802.6q4.835-2.579,9.859-4.782" transform="translate(-627.033 -728.019)" fill="none" stroke="#8dcd65" stroke-miterlimit="10" stroke-width="1"/>
    </g>
    <g id="Group_26840" data-name="Group 26840" transform="translate(743.822 729.564)">
      <path id="Path_41381" data-name="Path 41381" d="M738.235,775.9l3.043,10.469" transform="translate(-738.235 -684.879)" fill="none" stroke="#43a567" stroke-miterlimit="10" stroke-width="0.587"/>
      <path id="Path_41382" data-name="Path 41382" d="M744.05,780.09l-.828-13.846" transform="translate(-734.326 -692.451)" fill="none" stroke="#43a567" stroke-miterlimit="10" stroke-width="0.587"/>
      <path id="Path_41383" data-name="Path 41383" d="M748.241,759.794a67.991,67.991,0,0,0,8.46,13.025" transform="translate(-730.393 -697.507)" fill="none" stroke="#43a567" stroke-miterlimit="10" stroke-width="0.587"/>
      <path id="Path_41384" data-name="Path 41384" d="M750.885,773.744,749.21,787.1" transform="translate(-729.633 -686.573)" fill="none" stroke="#43a567" stroke-miterlimit="10" stroke-width="0.587"/>
      <path id="Path_41385" data-name="Path 41385" d="M757.306,790.485A118.114,118.114,0,0,1,758.9,776.16" transform="translate(-723.288 -684.68)" fill="none" stroke="#43a567" stroke-miterlimit="10" stroke-width="0.587"/>
      <path id="Path_41386" data-name="Path 41386" d="M758.7,763.014l2.128,12.954" transform="translate(-722.198 -694.983)" fill="none" stroke="#43a567" stroke-miterlimit="10" stroke-width="0.587"/>
      <path id="Path_41387" data-name="Path 41387" d="M765.941,774.542a53.188,53.188,0,0,0,2.023,12.051" transform="translate(-716.52 -685.948)" fill="none" stroke="#43a567" stroke-miterlimit="10" stroke-width="0.587"/>
      <path id="Path_41388" data-name="Path 41388" d="M772.97,779.625l1.113,8.173" transform="translate(-711.011 -681.964)" fill="none" stroke="#43a567" stroke-miterlimit="10" stroke-width="0.587"/>
      <path id="Path_41389" data-name="Path 41389" d="M783.856,757.4a43.485,43.485,0,0,0,5.326,10.49" transform="translate(-702.479 -699.386)" fill="none" stroke="#43a567" stroke-miterlimit="10" stroke-width="0.587"/>
      <path id="Path_41390" data-name="Path 41390" d="M793.177,765.814a14.331,14.331,0,0,0-.242-5.731" transform="translate(-695.363 -697.28)" fill="none" stroke="#43a567" stroke-miterlimit="10" stroke-width="0.587"/>
      <path id="Path_41391" data-name="Path 41391" d="M786.106,751.672a19.936,19.936,0,0,1,4.618,6.379" transform="translate(-700.715 -703.872)" fill="none" stroke="#43a567" stroke-miterlimit="10" stroke-width="0.587"/>
      <path id="Path_41392" data-name="Path 41392" d="M796.255,757.081a42.285,42.285,0,0,1,5.365-6.564" transform="translate(-692.761 -704.778)" fill="none" stroke="#43a567" stroke-miterlimit="10" stroke-width="0.587"/>
      <path id="Path_41393" data-name="Path 41393" d="M801.538,761.938a35.938,35.938,0,0,1,9.659-5.58" transform="translate(-688.62 -700.2)" fill="none" stroke="#43a567" stroke-miterlimit="10" stroke-width="0.587"/>
      <path id="Path_41394" data-name="Path 41394" d="M806.625,765.9l7.232-3.71" transform="translate(-684.633 -695.627)" fill="none" stroke="#43a567" stroke-miterlimit="10" stroke-width="0.587"/>
      <path id="Path_41395" data-name="Path 41395" d="M814.717,756.3a6.9,6.9,0,0,0,4.292.979" transform="translate(-678.291 -700.243)" fill="none" stroke="#43a567" stroke-miterlimit="10" stroke-width="0.587"/>
      <path id="Path_41396" data-name="Path 41396" d="M815.324,766.987l3.475,5.483" transform="translate(-677.815 -691.869)" fill="none" stroke="#43a567" stroke-miterlimit="10" stroke-width="0.587"/>
      <path id="Path_41397" data-name="Path 41397" d="M760.025,741.3l7.171,7.174" transform="translate(-721.157 -711.999)" fill="none" stroke="#43a567" stroke-miterlimit="10" stroke-width="0.587"/>
      <path id="Path_41398" data-name="Path 41398" d="M771.59,745.5a23.387,23.387,0,0,0,4.213-3.937" transform="translate(-712.092 -711.797)" fill="none" stroke="#43a567" stroke-miterlimit="10" stroke-width="0.587"/>
      <path id="Path_41399" data-name="Path 41399" d="M823.978,758.084a12.053,12.053,0,0,1,4.3,1.495" transform="translate(-671.033 -698.847)" fill="none" stroke="#43a567" stroke-miterlimit="10" stroke-width="0.587"/>
      <path id="Path_41400" data-name="Path 41400" d="M821.058,763.9a34.616,34.616,0,0,0,10.719-.114" transform="translate(-673.321 -694.378)" fill="none" stroke="#43a567" stroke-miterlimit="10" stroke-width="0.587"/>
      <path id="Path_41401" data-name="Path 41401" d="M827.238,775.287a35.067,35.067,0,0,1,4.435-7.506" transform="translate(-668.477 -691.247)" fill="none" stroke="#43a567" stroke-miterlimit="10" stroke-width="0.587"/>
      <path id="Path_41402" data-name="Path 41402" d="M832.556,761.948a31.424,31.424,0,0,1,6.866-7.048" transform="translate(-664.309 -701.342)" fill="none" stroke="#43a567" stroke-miterlimit="10" stroke-width="0.587"/>
      <path id="Path_41403" data-name="Path 41403" d="M834.615,767.952a25.107,25.107,0,0,1,3.976-5.945" transform="translate(-662.696 -695.772)" fill="none" stroke="#43a567" stroke-miterlimit="10" stroke-width="0.587"/>
      <path id="Path_41404" data-name="Path 41404" d="M838.975,773.2a39.361,39.361,0,0,1,9.77-8.441" transform="translate(-659.278 -693.618)" fill="none" stroke="#43a567" stroke-miterlimit="10" stroke-width="0.587"/>
      <path id="Path_41405" data-name="Path 41405" d="M841.89,758.8a22.3,22.3,0,0,1,8.064-4.995" transform="translate(-656.994 -702.201)" fill="none" stroke="#43a567" stroke-miterlimit="10" stroke-width="0.587"/>
      <path id="Path_41406" data-name="Path 41406" d="M843.294,750.138l7.16-2.31" transform="translate(-655.893 -706.885)" fill="none" stroke="#43a567" stroke-miterlimit="10" stroke-width="0.587"/>
      <path id="Path_41407" data-name="Path 41407" d="M854.647,746.916a16.555,16.555,0,0,1,9.09.715" transform="translate(-646.995 -707.86)" fill="none" stroke="#43a567" stroke-miterlimit="10" stroke-width="0.587"/>
      <path id="Path_41408" data-name="Path 41408" d="M867.336,750.651a53.264,53.264,0,0,0,6.447,4.119" transform="translate(-637.05 -704.673)" fill="none" stroke="#43a567" stroke-miterlimit="10" stroke-width="0.587"/>
      <path id="Path_41409" data-name="Path 41409" d="M853.742,753.689a19.748,19.748,0,0,1,9.381.207" transform="translate(-647.705 -702.657)" fill="none" stroke="#43a567" stroke-miterlimit="10" stroke-width="0.587"/>
      <path id="Path_41410" data-name="Path 41410" d="M864.892,756.015a27.982,27.982,0,0,1,5.424,3.514" transform="translate(-638.965 -700.469)" fill="none" stroke="#43a567" stroke-miterlimit="10" stroke-width="0.587"/>
      <path id="Path_41411" data-name="Path 41411" d="M850.433,760.013a20.482,20.482,0,0,1,6.133,1.227" transform="translate(-650.298 -697.335)" fill="none" stroke="#43a567" stroke-miterlimit="10" stroke-width="0.587"/>
      <path id="Path_41412" data-name="Path 41412" d="M851.2,769.558a26.742,26.742,0,0,0,8.607-2.663" transform="translate(-649.693 -691.941)" fill="none" stroke="#43a567" stroke-miterlimit="10" stroke-width="0.587"/>
      <path id="Path_41413" data-name="Path 41413" d="M860.562,762.151a11.914,11.914,0,0,0,6.98,2.331" transform="translate(-642.359 -695.659)" fill="none" stroke="#43a567" stroke-miterlimit="10" stroke-width="0.587"/>
      <path id="Path_41414" data-name="Path 41414" d="M870.708,766.682a27,27,0,0,1,3.73-5.308" transform="translate(-634.407 -696.268)" fill="none" stroke="#43a567" stroke-miterlimit="10" stroke-width="1"/>
      <path id="Path_41415" data-name="Path 41415" d="M875.97,759.668a45.725,45.725,0,0,1,6.432-7.674" transform="translate(-630.283 -703.62)" fill="none" stroke="#43a567" stroke-miterlimit="10" stroke-width="1"/>
      <path id="Path_41416" data-name="Path 41416" d="M885.158,748.848a57.16,57.16,0,0,0,7.01-4.226" transform="translate(-623.082 -709.398)" fill="none" stroke="#43a567" stroke-miterlimit="10" stroke-width="1"/>
      <path id="Path_41417" data-name="Path 41417" d="M894.671,743.676a24.266,24.266,0,0,0,7.36-5.143" transform="translate(-615.626 -714.17)" fill="none" stroke="#43a567" stroke-miterlimit="10" stroke-width="1"/>
      <path id="Path_41418" data-name="Path 41418" d="M905.074,735.875a22.716,22.716,0,0,1,6.438-3.782" transform="translate(-607.472 -719.218)" fill="none" stroke="#43a567" stroke-miterlimit="10" stroke-width="1"/>
      <path id="Path_41419" data-name="Path 41419" d="M884.224,763.715a54.689,54.689,0,0,1,5.506-6.68" transform="translate(-623.814 -699.669)" fill="none" stroke="#43a567" stroke-miterlimit="10" stroke-width="1"/>
      <path id="Path_41420" data-name="Path 41420" d="M893.061,754.331a52.787,52.787,0,0,1,6.671-3.632" transform="translate(-616.888 -704.635)" fill="none" stroke="#43a567" stroke-miterlimit="10" stroke-width="1"/>
      <path id="Path_41421" data-name="Path 41421" d="M902.777,749.094a84.012,84.012,0,0,1,6.62-5.574" transform="translate(-609.273 -710.262)" fill="none" stroke="#43a567" stroke-miterlimit="10" stroke-width="1"/>
      <path id="Path_41422" data-name="Path 41422" d="M906.7,754.048l7.069-2.167" transform="translate(-606.196 -703.709)" fill="none" stroke="#43a567" stroke-miterlimit="10" stroke-width="1"/>
      <path id="Path_41423" data-name="Path 41423" d="M913.04,743.722a68.676,68.676,0,0,0,12.729-5.883" transform="translate(-601.229 -714.714)" fill="none" stroke="#43a567" stroke-miterlimit="10" stroke-width="1"/>
      <path id="Path_41424" data-name="Path 41424" d="M914.954,730.189a54.411,54.411,0,0,1,8.3-3.721" transform="translate(-599.729 -723.626)" fill="none" stroke="#43a567" stroke-miterlimit="10" stroke-width="1"/>
      <path id="Path_41425" data-name="Path 41425" d="M927.915,724.875a24.728,24.728,0,0,0,8.25.032" transform="translate(-589.57 -724.875)" fill="none" stroke="#43a567" stroke-miterlimit="10" stroke-width="1"/>
      <path id="Path_41426" data-name="Path 41426" d="M940.46,726.056a27.281,27.281,0,0,1,8.612,1.407" transform="translate(-579.738 -723.949)" fill="none" stroke="#43a567" stroke-miterlimit="10" stroke-width="1"/>
      <path id="Path_41427" data-name="Path 41427" d="M927.918,736.083a42.676,42.676,0,0,1,7.24-3.407" transform="translate(-589.568 -718.761)" fill="none" stroke="#43a567" stroke-miterlimit="10" stroke-width="1"/>
      <path id="Path_41428" data-name="Path 41428" d="M942.78,734.151a53.435,53.435,0,0,1,9.634,1.459" transform="translate(-577.92 -717.605)" fill="none" stroke="#43a567" stroke-miterlimit="10" stroke-width="1"/>
      <path id="Path_41429" data-name="Path 41429" d="M921.147,750.015a74.819,74.819,0,0,0,9-4.4" transform="translate(-594.875 -708.623)" fill="none" stroke="#43a567" stroke-miterlimit="10" stroke-width="1"/>
      <path id="Path_41430" data-name="Path 41430" d="M936.418,743.463a30.544,30.544,0,0,1,11.006-.492" transform="translate(-582.906 -710.915)" fill="none" stroke="#43a567" stroke-miterlimit="10" stroke-width="1"/>
      <path id="Path_41431" data-name="Path 41431" d="M953.6,743.2l6.179.838" transform="translate(-569.439 -710.512)" fill="none" stroke="#43a567" stroke-miterlimit="10" stroke-width="1"/>
      <path id="Path_41432" data-name="Path 41432" d="M959.436,737.563l5.03,2.67" transform="translate(-564.865 -714.931)" fill="none" stroke="#43a567" stroke-miterlimit="10" stroke-width="1"/>
      <path id="Path_41433" data-name="Path 41433" d="M968.273,744.989l6.534,3.807" transform="translate(-557.939 -709.11)" fill="none" stroke="#43a567" stroke-miterlimit="10" stroke-width="1"/>
      <path id="Path_41434" data-name="Path 41434" d="M976.182,751.568l4.063,2.854" transform="translate(-551.74 -703.954)" fill="none" stroke="#43a567" stroke-miterlimit="10" stroke-width="1"/>
      <path id="Path_41435" data-name="Path 41435" d="M946.653,750.326a18.423,18.423,0,0,1,7.845,3.313" transform="translate(-574.884 -704.927)" fill="none" stroke="#43a567" stroke-miterlimit="10" stroke-width="1"/>
      <path id="Path_41436" data-name="Path 41436" d="M960.354,754.843a33.71,33.71,0,0,0,5.842,5.184" transform="translate(-564.146 -701.387)" fill="none" stroke="#43a567" stroke-miterlimit="10" stroke-width="1"/>
      <path id="Path_41437" data-name="Path 41437" d="M934.089,753.846c.271-.564,1.125-.214,1.6.2l3.423,2.995" transform="translate(-584.731 -702.399)" fill="none" stroke="#43a567" stroke-miterlimit="10" stroke-width="1"/>
      <path id="Path_41438" data-name="Path 41438" d="M952.277,760.587l6.436,4.631" transform="translate(-570.476 -696.885)" fill="none" stroke="#43a567" stroke-miterlimit="10" stroke-width="1"/>
      <path id="Path_41439" data-name="Path 41439" d="M977.713,745l6.539-6.206" transform="translate(-550.54 -713.963)" fill="none" stroke="#43a567" stroke-miterlimit="10" stroke-width="1"/>
      <path id="Path_41440" data-name="Path 41440" d="M984.69,749.829a40.2,40.2,0,0,0,5.936-6.141" transform="translate(-545.072 -710.13)" fill="none" stroke="#43a567" stroke-miterlimit="10" stroke-width="1"/>
      <path id="Path_41441" data-name="Path 41441" d="M987,736.614a22.126,22.126,0,0,1,4.829-3.778" transform="translate(-543.263 -718.635)" fill="none" stroke="#43a567" stroke-miterlimit="10" stroke-width="1"/>
      <path id="Path_41442" data-name="Path 41442" d="M996.081,750.259a20.8,20.8,0,0,0,4.825-4.483" transform="translate(-536.144 -708.493)" fill="none" stroke="#43a567" stroke-miterlimit="10" stroke-width="1"/>
      <path id="Path_41443" data-name="Path 41443" d="M996.071,740.89l7.233-5.168" transform="translate(-536.152 -716.374)" fill="none" stroke="#43a567" stroke-miterlimit="10" stroke-width="1"/>
    </g>
  </g>
</svg>
