<svg xmlns="http://www.w3.org/2000/svg" xmlns:xlink="http://www.w3.org/1999/xlink" width="271.261" height="288.993" viewBox="0 0 271.261 288.993">
  <defs>
    <clipPath id="clip-path">
      <path id="Path_32131" data-name="Path 32131" d="M0,200.66H271.261V-88.333H0Z" transform="translate(0 88.333)" fill="none"/>
    </clipPath>
  </defs>
  <g id="Group_26678" data-name="Group 26678" transform="translate(0 88.333)">
    <g id="Group_26677" data-name="Group 26677" transform="translate(0 -88.333)" clip-path="url(#clip-path)">
      <g id="Group_26644" data-name="Group 26644" transform="translate(188.703 60.748)">
        <path id="Path_32098" data-name="Path 32098" d="M24.468,6.888a14.93,14.93,0,0,0-2.362-9.3c-.088-.2-.164-.4-.258-.6,0-.007-.013-.013-.016-.02-1.538.252-3.059.537-4.538.929C12.226-.755,7.158.943,1.9,1.287Q-.491,27.841-1.98,54.473c0,.029-2.411.932-2.689,1.122A16.431,16.431,0,0,1-7.7,57.3c-.5.2-1.027.35-1.508.6-1.374.7-2.176,2.594-.985,3.88.867.932,2.3.7,3.425.671,1.184-.029,2.369-.072,3.55-.157,1.233-.088,2.467-.229,3.69-.432a15.125,15.125,0,0,0,3.216-.779,3.186,3.186,0,0,0,2.035-3.108,5.389,5.389,0,0,0-.432-1.845,1.19,1.19,0,0,0,.085-.317,202.7,202.7,0,0,1,4.8-30.02c.481,3.164.874,6.344,1.315,9.494.527,3.762.968,7.535,1.469,11.3.249,1.855.51,3.707.8,5.555.092.566,1.178,4.819.8,5.068-.72.478-1.413,1-2.107,1.525-1.58.788-3.154,1.6-4.682,2.5a1.644,1.644,0,0,0-.559,2.192c1.6,2.3,4.3,1.61,6.609,1.191.5-.088,1-.2,1.5-.294a27.9,27.9,0,0,0,4-.422c1.224-.222,2.876-.376,3.56-1.6a2.993,2.993,0,0,0,.1-2.277c.016-.079.065-.128.069-.216l1.086-30.22c.216-6,.7-12.239.3-18.341a27.221,27.221,0,0,0,.033-4.351" transform="translate(10.771 3.032)" fill="#172d3a"/>
      </g>
      <g id="Group_26645" data-name="Group 26645" transform="translate(198.905 23.592)">
        <path id="Path_32099" data-name="Path 32099" d="M18.1,11.391q-1.5-4.618-3-9.239c-.631-1.947-1.07-5.539-3.023-6.713C9.983-5.821,6.623-4.123,4.6-3.453,2.037-2.605-1.507-1.82-3.62-.063a5.723,5.723,0,0,0-1.754,3.5C-6.267,4.89-7.117,6.359-7.968,7.831a58.656,58.656,0,0,1,3.18,17.412c.02,1.9.121,3.8-.023,5.7a8.234,8.234,0,0,1-1.544,4.9,1.47,1.47,0,0,1-.337.625c.033.072.023.17.062.236A1.606,1.606,0,0,0-6,37.842c7.584-1.119,15.229-1.7,22.859-2.437-.4-3.334-1.034-6.635-1.345-9.985-.347-3.723-.6-7.459-.877-11.189l2.378-.926A1.585,1.585,0,0,0,18.1,11.391" transform="translate(7.968 5.014)" fill="#f6ea7c"/>
      </g>
      <g id="Group_26646" data-name="Group 26646" transform="translate(203.235 1.528)">
        <path id="Path_32100" data-name="Path 32100" d="M2.661,13.4a22.308,22.308,0,0,0-.193,2.876c-.046.177-.111.34-.141.523a1.923,1.923,0,0,0,.043.844c-.072.851-.173,1.662-.3,2.5,2.65-.972,5.352-1.79,8.078-2.529.059-.062.128-.115.183-.18a27.481,27.481,0,0,1-.481-3.887.786.786,0,0,1,.075-.036,12.378,12.378,0,0,0,4.485-3.854,10.909,10.909,0,0,0,.9-11.16A7.968,7.968,0,0,0,10.7-5.646,7.3,7.3,0,0,0,4.774-4.628,12.136,12.136,0,0,0,.786.066,15.853,15.853,0,0,0-1.138,6.014a7.81,7.81,0,0,0,2.375,6.547,5.248,5.248,0,0,0,1.423.841" transform="translate(1.171 5.9)" fill="#f38867"/>
      </g>
      <g id="Group_26647" data-name="Group 26647" transform="translate(210.841 22.263)">
        <path id="Path_32101" data-name="Path 32101" d="M12.921,24.133c1.047,3.409-1.22,7.034-6.036,7.95-2.058.393-5.441.4-6.432-1.325-1.436-2.5-1.914-5.7-2.63-8.372a103.813,103.813,0,0,1-3.085-17.1c-.432-4.577-1.315-9.9,2.2-13.924a2.016,2.016,0,0,1,1.034-.6A7.1,7.1,0,0,1,4.205-10.33c2.666.775,4.054,2.915,3.847,4.979,6.7,1.22,6.972,9.923,7.77,14.1.936,4.891,3.435,12.324-2.9,15.38" transform="translate(5.688 10.624)" fill="#f8af46"/>
      </g>
      <g id="Group_26648" data-name="Group 26648" transform="translate(178.089 29.167)">
        <path id="Path_32102" data-name="Path 32102" d="M21.212,4.273a18.191,18.191,0,0,0-3.766-5.709,1.564,1.564,0,0,0-2.441.314A69.4,69.4,0,0,1-2,21.07c-2.683-1.525-6.671-.1-7.256,3.1-.923,5.055,6.69,2.434,8.938,1.623,8.3-2.99,13.921-9.422,19.577-15.867,1.557-1.78,2.967-3.177,1.956-5.657" transform="translate(9.338 1.881)" fill="#f38867"/>
      </g>
      <g id="Group_26649" data-name="Group 26649" transform="translate(180.824 54.517)">
        <path id="Path_32103" data-name="Path 32103" d="M2.09,44.316H2.1c.893-.131,1.79-.275,2.679-.435.121-.02.242-.046.366-.069C4.315,23.109,3.359,2.406,2.139-18.28c-.118-1.989-3.173-1.394-3.056.579C.3,2.963,1.252,23.636,2.077,44.316Z" transform="translate(0.92 19.508)" fill="#172d3a"/>
      </g>
      <g id="Group_26650" data-name="Group 26650" transform="translate(196.219 0)">
        <path id="Path_32104" data-name="Path 32104" d="M22.063,11.174a1.69,1.69,0,0,0,.792-1.168A1.217,1.217,0,0,0,22.7,8.792a3.325,3.325,0,0,0-2.241-.6,15.394,15.394,0,0,1-2.562-.327c-1.348-.249-2.457-.6-2.81-.684.461-2.287,1.381-5.536.3-7.692a8.482,8.482,0,0,0-5.46-4.145A8.655,8.655,0,0,0,2.685-3.27,21.04,21.04,0,0,0-1.886,1.5a59.722,59.722,0,0,1-5.28-3.072C-9.054-2.806-10.781.339-8.9,1.569c6.321,4.129,20.664,8.595,20.706,8.608a26.75,26.75,0,0,0,5.248,1.161c1.466.173,3.746.726,5.009-.164" transform="translate(9.712 4.919)" fill="#172d3a"/>
      </g>
      <g id="Group_26651" data-name="Group 26651" transform="translate(201.465 50.816)">
        <path id="Path_32105" data-name="Path 32105" d="M0,3.641A79.183,79.183,0,0,0,13.211,1.423a26.238,26.238,0,0,1-.8-3.026A74.124,74.124,0,0,1,.036.527C.069,1.567.062,2.6,0,3.641" transform="translate(0 1.603)" fill="#172d3a"/>
      </g>
      <g id="Group_26652" data-name="Group 26652" transform="translate(202.519 25.891)">
        <path id="Path_32106" data-name="Path 32106" d="M2.342.2C1.213.565.075.945-1.031,1.38a1.373,1.373,0,0,0,.955.808A16.776,16.776,0,0,1,8.29,6.441a18.311,18.311,0,0,1,.471-3.628,19.664,19.664,0,0,0-5.4-2.9c-.34.1-.68.183-1.017.291" transform="translate(1.031 0.089)" fill="#172d3a"/>
      </g>
      <g id="Group_26653" data-name="Group 26653" transform="translate(126.28 39.039)">
        <path id="Path_32107" data-name="Path 32107" d="M14.567,5.144a2.492,2.492,0,0,0-.857-1.829C12.225,1.866,10.834,1.761,7.625.2c-.6-.291-1.23-.491-1.842-.743-.039-.016-.209-.088-.314-.134a2.3,2.3,0,0,0-.131-.272,2.935,2.935,0,0,0-.523-.6,2.867,2.867,0,0,0-2.077-.7A2.249,2.249,0,0,0,1.117-1.157,3.257,3.257,0,0,1-.1-.107c-.37.222-.736.448-1.112.654s-.8.327-1.145.559A1.379,1.379,0,0,0-2.514.992,4.211,4.211,0,0,0-3.1.74,3.092,3.092,0,0,0-3.744.629,1.942,1.942,0,0,0-4.2.655a2.853,2.853,0,0,0-2.2,2.562A2.707,2.707,0,0,0-4.719,6.152a2.5,2.5,0,0,0,1.1.317c.039,0,.075,0,.137.013a2.218,2.218,0,0,0,.775.029,2.142,2.142,0,0,0,.726-.222A1.466,1.466,0,0,0-1.7,6.076c.347.15.707.265,1.06.4.8.432,1.633.8,2.47,1.152.043.016.085.036.128.052.111.049.222.095.33.144.262.115.517.232.772.357a10.156,10.156,0,0,1,1.453.86c.026.023.072.02.1.036a4.074,4.074,0,0,0,1.256,1.083A3.058,3.058,0,0,0,9.63,9.927a2.862,2.862,0,0,0,.887-2.274,1.983,1.983,0,0,0,1.368.445,2.643,2.643,0,0,0,2.372-1.515,2.489,2.489,0,0,0,.311-1.44" transform="translate(6.413 2.264)" fill="#172d3a"/>
      </g>
      <g id="Group_26654" data-name="Group 26654" transform="translate(138.989 94.983)">
        <path id="Path_32108" data-name="Path 32108" d="M23.137,38.354a1.335,1.335,0,0,0-.18-.69,401.153,401.153,0,0,0-.249-52.657,1.536,1.536,0,0,0-1.031-1.371,1.418,1.418,0,0,0-1.148-.52l-22.6.059a1.39,1.39,0,0,0-1.246.7A1.359,1.359,0,0,0-4.122-14.8q.3,14.973.975,29.939c.357,7.855.559,15.825,1.891,23.6Q-4.4,39.741-7.548,40.752A3.431,3.431,0,0,0-10.08,42.82a3.012,3.012,0,0,0,1.24,3.226,5.94,5.94,0,0,0,3.308.775c1.266.046,2.532.059,3.8.046,1.22-.013,2.444-.052,3.661-.121.589-.033,1.175-.072,1.76-.118a4.482,4.482,0,0,0,1.94-.357A2.232,2.232,0,0,0,6.5,44.266L6.622,42.2q.123-2.2.249-4.4a1.292,1.292,0,0,0-.245-.792A185.2,185.2,0,0,1,11.052,8.085a124.865,124.865,0,0,1,5.454,27.936,1.5,1.5,0,0,0,.134.465c.026.749.141,1.492.2,2.235-1.521.52-3.046,1.027-4.554,1.58a4.171,4.171,0,0,0-2.306,1.633,2.465,2.465,0,0,0,.415,3,3.928,3.928,0,0,0,2.562.91,28.845,28.845,0,0,0,3.056.016,36.4,36.4,0,0,0,6.259-.824,1.6,1.6,0,0,0,1.086-1.911,26.1,26.1,0,0,1-.219-4.77" transform="translate(10.185 16.884)" fill="#172d3a"/>
      </g>
      <g id="Group_26655" data-name="Group 26655" transform="translate(130.029 44.465)">
        <path id="Path_32109" data-name="Path 32109" d="M15.168,13.574a6.535,6.535,0,0,0-3.458-.887,1.324,1.324,0,0,0-.17.026,7.992,7.992,0,0,0-5.051.955,21.056,21.056,0,0,0-5.244,3.913A22.964,22.964,0,0,1-.663,10.721,23.013,23.013,0,0,1,.03,1.479a.715.715,0,0,0,.01-.118A4.834,4.834,0,0,0,.891-3.449,4.124,4.124,0,0,0,.377-4.482,1.227,1.227,0,0,0-.009-5.2a3.105,3.105,0,0,0-2.876-.671A3.639,3.639,0,0,0-5-4.2a5.636,5.636,0,0,0-.739,2.549A4.091,4.091,0,0,0-5.113.857c.059.088.134.157.2.239a22.046,22.046,0,0,0-.615,3.229,32.053,32.053,0,0,0-1.139,8.7,25.2,25.2,0,0,0,1.312,7.263c.648,1.93,1.381,4.639,3.5,5.4A6.4,6.4,0,0,0,1.12,25.9c.733-.092,1.459-.252,2.185-.415a31.753,31.753,0,0,0,4.309-1.142,37.592,37.592,0,0,0,4.152-1.881c2.127-1.1,4.391-2.719,4.832-5.248a3.53,3.53,0,0,0-1.43-3.638" transform="translate(6.677 5.975)" fill="#f38867"/>
      </g>
      <g id="Group_26656" data-name="Group 26656" transform="translate(149.428 35.674)">
        <path id="Path_32110" data-name="Path 32110" d="M9.536,2.431a7.5,7.5,0,0,0-5.5-3.474A6.694,6.694,0,0,0-1.852,1.917a14.528,14.528,0,0,0-2.271,7.25,12.815,12.815,0,0,0,1.188,7.126,9.273,9.273,0,0,0,1.171,1.7c.007.01.01.02.016.029A10.294,10.294,0,0,0,.988,20.85c.013.991.085,1.979.069,2.971a1.567,1.567,0,0,0,1.966,1.5L7.708,24.04a1.508,1.508,0,0,0,1.008-.9,1.607,1.607,0,0,0-.079-1.384c-.056-.121-.108-.242-.16-.363a.247.247,0,0,1-.023-.049c-.01-.023-.007-.016-.026-.069-.082-.206-.164-.409-.239-.618-.177-.478-.334-.962-.474-1.449-.059-.209-.079-.425-.131-.631a20.172,20.172,0,0,0,1.358-2.228c2.14-4.034,3.226-9.844.6-13.918" transform="translate(4.198 1.07)" fill="#f38867"/>
      </g>
      <g id="Group_26657" data-name="Group 26657" transform="translate(136.36 55.885)">
        <path id="Path_32111" data-name="Path 32111" d="M24.593,26.151a189.807,189.807,0,0,0,.831-27.24c-.147-3.4-.618-7.207-3.615-9.344a5.47,5.47,0,0,0-7.211.586l-6.55,1.7A5.576,5.576,0,0,0,6.566-8.43C5.339-7.822,4.07-7.3,2.787-6.811-1.342-4.737-5.4-2.525-9.315-.052c-.039.033-.085.062-.124.1-.366,2.607-1,5.192-1.269,7.806-.043.412-.079.828-.118,1.24a1.215,1.215,0,0,0,1.057.468,63.013,63.013,0,0,1,7.024-.487c.154,3.681.4,7.355.69,11.029q.015,3.582.029,7.168a1.422,1.422,0,0,0,.4,1A1.342,1.342,0,0,0-.2,29.537L23.49,28.9a1.6,1.6,0,0,0,1.083-2.686c0-.023.02-.039.02-.062" transform="translate(10.826 11.512)" fill="#f6ea7c"/>
      </g>
      <g id="Group_26658" data-name="Group 26658" transform="translate(147.667 59.349)">
        <path id="Path_32112" data-name="Path 32112" d="M4.852,1.876a10.7,10.7,0,0,0-3.6-2.7C.115-.286-1.017.267-2.136.839a1.477,1.477,0,0,0,.913.72c.216.059.429.121.638.2.1.036.209.075.311.115a.055.055,0,0,0,.016.007.105.105,0,0,0,.023.013,11.252,11.252,0,0,1,1.07.579c.19.118.37.245.55.376.013.01.007,0,.016.01s0,0,.02.02c.085.072.173.141.255.213a9.836,9.836,0,0,1,.906.9c.059.072.121.141.18.213l.046.056c.023.141.291.406.37.523A9.544,9.544,0,0,1,3.8,5.9a1.569,1.569,0,0,1,.108.239.5.5,0,0,1,.016.056c.079.206.15.415.213.628s.118.429.164.648c.02.088.036.18.052.272s.072.527.02.082A1.593,1.593,0,0,0,5.922,9.375c.756-.033,1.662-.69,1.554-1.554A11.063,11.063,0,0,0,4.852,1.876" transform="translate(2.136 0.826)" fill="#172d3a"/>
      </g>
      <g id="Group_26659" data-name="Group 26659" transform="translate(165.775 60.049)">
        <path id="Path_32113" data-name="Path 32113" d="M0,0A.159.159,0,0,0,.01.023s0-.007,0-.013S0,0,0,0" fill="#172d3a"/>
      </g>
      <g id="Group_26660" data-name="Group 26660" transform="translate(162.681 55.421)">
        <path id="Path_32114" data-name="Path 32114" d="M4,2.092A6.536,6.536,0,0,0,1.167-.921C.179-.538-.789-.113-1.761.306c0,.033.033.056.036.088.029.013.062.02.092.033a2.175,2.175,0,0,1,.363.2,4.563,4.563,0,0,1,.605.491c.029.029.049.072.079.1A5.785,5.785,0,0,1,.549,2.429c.007.013.01.026.016.039a1.787,1.787,0,0,1,.17.193c0,.007,0,0,0,0,.052.082.108.157.16.239.039.062.36.654.435.8-.029-.069-.056-.16,0,.007v.007c.007.013.026.046.026.046s-.013-.013-.02-.033c.029.079.059.16.085.242.059.173.111.35.16.527.1.38.167.762.232,1.148v.01c0,.023,0,.02.007.059l.029.275c.016.183.033.37.046.556.029.415.046.831.062,1.246A1.582,1.582,0,0,0,3.523,9.349,1.577,1.577,0,0,0,5.077,7.795,14.739,14.739,0,0,0,4,2.092" transform="translate(1.761 0.921)" fill="#172d3a"/>
      </g>
      <g id="Group_26661" data-name="Group 26661" transform="translate(163.972 58.038)">
        <path id="Path_32115" data-name="Path 32115" d="M0,0A.118.118,0,0,0,.029.016S.007,0,0,0H0" fill="#172d3a"/>
      </g>
      <g id="Group_26662" data-name="Group 26662" transform="translate(148.062 62.147)">
        <path id="Path_32116" data-name="Path 32116" d="M20.336,2.978a16.062,16.062,0,0,0-3.625-4.289Q4.707-.447-7.277.917a16.254,16.254,0,0,0-1.675,6.74q3.4,12.352,6.8,24.707a1.282,1.282,0,0,0,.17.3,1.269,1.269,0,0,0-.075.183A1.417,1.417,0,0,0-.56,34.36Q5.967,34.188,12.5,34q2.4-.069,4.8-.144c1.934-7.656,3.416-15.393,5.539-23a19.308,19.308,0,0,0-2.5-7.878" transform="translate(8.952 1.311)" fill="#f8af46"/>
      </g>
      <g id="Group_26663" data-name="Group 26663" transform="translate(147.966 34.879)">
        <path id="Path_32117" data-name="Path 32117" d="M11.973,6.827A12.68,12.68,0,0,0,10.605.807C8.305-3.21,2.979-3.874-.934-2.019A7.077,7.077,0,0,0-5.076,4.19a1.729,1.729,0,0,0,.043.2,6.788,6.788,0,0,0-.18,2.375.116.116,0,0,1,.007.033,12.713,12.713,0,0,0-.062,1.368A1.579,1.579,0,0,0-3.715,9.716c1.014.036,2.025.121,3.039.186.144.641.272,1.289.458,1.92q.152.981.308,1.96A1.525,1.525,0,0,0,1.726,14.9c.052.023.1.036.154.062.056.059.141.079.206.131a1.556,1.556,0,0,0,1.456,1.129A15.7,15.7,0,0,0,10.2,14.9a1.544,1.544,0,0,0,.713-.929,1.654,1.654,0,0,0,.026-.386,2.547,2.547,0,0,0,.5-1.508c.007-.239.01-.474.016-.713A8.565,8.565,0,0,0,11.59,10.1a.226.226,0,0,0,.052-.059,6.55,6.55,0,0,0,.33-3.216" transform="translate(5.271 3.005)" fill="#172d3a"/>
      </g>
      <g id="Group_26664" data-name="Group 26664" transform="translate(144.185 87.321)">
        <path id="Path_32118" data-name="Path 32118" d="M6.514,1.379q-.231-1-.507-1.986-4.431.191-8.86.389c-.007.684-.023,1.368-.01,2.051.01.353.046.7.065,1.057l9.56-.422c-.079-.363-.167-.73-.249-1.089" transform="translate(2.868 0.607)" fill="#172d3a"/>
      </g>
      <g id="Group_26665" data-name="Group 26665" transform="translate(64.974 56.817)">
        <path id="Path_32119" data-name="Path 32119" d="M6.408,14.5c1.024-2.359,1.75-4.845,2.624-7.253A76.887,76.887,0,0,1,12.7-1.564a20.772,20.772,0,0,1,1.96-3.245,4.02,4.02,0,0,1,1.858-1.551c.687-.183,1.626.739,2.1,1.394a15.1,15.1,0,0,1,1.93,4.139.212.212,0,0,0,.013.043Q21.08,1.761,21.612,4.3c1.934,9.18,4,18.344,6.53,27.4.383,1.963.756,3.929,1.184,5.889q.658,3.028,1.315,6.056l.029.422a231.652,231.652,0,0,1-33.492-.157C-1.009,35.487,6.212,14.951,6.408,14.5" transform="translate(2.821 6.384)" fill="#3db787"/>
      </g>
      <g id="Group_26666" data-name="Group 26666" transform="translate(58.096 101.316)">
        <path id="Path_32120" data-name="Path 32120" d="M24.813,50.71c-5.935-.052-11.869.052-17.8.111-5.824.062-11.631-.007-17.454-.1-.16,0-.317,0-.478,0,.092-.311.177-.6.242-.857C-7.239,36.426-3.86,22.986-.346,9.566A169.172,169.172,0,0,1,5.566-9.41,89.287,89.287,0,0,1,9.79-18.675c.425-.8.851-1.616,1.335-2.4a2.027,2.027,0,0,1,1.7-1.243c1.816-.01,3.072,1.845,3.8,2.843,3.965,5.4,5.781,11.519,7.135,17.559,1.472,6.566,2.679,13.175,3.893,19.77q3.038,16.5,5.434,33.073-4.137-.177-8.28-.213" transform="translate(10.923 22.323)" fill="#3db787"/>
      </g>
      <g id="Group_26667" data-name="Group 26667" transform="translate(60.988 73.698)">
        <path id="Path_32121" data-name="Path 32121" d="M22.391,47.082c3.412.092,6.825.229,10.237.38q-3.023-11.812-6.37-23.5Q21.876,8.652,16.938-6.432q-1.232-3.769-2.5-7.521c-.7-2.064-1.361-4.247-2.8-5.788a2.424,2.424,0,0,0-2.1-.959c-.949.177-1.538,1.119-1.947,2.055a52.545,52.545,0,0,0-2.3,7.253C2.441-.959-.153,9.579-2.866,20.061Q-6.36,33.581-9.857,47.1q16.121-.442,32.248-.016" transform="translate(9.857 20.726)" fill="#3db787"/>
      </g>
      <g id="Group_26668" data-name="Group 26668" transform="translate(71.878 80.675)">
        <path id="Path_32122" data-name="Path 32122" d="M5.894,61.64q-.157,6.507-.249,13.011h-2.4q.255-16.823.91-33.636c-.317-.072-4.374-7.567-6.576-10.845a1.218,1.218,0,0,1,.432-1.649,1.229,1.229,0,0,1,1.649.432,78.72,78.72,0,0,1,4.669,7.934q.275-6.591.6-13.181c-.007,0-.013.01-.02.01-.615.141-1.688-1.554-1.826-1.9a7.17,7.17,0,0,0-.752-1.279,6.94,6.94,0,0,0-.546-.612,1.217,1.217,0,0,1,0-1.7,1.229,1.229,0,0,1,1.7,0,8.348,8.348,0,0,1,1.606,2.254q.334-6.257.716-12.507a0,0,0,0,1,0,0C4.013,5.5,2.145,3.17.1.847a1.226,1.226,0,0,1,0-1.7,1.219,1.219,0,0,1,1.7,0C3.277.821,4.677,2.561,6.041,4.331c.115-1.77.222-3.54.347-5.31q.859-12.509,1.94-25c.134-1.531,2.545-1.547,2.411,0Q9.257-8.839,8.194,8.339a61.225,61.225,0,0,0,4.394-6.363,1.229,1.229,0,0,1,1.649-.432,1.222,1.222,0,0,1,.432,1.649,64.778,64.778,0,0,1-6.52,8.971.851.851,0,0,1-.19.131q-.947,15.984-1.525,31.98c1.531-2.732,3.1-5.441,4.763-8.1.821-1.312,2.908-.1,2.081,1.217Q9.529,43.381,6.238,49.634q-.2,6-.344,12.007" transform="translate(2.595 27.135)" fill="#1b6956"/>
      </g>
      <g id="Group_26669" data-name="Group 26669" transform="translate(1.632 180.468)">
        <path id="Path_32123" data-name="Path 32123" d="M.005,39.9q4.166-.039,8.333-.111c10.986-.2,24.073-.147,35.059-.337q4.692-.079,9.383-.108C51.249,31.725,48.04,22.254,45.7,14.795q-2.066-6.6-4.554-13.08a86.95,86.95,0,0,0-5.277-12.249c-1.858-3.245-4.9-6.259-9.2-6.923-4.25-.658-5.945,1.826-8.13,4.819A73.39,73.39,0,0,0,12.091-.961C6.369,11.13,3.63,23.5.12,37.411A11.924,11.924,0,0,0,.005,39.9" transform="translate(0.002 17.564)" fill="#37a474"/>
      </g>
      <g id="Group_26670" data-name="Group 26670" transform="translate(-0.001 178.539)">
        <path id="Path_32124" data-name="Path 32124" d="M34.949,54.648c-2.621-12.763-4.574-25.6-6.969-38.389C26.547,8.6,25.079.878,23.05-6.705a62.181,62.181,0,0,0-3.383-9.825C18.591-18.892,17.21-21.8,14.626-23.4c-3.023-1.868-6.1.625-7.764,2.614A30.643,30.643,0,0,0,1.405-10.206a.751.751,0,0,1-.124.2c-.052.347-.1.694-.157,1.04C-.365.394-2.122,9.725-4.206,19.01-6.3,28.35-8.58,37.661-10.5,47.031q-1.453,7.111-2.817,14.228a93.8,93.8,0,0,0-1.914,11.1c-.049.68-.1,1.364-.154,2.048q4.083-.015,8.159-.033,19.5-.074,39-.15l5.015-.02a12.168,12.168,0,0,0,2.666-.157c-1.485-6.478-3.18-12.929-4.508-19.4" transform="translate(15.385 24.057)" fill="#37a474"/>
      </g>
      <g id="Group_26671" data-name="Group 26671" transform="translate(4.252 151.939)">
        <path id="Path_32125" data-name="Path 32125" d="M31.11,34.644q-.437-1.458-.877-2.912c-.7-2.3-1.41-4.59-2.149-6.88-1.5-4.662-3.124-9.311-4.983-13.927A129.89,129.89,0,0,0,16.787-2.594q-1.821-3.362-3.923-6.655c-.726-1.135-1.476-2.264-2.257-3.38a5.965,5.965,0,0,0-2.385-2.424c-2.761-1.155-4,3.066-4.508,4.109Q2.094-7.611.569-4.253-2.542,2.593-5.261,9.534q-4.863,12.421-8.434,25.11Z" transform="translate(13.695 15.251)" fill="#37a474"/>
      </g>
      <g id="Group_26672" data-name="Group 26672" transform="translate(15.261 175.811)">
        <path id="Path_32126" data-name="Path 32126" d="M8.86,78.587c-.707-8.215-1.3-16.325-1.757-24.115q-.339-5.756-.6-11.523l-.007-.2-.15-.147a78.949,78.949,0,0,1-6-6.622.771.771,0,0,1-.137-.664,1.383,1.383,0,0,1,.654-.87,1.335,1.335,0,0,1,.631-.141,1.361,1.361,0,0,1,.337.039,1.389,1.389,0,0,1,.8.566c.507.625,1.017,1.24,1.538,1.852l2.189,2.45-.062-1.662c-.347-8.9-.563-17.582-.645-25.807v-.2l-.147-.15A57.956,57.956,0,0,1-3.733-1.09a1.121,1.121,0,0,1,.442-1.6,1.487,1.487,0,0,1,.648-.141,1.239,1.239,0,0,1,1.086.514A56.263,56.263,0,0,0,4.5,6.621L5.63,7.979l-.01-1.688C5.578-7.133,5.83-20.52,6.37-33.492a1.233,1.233,0,0,1,1.354-1.1,1.385,1.385,0,0,1,.939.317.9.9,0,0,1,.278.743c-.35,8.421-.586,16.888-.7,25.165C8.225-6.888,8.218-5.4,8.212-3.92L8.192-.482,18.894-12.4a1.063,1.063,0,0,1,.785-.285,1.538,1.538,0,0,1,.985.33,1.116,1.116,0,0,1-.043,1.662L8.395,2.918l-.18.164-.043.239c0,7.947.147,16.378.458,26.526L8.683,31.5,13.7,25.174a1.469,1.469,0,0,1,1.152-.6,1.576,1.576,0,0,1,.661.157,1.154,1.154,0,0,1,.589.739.882.882,0,0,1-.118.772L9.144,34.862l-.167.164-.164.373c.072,1.924.16,3.844.245,5.768l.059,1.384C9.671,55,10.446,67.11,11.431,78.561c-.311,0-.615-.007-.923-.007-.55,0-1.1.01-1.649.033" transform="translate(3.9 34.595)" fill="#1b6956"/>
      </g>
      <g id="Group_26673" data-name="Group 26673" transform="translate(210.064 135.939)">
        <path id="Path_32127" data-name="Path 32127" d="M42.486,53.992q-4.4-.049-8.8-.15c-11.6-.272-25.414-.2-37.015-.458-3.3-.072-12.076.648-15.377.622C-13.573,37.241-1.635,8.205.112,2.346,1.771-3.213,9.806-22.839,14.34-23.739,18.826-24.629,24.195-4.91,26.112.295c6.043,16.388,12.547,31.47,16.253,50.327a20.655,20.655,0,0,1,.121,3.37" transform="translate(18.703 23.768)" fill="#37a474"/>
      </g>
      <g id="Group_26674" data-name="Group 26674" transform="translate(219.301 123.395)">
        <path id="Path_32128" data-name="Path 32128" d="M0,31.869c2.447-6.494,4.93-12.985,7.7-19.427S13.28-.6,17.268-6.8a31.188,31.188,0,0,1,3.291-4.289c.6-.641,1.227-1.266,1.907-1.868.713-.628,1.616-1.5,2.745-.834a4.936,4.936,0,0,1,1.574,1.829c.455.723.9,1.446,1.345,2.176q1.379,2.257,2.67,4.541A154.408,154.408,0,0,1,45.947,31.869Z" transform="translate(0 14.029)" fill="#37a474"/>
      </g>
      <g id="Group_26675" data-name="Group 26675" transform="translate(210.405 150.223)">
        <path id="Path_32129" data-name="Path 32129" d="M13.1,17.489A112.2,112.2,0,0,1,19.222,2.253c1.476-2.971,3.1-6.147,5.5-8.5A4.948,4.948,0,0,1,27.083-7.7,29.663,29.663,0,0,1,29.3-5.288c3.651,4.5,5.935,9.959,7.548,15.475a144.617,144.617,0,0,1,3.622,17.569q1.855,11.454,3.713,22.9c1.9,11.7,8.369,24.907,10.266,36.6-3.566-.363-11.771-.91-15.354-.834-9.233.19-16.381,0-25.617,0-3.193,0-16.047.213-19.24.2.01-.062,17.379-61.464,18.867-69.139" transform="translate(5.767 7.699)" fill="#37a474"/>
      </g>
      <g id="Group_26676" data-name="Group 26676" transform="translate(230.27 140.556)">
        <path id="Path_32130" data-name="Path 32130" d="M8.406,59.892q-.55,12.862-1.148,25.722c-1-.016-2.006-.059-3.007-.082q.559-11.955,1.07-23.909a1.846,1.846,0,0,1-.582-.537,66.437,66.437,0,0,0-8.032-9.5,1.512,1.512,0,0,1,.059-2.123,1.531,1.531,0,0,1,2.123.059,67.945,67.945,0,0,1,6.628,7.557c.249-5.846.455-11.693.687-17.539Q2.945,36.117-.313,32.685a1.518,1.518,0,0,1,.059-2.123,1.527,1.527,0,0,1,2.123.056l4.5,4.737q.044-1.237.092-2.467a1.55,1.55,0,0,1,.023-.684q.3-7.7.573-15.409a1.77,1.77,0,0,1-.7-.916c-.016-.043-.052-.144-.079-.222-.059-.16-.128-.321-.2-.481q-.2-.471-.422-.932c-.294-.615-.622-1.22-.972-1.806-.167-.275-.337-.546-.517-.815-.1-.15-.2-.3-.3-.448-.043-.059-.085-.121-.128-.18C3.308,10.435,2.87,9.889,2.4,9.365A1.5,1.5,0,0,1,4.584,7.3a23.451,23.451,0,0,1,2.689,3.648Q7.917-6.831,8.465-24.62c.069-2.362,3.075-2.31,3,.059q-.422,14.232-.926,28.453c.056-.082.118-.16.173-.242a19.324,19.324,0,0,0,1.125-1.891c.092-.173.177-.347.262-.523.036-.075.072-.154.111-.232V1c.007-.013.007-.016.023-.052.15-.36.3-.72.432-1.086a1.531,1.531,0,0,1,1.878-1,1.526,1.526,0,0,1,1,1.878,20.808,20.808,0,0,1-5.176,7.891Q10,19.057,9.606,29.482a16.721,16.721,0,0,0,1.466-1.541c.183-.236.366-.468.54-.713a1.5,1.5,0,0,1,2.552,1.59A18.282,18.282,0,0,1,9.453,33.4c-.291,7.5-.563,14.991-.88,22.483a80.951,80.951,0,0,0,6.334-5.974,1.516,1.516,0,0,1,2.127.059,1.541,1.541,0,0,1-.059,2.127,81.635,81.635,0,0,1-8.568,7.8" transform="translate(3.7 26.365)" fill="#1b6956"/>
      </g>
    </g>
  </g>
</svg>
