<svg id="Google_map" data-name="Google map" xmlns="http://www.w3.org/2000/svg" width="215" height="42.934" viewBox="0 0 215 42.934">
  <text id="Localisation" transform="translate(61 14.934)" fill="#8dcd65" font-size="16" font-family="BrandonGrotesque-Medium, Brandon Grotesque" font-weight="500" text-decoration="underline"><tspan x="0" y="17">LOCALISATION</tspan></text>
  <g id="map" transform="translate(0 -1)">
    <g id="Group_26860" data-name="Group 26860">
      <path id="Path_41588" data-name="Path 41588" d="M43,9a.945.945,0,0,0-1,1,2.946,2.946,0,0,1-3,3H25a1,1,0,0,0,0,2H39a5.142,5.142,0,0,0,3-1V38a2.946,2.946,0,0,1-3,3H5a2.946,2.946,0,0,1-3-3V14a5.142,5.142,0,0,0,3,1h6a52.191,52.191,0,0,0,4.2,7.6.909.909,0,0,0,.8.4,1.234,1.234,0,0,0,.8-.4C17.1,22.2,23,13.2,23,8A7,7,0,0,0,9,8a16.787,16.787,0,0,0,1.1,5H5a2.946,2.946,0,0,1-3-3A.945.945,0,0,0,1,9a.945.945,0,0,0-1,1V38a4.951,4.951,0,0,0,5,5H39a4.951,4.951,0,0,0,5-5V10A.945.945,0,0,0,43,9ZM16,3a4.951,4.951,0,0,1,5,5c0,3.6-3.4,9.5-5,12.1-1.6-2.6-5-8.6-5-12.1A4.951,4.951,0,0,1,16,3Z" fill="#8dcd65"/>
      <circle id="Ellipse_18" data-name="Ellipse 18" cx="2" cy="2" r="2" transform="translate(14 6)" fill="#8dcd65"/>
      <path id="Path_41589" data-name="Path 41589" d="M39,34a.945.945,0,0,0-1-1H31.5L31,27.9a1.088,1.088,0,0,0-1.1-.9,1.009,1.009,0,0,0-.9,1.1l1,10a1.063,1.063,0,0,0,1,.9h.1a1.009,1.009,0,0,0,.9-1.1L31.7,35H38A.945.945,0,0,0,39,34Z" fill="#8dcd65"/>
      <path id="Path_41590" data-name="Path 41590" d="M11.8,33a4.2,4.2,0,0,0-2.1.6L5.4,36.2a1.027,1.027,0,0,0-.3,1.3A1.193,1.193,0,0,0,6,38a.749.749,0,0,0,.5-.1l4.3-2.6a1.929,1.929,0,0,1,1-.3H26a1,1,0,0,0,0-2Z" fill="#8dcd65"/>
      <path id="Path_41591" data-name="Path 41591" d="M20.4,24.2l-2.2,2.2a1.974,1.974,0,0,1-1.4.6H14.3a1.974,1.974,0,0,1-1.4-.6l-2.2-2.2A4.359,4.359,0,0,0,7.8,23H6a1,1,0,0,0,0,2H7.8a1.974,1.974,0,0,1,1.4.6l2.2,2.2A3.949,3.949,0,0,0,14.2,29h2.5a3.631,3.631,0,0,0,2.8-1.2l2.2-2.2a1.974,1.974,0,0,1,1.4-.6H38a1,1,0,0,0,0-2H30.5L30,17.9a1.088,1.088,0,0,0-1.1-.9,1.009,1.009,0,0,0-.9,1.1l.5,4.9H23.2A3.949,3.949,0,0,0,20.4,24.2Z" fill="#8dcd65"/>
    </g>
  </g>
</svg>
