<svg xmlns="http://www.w3.org/2000/svg" xmlns:xlink="http://www.w3.org/1999/xlink" width="87.23" height="184.19" viewBox="0 0 87.23 184.19">
  <defs>
    <clipPath id="clip-path">
      <path id="Path_32137" data-name="Path 32137" d="M0,113.183H87.23V-71.007H0Z" transform="translate(0 71.007)" fill="none"/>
    </clipPath>
  </defs>
  <g id="Group_26685" data-name="Group 26685" transform="translate(0 71.007)">
    <g id="Group_26684" data-name="Group 26684" transform="translate(0 -71.007)" clip-path="url(#clip-path)">
      <g id="Group_26679" data-name="Group 26679" transform="translate(21.335 17.826)">
        <path id="Path_32132" data-name="Path 32132" d="M20.535,24.416,31.676,4.549,20.535-15.318H-1.742L-12.883,4.549-1.742,24.416ZM6.51-8.823a2.927,2.927,0,0,1,2.884-2.97,2.927,2.927,0,0,1,2.884,2.97v14.3a2.886,2.886,0,1,1-5.769,0ZM9.4,10.676a4.889,4.889,0,0,1,0,9.774,4.889,4.889,0,0,1,0-9.774" transform="translate(12.883 15.318)" fill="#ff561c"/>
      </g>
      <g id="Group_26680" data-name="Group 26680" transform="translate(1.804 0.001)">
        <path id="Path_32133" data-name="Path 32133" d="M12.2,45.4a2.8,2.8,0,0,0,2.48,1.486H31.272v55.731H26.823a2.971,2.971,0,0,0,0,5.94H41.487a2.971,2.971,0,0,0,0-5.94H37.041V46.887H53.627a2.8,2.8,0,0,0,2.48-1.486l19.47-34.7a3.015,3.015,0,0,0,0-2.97L56.106-27a2.8,2.8,0,0,0-2.48-1.486H14.683A2.8,2.8,0,0,0,12.2-27L-7.267,7.731a3.029,3.029,0,0,0,0,2.97ZM6.048,7.724,18.854-15.114a2.863,2.863,0,0,1,2.5-1.486H46.957a2.871,2.871,0,0,1,2.5,1.486l12.8,22.837a3.042,3.042,0,0,1,0,2.97l-12.8,22.84a2.873,2.873,0,0,1-2.5,1.484H21.352a2.866,2.866,0,0,1-2.5-1.484L6.048,10.694a3.042,3.042,0,0,1,0-2.97" transform="translate(7.656 28.483)" fill="#ff561c"/>
      </g>
      <g id="Group_26681" data-name="Group 26681" transform="translate(0.001 178.249)">
        <path id="Path_32134" data-name="Path 32134" d="M6.079,0H-.93A2.917,2.917,0,0,0-3.814,2.97,2.92,2.92,0,0,0-.93,5.943H6.079A2.92,2.92,0,0,0,8.964,2.97,2.917,2.917,0,0,0,6.079,0" transform="translate(3.814)" fill="#ff561c"/>
      </g>
      <g id="Group_26682" data-name="Group 26682" transform="translate(16.701 142.986)">
        <path id="Path_32135" data-name="Path 32135" d="M31.3,21.668H19.621V-10.624a2.936,2.936,0,0,0-2.884-2.97H-2.187a2.936,2.936,0,0,0-2.884,2.97V21.668H-16.755a2.919,2.919,0,0,0-2.884,2.97,2.921,2.921,0,0,0,2.884,2.973H31.3a2.973,2.973,0,0,0,0-5.943" transform="translate(19.639 13.594)" fill="#ff561c"/>
      </g>
      <g id="Group_26683" data-name="Group 26683" transform="translate(74.452 178.249)">
        <path id="Path_32136" data-name="Path 32136" d="M6.079,0H-.93A2.917,2.917,0,0,0-3.814,2.97,2.92,2.92,0,0,0-.93,5.943H6.079A2.92,2.92,0,0,0,8.964,2.97,2.917,2.917,0,0,0,6.079,0" transform="translate(3.814)" fill="#ff561c"/>
      </g>
    </g>
  </g>
</svg>
