<svg xmlns="http://www.w3.org/2000/svg" xmlns:xlink="http://www.w3.org/1999/xlink" width="89.832" height="61.825" viewBox="0 0 89.832 61.825">
  <defs>
    <clipPath id="clip-path">
      <path id="Path_31979" data-name="Path 31979" d="M126.755,15.75h89.832V-46.075H126.755Z" transform="translate(-126.755 46.075)" fill="none"/>
    </clipPath>
  </defs>
  <g id="Group_26507" data-name="Group 26507" clip-path="url(#clip-path)">
    <g id="Group_26472" data-name="Group 26472" transform="translate(79.376 53.054)">
      <path id="Path_31944" data-name="Path 31944" d="M.775,0a1.1,1.1,0,0,1,.85.458,3.9,3.9,0,0,1,.638,1.5,10.231,10.231,0,0,1,.254,2.417,10.126,10.126,0,0,1-.253,2.408,3.6,3.6,0,0,1-.65,1.481,1.137,1.137,0,0,1-.873.461Q.029,8.723-.431,7.7a7.974,7.974,0,0,1-.58-3.29A10.464,10.464,0,0,1-.76,1.96,3.7,3.7,0,0,1-.115.468,1.144,1.144,0,0,1,.775,0m.454,4.6a23.016,23.016,0,0,0-.157-3.444C1,.754.892.557.756.557.593.557.471.841.4,1.412a29.392,29.392,0,0,0-.117,3.3,16.935,16.935,0,0,0,.168,2.9c.067.352.168.528.3.528.085,0,.163-.081.231-.24a3.873,3.873,0,0,0,.166-1.018q.09-1.055.09-2.286" transform="translate(1.011)" fill="#0546a5"/>
    </g>
    <g id="Group_26473" data-name="Group 26473" transform="translate(86.305 53.088)">
      <path id="Path_31945" data-name="Path 31945" d="M.775,0a1.1,1.1,0,0,1,.85.459,3.855,3.855,0,0,1,.636,1.5,10.224,10.224,0,0,1,.256,2.417,9.955,9.955,0,0,1-.254,2.41,3.6,3.6,0,0,1-.648,1.479,1.143,1.143,0,0,1-.873.461Q.028,8.723-.434,7.7A8,8,0,0,1-1.01,4.41,10.384,10.384,0,0,1-.761,1.96,3.708,3.708,0,0,1-.116.468,1.146,1.146,0,0,1,.775,0m.454,4.6a23.224,23.224,0,0,0-.157-3.442C1,.754.891.557.755.557c-.161,0-.283.286-.36.855A30.049,30.049,0,0,0,.28,4.718a17.255,17.255,0,0,0,.164,2.9c.069.35.168.527.3.527.085,0,.163-.08.23-.24a3.849,3.849,0,0,0,.168-1.018c.062-.7.09-1.465.09-2.286" transform="translate(1.01)" fill="#0546a5"/>
    </g>
    <g id="Group_26474" data-name="Group 26474" transform="translate(72.415 53.054)">
      <path id="Path_31946" data-name="Path 31946" d="M.776,0a1.1,1.1,0,0,1,.848.458,3.865,3.865,0,0,1,.636,1.5,10.133,10.133,0,0,1,.256,2.417,10.036,10.036,0,0,1-.253,2.408,3.592,3.592,0,0,1-.65,1.479,1.139,1.139,0,0,1-.871.463Q.027,8.723-.432,7.7a8,8,0,0,1-.58-3.29A10.363,10.363,0,0,1-.759,1.96,3.693,3.693,0,0,1-.114.466,1.142,1.142,0,0,1,.776,0m.452,4.6a23.254,23.254,0,0,0-.157-3.444C1,.754.893.555.757.555q-.246,0-.362.857a29.842,29.842,0,0,0-.117,3.3,17.175,17.175,0,0,0,.166,2.9c.071.352.17.528.3.528.083,0,.161-.081.228-.24a3.983,3.983,0,0,0,.17-1.018q.087-1.055.088-2.286" transform="translate(1.012)" fill="#0546a5"/>
    </g>
    <g id="Group_26475" data-name="Group 26475" transform="translate(5.541 7.146)">
      <path id="Path_31947" data-name="Path 31947" d="M0,0V39.524H44.445A4.579,4.579,0,0,0,46.7,42a11.436,11.436,0,0,0,5.873,1.424A11.44,11.44,0,0,0,58.448,42s4.691-1.854,6.14-1.958,4.435-.816,5.985.322S74,43.044,75.547,43.044s8.064.1,8.064.1V0Z" fill="#fff"/>
    </g>
    <g id="Group_26476" data-name="Group 26476" transform="translate(5.541 7.146)">
      <path id="Path_31948" data-name="Path 31948" d="M0,0V39.524H44.445A4.579,4.579,0,0,0,46.7,42a11.436,11.436,0,0,0,5.873,1.424A11.44,11.44,0,0,0,58.448,42s4.691-1.854,6.14-1.958,4.435-.816,5.985.322S74,43.044,75.547,43.044s8.064.1,8.064.1V0Z" fill="none" stroke="#fff" stroke-linejoin="round" stroke-width="0.152"/>
    </g>
    <g id="Group_26477" data-name="Group 26477" transform="translate(5.535 25.06)">
      <path id="Path_31949" data-name="Path 31949" d="M0,11.426l54.838.037L39.934-6.522,33.165.627l-6.721,3.09L21.982-2.725,20.147,1.6,18.2-2.762,14.991-7.174,0-14.9Z" transform="translate(0 14.899)" fill="#00af90"/>
    </g>
    <g id="Group_26478" data-name="Group 26478" transform="translate(37.581 -0.001)">
      <path id="Path_31950" data-name="Path 31950" d="M13.015.937,10.661,2.948a9.548,9.548,0,0,1-.671,1.06A8.018,8.018,0,0,1,8.6,4.847,10.487,10.487,0,0,0,6.246,6.393,6.865,6.865,0,0,0,4.567,9.726c-.412,1.723-.959,2.695-2.781,3.182a29.751,29.751,0,0,1-4.011.392c-.1.005-4.992.078-5.557.055-.24-.009-2.887-.078-3.318-.166a8.654,8.654,0,0,0-2.037-.988,2,2,0,0,0-1.053.094,1.644,1.644,0,0,0-.583.465c-.329.4-.4.5-.717.634-.1.042-1.247.355-1.3.371-.157.053-.178.111-.178.111l.088.076s2.179.005,2.263,0a18.011,18.011,0,0,0,1.884.147c.426,0,.891.157,1.277.187,1.518.118,7.015.928,8.515,1.136,2.417.336,8.237,2.2,10.333,2.514a24.823,24.823,0,0,0,8.223-.373c4.211-.852,7.9-1.475,12.393-2.05.442-.057,3.55-.488,3.652-.5.77-.1.74-.449.74-.449s-.021-.26-.516-.242c-.59.023-3.357.178-3.855.2a63.492,63.492,0,0,1-10.874-.389,2.285,2.285,0,0,1-.6-.17c-1.147-.454-1.544-1.8-1.21-4.152C15.559,8.307,17.519-1.2,17.519-1.2v-.018s-.053.011-.113.111c-.1.18-3.044,5.419-3.044,5.419l.848-4.47L12.79,3.227Z" transform="translate(16.97 1.222)" fill="#0546a5"/>
    </g>
    <g id="Group_26479" data-name="Group 26479" transform="translate(0 1.921)">
      <path id="Path_31951" data-name="Path 31951" d="M13.977,1.347l-2.21-3.1a2.768,2.768,0,0,1-.433.982,26.881,26.881,0,0,1-6.163,5.9c-.154.113-1.5,1.117-1.951,1.49a.705.705,0,0,0-.09.968c.159.3.452.786.585,1.08a2.431,2.431,0,0,1-.495,3.129,5.7,5.7,0,0,1-1.59.947,8.432,8.432,0,0,1-1.053.375,19.384,19.384,0,0,1-2.668.39c-.638.049-2.092.051-2.8.074-.654.021-3.38.009-4.08,0a29.252,29.252,0,0,1-3.317-.15,10.038,10.038,0,0,0-1.03-.65,2.681,2.681,0,0,0-1.523-.336,1.588,1.588,0,0,0-.9.316,1.249,1.249,0,0,0-.224.242,1.58,1.58,0,0,1-.717.634c-.175.069-1.1.3-1.32.371s-.224.113-.224.113l.155.074h2.263a8.291,8.291,0,0,0,1.322.159h.585a2.823,2.823,0,0,1,.648.1c.208.046.523.09.765.14s2.705.329,3.919.475c.887.106,2.189.24,3,.41.959.2,2.385.495,3.205.744.217.067,2.2.634,2.375.689a28.671,28.671,0,0,0,6.209,1.3,25.555,25.555,0,0,0,6.589-.131c2.028-.251,3.735-.716,6.05-1.21,2.723-.581,5.61-.811,7.979-1.08,1.009-.115,2.933-.421,3.675-.539.839-.136.693-.449.693-.449s-.06-.244-.516-.223c-.113,0-1.709.148-2.119.182-.88.069-2.207.1-3.393.1-1.277-.007-3.087-.064-4.841-.223a56.505,56.505,0,0,1-5.893-.671c-.318-.078-.726-.168-.723-.431,0-.189.152-.35.505-.693.583-.569.493-.995.518-2.7.034-2.354.3-5.235.258-5.467a.292.292,0,0,0-.447-.168,6.221,6.221,0,0,0-.83.652.345.345,0,0,1,0-.223,12.149,12.149,0,0,1,.74-1.415,1.087,1.087,0,0,0,.2-.521c0-.1-.078-.207-.38-.148a2.166,2.166,0,0,1-.449.057c-.23,0-.488-.12-.359-.542a8.517,8.517,0,0,1,.493-1.023" transform="translate(18.225 1.757)" fill="#0546a5"/>
    </g>
    <g id="Group_26480" data-name="Group 26480" transform="translate(13.801 12.995)">
      <path id="Path_31952" data-name="Path 31952" d="M.05,1.463a10.65,10.65,0,0,1-.113-1.7C-.044-1.1.05-1.907.05-1.907a6.386,6.386,0,0,0,.4.521C1.612-.084,2.932.424,5.2.344A7.055,7.055,0,0,0,6.549.178,7.5,7.5,0,0,1,5.5.66a17.2,17.2,0,0,1-5.446.8" transform="translate(0.065 1.907)" fill="#0546a5"/>
    </g>
    <g id="Group_26481" data-name="Group 26481" transform="translate(4.974 53.322)">
      <path id="Path_31953" data-name="Path 31953" d="M1.838,2.271-.4-2.961H-2.4l.785.3V4.971L-2.4,5.25H-.379L-1.1,4.971V-1.491L1.771,5.25h.562V-2.664l.76-.3H1.033l.806.3Z" transform="translate(2.397 2.961)" fill="#0546a5"/>
    </g>
    <g id="Group_26482" data-name="Group 26482" transform="translate(4.974 53.322)">
      <path id="Path_31954" data-name="Path 31954" d="M1.838,2.271-.4-2.961H-2.4l.785.3V4.971L-2.4,5.25H-.379L-1.1,4.971V-1.491L1.771,5.25h.562V-2.664l.76-.3H1.033l.806.3Z" transform="translate(2.397 2.961)" fill="none" stroke="#0546a5" stroke-miterlimit="3.864" stroke-width="0.077"/>
    </g>
    <g id="Group_26483" data-name="Group 26483" transform="translate(16.784 53.284)">
      <path id="Path_31955" data-name="Path 31955" d="M0,2.279H.673L.023-.811,0-.7V-2.246l.178-.726h.4L2.668,5l.739.279H.629L1.368,5,.717,2.484H0Z" transform="translate(0 2.972)" fill="#0546a5"/>
    </g>
    <g id="Group_26484" data-name="Group 26484" transform="translate(16.784 53.284)">
      <path id="Path_31956" data-name="Path 31956" d="M0,2.279H.673L.023-.811,0-.7V-2.246l.178-.726h.4L2.668,5l.739.279H.629L1.368,5,.717,2.484H0Z" transform="translate(0 2.972)" fill="none" stroke="#0546a5" stroke-miterlimit="3.864" stroke-width="0.077"/>
    </g>
    <g id="Group_26485" data-name="Group 26485" transform="translate(14.14 54.009)">
      <path id="Path_31957" data-name="Path 31957" d="M1.147.671.476,3.65h.671v.2H.453L-.22,6.369l.74.277H-1.5l.76-.277L1.147-.875Z" transform="translate(1.496 0.875)" fill="#0546a5"/>
    </g>
    <g id="Group_26486" data-name="Group 26486" transform="translate(14.14 54.009)">
      <path id="Path_31958" data-name="Path 31958" d="M1.147.671.476,3.65h.671v.2H.453L-.22,6.369l.74.277H-1.5l.76-.277L1.147-.875Z" transform="translate(1.496 0.875)" fill="none" stroke="#0546a5" stroke-miterlimit="3.864" stroke-width="0.077"/>
    </g>
    <g id="Group_26487" data-name="Group 26487" transform="translate(24.47 53.322)">
      <path id="Path_31959" data-name="Path 31959" d="M1.955,1.107v-2.55h-4.5v2.55h.067L-1.63-1.22h.7V6.487l-.919.279H1.239l-.9-.279V-1.22h.717l.852,2.327Z" transform="translate(2.549 1.443)" fill="#0546a5"/>
    </g>
    <g id="Group_26488" data-name="Group 26488" transform="translate(24.47 53.322)">
      <path id="Path_31960" data-name="Path 31960" d="M1.955,1.107v-2.55h-4.5v2.55h.067L-1.63-1.22h.7V6.487l-.919.279H1.239l-.9-.279V-1.22h.717l.852,2.327Z" transform="translate(2.549 1.443)" fill="none" stroke="#0546a5" stroke-miterlimit="3.864" stroke-width="0.077"/>
    </g>
    <g id="Group_26489" data-name="Group 26489" transform="translate(33.637 53.323)">
      <path id="Path_31961" data-name="Path 31961" d="M2,.12l.74-.277H.7L1.487.12s.009,5.2,0,5.306a4.045,4.045,0,0,1-.4,1.769A1.1,1.1,0,0,1,.13,7.87a.655.655,0,0,1-.611-.5A7.143,7.143,0,0,1-.6,6.078C-.6,5.918-.6.12-.6.12L.166-.157H-2.612L-1.85.12s0,4.824,0,4.935c.016,2.286.774,2.688,1.12,2.908A1.673,1.673,0,0,0,1,7.9c.258-.164.977-.7,1-2.8C2,4.99,2,.12,2,.12" transform="translate(2.612 0.157)" fill="#0546a5"/>
    </g>
    <g id="Group_26490" data-name="Group 26490" transform="translate(33.637 53.323)">
      <path id="Path_31962" data-name="Path 31962" d="M2,.12l.74-.277H.7L1.487.12s.009,5.2,0,5.306a4.045,4.045,0,0,1-.4,1.769A1.1,1.1,0,0,1,.13,7.87a.655.655,0,0,1-.611-.5A7.143,7.143,0,0,1-.6,6.078C-.6,5.918-.6.12-.6.12L.166-.157H-2.612L-1.85.12s0,4.824,0,4.935c.016,2.286.774,2.688,1.12,2.908A1.673,1.673,0,0,0,1,7.9c.258-.164.977-.7,1-2.8C2,4.99,2,.12,2,.12Z" transform="translate(2.612 0.157)" fill="none" stroke="#0546a5" stroke-miterlimit="3.864" stroke-width="0.077"/>
    </g>
    <g id="Group_26491" data-name="Group 26491" transform="translate(46.141 61.532)">
      <path id="Path_31963" data-name="Path 31963" d="M0,0H.067Z" fill="#0546a5"/>
    </g>
    <g id="Group_26492" data-name="Group 26492" transform="translate(46.141 61.532)">
      <path id="Path_31964" data-name="Path 31964" d="M0,0H0Z" fill="none" stroke="#0546a5" stroke-miterlimit="3.864" stroke-width="0.077"/>
    </g>
    <g id="Group_26493" data-name="Group 26493" transform="translate(43.407 53.322)">
      <path id="Path_31965" data-name="Path 31965" d="M1.186.129A4.34,4.34,0,0,0,.469.055V3.481a2.242,2.242,0,0,0,.717-.074l-.005.352-.2-.037L.469,3.7V7.762l.717.279H-1.547l.762-.279V.109l-.762-.277H.291s.769.005.912.019A2.485,2.485,0,0,1,2.9.691,2.058,2.058,0,0,1,3.07,2.419a1.693,1.693,0,0,1-1.009.949c-.113.055-.807.224-.807.224s.463.1.6.111a.807.807,0,0,1,.786.5c.049.124.12.353.155.484s.74,3.071.74,3.071l.694.279H2.261S1.568,4.331,1.5,4.1a.458.458,0,0,0-.318-.337l.005-.352.044-.019a.959.959,0,0,0,.627-.8,5.848,5.848,0,0,0,0-1.675A.875.875,0,0,0,1.186.129" transform="translate(1.547 0.168)" fill="#0546a5"/>
    </g>
    <g id="Group_26494" data-name="Group 26494" transform="translate(43.407 53.322)">
      <path id="Path_31966" data-name="Path 31966" d="M1.186.129A4.34,4.34,0,0,0,.469.055V3.481a2.242,2.242,0,0,0,.717-.074l-.005.352-.2-.037L.469,3.7V7.762l.717.279H-1.547l.762-.279V.109l-.762-.277H.291s.769.005.912.019A2.485,2.485,0,0,1,2.9.691,2.058,2.058,0,0,1,3.07,2.419a1.693,1.693,0,0,1-1.009.949c-.113.055-.807.224-.807.224s.463.1.6.111a.807.807,0,0,1,.786.5c.049.124.12.353.155.484s.74,3.071.74,3.071l.694.279H2.261S1.568,4.331,1.5,4.1a.458.458,0,0,0-.318-.337l.005-.352.044-.019a.959.959,0,0,0,.627-.8,5.848,5.848,0,0,0,0-1.675A.875.875,0,0,0,1.186.129Z" transform="translate(1.547 0.168)" fill="none" stroke="#0546a5" stroke-miterlimit="3.864" stroke-width="0.077"/>
    </g>
    <g id="Group_26495" data-name="Group 26495" transform="translate(55.553 53.284)">
      <path id="Path_31967" data-name="Path 31967" d="M0,2.279H.671L.044-.811,0-.682V-2.246l.2-.726H.6L2.668,5l.762.279H.627L1.389,5,.74,2.484H0Z" transform="translate(0 2.972)" fill="#0546a5"/>
    </g>
    <g id="Group_26496" data-name="Group 26496" transform="translate(55.553 53.284)">
      <path id="Path_31968" data-name="Path 31968" d="M0,2.279H.671L.044-.811,0-.682V-2.246l.2-.726H.6L2.668,5l.762.279H.627L1.389,5,.74,2.484H0Z" transform="translate(0 2.972)" fill="none" stroke="#0546a5" stroke-miterlimit="3.864" stroke-width="0.077"/>
    </g>
    <g id="Group_26497" data-name="Group 26497" transform="translate(52.931 54.009)">
      <path id="Path_31969" data-name="Path 31969" d="M1.138.679.511,3.641h.627v.2H.444l-.65,2.513.762.279H-1.484l.739-.279L1.138-.886Z" transform="translate(1.484 0.886)" fill="#0546a5"/>
    </g>
    <g id="Group_26498" data-name="Group 26498" transform="translate(52.931 54.009)">
      <path id="Path_31970" data-name="Path 31970" d="M1.138.679.511,3.641h.627v.2H.444l-.65,2.513.762.279H-1.484l.739-.279L1.138-.886Z" transform="translate(1.484 0.886)" fill="none" stroke="#0546a5" stroke-miterlimit="3.864" stroke-width="0.077"/>
    </g>
    <g id="Group_26499" data-name="Group 26499" transform="translate(65.996 53.211)">
      <path id="Path_31971" data-name="Path 31971" d="M.282.25l-.4-.576V2.335H-.1A10.772,10.772,0,0,1,.611.3.607.607,0,0,1,1.645.284c.143.219.35.7-.039,2.145C1.392,3.222-.368,7.994-.368,7.994H2.456V5.425H2.434L1.872,7.381H.148A43.71,43.71,0,0,0,2.593,2.144a1.888,1.888,0,0,0-1-2.366A1.271,1.271,0,0,0,.282.25" transform="translate(0.368 0.326)" fill="#0546a5"/>
    </g>
    <g id="Group_26500" data-name="Group 26500" transform="translate(65.996 53.211)">
      <path id="Path_31972" data-name="Path 31972" d="M.282.25l-.4-.576V2.335H-.1A10.772,10.772,0,0,1,.611.3.607.607,0,0,1,1.645.284c.143.219.35.7-.039,2.145C1.392,3.222-.368,7.994-.368,7.994H2.456V5.425H2.434L1.872,7.381H.148A43.71,43.71,0,0,0,2.593,2.144a1.888,1.888,0,0,0-1-2.366A1.271,1.271,0,0,0,.282.25Z" transform="translate(0.368 0.326)" fill="none" stroke="#0546a5" stroke-miterlimit="3.864" stroke-width="0.077"/>
    </g>
    <g id="Group_26501" data-name="Group 26501" transform="translate(5.535 7.072)">
      <path id="Path_31973" data-name="Path 31973" d="M12.285,0H38.525M-16.018,8.658V0H2.738" transform="translate(16.018)" fill="none" stroke="#00af90" stroke-miterlimit="3.864" stroke-width="0.151"/>
    </g>
    <g id="Group_26502" data-name="Group 26502" transform="translate(5.542 20.256)">
      <path id="Path_31974" data-name="Path 31974" d="M0,13.519,0-17.628" transform="translate(0 17.628)" fill="none" stroke="#0546a5" stroke-miterlimit="3.864" stroke-width="0.151"/>
    </g>
    <g id="Group_26503" data-name="Group 26503" transform="translate(52.237 38.892)">
      <path id="Path_31975" data-name="Path 31975" d="M0,0S.08.071.136.131C.926.984,3.518,4.17,3.518,4.17A15.377,15.377,0,0,0,9.771,5.1a32.3,32.3,0,0,0,5.043-.762c.39-.072.756-.14,1.368-.207,2.124-.233,3.09-.233,4.705.8.4.256,4.516,2.753,4.794,2.924a6.307,6.307,0,0,0,4.594.447,10.511,10.511,0,0,1,5.447-.689c.293.042,1.12.223,1.12.223s-2.271-1.663-3.317-2.253a6.345,6.345,0,0,0-4.258-.875c-.274.053-.021-.019-.021-.019a34.3,34.3,0,0,1-4.6.8,5.7,5.7,0,0,1-4.571-1.673,15.074,15.074,0,0,0-2.062-1.845,6.079,6.079,0,0,0-3.092-.707c-.345-.005-3.029.083-5.221.148A29.207,29.207,0,0,1,1.569.523C1.147.376,0,0,0,0" fill="#00af90"/>
    </g>
    <g id="Group_26504" data-name="Group 26504" transform="translate(56.472 44.03)">
      <path id="Path_31976" data-name="Path 31976" d="M14.25,3.152l-.09-2.2a8.09,8.09,0,0,0-3.2-.726,22.051,22.051,0,0,0-4.552.838A5.168,5.168,0,0,1,2.8.657,13.327,13.327,0,0,1,.6-1.055C.308-1.348.046-1.673-.427-2.135-1.472-3.151-1.882-3.378-2.85-3.458a25.906,25.906,0,0,0-4.5.318,27.2,27.2,0,0,1-10.958-.839c-.29-.083-.269-.131-.269-.131s.6.624.829.859c1.758,1.815,5.223,5.976,5.223,5.976s.228-.113.707-.343A31.364,31.364,0,0,1-3.366-.237c2-.318,3.589-.318,4.932.6.385.26.378.242.806.521a32.149,32.149,0,0,0,5.154,2.94,5.629,5.629,0,0,0,3.407.187c1.394-.336,3.318-.857,3.318-.857" transform="translate(18.581 4.11)" fill="#00af90"/>
    </g>
    <g id="Group_26505" data-name="Group 26505" transform="translate(71.778 7.074)">
      <path id="Path_31977" data-name="Path 31977" d="M0,0H17.592V44.226" fill="none" stroke="#0546a5" stroke-miterlimit="3.864" stroke-width="0.151"/>
    </g>
    <g id="Group_26506" data-name="Group 26506" transform="translate(29.334 21.149)">
      <path id="Path_31978" data-name="Path 31978" d="M2.325,2.982,1.607,4.825H-.768l1.9,1.193L.4,7.952l1.926-1.21,1.951,1.21L3.512,6.035,5.44,4.825H3.019ZM.038,10.02l-.694,1.825H-3.031l1.926,1.191-.762,1.937L.061,13.781,2.01,14.972l-.762-1.919L3.2,11.845H.779Zm33.324,0-.7,1.845h-2.4L32.2,13.053l-.739,1.937,1.928-1.209,1.907,1.209-.74-1.917,1.928-1.209h-2.4ZM31.168,2.982l-.717,1.843H28.1L30,6.017l-.76,1.935,1.949-1.21,1.928,1.21-.786-1.917,1.951-1.21h-2.4ZM25.406-2.344,24.712-.518H22.337l1.9,1.21L23.5,2.611l1.928-1.175,1.928,1.175L26.6.692l1.928-1.21h-2.4ZM16.732-3.888l-.694,1.843H13.686l1.9,1.173-.762,1.954,1.9-1.191,1.951,1.191-.76-1.935,1.949-1.193H17.449ZM8.085-2.379,7.367-.536H4.993L6.9.655l-.74,1.937L8.085,1.379l1.926,1.212L9.272.674,11.2-.536H8.8Z" transform="translate(3.031 3.888)" fill="none" stroke="#0546a5" stroke-miterlimit="3.864" stroke-width="0.037"/>
    </g>
  </g>
</svg>
