<svg xmlns="http://www.w3.org/2000/svg" width="366.534" height="347.586" viewBox="0 0 366.534 347.586">
  <g id="Group_26836" data-name="Group 26836" transform="translate(-715.528 -702.302)">
    <g id="Group_26825" data-name="Group 26825">
      <path id="Path_41207" data-name="Path 41207" d="M776.94,1035.574c-11.046-.318-21.279,4.391-31.045,9a1.284,1.284,0,0,0-.692.718,1.64,1.64,0,0,0,1.03,2.692c5.532.63,11.2,1.22,16.664-.2a19.712,19.712,0,0,0,6.668-3.054c.592-.434,1.871-1.789,2.682-1.579,1.05.272,1.15,2.81,1.125,3.623a1.516,1.516,0,0,0,1.5,1.5l2.062-.061a1.525,1.525,0,0,0,1.5-1.5l.006-9.64A1.526,1.526,0,0,0,776.94,1035.574Z" fill="#5f5c52"/>
      <path id="Path_41208" data-name="Path 41208" d="M811.3,1037.074l.006,9.64a1.525,1.525,0,0,0,1.5,1.5l2.062.061a1.516,1.516,0,0,0,1.5-1.5c-.025-.813.075-3.351,1.125-3.623.811-.21,2.09,1.145,2.682,1.579a19.712,19.712,0,0,0,6.668,3.054c5.465,1.42,11.132.83,16.664.2a1.64,1.64,0,0,0,1.03-2.692,1.284,1.284,0,0,0-.692-.718c-9.766-4.61-20-9.319-31.045-9A1.526,1.526,0,0,0,811.3,1037.074Z" fill="#5f5c52"/>
      <path id="Path_41209" data-name="Path 41209" d="M760.5,781.575a22.43,22.43,0,0,0-1.135-3.456,18.005,18.005,0,0,0-2.8-7.166l-.005-.017a.906.906,0,0,0-.456-.595c-.166-.214-.326-.432-.507-.639.255-.274.5-.552.771-.817.918-.905-.5-2.319-1.415-1.414-.321.317-.62.648-.923.976a1.034,1.034,0,0,0-1.065,1.224c-6.1,7.415-8.05,17.265-9.147,26.641-.7,5.97-1.227,11.944-2.421,17.843a138.009,138.009,0,0,1-4.55,16.673c-3.723,11.054-8.54,21.7-13.365,32.3a43.513,43.513,0,0,1-3.953,7.393c-1.471,2.06-3.285,3.9-3.807,6.473a13.631,13.631,0,0,0,1.062,7.72,9.608,9.608,0,0,0,4.12,5.09,3.954,3.954,0,0,0,5.325-1.339c1.172-1.94.55-4.429.291-6.526a6.334,6.334,0,0,0-.64-2.84c6.9-14.035,14.325-27.766,22.011-41.389a62.771,62.771,0,0,0,5.017-11.082,119.5,119.5,0,0,0,3.2-12.113q1.4-6.418,2.3-12.937c.505-2.617.944-5.248,1.35-7.886C760.367,789.746,761.4,785.548,760.5,781.575Z" fill="#f5a76e"/>
      <path id="Path_41210" data-name="Path 41210" d="M747.663,799.491a1.028,1.028,0,0,0-.914-.615l-.266.036a1,1,0,0,0-.441.257l-.157.2a.992.992,0,0,0-.136.5v.422a.968.968,0,0,0,.614.914.763.763,0,0,0,.386.086l.265-.036a.993.993,0,0,0,.442-.257l.156-.2a1,1,0,0,0,.137-.505v-.422A.762.762,0,0,0,747.663,799.491Z" fill="#f5a76e"/>
      <path id="Path_41211" data-name="Path 41211" d="M862.278,857.12a36.26,36.26,0,0,0-4.6-4.148c-1.367-1.147-2.811-2.764-4.631-3.142-1.992-.414-3.953.6-5.975.17a13.257,13.257,0,0,1-5.331-2.831,92.035,92.035,0,0,1-9.941-9.557q-3.49-3.777-6.638-7.847c.047-.355.088-.711.12-1.068.338-3.673.191-7.417.174-11.1q-.025-5.317-.2-10.633c.21-1.636.416-3.273.656-4.906a115.729,115.729,0,0,0,1.476-13.652,44.176,44.176,0,0,0-.289-6.656,15.585,15.585,0,0,0-1.422-5.665c-1.008-1.817-2.967-2.949-4.638-4.078q-3.157-2.133-6.476-4.008a1,1,0,0,0-1.01,1.726c.434.247.86.506,1.29.758a.956.956,0,0,0-.156.506q-.138,8.955-.276,17.909-.066,4.353-.134,8.705l-.033,2.146-.183,1.692c-.514-.6-1.865-.286-1.774.666l.37,3.89c.282,5.635-.532,11.3-.813,16.921a46.474,46.474,0,0,0,.4,9.812,26.415,26.415,0,0,0,1.167,4.6c.425,1.2.92,2.59,2.108,3.235a2.763,2.763,0,0,0,1.261.33,13.23,13.23,0,0,0,3.552,3.056c3.69,2.267,7.48,4.368,11.16,6.654q5.605,3.481,11.069,7.184c3.587,2.432,7.023,5.113,10.649,7.48,2.689,1.755,6.412,2.933,9.223.722C865.354,863.689,864.369,859.6,862.278,857.12Z" fill="#f5a76e"/>
      <path id="Path_41212" data-name="Path 41212" d="M866.192,796.45a169.8,169.8,0,0,1-14.615-19.022,4.052,4.052,0,0,0-.4-2.5,3.338,3.338,0,0,0-2.151-1.662,4.567,4.567,0,0,0-5.53.051,7.739,7.739,0,0,0-2.24,2.758,5.811,5.811,0,0,0-.755,3.846,7.739,7.739,0,0,0,1.977,3.274,3.264,3.264,0,0,0,3.3,1.116c3.5,3.024,6.167,6.828,9.029,10.433a45.263,45.263,0,0,0,4.811,5.319c.759.694,1.684,1.724,2.8,1.114a24.693,24.693,0,0,0,3.192-2.536.819.819,0,0,0,.338-.626A1.026,1.026,0,0,0,866.192,796.45Z" fill="#101724"/>
      <path id="Path_41213" data-name="Path 41213" d="M820.446,945.363c-.4-4.145-.823-8.285-1.308-12.417-.278-2.372-.6-4.73-.935-7.082-.1-.93-.21-1.857-.307-2.787a3.221,3.221,0,0,0-.252-.935c-1.93-12.336-4.575-24.462-7.4-36.692-3.919-16.935-5.157-34.138-6.177-51.444,0-.052-.019-.1-.024-.146q3.724-11.881,7.235-23.826a60.629,60.629,0,0,0,2.911-9.587c1.021-4.986,1.147-10.175,1.531-15.235.347-4.579,1.761-10.233.5-14.747a6.629,6.629,0,0,0-3.2-4.148,14.541,14.541,0,0,0-8.221-3.171,1.5,1.5,0,0,0-1.5,1.5,1.542,1.542,0,0,0,1.5,1.5l.321.035.127.014c.2.027.4.059.595.093.424.074.847.164,1.264.272.047.012.093.031.141.043-2.265,1.295-4.034,3.708-5.564,5.581A217.327,217.327,0,0,0,785.716,794.5a135.217,135.217,0,0,1-6.61-15.537,3.182,3.182,0,0,0-5.692-.528A171.34,171.34,0,0,0,756.969,789.6a2.658,2.658,0,0,0-2.984,2.876q1.343,23.136,2.683,46.271c-10.217,13.122-9.8,29.879-7.508,45.737-.035.032-.06.074-.093.107,1.422,5.105.924,10.775,1.23,15.986.146,2.483.2,4.965.216,7.449.045.5.095,1.005.139,1.507q.884,40.331,3.356,80.6a3.018,3.018,0,0,0-.346,1.309,396.72,396.72,0,0,0,.755,45.262,3.176,3.176,0,0,0,.306,1.159,19.889,19.889,0,0,1,3.256-.071,70.4,70.4,0,0,1,7.606-.169c3.993.044,11.308.4,15.3.408,16.925.018,18.3.181,32.763-.02,5.279-.073,8.553-.22,12.172-.22,4.473,0,7.987.134,9.013.072C828.944,1008.029,824.145,975.537,820.446,945.363Z" fill="#101724"/>
      <path id="Path_41214" data-name="Path 41214" d="M812.321,719.34a18.667,18.667,0,0,0-9.38-9.062c-8.128-3.627-18.632-2.574-25.722,2.891a18.18,18.18,0,0,0-6.979,12.347,24.869,24.869,0,0,0,.262,7.5c.417,2.286,1.274,4.494,1.546,6.806a11.447,11.447,0,0,1,.488,3.507,38.336,38.336,0,0,1-.529,6.586c-.577,3.464-1.776,7.415-5.034,9.247a25.751,25.751,0,0,1-4.4,1.676,25.729,25.729,0,0,0-16.84,19.107.641.641,0,0,1-.269.4c-.578,2.248-1.123,4.5-1.509,6.8a62.1,62.1,0,0,0-.809,8.366,15.68,15.68,0,0,0,1.446,1.939,14.619,14.619,0,0,0,6.145,4,22.591,22.591,0,0,0,15.326-.621,24.692,24.692,0,0,0,6.707-3.95,54.378,54.378,0,0,0,5.812-5.807q6.062-6.747,12.116-13.5,3.038-3.386,6.076-6.772a81.746,81.746,0,0,0,5.739-6.577c1.616-2.245,2-4.986,3.258-7.407,1.216-2.345,2.814-4.468,4.053-6.8a41.141,41.141,0,0,0,4.6-15.307C814.929,729.52,814.556,724.108,812.321,719.34Z" fill="#b84931"/>
      <path id="Path_41215" data-name="Path 41215" d="M804.656,773.46c1.876-2.789,3.956-6.076,3.39-9.6,0-.016,0-.03,0-.046-2.065-.972-5.2-.939-6.853-1.7-2.4-1.108-2.224-3.329-2.246-5.63l-.044-4.342c8.54-4.241,13.585-15.093,11.974-24.415a13.89,13.89,0,0,0-10.787-11.536,25.18,25.18,0,0,0-3.231-.458,17.521,17.521,0,0,0-13.2,2.571c-4.977,3.37-7.468,8.665-8.068,14.536-.524,5.126.371,10.794,3.449,15.042a14.5,14.5,0,0,0,3.7,3.568,22.335,22.335,0,0,1-1.909,10.74,28.822,28.822,0,0,0-2.043,5.758,28.033,28.033,0,0,0-.4,6.076c.2,7.375,2.422,14.8,7.476,20.32a1.014,1.014,0,0,0,1.571-.2,183.436,183.436,0,0,1,16.093-19.529C803.9,774.222,804.283,773.847,804.656,773.46Z" fill="#f5a76e"/>
      <path id="Path_41216" data-name="Path 41216" d="M796.511,742.15a8.706,8.706,0,0,0-1.471-.518c-1.194-.116-1.081.446-1.463.427-.467-.023-.863-.419-1.33-.432a10.478,10.478,0,0,0-1.64.392,4.663,4.663,0,0,1-1.725.1.2.2,0,0,0-.15.343c.862.739,1.955,1.972,3.2,1.91.281-.015.556-.082.834-.116a3.639,3.639,0,0,1,.909,0,3.371,3.371,0,0,0,.469.049c1.21-.011,1.64-1.193,2.472-1.8C796.771,742.4,796.685,742.214,796.511,742.15Z" fill="#4c1d12"/>
      <path id="Path_41217" data-name="Path 41217" d="M812.63,730.188a22.849,22.849,0,0,0-13.583-19.235,1.558,1.558,0,0,0-1.6.2,22.567,22.567,0,0,0-25.2,21.134,1.262,1.262,0,0,0,1.073,1.407,1.481,1.481,0,0,0,1.863.383c8.127-4.161,13.2-12.008,20.1-17.693,3.55,2.5,7.485,4.544,10.569,7.638a14.5,14.5,0,0,1,3.447,5.342,1.57,1.57,0,0,0-.022.406c.3,3.639.4,7.228-.862,10.711a40.779,40.779,0,0,1-4.947,8.71c-1.084,1.6,1.514,3.107,2.591,1.515a43.719,43.719,0,0,0,5.249-9.428,19.882,19.882,0,0,0,1.089-5.461c.006-.019.016-.035.022-.055A11.258,11.258,0,0,0,812.63,730.188Z" fill="#b84931"/>
      <path id="Path_41218" data-name="Path 41218" d="M782.445,730.763c.069-.249.327-.389.564-.493a12.955,12.955,0,0,1,7.5-.892" fill="none" stroke="#4c1d12" stroke-miterlimit="10" stroke-width="0.7"/>
      <path id="Path_41219" data-name="Path 41219" d="M804.175,729.969a.862.862,0,0,0-.493-.45,7.506,7.506,0,0,0-5.616-.416" fill="none" stroke="#4c1d12" stroke-miterlimit="10" stroke-width="0.7"/>
      <path id="Path_41220" data-name="Path 41220" d="M799.734,730.889a.774.774,0,0,0,0,1.548A.774.774,0,0,0,799.734,730.889Z" fill="#4c1d12"/>
      <path id="Path_41221" data-name="Path 41221" d="M788.3,731.308a.774.774,0,0,0,0,1.548A.774.774,0,0,0,788.3,731.308Z" fill="#4c1d12"/>
      <path id="Path_41222" data-name="Path 41222" d="M792.68,739.568a26.565,26.565,0,0,0,3.573-.5q-.546-4.177-1.416-8.3" fill="none" stroke="#4c1d12" stroke-miterlimit="10" stroke-width="0.7"/>
      <path id="Path_41223" data-name="Path 41223" d="M853.429,789.745q6.339,129.24,16.825,258.24" fill="none" stroke="#101724" stroke-miterlimit="10" stroke-width="0.992"/>
    </g>
    <g id="Group_26829" data-name="Group 26829">
      <g id="Group_26827" data-name="Group 26827">
        <path id="Path_41224" data-name="Path 41224" d="M892.187,1043.042a7.016,7.016,0,0,1-1.111-4.148,6.3,6.3,0,0,1,.825-2.586c.491-.789,1.028-1.557,1.483-2.358a22.281,22.281,0,0,0,2.459-13.841c3.289-.192,6.585-.245,9.878-.133.248-.024.5-.043.744-.066a33.964,33.964,0,0,0,.545,7.23,16.3,16.3,0,0,0,1.784,5.309,11.665,11.665,0,0,1,1.4,4.833,8.185,8.185,0,0,1-3.093,6.61c-4.5.247-9,.468-13.492.8A8.368,8.368,0,0,1,892.187,1043.042Z" fill="#f5a76e"/>
        <path id="Path_41225" data-name="Path 41225" d="M908.807,1031.162a3.141,3.141,0,0,0-.348-.252.919.919,0,0,0-.366.229l-3.689,3.791-1.791,1.841-.843.867c-.172.176-.583.779-.82.808.165-.02-.16-.215-.214-.261-.142-.121-.279-.249-.418-.375q-.415-.378-.823-.768-.864-.829-1.688-1.707a44.487,44.487,0,0,1-3.131-3.737,1.011,1.011,0,0,0-.291-.265c-.674.578-1.348,1.158-2,1.769a4.569,4.569,0,0,0-.622.986,10.452,10.452,0,0,0-1.051,5.174c.271,3.009,2.209,5.3,4.983,5.565a29.356,29.356,0,0,0,4.795-.176c1.79-.121,3.584-.218,5.373-.366a5.428,5.428,0,0,0,3.808-1.551,6.506,6.506,0,0,0,1.46-3.455c.319-2.237.215-5.358-1.3-7.129C909.495,1031.813,909.161,1031.475,908.807,1031.162Z" fill="#5f5c52"/>
        <path id="Path_41226" data-name="Path 41226" d="M940.658,1041.284a7.133,7.133,0,0,0,.719-4.249,6.2,6.2,0,0,0-1.051-2.482c-.557-.731-1.157-1.435-1.679-2.182a22.137,22.137,0,0,1-3.692-13.5c-3.266.172-6.525.484-9.766.96-.247,0-.494.012-.741.016a34.2,34.2,0,0,1,.122,7.253,16.6,16.6,0,0,1-1.276,5.48,11.9,11.9,0,0,0-.945,4.964,8.022,8.022,0,0,0,3.657,6.234c4.465-.252,8.929-.53,13.4-.7A8.568,8.568,0,0,0,940.658,1041.284Z" fill="#f5a76e"/>
        <path id="Path_41227" data-name="Path 41227" d="M883.132,773.307a3.021,3.021,0,0,0-1.6,1.931c-.086.3-.164.594-.248.89-.319,1.293-.652,2.578-1.072,3.832l-.058.208c-.011.013-.019.029-.031.042-.08.231-.182.454-.271.682-.114.353-.239.7-.37,1.045a2.044,2.044,0,0,0,.05.455c-.088.332-.169.666-.257,1a2.379,2.379,0,0,1-.287,1.108c-1.8,6.9-3.385,13.85-4.694,20.863-.893,4.775-1.707,9.577-2.332,14.4-.014.113-.026.231-.04.346-.653.308-1.3.647-1.931.933q-1.718.774-3.452,1.51c-2.456,1.042-4.912,2.09-7.4,3.064-2.408.944-4.837,1.839-7.258,2.747-.482.181-1,.343-1.515.524-3.413-1.081-6.966-1.972-10.55-1.6a4.837,4.837,0,0,0-3.588,1.713,7.78,7.78,0,0,0-2.345,6.389,4.355,4.355,0,0,0,1.508,3.6,5.173,5.173,0,0,0,3.048.838,2.974,2.974,0,0,0,.807.194,4.335,4.335,0,0,0,1.09-.06,7.827,7.827,0,0,0,2.623-.361,15.147,15.147,0,0,0,2.015-.385c.328-.088.655-.19.981-.3.551-.106,1.1-.223,1.643-.364a27.83,27.83,0,0,0,7.08-2.967c4.824-.275,9.646-.6,14.459-1.034a59.115,59.115,0,0,0,8.728-.965,5.346,5.346,0,0,0,1.712-.741c.136-.065.273-.127.407-.2A20.729,20.729,0,0,0,884.473,826a100.066,100.066,0,0,0,4.065-13.107c1.136-4.255,2.615-8.349,4.156-12.47.358-.958.917-2.134,1.453-3.379l.024-.1C890.285,789.165,886.955,781.122,883.132,773.307Z" fill="#f5a76e"/>
        <path id="Path_41228" data-name="Path 41228" d="M948.709,804.593c3.386-5,5.557-10.663,5.416-16.426l0-.031c-.877-7.213-4.988-13.445-10.63-19.125-4.2-2.521-8.57-4.735-12.908-7.012-.062-.032-.107-.073-.164-.108-3.419-.464-6.864-.77-10.31-.978-4.488-.271-9-.436-13.495-.476a52.237,52.237,0,0,0-10.592.815,20.745,20.745,0,0,0-9.057,3.944,14.472,14.472,0,0,0-5.081,9.3c-.581,3.929-.031,7.872.451,11.783q.876,7.115,1.753,14.228,1.723,13.995,3.448,27.99l0,.036a1.385,1.385,0,0,0-.85,1.594q.2.915.4,1.831c-4.21,2.027-6.216,5.711-7.623,9.881a49.491,49.491,0,0,0-1.979,22.981,167.274,167.274,0,0,0,2.516,24.086,215.813,215.813,0,0,0,1.363,25.082,2.678,2.678,0,0,0-.332,1.455c1.306,32.4,4.3,68.64,7.04,100.957.086.624.291,2.795.369,3.42,20.757.349,35.406-.069,54.07-.941.018-.839-.123-1.433-.1-2.272-1.334-11.529-.965-27.408-.526-38.813.638-16.6,2.388-33.14,4.65-49.6,2.243-16.309,6.08-32.748,5.933-49.278-.143-16.179-7.02-29.126-14.678-42.753q1.457-7.509,2.914-15.018A66.735,66.735,0,0,0,948.709,804.593Z" fill="#eff4f3"/>
        <path id="Path_41229" data-name="Path 41229" d="M930.657,732.179c-.125-4.556-1.243-9.842-4-13.432a13.308,13.308,0,0,0-1.474-1.88c-4.628-4.882-12.445-6.016-18.5-3.386a21.161,21.161,0,0,0-10.449,10.7c-.026.047-.056.092-.082.139a15.2,15.2,0,0,0-1.514,3.371,12.636,12.636,0,0,0-.3,3.081,10.059,10.059,0,0,0-.1,1.142,10.754,10.754,0,0,0-.144,1.224,19.033,19.033,0,0,0,1.2,6.848,20.027,20.027,0,0,0,6.945,10.146c.254.19.518.378.787.563a47.8,47.8,0,0,1-.115,5.5,1.481,1.481,0,0,1-.216-.022,13.709,13.709,0,0,1-.4,2.3,9.575,9.575,0,0,1-2.192,3.89,11.4,11.4,0,0,0-2.611,3.758,4.325,4.325,0,0,0-.231,1.565c5.273,4.937,10.2,10.276,15.816,14.815a134.48,134.48,0,0,1,10.257-12.683c1.543-2.143,3.175-4.228,4.825-6.292a6.616,6.616,0,0,0-2.863-2.6c-1.455-.679-3.215-.848-4.542-1.777a4.847,4.847,0,0,1-1.735-3.582c-.04-.3-.065-.616-.091-.927a5.552,5.552,0,0,1,.635-5.37c.321-.165.627-.353.939-.532.021-.011.042-.016.063-.028.058-.034.115-.072.173-.106.25-.147.5-.293.74-.45,3.587-2.208,6.794-5.063,8.3-9.11a14.4,14.4,0,0,0,.495-1.64c.023-.035.05-.067.073-.1.034-.2.046-.392.075-.588A17.533,17.533,0,0,0,930.657,732.179Z" fill="#f5a76e"/>
        <path id="Path_41230" data-name="Path 41230" d="M909.5,733.081a10.472,10.472,0,0,1-.863,2.08,2.785,2.785,0,0,0-.2,2.184,1.271,1.271,0,0,0,1.842.62" fill="none" stroke="#4c1d12" stroke-miterlimit="10" stroke-width="0.7"/>
        <path id="Path_41231" data-name="Path 41231" d="M915.113,732.265a.774.774,0,0,0,0,1.548A.774.774,0,0,0,915.113,732.265Z" fill="#4c1d12"/>
        <path id="Path_41232" data-name="Path 41232" d="M903.744,733.062a.774.774,0,0,0,0,1.548A.774.774,0,0,0,903.744,733.062Z" fill="#4c1d12"/>
        <path id="Path_41233" data-name="Path 41233" d="M914.719,741.972v-.006c0-.015-.008-.028-.008-.044-.009-.063-.016-.126-.027-.192,0-.012-.013-.016-.016-.028a1.064,1.064,0,0,0-.208-.387,3.275,3.275,0,0,0-.443-.379l-.481-.384-.481-.383a1.358,1.358,0,0,0-.667-.367c-.4-.053-.654.23-.876.524a1.451,1.451,0,0,0-.279-.2.95.95,0,0,0-1.123.229,7.542,7.542,0,0,0-.631.821l-.3.4a1.932,1.932,0,0,0-.376,2.472,3.089,3.089,0,0,0,3.429,1.1,3.526,3.526,0,0,0,1.759-1.24,4.108,4.108,0,0,0,.543-.924,2.906,2.906,0,0,0,.182-.6A1.4,1.4,0,0,0,914.719,741.972Z" fill="#4c1d12"/>
        <path id="Path_41234" data-name="Path 41234" d="M914.055,730.348a3.827,3.827,0,0,1,2.7.974" fill="none" stroke="#4c1d12" stroke-miterlimit="10" stroke-width="0.7"/>
        <path id="Path_41235" data-name="Path 41235" d="M901.286,732.217a6.189,6.189,0,0,1,2.676-1.574" fill="none" stroke="#4c1d12" stroke-miterlimit="10" stroke-width="0.7"/>
        <g id="Group_26826" data-name="Group 26826">
          <path id="Path_41236" data-name="Path 41236" d="M924.652,730.432l-.011.017-.005.012c.014-.012.041-.042.062-.063l-.009.005A.359.359,0,0,0,924.652,730.432Z" fill="#101724"/>
          <path id="Path_41237" data-name="Path 41237" d="M928.051,729.975a21.774,21.774,0,0,1,2.695,2.82l.568.686a23.973,23.973,0,0,0,.451-2.519c.589-5.032-.364-11.111-3.865-15.019a7.515,7.515,0,0,0,.941-1.521,10.2,10.2,0,0,0,.524-1.059,10,10,0,0,0,.424-1.274,5.739,5.739,0,0,0,.426-1.123,6.805,6.805,0,0,0-2.393-6.688,8.575,8.575,0,0,0-6.282-1.931,8.741,8.741,0,0,0-6.069,3.462,8.186,8.186,0,0,0-1.255,2.479,12.227,12.227,0,0,0-3.945-.224,16.262,16.262,0,0,0-5.331,1.62,17.888,17.888,0,0,0-11.289,13.05,1.2,1.2,0,0,0-.348.632,20.8,20.8,0,0,0-.131,6.862l-.136.093c.231.769.517,1.52.808,2.268.083.211.163.423.244.635l10.693-7.26c2.008-1.231,4.1-2.323,6.171-3.449,1.392-.757,2.734-1.587,4.1-2.386a5.643,5.643,0,0,1,2.324-.864,1.1,1.1,0,0,1,1.658.214c.043.058.082.118.123.177a24.457,24.457,0,0,1,5,5.383c1.239,1.674,2.527,3.271,3.845,4.879Z" fill="#101724"/>
        </g>
        <path id="Path_41238" data-name="Path 41238" d="M953.914,787.185c-.1-3.156-.884-6.6-3.246-8.873-2.608-2.5-6.312-2.238-9.105-.185-5.838,4.29-5.8,12.286-7.649,18.627-2.058,7.044-5.732,13.429-9.687,19.59-.467,1.163-.916,2.337-1.429,3.474a26.815,26.815,0,0,1-3.181,5.4c-3.327,5.505-7.094,10.721-10.927,15.885q-5.229,7.043-10.462,14.082c-.365-.121-.729-.248-1.1-.359a3.533,3.533,0,0,0-1.645-.108c-.053-.012-.111-.01-.165-.02-2.277,1.414-3.219,5.371-3.776,7.646-.443,1.808-1.136,3.864-.683,5.721a4.446,4.446,0,0,0,.262.753c.043.014.083.032.127.044a5.879,5.879,0,0,0,1.786,2.014,8.327,8.327,0,0,0,2.65.963.912.912,0,0,1,.562.342,14.931,14.931,0,0,0,2.343.2,8.633,8.633,0,0,0,3.2-.328c2.264-.874,3-3.645,3.766-5.716q.624-1.679,1.116-3.4a5.619,5.619,0,0,0,.358-3.386,2.632,2.632,0,0,0-.12-.263q11.844-13.06,24.086-25.751a1.148,1.148,0,0,1,.1-.256,58.56,58.56,0,0,1,3.881-4.632,2.518,2.518,0,0,0,0-.542A175.863,175.863,0,0,0,946.8,810.077C950.8,803.129,954.162,795.362,953.914,787.185Z" fill="#f5a76e"/>
        <path id="Path_41239" data-name="Path 41239" d="M940.541,1032.833a4.585,4.585,0,0,0-.5-.748,15.791,15.791,0,0,0-2.387-1.678.732.732,0,0,0-.134.142,45.254,45.254,0,0,1-2.888,3.945q-.765.933-1.575,1.82-.381.417-.771.824c-.13.135-.259.272-.393.4-.05.05-.361.266-.2.275-.237-.013-.678-.586-.859-.75l-.884-.807-1.879-1.714-3.87-3.529a.835.835,0,0,0-.788-.211c-.144.163-.294.321-.425.5a3.582,3.582,0,0,0-.32.591l-.014.041c0,.011,0,.022,0,.033s-.02.034-.033.049a.992.992,0,0,1-.313.469c-1.161,1.895-1.074,4.782-.657,6.863a6.438,6.438,0,0,0,1.644,3.347,5.3,5.3,0,0,0,3.86,1.286c1.78.024,3.562,0,5.342-.006a28.987,28.987,0,0,0,4.759-.155c2.732-.459,4.521-2.876,4.619-5.9A10.449,10.449,0,0,0,940.541,1032.833Z" fill="#5f5c52"/>
      </g>
      <g id="Group_26828" data-name="Group 26828">
        <path id="Path_41240" data-name="Path 41240" d="M882.729,798.045a.818.818,0,0,0,.4.592,24.763,24.763,0,0,0,3.417,2.223c1.165.5,1.989-.611,2.679-1.374a45.112,45.112,0,0,0,4.287-5.749c2.509-3.859,4.806-7.9,8-11.238a3.267,3.267,0,0,0,3.178-1.422,7.75,7.75,0,0,0,1.66-3.447,5.815,5.815,0,0,0-1.115-3.758,7.751,7.751,0,0,0-2.49-2.534,4.57,4.57,0,0,0-5.511.471,3.339,3.339,0,0,0-1.985,1.858,4.064,4.064,0,0,0-.166,2.53,169.689,169.689,0,0,1-12.753,20.317A1.025,1.025,0,0,0,882.729,798.045Z" fill="#101724"/>
        <path id="Path_41241" data-name="Path 41241" d="M894.4,788.634c3.927,86.174,7.223,172.45,8.38,258.711" fill="none" stroke="#101724" stroke-miterlimit="10" stroke-width="0.992"/>
      </g>
    </g>
    <g id="Group_26835" data-name="Group 26835">
      <g id="Group_26831" data-name="Group 26831">
        <g id="Group_26830" data-name="Group 26830">
          <path id="Path_41242" data-name="Path 41242" d="M998.176,719.256c4.111,10.323-4.774,24.278,7.534,31.1,10.846,6.013,24.368-1.17,26.752-12.908,2.592-12.76-8.879-23.714-21.193-23.818-3.121-.026-6.863.755-9.344,2.836C999.66,716.428,997.4,717.3,998.176,719.256Z" fill="#f5a76e"/>
          <path id="Path_41243" data-name="Path 41243" d="M970.111,935.262c4.878,22.938,8.445,46.27,6.131,69.746a1.354,1.354,0,0,0,.493,1.17c-.914,5.08-1.818,10.162-2.742,15.239-.237,1.3,1.312,2.133,2.976,2.337.066.076.118.156.186.231a9.021,9.021,0,0,0,5.156,2.678c1.777.319,7.864-1.256,8.763-.234,1.421,1.616,8.07,3.052,8.168-.539.726-26.727,1.458-53.565,3.359-80.236.085-1.191-.829-1.863-1.919-2.234a35.709,35.709,0,0,1,2.467-10.116,112.876,112.876,0,0,0,14.074-27.818c0,.127-.009.254-.011.381-.07,5.625.165,11.251.56,16.861.82,11.645,2.356,23.223,3.411,34.847a348.019,348.019,0,0,1-.975,72.187c-.321,2.729,4.639,2.909,6.2,2.139a11.358,11.358,0,0,1,12.521,1.157c1.606,1.186,6.9,1.5,6.305-1.672-2.381-12.7,1.922-25.972,2.664-38.7a161.236,161.236,0,0,0-1.583-31.38,1.891,1.891,0,0,0,.018-.671q-.152-.969-.305-1.939a1.323,1.323,0,0,0-.144-.426c-.008-.048-.02-.1-.028-.144-.017-.114-.033-.227-.05-.341-.926-5.986-.728-12-1.107-18.074l0-.012c.108-2.827.213-5.658.409-8.481a2.005,2.005,0,0,0,.579-.943c1.663-6.3,2.508-12.8,3.935-19.17a1.65,1.65,0,0,0,.1-.255c1.52-5.323,2.626-10.751,3.951-16.124q1.032-2.867,2.071-5.731a1.461,1.461,0,0,0,.487-.669c.061-.184.1-.365.161-.548h0l.038-.142q.225-.745.4-1.481l.258-.966a1.286,1.286,0,0,0,.03-.5,19.056,19.056,0,0,0-.821-9.256c-.414-1.234-2.2-1.812-3.832-1.754-5.622-4.224-15.31-5.14-21.107-6.155a197.788,197.788,0,0,0-37.891-3c-2.111.041-2.873.816-2.8,1.728a1.794,1.794,0,0,0-.723.436,19.79,19.79,0,0,0-2.9,4.217,2.94,2.94,0,0,0-2.488,1.827c-5.593,20.153-12.472,40.416-14.329,61.4A1.694,1.694,0,0,0,970.111,935.262Z" fill="#101624"/>
          <path id="Path_41244" data-name="Path 41244" d="M1075.434,818.365c-.013-.018-.021-.037-.034-.055-.088-.92-.186-1.8-.283-2.641a.825.825,0,0,0,.647-.791c.707-5.866-1.782-11.958-2.318-17.809-.29-3.167.042-6.309-.326-9.477-.358-3.083-1.011-6.128-1.26-9.225-.22-2.738,1-5.565.72-8.089-.273-2.446-3.869-5.825-5.372-7.482-2.37-2.613-17.3-7.566-20.723-8.478a1.4,1.4,0,0,1-.634-.137c-3.063.058-5.581-1.71-8.5-2.277-2.788-.54-5.656-.264-8.422-.871a3.793,3.793,0,0,0-.937-2.209,2.5,2.5,0,0,0-2.013-.694,1.36,1.36,0,0,0-.252.05c-.022,0-.042.013-.065.018l-.059.02a1.55,1.55,0,0,0-.34.116c-.173.092-.386.237-.317.465.005.017.026.022.033.037a.51.51,0,0,0,.033.13,83.209,83.209,0,0,0-10.67,2.327l-.027.007q-1.761.406-3.5.832a2.682,2.682,0,0,1-1.47,1.006c-2.257.659-4.559.873-6.785,1.658a17.508,17.508,0,0,1-3.357.9c-2.361.844-4.593,2.007-5.657,4.038-.835,1.593-.819,3.733-1.145,5.448-.108.566-.235,1.122-.372,1.675a2.73,2.73,0,0,0-1.678,1.053,29.257,29.257,0,0,0-4.5,15.093,11.406,11.406,0,0,0,.446,3.048,2.029,2.029,0,0,0-.224.5c-.84,2.888-1.356,5.828-2.154,8.7-.964,2.193-2.115,4.331-3.2,6.7-.755,1.657-.353,2.268-.229,3.9a5.425,5.425,0,0,1-1.181,4.48c-2.19,3.188-4.741,6.686-4.383,9.685-.505.525-.479,1.267.588,2.231a12.7,12.7,0,0,0,2.253,1.622c.113.068.231.136.352.2.053.029.107.06.162.088.3.158.606.313.948.462a3.865,3.865,0,0,0,1.27.3c3.386,1.628,6.928,2.7,10.843,1.687a12.276,12.276,0,0,0,2.035-.741c.008.115.013.229.022.344a44.737,44.737,0,0,1-1.368,14.369c-.554,2.381-.425,4.822-.907,7.206-.52,2.571-1.755,4.411-3.134,6.57-3.489,5.463-6.663,15.134-3.228,21.176,3.678,6.471,11.4,9.094,17.71,12.174,1.269.62,4.346.79,5.089-.861,1.493-3.317,2.5-6.832,4.225-10.048a41.29,41.29,0,0,1,3.818-5.508c.514,3.948.917,7.918,1.174,11.93.161,2.53,4.29,3.158,6.093,2.09,3.134-1.858,6.839-2.505,10.228-3.8,3.938-1.51,7.745-3.338,11.628-4.979a2.971,2.971,0,0,0,.861-.527,16.606,16.606,0,0,0,3.744-1.938c.731-.2,1.455-.432,2.165-.7a3.641,3.641,0,0,0,1.03-.527c.184.02.361.048.551.06,1.216.074,3.459-.253,3.625-1.846.632-6.07.026-12.139.077-18.224.036-4.31-.659-8.76-.593-13.115,2.607-.714,5.2-1.479,7.769-2.326,2.818-.929,6.434-1.642,8.65-3.713,3.053-2.851,3.3-8.455,2.943-13.549A1.486,1.486,0,0,0,1075.434,818.365Z" fill="#eff4f3"/>
          <path id="Path_41245" data-name="Path 41245" d="M974.557,818.068c-1.568-2.876-2.686-6.113-3.979-9.118-1.476-3.435-3.247-6.9-4.1-10.545a3.818,3.818,0,0,1-.071-.428c-.483-.036-.967-.084-1.451-.11a2.573,2.573,0,0,1-2.081-2.027c-.383-1.543-.733-3.093-1.072-4.646a16.533,16.533,0,0,1-1.055-5.663c-.05-4.011,3.839-5.359,4.834-.975.249,1.1.5,2.194.755,3.291.072.105.149.207.229.307q-.5-3.054-.979-6.11c-.576-3.99,3.721-7.176,4.665-2.005q.594,3.249,1.153,6.5c.159-2.406.322-4.813.51-7.217.38-4.855,4.875-4.879,4.927.1.029,2.682.206,5.419.317,8.152.674-1.812,1.346-3.623,2.039-5.428.543-1.411,1.843-2.4,3.185-1.308,1.4,1.139,1.216,3.693.752,5.186q-.35,1.128-.732,2.235c-1.024,3.129-2.073,6.251-3.07,9.39a3.014,3.014,0,0,1-.866,1.375,10.488,10.488,0,0,1-.174,1.531,89.455,89.455,0,0,1,8.916,11.514c2.355,3.651,1.428,9.584-2.98,11.345C979.843,825.166,976.474,821.584,974.557,818.068Z" fill="#f5a76e"/>
          <path id="Path_41246" data-name="Path 41246" d="M945.641,1044.317a.881.881,0,0,0,.328.208.466.466,0,0,0-.035.317.494.494,0,0,0,.17.235.749.749,0,0,0,.282.19,1.669,1.669,0,0,0,.8.133c.082-.006.164-.008.246-.01h.04c.076,0,.148,0,.221-.007a2.821,2.821,0,0,0,1.163.238c7.994,0,15.971.525,23.966.523,8.632,0,17.223-.461,25.839-.9.312-.016.88-.2.893-.595a60.788,60.788,0,0,0-1.279-16.361.423.423,0,0,0-.116-.19c.359-1.184-4-1.539-4.58-1.6-1.136-.127-2.266-.335-3.4-.435-1.339-.118-2.69-.1-4.021-.3-1.713-.257-3.407-.623-5.124-.859a8.827,8.827,0,0,0-3.24-.117,1.631,1.631,0,0,0-1.343.021c-1.85,1.651-3.643,3.382-5.437,5.093-1.568,1.5-2.942,3.317-4.608,4.69-1.619,1.336-4.012,1.125-5.963,1.613-.528.132-1.05.291-1.572.445-2.061.608-4.109,1.274-6.124,2.021C951.431,1039.159,943.529,1041.791,945.641,1044.317Z" fill="#be2b02"/>
          <path id="Path_41247" data-name="Path 41247" d="M1021.116,1047.318c1.011,2.275,4.862,2.657,6.994,2.556a32.6,32.6,0,0,0,8.635-2.034,26.868,26.868,0,0,0,7.739-3.8,4.782,4.782,0,0,0,1.861-5.022,10.823,10.823,0,0,0-3.232-6.448,1.507,1.507,0,0,0-1.152-.041c-2.453-1.047-4.58-2.706-7.275-3.229-2.863-.555-6.216-.669-8.894.665a4.75,4.75,0,0,0-2.938,4.919c.118,1.234.536,2.414.65,3.645a7.273,7.273,0,0,1-.781,3.893C1022.046,1043.828,1020.377,1045.653,1021.116,1047.318Z" fill="#be2b02"/>
          <path id="Path_41248" data-name="Path 41248" d="M1018.264,815.417l-.346-.373" fill="none" stroke="#fce5d7" stroke-miterlimit="10" stroke-width="1.135"/>
          <path id="Path_41249" data-name="Path 41249" d="M976.078,1027.92a6.036,6.036,0,0,0-7.523-2.014c-1.052.534-1.977,1.946-1.173,2.809a2.268,2.268,0,0,0,1.355.543,54.379,54.379,0,0,0,7.171.647,6.154,6.154,0,0,0-7.463,2.555,12.357,12.357,0,0,1,7.009.021" fill="none" stroke="#ea6c28" stroke-miterlimit="10" stroke-width="1.135"/>
          <path id="Path_41250" data-name="Path 41250" d="M1024.146,1033.546a4.458,4.458,0,0,1,6.405-1.09,1.97,1.97,0,0,0-2.876.566" fill="none" stroke="#ea6c28" stroke-miterlimit="10" stroke-width="1.135"/>
          <path id="Path_41251" data-name="Path 41251" d="M1025.2,1035.734a2.58,2.58,0,0,1,4.228.239" fill="none" stroke="#ea6c28" stroke-miterlimit="10" stroke-width="1.135"/>
          <path id="Path_41252" data-name="Path 41252" d="M1027.066,748.726a3.664,3.664,0,0,1,2.246,2.955c1.056,6.448-4.932,13.17-9.394,17.021" fill="none" stroke="#bcb9a6" stroke-miterlimit="10" stroke-width="1.135"/>
          <path id="Path_41253" data-name="Path 41253" d="M1019.836,769.165a12.232,12.232,0,0,0-2.767-6.423" fill="none" stroke="#bcb9a6" stroke-miterlimit="10" stroke-width="1.135"/>
          <path id="Path_41254" data-name="Path 41254" d="M1014.071,763.2a12.007,12.007,0,0,0-3.2,6.15" fill="none" stroke="#bcb9a6" stroke-miterlimit="10" stroke-width="1.135"/>
          <path id="Path_41255" data-name="Path 41255" d="M1007.481,755.625a8.36,8.36,0,0,0,2.289,9.441" fill="none" stroke="#bcb9a6" stroke-miterlimit="10" stroke-width="1.135"/>
          <path id="Path_41256" data-name="Path 41256" d="M1015.618,767.026q.686,16.063.524,32.147" fill="none" stroke="#bcb9a6" stroke-miterlimit="10" stroke-width="1.135"/>
          <path id="Path_41257" data-name="Path 41257" d="M1017.9,835.832c.607,9.09,1.13,18.649-2.8,26.867" fill="none" stroke="#bcb9a6" stroke-miterlimit="10" stroke-width="1.135"/>
          <path id="Path_41258" data-name="Path 41258" d="M1048.57,781.987a1.639,1.639,0,0,0-1.689.447,12.668,12.668,0,0,1,4.86,10.933,26.077,26.077,0,0,0,.2,8.328c.687,3.281-.036,6.419.05,9.722a31.434,31.434,0,0,0,.529,4.369" fill="none" stroke="#bcb9a6" stroke-miterlimit="10" stroke-width="1.135"/>
          <path id="Path_41259" data-name="Path 41259" d="M1026.321,743.415c-.706-1.353-3.983,1.647-5.412,1.323a18.827,18.827,0,0,0-5.447-.334,13.363,13.363,0,0,0-5.075,1.186c-.5.255-.966.8-.619,1.3-.516.164-1.008.495-1.012,1.059-.011,1.78-.266,3.547-.327,5.325a7.644,7.644,0,0,0,.243,2.649,18.133,18.133,0,0,1,4.23,3.5,10.725,10.725,0,0,1,2.4,3.694,2.321,2.321,0,0,0,.594.013,39.735,39.735,0,0,1,4.513-5.238,19.82,19.82,0,0,1,4.935-3.08c.873-1.5,1.782-7.335,2.541-8.488C1029.253,744.252,1026.982,744.682,1026.321,743.415Z" fill="#f5a76e"/>
          <path id="Path_41260" data-name="Path 41260" d="M1019.593,750.724a1.262,1.262,0,0,0-1.2-.469,16.593,16.593,0,0,0-3.842,1.012c.073-.025-.274.089-.313.1-.114.036-.228.071-.342.1-.3.089-.608.173-.916.245-.115.027-.23.051-.346.074l-.191.034-.042.006c-.32.031-.639.05-.958.082-.418.042-1.114.216-1.173.73s.531.7.937.772a9.236,9.236,0,0,0,4.162-.569c.356-.114.71-.234,1.064-.354l.456-.154c.146-.049.152-.051.017-.006l.439-.147.369-.129c.018,0,.288-.091.322-.1.355-.111.7-.248,1.049-.366C1019.425,751.475,1019.779,751.093,1019.593,750.724Z" fill="#ea734c" opacity="0.3" style="mix-blend-mode: multiply;isolation: isolate"/>
          <path id="Path_41261" data-name="Path 41261" d="M1005.864,730.084a26.9,26.9,0,0,1-.308,6.724l1.138.462" fill="none" stroke="#b84931" stroke-miterlimit="10" stroke-width="1.135"/>
          <path id="Path_41262" data-name="Path 41262" d="M1012.453,729.069" fill="none" stroke="#b84931" stroke-miterlimit="10" stroke-width="1.135"/>
          <path id="Path_41263" data-name="Path 41263" d="M1002.07,729.469" fill="none" stroke="#b84931" stroke-miterlimit="10" stroke-width="1.135"/>
          <path id="Path_41264" data-name="Path 41264" d="M1005.484,742.124a.565.565,0,0,0-.179-.385.829.829,0,0,0-.378-.3,1.558,1.558,0,0,0-.264-.078c0-.094,0-.188,0-.28a.565.565,0,0,0-.18-.386.827.827,0,0,0-.378-.3,1.551,1.551,0,0,0-.562-.166,1.936,1.936,0,0,0-.658-.033,2.25,2.25,0,0,0-1.167.406l-.245.232a.758.758,0,0,0-.186.541,7.022,7.022,0,0,0,.024.894,1.96,1.96,0,0,0,.042.227,2.823,2.823,0,0,0,.148.459,1.65,1.65,0,0,0,.29.395,1.554,1.554,0,0,0,.413.3c.017.009.034.018.052.026a3.316,3.316,0,0,0,.393.146l.054.014a4.088,4.088,0,0,0,.454.076l.061,0c.162.007.338.006.5,0a3.868,3.868,0,0,0,.586-.1,2.1,2.1,0,0,0,.722-.33,1.082,1.082,0,0,0,.394-.493c.034-.184.06-.37.077-.556A.979.979,0,0,0,1005.484,742.124Z" fill="#b84931"/>
          <path id="Path_41265" data-name="Path 41265" d="M934.135,793.252a4.242,4.242,0,0,1,3.547-2.35c.739,1.768-.357,3.714-.653,5.608s1.381,4.423,3.021,3.432" fill="none" stroke="#b84931" stroke-miterlimit="10" stroke-width="3.793"/>
          <path id="Path_41266" data-name="Path 41266" d="M929.524,778.066a21.079,21.079,0,0,0-6.852,9.075c2.043-.3,4.281-.57,6.042.509s2.329,4.1.518,5.1" fill="none" stroke="#b84931" stroke-miterlimit="10" stroke-width="3.793"/>
          <path id="Path_41267" data-name="Path 41267" d="M1011.943,725.088a3.894,3.894,0,0,1,2.682,2.251" fill="none" stroke="#b84931" stroke-miterlimit="10" stroke-width="1.135"/>
          <path id="Path_41268" data-name="Path 41268" d="M1002.2,724.626a5.24,5.24,0,0,0-1.836,1.752" fill="none" stroke="#b84931" stroke-miterlimit="10" stroke-width="1.135"/>
          <path id="Path_41269" data-name="Path 41269" d="M998.006,717.283a71.3,71.3,0,0,1,1.181,19.484,24.8,24.8,0,0,0-.224,3.7,11.2,11.2,0,0,0,4.793,8.454,12.848,12.848,0,0,0,9.6,1.969,15.09,15.09,0,0,0,8.519-5" fill="none" stroke="#b84931" stroke-miterlimit="10" stroke-width="1.135"/>
          <path id="Path_41270" data-name="Path 41270" d="M993.69,711.035c.107,1.676,4.316,9.834,6.1,7.522,4.049-5.727,9.508,4.8,16.683-.644-2.683,2.942,1.795,2.26,2.636,0,5.175,4.253-2.153,21.384,7.138,16.394,1.261-14.946,11.645-1.582,3.142,4.129-3.1-1.842.048,6.412,1.649,3.729,1.478-2.178,3.268-3.86,3.555-6.954,3.169-2.733,3.115-6.543,2.247-10.4,3.672-9.931-2.477-20.176-13.37-20.376-5.294-.662-11.063-4.156-15.983-.032C1003.034,700.118,993.619,704.865,993.69,711.035Z" fill="#282833"/>
          <path id="Path_41271" data-name="Path 41271" d="M1000.7,706.365c1.534,1.017,3.627.332,5.149-.7s2.886-2.418,4.666-2.885a10.084,10.084,0,0,1,4.641.26l13.027,2.8a12.377,12.377,0,0,1,3.9,1.31,8.825,8.825,0,0,1,2.775,2.933c2.155,3.449,3.424,9.225,1.653,13.1a4.583,4.583,0,0,0-.65,1.854,3.381,3.381,0,0,0,.179.908,28.341,28.341,0,0,1,.688,2.769,4.245,4.245,0,0,1-.042,2.252,1.729,1.729,0,0,1-1.739,1.193" fill="none"/>
          <path id="Path_41272" data-name="Path 41272" d="M995.255,713.837c-.333-1.083-1.213-1.955-1.443-3.066a4.571,4.571,0,0,1,1.15-3.548,11.906,11.906,0,0,1,5.7-4.057,3.162,3.162,0,0,1,2.3-.077,1.641,1.641,0,0,0,.863.3c.284-.04.493-.286.76-.391.979-.383,1.869,1.242,2.876.937" fill="none"/>
          <path id="Path_41273" data-name="Path 41273" d="M1010.347,715.42a11.984,11.984,0,0,0,6.732-.955c.7-.322,1.369-.711,2.057-1.061a1.045,1.045,0,0,1,.574-.159,1.071,1.071,0,0,1,.527.286,4.6,4.6,0,0,0,1.8,1.062,1.591,1.591,0,0,0,1.808-.724" fill="none" stroke="#5f5c52" stroke-miterlimit="10" stroke-width="1.135"/>
          <path id="Path_41274" data-name="Path 41274" d="M1024.381,711.912a3.6,3.6,0,0,1,2.665,4.094" fill="none" stroke="#5f5c52" stroke-miterlimit="10" stroke-width="1.135"/>
          <path id="Path_41275" data-name="Path 41275" d="M1027.25,710.748a1.731,1.731,0,0,0,1.9,1.035,5.063,5.063,0,0,0,2.112-.981" fill="none" stroke="#5f5c52" stroke-miterlimit="10" stroke-width="1.135"/>
        </g>
      </g>
      <g id="Group_26834" data-name="Group 26834">
        <path id="Path_41276" data-name="Path 41276" d="M995.93,736c-.069-.062-.145-.114-.215-.175-2.551-1.757-5.315-3.1-8.425-2.663a9.761,9.761,0,0,0-3.621,1.358,23.736,23.736,0,0,0-2.6,1.848,2.355,2.355,0,0,1-.536.45,17.894,17.894,0,0,0-4.566,6.044A30.09,30.09,0,0,0,973.74,755c-.058,4.656.149,9.327.29,13.979q.439,14.539,1.282,29.06.891,15.357,2.238,30.677a2.242,2.242,0,0,0-.48,1.584,239.735,239.735,0,0,1,.31,25.175,89.389,89.389,0,0,1-1.483,12.2,30.654,30.654,0,0,1-1.359,5.561c-.393.961-.988,1.4-1.94,1.01-1.281-.518-1.877-2.011-2.236-3.327a36.522,36.522,0,0,1-.941-5.37,105.4,105.4,0,0,1-.58-12.464c.023-8.336.573-16.7-.187-25.017a67.381,67.381,0,0,0-2.626-13.679c-1.07-3.494-2.38-6.9-3.738-10.27.14-.181.286-.357.426-.539,1.071-1.4,2.586-2.941,2.6-4.887a4.13,4.13,0,0,0-3.034-3.948c-1.9-.5-3.664.568-5.286,1.487q-2.349,1.329-4.639,2.775a100.005,100.005,0,0,0-17.57,13.635c-2.534,2.544-5.881,6.495-5.412,10.548a4.259,4.259,0,0,0,3.528,3.96,3.778,3.778,0,0,0,2.077-.284c.021,0,.04.006.06.006a3.494,3.494,0,0,0,1.3-.269,9.949,9.949,0,0,1,6.606,4.222c2.694,3.633,3.336,8.7,3.692,13.187.433,5.445.715,10.907,1.063,16.359a93.418,93.418,0,0,0,1.288,12.2,2.387,2.387,0,0,0,.019,1.457c.249.812.54,1.6.856,2.376a16.98,16.98,0,0,0,1.314,4.329,18.914,18.914,0,0,0,6.775,9.815,17.6,17.6,0,0,0,1.99,1.306,13.677,13.677,0,0,0,3.75,2.108,2.864,2.864,0,0,0,1.379,1.246,10.448,10.448,0,0,0,7.531.355c7.446-1.336,14.122-7.416,17.389-14.733,5.271-11.8,4.05-25.556,3.041-38.2-2.22-27.853-7.243-55.468-7.4-83.494-.022-3.878.028-7.766.238-11.638a15.071,15.071,0,0,1,.409-3.087,9.855,9.855,0,0,1,3.485-3.956,6.758,6.758,0,0,1,.686-.288,5.944,5.944,0,0,1,2.212-.346,27.083,27.083,0,0,1,2.917,1.046c.013.01.028.017.041.028a.984.984,0,0,0,.46.194c.762.34,1.52.7,2.271,1.111a2.137,2.137,0,0,0,2.456-.818q-.069-.264-.144-.529A43.5,43.5,0,0,0,995.93,736Z" fill="#fea12e"/>
        <path id="Path_41277" data-name="Path 41277" d="M962.192,797.714c-1.519-1.886-4.934.256-6.469,1.191a87.494,87.494,0,0,0-12.257,9.352,69.778,69.778,0,0,0-6.23,6.231q-1.391,1.59-2.669,3.287c-.837,1.114-1.948,2.329-2.145,3.8-.108.807.33,1.97,1.3,1.836l.948-.131a1.353,1.353,0,0,0,.447-.148,1.429,1.429,0,0,0,.139-.056c9.162-4.71,17.005-11.839,24.227-19.435C960.721,802.336,963.913,799.85,962.192,797.714Z" fill="#b84931"/>
        <g id="Group_26832" data-name="Group 26832">
          <path id="Path_41278" data-name="Path 41278" d="M966.608,849.245c.074-1.234.164-2.466.243-3.7a2.37,2.37,0,0,0-2.065-.9,5.406,5.406,0,0,0-2.567,1.193,6.431,6.431,0,0,0-2.657,4.813,4.474,4.474,0,0,0,2.745,4.458,3.508,3.508,0,0,0,4.344-1.905c.016-.032.027-.067.042-.1A32.082,32.082,0,0,1,966.608,849.245Z" fill="#b84931"/>
          <path id="Path_41279" data-name="Path 41279" d="M963.536,848.194l0,.005h0c.069-.081.084-.1.073-.091C963.583,848.137,963.56,848.166,963.536,848.194Z" fill="#b84931"/>
        </g>
        <g id="Group_26833" data-name="Group 26833">
          <path id="Path_41280" data-name="Path 41280" d="M964.666,868.939a.9.9,0,0,1,.108.03h.017C964.718,868.94,964.673,868.932,964.666,868.939Z" fill="#b84931"/>
          <path id="Path_41281" data-name="Path 41281" d="M967.119,860.744a3.179,3.179,0,0,0-1.821.269,9.1,9.1,0,0,0-2.4,1.5,6.173,6.173,0,0,0-2.142,4.82,4.58,4.58,0,0,0,3.048,4.378,4.675,4.675,0,0,0,4.824-1.523c.011-.014.019-.029.029-.043A39.957,39.957,0,0,1,967.119,860.744Z" fill="#b84931"/>
        </g>
        <path id="Path_41282" data-name="Path 41282" d="M983.706,864.16a7.812,7.812,0,0,0-4.8-2.489,86.794,86.794,0,0,1-1.7,9.916,5.166,5.166,0,0,0,2.517.611,5.393,5.393,0,0,0,4.371-2.586,5.276,5.276,0,0,0,.862-2.633A4.087,4.087,0,0,0,983.706,864.16Z" fill="#b84931"/>
        <path id="Path_41283" data-name="Path 41283" d="M984.037,848.838a6.479,6.479,0,0,0-4.177-2.122c-.1,3.334-.235,6.683-.488,10.017a8.265,8.265,0,0,0,.983.08,7.553,7.553,0,0,0,1.222-.034,4.285,4.285,0,0,0,3.9-3.12A5.548,5.548,0,0,0,984.037,848.838Z" fill="#b84931"/>
        <path id="Path_41284" data-name="Path 41284" d="M985,836.27a6.213,6.213,0,0,0-4.434-2.784.977.977,0,0,0-.68.19c.1,3,.145,6,.08,9-.008.345-.017.692-.025,1.038.014.005.027.013.041.018a5.283,5.283,0,0,0,2.116.258,4.091,4.091,0,0,0,3.741-2.958A5.884,5.884,0,0,0,985,836.27Z" fill="#b84931"/>
        <path id="Path_41285" data-name="Path 41285" d="M983.97,822.533a8.559,8.559,0,0,0-4.64-2.513c-.052-.009-.106-.011-.159-.015.072.8.135,1.6.18,2.4.156,2.8.3,5.6.425,8.406a7.5,7.5,0,0,0,1.064-.073c.408-.035.817-.063,1.223-.114a4.589,4.589,0,0,0,2.372-.824,3.693,3.693,0,0,0,1.368-2.315A5.844,5.844,0,0,0,983.97,822.533Z" fill="#b84931"/>
        <path id="Path_41286" data-name="Path 41286" d="M982.961,807.975a6.069,6.069,0,0,0-3.419-1.479,1.389,1.389,0,0,0-1.335,1.341,1.609,1.609,0,0,0-.113.559c-.02.763-.017,1.526-.017,2.289.215,1.826.453,3.65.676,5.476a.829.829,0,0,0,.082.065,3.687,3.687,0,0,0,3.03.233,4.272,4.272,0,0,0,2.363-2.112A5.528,5.528,0,0,0,982.961,807.975Z" fill="#b84931"/>
        <path id="Path_41287" data-name="Path 41287" d="M1003.394,741.658l-.046-.409a.946.946,0,0,0-.351-.607.834.834,0,0,0-.163-.205l-2.436-2.027a.724.724,0,0,0-.038-.079.969.969,0,0,1-.257-.013,2.15,2.15,0,0,0-.882-.006c-.3.9-.6,1.81-.97,2.688-.088.232-.188.458-.294.682s-.182.43-.267.647a.925.925,0,0,0,.728,1.012c1.267.156,2.53.344,3.789.556C1002.615,743.157,1003.035,742.423,1003.394,741.658Z" fill="#b84931"/>
      </g>
      <path id="Path_41288" data-name="Path 41288" d="M1053.407,831.013h0a1.628,1.628,0,0,0-.04-.271,7.083,7.083,0,0,0-4.018-5.323c-1.636-.9-4.035-1.622-5.791-.505-.007,0-.012.011-.018.015-5.933.78-11.485,2.729-17.483,2.969-.752.03-1.5.084-2.24.143-1.214.281-2.428.56-3.635.847-5.586,1.324-11.2,2.521-16.889,3.339l-1.147.314a9.353,9.353,0,0,1-2.388-.07,29.372,29.372,0,0,1-3.556-2.26,28.206,28.206,0,0,1-2.437-2.035c-.467-.437-.931-.879-1.417-1.294-.072-.077-.14-.158-.216-.233-1.731-1.722-3.9-1.781-6.212-1.956-2.287-.172-5.183-.793-7.2.578a.826.826,0,0,0-.076,1.164,8.041,8.041,0,0,0,5.022,2.031c1.191.1,2.39.061,3.583.133.619.038,3.178.188,2.056,1.3a6.48,6.48,0,0,1-2.727,1.187c-1.071.31-2.159.554-3.237.835a15.611,15.611,0,0,0-5.858,2.594.827.827,0,0,0-.076,1.164c2.26,2.087,5.055.917,7.52-.108,1.456-.606,3.17-1.176,4.729-.611a2.888,2.888,0,0,1,1.611,1.286,1.42,1.42,0,0,1,.072.181c-.072-.034-.187-.014-.347.066a5.3,5.3,0,0,0-1.2.1,37.617,37.617,0,0,0-5.153.883,14.851,14.851,0,0,0-4.392,1.52c-.866.548-1.9,1.616-1.136,2.666a1.547,1.547,0,0,0,.288.295.641.641,0,0,1,.238.111,1.931,1.931,0,0,0,.3.192,4.434,4.434,0,0,0,1.126.291,7.905,7.905,0,0,0,2.378-.519c1.921-.621,3.872-1,5.836-1.453a.846.846,0,0,1,.526.046l.21-.061c.556-.129,1.112-.261,1.67-.381.68-.061,1.34.063,1.14.845-.208.809-1.46,1.116-2.134,1.382l-2.864,1.129-5.92,2.332a.828.828,0,0,0-.374,1.106c1.087,1.825,3.258,1.054,4.92.649a32.884,32.884,0,0,1,7.455-1.033A10.114,10.114,0,0,0,996.07,848a5.031,5.031,0,0,0,3.9.1,10.589,10.589,0,0,0,2.275-1.137c1.629-.911,2.845-2.435,4.454-3.375l3.655-1.146,1.149-.361c.029.073.057.147.086.219,6.272-.631,21.188-4.157,22.337-4.22q4.278-.235,8.555-.5c1.171.383,7.451,1.371,8.505.049a9.843,9.843,0,0,0,2.424-6.28A1.384,1.384,0,0,0,1053.407,831.013Z" fill="#f5a76e"/>
      <path id="Path_41289" data-name="Path 41289" d="M1000.807,832.575c18.064-3.8,28.3-5.674,42.459-7.594" fill="none" stroke="#b84931" stroke-miterlimit="10" stroke-width="1.135"/>
      <path id="Path_41290" data-name="Path 41290" d="M1048.746,819.425c2.311-1.072,4.842.22,6.771,1.816a14.5,14.5,0,0,1,4.471,5.838,9.606,9.606,0,0,1-.222,7.69" fill="none" stroke="#bcb9a6" stroke-miterlimit="10" stroke-width="1.135"/>
      <path id="Path_41291" data-name="Path 41291" d="M1081.131,826.278a12.852,12.852,0,0,1-7.023,14.41" fill="none" stroke="#e1e9ec" stroke-miterlimit="10" stroke-width="1.135"/>
    </g>
  </g>
</svg>
