<svg version="1" xmlns="http://www.w3.org/2000/svg" width="533.333" height="533.333" viewBox="0 0 400.000000 400.000000"><path d="M251.5 64.9c-1.2 2-10.8 18.4-21.3 36.6-10.4 18.1-26.5 46-35.7 62-9.2 15.9-16.8 29.5-16.8 30-.1 1.7 9.4 17.5 10.2 17 .4-.2 4.1-6.2 8.1-13.2 8.2-14.3 34.5-59.7 60.1-104.1 9.4-16.1 17.2-29.8 17.5-30.5.3-1-1.9-1.3-9.7-1.3h-10.1l-2.3 3.5zM294.1 63.9c-1 1.4-8 13.4-15.6 26.6-7.6 13.2-17.8 30.9-22.7 39.3-12.9 22.3-45.7 79-48.6 84.1-1.4 2.5-4 7-5.8 10l-3.2 5.6 3.4 6.3c1.9 3.5 4.3 7.6 5.3 9.2l1.7 2.9 3.6-6.2c2-3.4 8.4-14.5 14.3-24.7s12.1-21 13.8-24c1.7-3 5.5-9.5 8.4-14.4 2.9-4.9 5.3-9 5.3-9.1 0-.1 3.6-6.4 8-14s8-13.9 8-14.1c0-.3 1.2-2.3 2.7-4.7 1.5-2.3 3.2-5.1 3.8-6.2 1.3-2.2 16.2-28.3 19.3-33.6 1.2-1.9 5-8.6 8.6-14.9 3.7-6.3 7.7-13.4 9.1-15.8 1.4-2.3 2.5-4.4 2.5-4.5 0-.1-4.5-.3-10.1-.3-9.7 0-10.1.1-11.8 2.5zM319.2 92.5c-9.9 17-18.7 32.3-19.6 34-.9 1.6-2.5 4.3-3.5 6-1.6 2.8-37.2 64.2-54.5 94.3-4 7-10.8 18.7-15 26l-7.7 13.2 4.2 7.3c7.1 12.2 5.8 12.3 13-.4 3.5-6.2 7.4-12.9 8.6-15.1 1.3-2.1 11.6-19.9 22.9-39.6 51-88.4 59-102.2 63.4-109.7 2.6-4.4 5.9-10 7.2-12.5 1.4-2.5 6.4-11.2 11.2-19.4 4.7-8.2 8.6-15 8.6-15 0-.1-4.7-.1-10.4-.1h-10.5l-17.9 31zM367.1 82c-6.6 11.3-23.7 41-38.2 66-14.4 25-39.5 68.4-55.7 96.5-16.2 28-30.3 52.5-31.4 54.4l-1.9 3.4 4.8 8.3c2.6 4.5 5.3 8.2 5.8 8.1.8-.1 23.6-38.5 34.3-57.7 1.3-2.5 4.8-8.6 7.7-13.5 4.6-7.7 41.8-72.1 47.7-82.5 1.1-1.9 5.5-9.6 9.8-17 4.3-7.4 8.7-15.1 9.7-17 1.1-1.9 9.2-15.9 18-31 8.7-15.1 17.3-30 19.1-33l3.1-5.6h-21L367.1 82zM1.8 180.2c1.1 1.8 2.9 4.9 4 6.8 1.1 1.9 8.6 15 16.7 29s15.7 27.1 16.8 29c1.7 3.1 17.1 29.7 33.7 58.5 3.2 5.5 9.1 15.6 13.1 22.5l7.4 12.6 10.2-.1c5.7 0 10.3-.1 10.3-.3 0-.2-2.4-4.4-5.4-9.5-3-5.1-6.4-11-7.6-13.2-2.2-3.9-15.2-26.5-48.5-84-9.3-16-17.9-31-19.3-33.5-1.3-2.5-4.7-8.2-7.4-12.8l-4.9-8.2H-.2l2 3.2zM44.3 181.2c1.3 2.4 3.4 5.9 4.4 7.8 1.1 1.9 5.3 9.1 9.3 16 4 6.9 8.3 14.3 9.6 16.5 1.2 2.2 9.4 16.4 18.1 31.5 8.8 15.1 23.5 40.6 32.7 56.6l16.8 29h9.9c5.4-.1 10-.4 10.2-.7.1-.3-13.3-23.9-29.8-52.4-16.5-28.6-30.5-52.9-31.1-54-.6-1.1-7.9-13.7-16.1-28l-15-26-10.8-.3-10.7-.3 2.5 4.3zM85.1 179.2c.7 1.3 11.2 19.6 23.4 40.8 12.3 21.2 23.2 40.1 24.3 42 1 1.9 11.4 19.9 23 40l21.1 36.5 9.8.1c5.4 0 10.1-.1 10.5-.3.4-.2-.3-2.1-1.6-4.1-2-3-45.3-78-54.5-94.3-1.4-2.5-10.2-17.7-19.5-33.7L104.7 177H83.9l1.2 2.2zM126 177.4c0 .2 8.1 14.5 18.1 31.8 10 17.2 19.1 33.1 20.4 35.3 1.2 2.2 3.1 5.6 4.3 7.5 1.1 1.9 10.3 17.9 20.5 35.5 10.1 17.6 20.9 36.3 23.9 41.5l5.5 9.5 10.2.1c5.5 0 10.1-.4 10.1-.9s-4.9-9.3-10.9-19.5c-13.8-23.8-47.6-82.3-50.9-88.2-1.4-2.5-6.2-10.8-10.7-18.5-4.4-7.7-10.8-18.6-14-24.3l-6-10.2h-10.2c-5.7 0-10.3.2-10.3.4z"/></svg>