<svg width="65" height="45" viewBox="0 0 65 45" fill="none" xmlns="http://www.w3.org/2000/svg">
<path d="M55.0444 25.8381V21.9404V7.02102C55.0444 4.92731 54.121 2.95928 52.5107 1.62145C50.9004 0.28349 48.7964 -0.263043 46.7381 0.119975C46.713 0.124672 46.6879 0.130131 46.663 0.136478C46.5566 0.163012 35.9836 2.79538 32.4998 2.79538C29.0176 2.79538 18.4432 0.163012 18.337 0.136478C18.3121 0.130131 18.2869 0.124672 18.2617 0.119975C16.2036 -0.263678 14.0996 0.28349 12.4892 1.62132C10.879 2.95928 9.95538 4.92718 9.95538 7.02115V22.345V25.8383C3.47214 27.8665 0.0515137 30.6267 0.0515137 33.8493C0.0515137 37.0819 3.51822 39.866 10.0771 41.9002C16.0844 43.7635 24.0477 44.7897 32.5 44.7897C40.9523 44.7897 48.9156 43.7635 54.9229 41.9002C61.4817 39.866 64.9486 37.082 64.9486 33.8493C64.9484 30.6267 61.5277 27.8665 55.0444 25.8381ZM12.4946 19.4003C18.0226 20.721 24.8018 21.442 31.8024 21.442C36.0467 21.442 40.1673 21.1851 44.0498 20.6783C44.745 20.5875 45.235 19.9503 45.1442 19.2551C45.0535 18.5598 44.4163 18.0686 43.7211 18.1605C39.9472 18.6531 35.9371 18.9029 31.8024 18.9029C24.7392 18.9029 17.9313 18.1535 12.4946 16.7859V7.02102C12.4944 5.68446 13.084 4.42826 14.1118 3.57424C15.1304 2.7281 16.4583 2.37707 17.7611 2.60965C18.5961 2.81747 28.7846 5.33445 32.5 5.33445C36.2153 5.33445 46.4038 2.8176 47.2387 2.60965C48.5413 2.37733 49.8694 2.72797 50.888 3.57424C51.9159 4.42813 52.5052 5.68446 52.5052 7.02089V20.9917C46.8567 22.5998 39.5539 23.4816 31.8022 23.4816C24.7387 23.4816 17.9308 22.7322 12.4944 21.3647V19.4003H12.4946ZM12.4944 26.7805V23.9795C18.0219 25.3001 24.8014 26.0208 31.8022 26.0208C39.4686 26.0208 46.7381 25.1756 52.5052 23.6269V25.5971C46.9828 27.0536 39.9544 27.8544 32.6529 27.8544C28.5173 27.8544 24.5071 27.6046 20.7342 27.112C20.0388 27.0199 19.4018 27.5113 19.3111 28.2064C19.2203 28.9018 19.7103 29.5389 20.4055 29.6297C24.287 30.1364 28.4076 30.3935 32.6529 30.3935C39.8855 30.3935 46.8815 29.6241 52.5052 28.2189V29.8273C46.8571 31.4351 39.5536 32.3162 31.8022 32.3162C24.7388 32.3162 17.9307 31.5674 12.4944 30.1997V26.7805ZM54.1707 39.4751C48.4002 41.265 40.7041 42.2505 32.5 42.2505C24.2959 42.2505 16.5997 41.2648 10.8293 39.4751C5.74765 37.8988 2.59058 35.7431 2.59058 33.8494C2.59058 32.0506 5.37047 30.0588 9.95551 28.5082V31.1794C9.95551 31.4299 10.0289 31.6667 10.1576 31.8666C10.3232 32.1236 10.5802 32.3195 10.8908 32.4043C14.5102 33.3921 18.7686 34.1027 23.3317 34.4966C23.7879 34.5359 24.2473 34.5721 24.7094 34.6053C25.6335 34.6713 26.5685 34.7245 27.5117 34.7646C28.9265 34.8248 30.3597 34.8554 31.8022 34.8554C40.2166 34.8554 48.1528 33.8372 54.1488 31.9884C54.6811 31.8244 55.0443 31.3323 55.0443 30.7752V28.5083C59.6293 30.0589 62.4094 32.0507 62.4094 33.8495C62.4092 35.7431 59.2524 37.8988 54.1707 39.4751Z" fill="#2F2483"/>
</svg>
