<svg xmlns="http://www.w3.org/2000/svg" width="256" height="194.789" viewBox="0 0 256 194.789">
  <g id="Group_26850" data-name="Group 26850" transform="translate(0 0)">
    <g id="Group_26848" data-name="Group 26848" transform="translate(1.011 103.553)" opacity="0.25">
      <path id="Path_41444" data-name="Path 41444" d="M334.97,838.841a66.241,66.241,0,0,1-.281-7.287.566.566,0,0,1,.6-.514c8.969-.443,17.923-1.09,26.864-1.885.612.007,1.231.007,1.843.014a.505.505,0,0,1,.253.422,49.909,49.909,0,0,1-2.1,10.453c-8.99.183-17.972.422-26.962.64C335.111,840.072,335.026,839.46,334.97,838.841Z" transform="translate(-265.297 -814.249)" fill="#101724"/>
      <path id="Path_41445" data-name="Path 41445" d="M322.858,831.961a.577.577,0,0,1,.6-.513q14.223-.7,28.39-2a.559.559,0,0,1,.57.549,50.51,50.51,0,0,1-1.189,7q-14.086.147-28.165.352C322.957,835.555,322.837,833.754,322.858,831.961Z" transform="translate(-170.294 -812.477)" fill="#101724"/>
      <path id="Path_41446" data-name="Path 41446" d="M534.813,832.424q16.291.623,32.674,1.28c-.071.549-.12,1.119-.211,1.653-.19,1.083-.584,2.11-.879,3.165q-18.844.148-37.7.317-8.926-1.213-17.916-1.969c-16.995-1.456-34.081-1.716-51.139-2.089q-28.478-.634-56.97-.162c-18.036.3-37.014-.331-54.677,3.341a47.713,47.713,0,0,0-12.394,4.467q-10.351.337-20.7.711c-.267-.647-.556-1.28-.781-1.935-.141-.3-.281-.6-.4-.914a17.375,17.375,0,0,1-.619-10.952c.014-.084.063-.162.077-.246,3.489.007,6.978-.007,10.467-.007C394.052,829.16,464.471,829.758,534.813,832.424Z" transform="translate(-312.498 -814.684)" fill="#246856"/>
      <path id="Path_41447" data-name="Path 41447" d="M312.638,831.467a14.807,14.807,0,0,1,1.681-1.062,21.854,21.854,0,0,1,2.919-1.47,31.321,31.321,0,0,1,11.36-1.864c9.342-.127,18.711.127,28.06.2l28.137.225q28.14.232,56.274.45l113.047.9a.524.524,0,0,1,.141,1.034c.112.056.225.105.338.176a.6.6,0,0,1,.19.211.5.5,0,0,1,.422.6,22.625,22.625,0,0,1,3.482,4.748c.091.183.127.387.2.576C476.872,832.466,394.762,831.614,312.638,831.467Z" transform="translate(-304.887 -827.035)" fill="#246856"/>
      <path id="Path_41448" data-name="Path 41448" d="M322.965,844.8a5.506,5.506,0,0,1,1.231-.232l.126-.021a14.248,14.248,0,0,1,.7-1.7,11.48,11.48,0,0,1,2.518-3.524,5.969,5.969,0,0,1,2.181-1.709,6.414,6.414,0,0,1,3.566.063,21.872,21.872,0,0,1,2.68.732,18.5,18.5,0,0,0,.816-2.237l2.42.085c.324.189.619.408.943.591.682.38,4.854,2.645,6.07,3.348l-.014.014a18.005,18.005,0,0,0-3.574,3.967c.042.12.092.232.127.352a7.815,7.815,0,0,1,.366,1.259,16.379,16.379,0,0,1,.577,4.255,9.9,9.9,0,0,1-1.442,5.747,10.264,10.264,0,0,1-4.34,3.236,11.157,11.157,0,0,1-5.775,1.231c-3.679-.436-5.874-3.608-7.168-6.45a13.181,13.181,0,0,1-1.35-5.4c0-.2.028-.387.042-.577-.246-.358-.506-.7-.724-1.069a4.259,4.259,0,0,1-.506-.992A.815.815,0,0,1,322.965,844.8Z" transform="translate(-160.926 -771.95)" fill="#f5a76e"/>
      <path id="Path_41449" data-name="Path 41449" d="M323.349,845.4l-.049-.077c-.267-.415.162-.781.577-.759a34.568,34.568,0,0,1,12.57-11.325,2.684,2.684,0,0,1,2.715-.106,10.325,10.325,0,0,1,2.251,2.139,42.584,42.584,0,0,1,3.531,4.452,10.182,10.182,0,0,1,4.959,5.241,6.889,6.889,0,0,1,.281,1.491c-8.877-.358-17.768-.619-26.653-.837-.07-.063-.126-.141-.19-.2Z" transform="translate(-170.595 -792.2)" fill="#5f5c52"/>
      <path id="Path_41450" data-name="Path 41450" d="M321.705,832.42l2.779-.042q13.168-.2,26.329-.415c-.232.268-.478.535-.689.816a6.16,6.16,0,0,0-1.034,3.327c-.085,1.182-.148,2.371-.3,3.545a43.9,43.9,0,0,1-3.7,12.95q-12.873-.728-25.752-1.182c.711-3.637,1.758-7.217,2.272-10.882A39.631,39.631,0,0,0,321.705,832.42Z" transform="translate(-143.966 -797.305)" fill="#f7883a"/>
      <path id="Path_41451" data-name="Path 41451" d="M319.259,833.669c.077-.45.155-.893.26-1.336.091-.359.239-1.611.45-2.328,8.4.281,16.791.7,25.162,1.4a10.237,10.237,0,0,1,3.834,1.963Q334.119,833.5,319.259,833.669Z" transform="translate(-141.533 -809.12)" fill="#f7883a"/>
      <path id="Path_41452" data-name="Path 41452" d="M322.468,849.867a3.521,3.521,0,0,0,2.3,1.646,4.572,4.572,0,0,1,1.449.436c.443.331.274,1.182.373,1.667.4,1.962,2.589,3.791,4.868,2.848.415-.169.985-.738,1.456-.57s.788.76,1.188,1.034a4.162,4.162,0,0,0,2.955.612,4.237,4.237,0,0,0,2.539-1.562,2.448,2.448,0,0,1,1.379-.921c.64-.127,1.287-.1,1.92-.289A5,5,0,0,0,345.484,853a5.41,5.41,0,0,0,.879-3.334,14.275,14.275,0,0,1,.408-3.932,28.733,28.733,0,0,0,1.02-3.812,2.8,2.8,0,0,0-1.6-2.828,11.666,11.666,0,0,0-3.988-1.9,5.82,5.82,0,0,0-3.974.682,11.413,11.413,0,0,0-3.06,2.216l.07.014a3.112,3.112,0,0,1,.352.141l.085.049a1.8,1.8,0,0,1,.359.289,2.005,2.005,0,0,1,.281.373,3.649,3.649,0,0,1,.2.45c.021.07.042.148.056.218a3.017,3.017,0,0,1,.063.753,1.462,1.462,0,0,1-.021.246,3.739,3.739,0,0,1-.1.486,1.324,1.324,0,0,1-.084.211,1.941,1.941,0,0,1-.225.408,1.674,1.674,0,0,1-.7.577,1.807,1.807,0,0,1-.753.154,1.384,1.384,0,0,1-.246-.028,1.454,1.454,0,0,1-.253-.05,2.229,2.229,0,0,1-.38-.148l-.126-.063a3.246,3.246,0,0,1-.471-.345,3.205,3.205,0,0,1-.345-.345,5,5,0,0,1-2.4,2.124,12.1,12.1,0,0,1-4.185.507,5.037,5.037,0,0,0-3.165,1.16A2.231,2.231,0,0,0,322.468,849.867Z" transform="translate(-161.702 -766.358)" fill="#be2b02"/>
      <path id="Path_41453" data-name="Path 41453" d="M335.815,843.406a33.948,33.948,0,0,0-5.55-5.205,69.387,69.387,0,0,0-9.454-5.831q10.488-.169,20.976-.338c2.118,1.351,4.207,2.729,6.169,4.256q1.73,1.34,3.348,2.792c.092.084.274.281.514.52.141-.07.274-.154.415-.218a.99.99,0,0,1,.155-.042.593.593,0,0,1,.436-.232c2.574-.246,5.585-.2,7.71,1.329a5.245,5.245,0,0,1,1.66,6.373,12.787,12.787,0,0,1-3.7,4.945q-8.768-.443-17.55-.781c-.394-.541-.809-1.076-1.168-1.639A52.423,52.423,0,0,0,335.815,843.406Z" transform="translate(-166.108 -796.883)" fill="#716d62"/>
      <path id="Path_41454" data-name="Path 41454" d="M334.79,843.888a5.558,5.558,0,0,1,1.231-.232l.127-.021a13.6,13.6,0,0,1,.7-1.695,11.416,11.416,0,0,1,2.518-3.524,5.932,5.932,0,0,1,2.188-1.716,6.324,6.324,0,0,1,3.559.07,20.645,20.645,0,0,1,2.68.725c.239-.5.373-1.027.563-1.541,1.231,0,2.462.014,3.686.014.781.436,4.8,2.623,6,3.313l-.014.014a18.18,18.18,0,0,0-3.573,3.968,3.5,3.5,0,0,1,.127.351,8.9,8.9,0,0,1,.373,1.259,16.374,16.374,0,0,1,.57,4.255,9.847,9.847,0,0,1-1.442,5.747,10.116,10.116,0,0,1-4.34,3.236,11.059,11.059,0,0,1-5.768,1.231c-3.679-.436-5.881-3.6-7.168-6.45a13.042,13.042,0,0,1-1.35-5.4c0-.2.028-.387.035-.577-.239-.358-.5-.7-.718-1.069a4.38,4.38,0,0,1-.514-.985A.83.83,0,0,1,334.79,843.888Z" transform="translate(-255.93 -773.223)" fill="#a64c1a"/>
      <path id="Path_41455" data-name="Path 41455" d="M339.534,837.814a24.085,24.085,0,0,1,6.429-4.417c2.342-.956,4.706-.035,6.788,1.027,1.294.669,2.567,1.4,3.89,2.026a10.152,10.152,0,0,1,4.9,5.205,6.79,6.79,0,0,1,.4,2.117q-6.12-.032-12.24-.035a11.626,11.626,0,0,1-1.442-1.505,1.228,1.228,0,0,0-1.787-.26c-.6.6-1.231,1.175-1.857,1.759-2.708-.007-5.423-.014-8.132-.014-.478-.528-.935-1.076-1.456-1.561C336.481,840.663,337.959,839.192,339.534,837.814Z" transform="translate(-265.408 -791.072)" fill="#fea22d"/>
      <path id="Path_41456" data-name="Path 41456" d="M334.022,832.675c9.109-.169,18.226-.366,27.342-.521-.021.2-.077.408-.1.612-.085,1.188-.148,2.37-.289,3.552a44.144,44.144,0,0,1-3.6,12.669q-12.989-.127-25.977-.169c.7-3.883,1.85-7.709,2.392-11.621A30.507,30.507,0,0,0,334.022,832.675Z" transform="translate(-239.321 -796.147)" fill="#f7883a"/>
      <path id="Path_41457" data-name="Path 41457" d="M330.993,833.732c.091-.57.2-1.147.337-1.709.085-.359.239-1.611.443-2.329,8.4.282,16.791.7,25.161,1.407a9.416,9.416,0,0,1,4.565,2.5,5.769,5.769,0,0,1,1.393,2.673q-16.059.264-32.111.577A23.067,23.067,0,0,1,330.993,833.732Z" transform="translate(-236.517 -810.991)" fill="#f7883a"/>
      <path id="Path_41458" data-name="Path 41458" d="M334.123,846.963a5.008,5.008,0,0,1,3.165-1.154,12.328,12.328,0,0,0,4.192-.513,4.946,4.946,0,0,0,2.392-2.125,3.168,3.168,0,0,0,.345.345,2.952,2.952,0,0,0,.478.345l.12.063a3.064,3.064,0,0,0,.38.155c.084.022.169.028.253.042a1.544,1.544,0,0,0,.246.028,1.831,1.831,0,0,0,.76-.154,1.714,1.714,0,0,0,.7-.577,2.864,2.864,0,0,0,.225-.408c.028-.071.056-.134.078-.2a4.079,4.079,0,0,0,.1-.493c.014-.084.021-.162.028-.246a3.31,3.31,0,0,0-.07-.746,2.138,2.138,0,0,0-.056-.225,3.145,3.145,0,0,0-.19-.444,2.145,2.145,0,0,0-.289-.379,1.79,1.79,0,0,0-.359-.289l-.084-.05a3.18,3.18,0,0,0-.352-.14l-.063-.007a11.275,11.275,0,0,1,3.053-2.223,5.823,5.823,0,0,1,3.974-.675,7.9,7.9,0,0,1,2.068.746.8.8,0,0,0,.246,1.055,6.588,6.588,0,0,1,2.357,6.408l-.1.324a9.837,9.837,0,0,0-.225,1.062,11.5,11.5,0,0,1-.647,1.568,5.862,5.862,0,0,1,1.927-.492,5.662,5.662,0,0,1,2.265-.352c2.1.134,4.073,1.744,3.82,3.749a4.879,4.879,0,0,1-1.076,2.3,3.979,3.979,0,0,1-1.259,1.829,5.009,5.009,0,0,1-1.618.851l-.049.042a6.06,6.06,0,0,1-5.592.4,1.968,1.968,0,0,1-1.048-.26,1.992,1.992,0,0,1-.725-1.351l-.113-.422a4.2,4.2,0,0,1-.169-.633l-.078-.309a1.309,1.309,0,0,1-.155-.493c-.169.134-.331.274-.506.4a12.147,12.147,0,0,1-10.481,1.751c-1.906-.6-3.1-1.8-4.565-2.933a.769.769,0,0,0-.26-.5,2.376,2.376,0,0,0-.943-.323,5.944,5.944,0,0,0-1.674-.668l-.141-.021a2.66,2.66,0,0,1-.992-1.062A2.259,2.259,0,0,1,334.123,846.963Z" transform="translate(-255.833 -768.223)" fill="#4c1d12"/>
    </g>
    <g id="Group_26849" data-name="Group 26849" transform="translate(0 0)">
      <path id="Path_41459" data-name="Path 41459" d="M335.113,828.254c.112-1.294.246-2.588.422-3.876.113-.865.2-1.885,1.09-2.307.964-.457,2.293.014,3.271.183l4.009.7,8.012,1.4,9.011,1.576a.5.5,0,0,1,.267.134.571.571,0,0,1,.949.239,60.178,60.178,0,0,1,2.251,12.176.593.593,0,0,1-.57.6q-14.17-1.435-28.39-2.2a.6.6,0,0,1-.6-.57C334.8,833.629,334.888,830.934,335.113,828.254Z" transform="translate(-265.442 -754.603)" fill="#101724"/>
      <path id="Path_41460" data-name="Path 41460" d="M323.289,827.915c.105-1.294.246-2.589.415-3.876.113-.865.211-1.892,1.1-2.314.964-.45,2.293.021,3.271.19l4,.7,8.012,1.4,9.018,1.576a.533.533,0,0,1,.267.133.574.574,0,0,1,.95.239,60.281,60.281,0,0,1,2.244,12.183.583.583,0,0,1-.563.6q-14.171-1.435-28.4-2.209a.592.592,0,0,1-.6-.57C322.972,833.282,323.057,830.595,323.289,827.915Z" transform="translate(-170.438 -756.67)" fill="#101724"/>
      <path id="Path_41461" data-name="Path 41461" d="M330.358,822.411c-.893-.626-2.145-.239-3.032-.956-1.716-1.393-.724-4.143.992-5.016a4.526,4.526,0,0,1,5.634,1.731,13.538,13.538,0,0,1,1.477,3.756,13.555,13.555,0,0,0,2.082,3.869.464.464,0,0,1-.021.64.516.516,0,0,1,.155.711,10.311,10.311,0,0,1-4.024,3.918.611.611,0,0,1-.809-.183l-2.638-3.482c-.612-.809-1.758-1.8-1.175-2.905a2.553,2.553,0,0,1,.929-.928C330.4,823.263,331.061,822.911,330.358,822.411Z" transform="translate(-179.744 -789.953)" fill="#f5a76e"/>
      <path id="Path_41462" data-name="Path 41462" d="M313.824,832.821q.19-.517.4-1.013a52.821,52.821,0,0,1,3.158-7.688l.042-.077c.288-.577.57-1.154.865-1.709a.624.624,0,0,1,.345-.282c.225-.317.436-.633.682-.936a.586.586,0,0,1,.823-.021,29.643,29.643,0,0,0,7.667,4.9c1.09.513,2.2,1,3.313,1.484a45.423,45.423,0,0,0,16.981,7.913c17.67,4.059,36.641,3.362,54.684,3.693q28.478.518,56.963-.175c17.058-.415,34.144-.7,51.146-2.307a245.62,245.62,0,0,0,26.048-3.489c8.047-1.646,17.262-3.651,23.881-8.708.415-.317.823.063.851.478.141.141.26.3.394.436a.529.529,0,0,1,.816.155,37.155,37.155,0,0,1,4.495,12.8c.675,4.333.9,9.306-.978,13.372a25.126,25.126,0,0,1-3.475,5.254.558.558,0,0,1-.429.655.6.6,0,0,1-.19.232,3.364,3.364,0,0,1-.338.2.584.584,0,0,1-.141,1.14l-113.04,1q-28.14.243-56.281.493l-28.137.254c-9.341.084-18.711.359-28.059.218a28.443,28.443,0,0,1-11.353-2.061,20.168,20.168,0,0,1-2.926-1.625c-4.678-2.42-7.794-7.3-8.828-12.472A21.148,21.148,0,0,1,313.824,832.821Z" transform="translate(-312.602 -760.281)" fill="#246856"/>
      <path id="Path_41463" data-name="Path 41463" d="M322.578,828.831a4.5,4.5,0,0,1,.506-1.09c.218-.408.478-.788.718-1.182-.007-.211-.035-.422-.035-.633a15.694,15.694,0,0,1,1.35-5.979c1.287-3.145,3.489-6.647,7.168-7.126a10.234,10.234,0,0,1,5.775,1.357,10.344,10.344,0,0,1,4.333,3.581,11.775,11.775,0,0,1,1.442,6.352,19.9,19.9,0,0,1-.57,4.7,9.442,9.442,0,0,1-.373,1.393,3.589,3.589,0,0,1-.127.388,19.327,19.327,0,0,0,3.573,4.382l.014.021c-1.217.774-5.381,3.278-6.063,3.7a28.237,28.237,0,0,0-2.94,2.026,22.529,22.529,0,0,0-1.245-3.75,18.908,18.908,0,0,1-2.68.8,5.762,5.762,0,0,1-3.559.077,6.148,6.148,0,0,1-2.188-1.9,12.879,12.879,0,0,1-2.518-3.89,16.352,16.352,0,0,1-.7-1.885l-.127-.021a4.871,4.871,0,0,1-1.231-.253A.919.919,0,0,1,322.578,828.831Z" transform="translate(-161.068 -809.575)" fill="#f5a76e"/>
      <path id="Path_41464" data-name="Path 41464" d="M323.469,827.215l-.014-.014c2.209-2.265,3.9-5.093,6.092-7.344l.035-.05a30.368,30.368,0,0,0,3.784,3.707,26.519,26.519,0,0,0,2.145,1.6,2.917,2.917,0,0,0,1.161.563,1.974,1.974,0,0,0,1.449-.591,50.829,50.829,0,0,0,4.108-3.77c1.365-1.336,2.68-2.708,3.96-4.115a.486.486,0,0,1,.338-.176.494.494,0,0,1,.788-.029,15.855,15.855,0,0,1,2.652,4.959,8.147,8.147,0,0,1,.049,5.74,10.865,10.865,0,0,1-4.959,5.8,47.6,47.6,0,0,1-3.524,4.924,11.035,11.035,0,0,1-2.251,2.356,2.463,2.463,0,0,1-2.715-.12,34.9,34.9,0,0,1-9.44-8.082,36.852,36.852,0,0,1-3.137-4.432.57.57,0,0,1-.577-.837Z" transform="translate(-170.71 -785.176)" fill="#5f5c52"/>
      <path id="Path_41465" data-name="Path 41465" d="M347.952,867.121c-8.371.774-16.763,1.238-25.161,1.555-.2-.8-.359-2.181-.443-2.574-.141-.626-.246-1.259-.337-1.893a29.457,29.457,0,0,1-.239-3.932c0-5.466.922-10.84.232-16.305s-2.371-10.783-2.863-16.277a10.581,10.581,0,0,1,1.294-6.513,10.852,10.852,0,0,1,4.649-4.213,11.9,11.9,0,0,1,12.591,1.645c3.6,2.905,5.852,7.351,7.632,11.522a52.462,52.462,0,0,1,3.883,14.814c.141,1.3.2,2.61.3,3.918a7.251,7.251,0,0,0,1.027,3.679,30.663,30.663,0,0,1,2.152,2.975,8.973,8.973,0,0,1,.915,3,.555.555,0,0,1,.2.274,5.88,5.88,0,0,1-1.266,5.564A9.23,9.23,0,0,1,347.952,867.121Z" transform="translate(-144.357 -790.916)" fill="#f7883a"/>
      <path id="Path_41466" data-name="Path 41466" d="M322.608,820.849a3.573,3.573,0,0,1,2.3-1.815,4.551,4.551,0,0,0,1.449-.478c.443-.373.274-1.316.38-1.85.394-2.166,2.582-4.185,4.868-3.151.408.19.985.823,1.456.633s.788-.837,1.182-1.14a3.829,3.829,0,0,1,2.961-.675,4.175,4.175,0,0,1,2.532,1.73,2.484,2.484,0,0,0,1.386,1.013c.633.141,1.287.113,1.913.317a4.948,4.948,0,0,1,2.588,1.955,6.394,6.394,0,0,1,.879,3.686,17.677,17.677,0,0,0,.408,4.34,32.51,32.51,0,0,1,1.02,4.213,3.184,3.184,0,0,1-1.6,3.13,11.346,11.346,0,0,1-4,2.1,5.394,5.394,0,0,1-3.974-.753,11.37,11.37,0,0,1-3.053-2.455l.063-.007a2,2,0,0,0,.352-.162l.084-.049a1.985,1.985,0,0,0,.366-.324,2.859,2.859,0,0,0,.281-.415,3.007,3.007,0,0,0,.19-.492,1.405,1.405,0,0,0,.056-.246,4.052,4.052,0,0,0,.07-.83c-.007-.084-.014-.176-.028-.267a3.654,3.654,0,0,0-.1-.542c-.021-.077-.049-.155-.078-.232a2.677,2.677,0,0,0-.225-.45,1.727,1.727,0,0,0-1.456-.809,4.576,4.576,0,0,0-.507.085,2.639,2.639,0,0,0-.38.169l-.12.07a2.785,2.785,0,0,0-.479.38,2.937,2.937,0,0,0-.345.38,5.194,5.194,0,0,0-2.391-2.35c-1.323-.633-2.779-.457-4.192-.562a4.76,4.76,0,0,1-3.165-1.28A2.66,2.66,0,0,1,322.608,820.849Z" transform="translate(-161.844 -812.314)" fill="#be2b02"/>
      <path id="Path_41467" data-name="Path 41467" d="M327.435,906.834c3.686-11.614,7.35-23.346,10.9-34.875s7.126-23.262,10.586-34.819q2.965-9.866,5.873-19.752a1.092,1.092,0,0,1,.816-.788,1.238,1.238,0,0,1,1.175.345,1.122,1.122,0,0,1,.26,1.111c-3.433,11.628-6.964,23.41-10.481,35.009-3.489,11.522-7.1,23.227-10.706,34.791q-3.071,9.845-6.183,19.668a1.143,1.143,0,0,1-.844.781,1.187,1.187,0,0,1-.225.021,1.2,1.2,0,0,1-.943-.394A1.089,1.089,0,0,1,327.435,906.834Z" transform="translate(-205.76 -786.666)" fill="#101724"/>
      <path id="Path_41468" data-name="Path 41468" d="M327.1,827.252a5.7,5.7,0,0,1,1.344-2.989,6.075,6.075,0,0,1,6.387-1.85,18.868,18.868,0,0,0,5,.76c1.09-.021,3.63.021,4.1-1.3.246-.7,1.386-.43,1.14.281-.042.106-.106.183-.148.274a6.607,6.607,0,0,1,1.463,3.615.6.6,0,0,1-.415.577q-4.473,1.625-9.06,2.919c-1.463.408-2.94.858-4.438,1.133a4.774,4.774,0,0,1-3.742-.746C327.68,829.223,326.941,828.624,327.1,827.252Z" transform="translate(-192.971 -757.111)" fill="#f5a76e"/>
      <path id="Path_41469" data-name="Path 41469" d="M321,846.523a.6.6,0,0,1,.253-.633,90.879,90.879,0,0,0,13.907-9.06,36.077,36.077,0,0,0,5.55-5.754,60.094,60.094,0,0,0,3.96-6.556,17.43,17.43,0,0,1,4.242-5.346,8.738,8.738,0,0,1,6.858-1.645,16.264,16.264,0,0,1,11.311,9.785c.851,2.511.514,5.318-1.66,7.048-2.117,1.688-5.135,1.737-7.7,1.47a.6.6,0,0,1-.443-.267.424.424,0,0,1-.155-.042c-.141-.07-.274-.162-.415-.239-.232.267-.422.478-.506.57-1.076,1.076-2.2,2.1-3.355,3.1a84.963,84.963,0,0,1-7.189,5.48c-2.525,1.73-5.121,3.362-7.744,4.952a80.984,80.984,0,0,1-8.089,4.643,7.5,7.5,0,0,1-2.61.879,7.836,7.836,0,0,1-.774.366.965.965,0,0,1-1.245-.331c-.331-.485-.591-1.027-.872-1.541-.07-.127-.141-.267-.211-.394l-.007-.007c-.464-.739-.893-1.5-1.294-2.265a16.79,16.79,0,0,1-1.829-3.848A.517.517,0,0,1,321,846.523Z" transform="translate(-170.997 -781.657)" fill="#716d62"/>
      <path id="Path_41470" data-name="Path 41470" d="M350.42,860.6a12.683,12.683,0,0,0-1.034,2.16c-6.7.175-13.372.682-20.069.984l-.225.007c.155-.317.309-.64.471-.957q.992-1.962,1.927-3.946l.211-.3a.537.537,0,0,0,.07-.281c1.111-2.349,2.18-4.72,3.144-7.133a1.117,1.117,0,0,0,.07-.577c1.006-2.251,2.047-4.65,2.884-6.858,1.048-2.8,2.152-5.283,2.926-8.167a16.048,16.048,0,0,1,2.1-3.792,11.554,11.554,0,0,1,2.856-2.659c2.132-1.653,4.326-3.215,6.556-4.734.148.085.289.162.436.232a7.388,7.388,0,0,0,1.892.732l2.279,6.366q.76,2.12,1.519,4.227a5.855,5.855,0,0,1,.338,3.847c-.408,1.379-1.02,2.715-1.54,4.052s-1.041,2.694-1.562,4.044q-1.614,4.168-3.264,8.322c-.514,1.308-1.041,2.617-1.562,3.925A2.935,2.935,0,0,0,350.42,860.6Z" transform="translate(-219.692 -739.714)" fill="#fea22d"/>
      <path id="Path_41471" data-name="Path 41471" d="M342.181,822.76c-.886-.633-2.139-.239-3.032-.964-1.716-1.385-.718-4.143.992-5.015a4.537,4.537,0,0,1,5.641,1.737,13.379,13.379,0,0,1,1.47,3.749,13.3,13.3,0,0,0,2.089,3.869.478.478,0,0,1-.021.64.52.52,0,0,1,.148.711,10.327,10.327,0,0,1-4.024,3.925.606.606,0,0,1-.809-.19L342,827.747c-.6-.809-1.751-1.8-1.175-2.912a2.621,2.621,0,0,1,.936-.928C342.223,823.6,342.885,823.252,342.181,822.76Z" transform="translate(-274.747 -787.888)" fill="#a64c1a"/>
      <path id="Path_41472" data-name="Path 41472" d="M334.4,829.169a4.648,4.648,0,0,1,.507-1.091c.218-.4.478-.788.724-1.175-.014-.218-.042-.429-.042-.64a15.788,15.788,0,0,1,1.351-5.972c1.287-3.144,3.489-6.647,7.168-7.126a10.184,10.184,0,0,1,5.775,1.358,10.4,10.4,0,0,1,4.34,3.573,11.8,11.8,0,0,1,1.435,6.359,19.873,19.873,0,0,1-.57,4.7,9.355,9.355,0,0,1-.366,1.386c-.035.134-.085.26-.127.394a19.254,19.254,0,0,0,3.566,4.382l.014.014c-1.21.781-5.381,3.278-6.063,3.708a27.215,27.215,0,0,0-2.94,2.018,23.4,23.4,0,0,0-1.238-3.749,20,20,0,0,1-2.687.809,5.76,5.76,0,0,1-3.559.07,6.067,6.067,0,0,1-2.188-1.892,12.83,12.83,0,0,1-2.518-3.9,18.645,18.645,0,0,1-.7-1.878l-.127-.022a5.108,5.108,0,0,1-1.224-.253A.925.925,0,0,1,334.4,829.169Z" transform="translate(-256.072 -807.507)" fill="#a64c1a"/>
      <path id="Path_41473" data-name="Path 41473" d="M340.353,821.16c2.019,2.23,4.242,4.3,6.254,6.527a1.16,1.16,0,0,0,1.787-.281,14.953,14.953,0,0,1,2.539-2.947c.373-.331.746-.669,1.1-1.013a27.107,27.107,0,0,0,3.243-3.243c.858-.886,1.73-1.751,2.561-2.666a.531.531,0,0,1,.338-.176.494.494,0,0,1,.788-.021,15.628,15.628,0,0,1,2.652,4.959,8.144,8.144,0,0,1,.049,5.74,10.847,10.847,0,0,1-4.9,5.754c-1.322.689-2.589,1.5-3.89,2.237-2.075,1.175-4.439,2.195-6.781,1.133a23.871,23.871,0,0,1-6.429-4.875c-1.583-1.526-3.06-3.158-4.516-4.8C337.04,825.535,338.567,823.207,340.353,821.16Z" transform="translate(-265.54 -783.109)" fill="#fea22d"/>
      <path id="Path_41474" data-name="Path 41474" d="M359.781,867.458c-8.378.774-16.77,1.238-25.168,1.555-.2-.8-.359-2.181-.443-2.575-.141-.626-.246-1.259-.331-1.892a28.23,28.23,0,0,1-.246-3.932c.007-5.465.921-10.84.232-16.3s-2.37-10.783-2.863-16.278a10.6,10.6,0,0,1,1.3-6.513,10.871,10.871,0,0,1,4.642-4.206,11.915,11.915,0,0,1,12.6,1.646c3.595,2.905,5.853,7.344,7.632,11.515a52.451,52.451,0,0,1,3.876,14.814c.141,1.309.2,2.61.3,3.925a7.227,7.227,0,0,0,1.034,3.672,32,32,0,0,1,2.145,2.983,8.732,8.732,0,0,1,.914,2.989.527.527,0,0,1,.211.274,5.883,5.883,0,0,1-1.273,5.564A9.144,9.144,0,0,1,359.781,867.458Z" transform="translate(-239.358 -788.847)" fill="#f7883a"/>
      <path id="Path_41475" data-name="Path 41475" d="M333.568,820.821a2.7,2.7,0,0,1,.985-1.168l.148-.035a5.527,5.527,0,0,0,1.667-.732,2.195,2.195,0,0,0,.943-.358.905.905,0,0,0,.267-.556c1.456-1.245,2.652-2.574,4.558-3.235a11.2,11.2,0,0,1,10.488,1.934c.169.134.338.3.5.443a1.763,1.763,0,0,1,.155-.549l.085-.338a4.548,4.548,0,0,1,.162-.7l.112-.472a2.337,2.337,0,0,1,.725-1.5,1.885,1.885,0,0,1,1.055-.281,5.553,5.553,0,0,1,5.585.443l.056.042a5.124,5.124,0,0,1,1.618.949,4.54,4.54,0,0,1,1.259,2.012A5.75,5.75,0,0,1,365,819.273a3.959,3.959,0,0,1-3.812,4.143,5.248,5.248,0,0,1-2.272-.387,5.563,5.563,0,0,1-1.92-.541,14.663,14.663,0,0,1,.64,1.73,11.758,11.758,0,0,0,.232,1.168l.1.359a7.727,7.727,0,0,1-2.363,7.091.944.944,0,0,0-.246,1.16,7.672,7.672,0,0,1-2.061.83,5.351,5.351,0,0,1-3.974-.752,11.485,11.485,0,0,1-3.06-2.448l.063-.014a2.039,2.039,0,0,0,.359-.155l.077-.056a1.967,1.967,0,0,0,.366-.316,3.262,3.262,0,0,0,.281-.415,3.543,3.543,0,0,0,.19-.492,1.83,1.83,0,0,0,.063-.246,4.149,4.149,0,0,0,.063-.83c0-.091-.014-.183-.021-.267a4.6,4.6,0,0,0-.105-.541,1.111,1.111,0,0,0-.078-.232,2.5,2.5,0,0,0-.225-.458,1.8,1.8,0,0,0-.7-.633,1.732,1.732,0,0,0-.753-.169.958.958,0,0,0-.246.028,1.535,1.535,0,0,0-.26.049,3.549,3.549,0,0,0-.373.169l-.127.07a4.241,4.241,0,0,0-.478.38,4.608,4.608,0,0,0-.345.387,5.206,5.206,0,0,0-2.392-2.356c-1.322-.633-2.771-.451-4.192-.556a4.756,4.756,0,0,1-3.158-1.28A2.641,2.641,0,0,1,333.568,820.821Z" transform="translate(-255.976 -809.879)" fill="#4c1d12"/>
      <path id="Path_41476" data-name="Path 41476" d="M348.781,854.448c-1.548,11.937-3.179,24.071-4.833,36.078q-1.192,8.568-2.406,17.142l-2.349-.084c1.569-11.065,3.109-22.2,4.579-33.152,1.611-11.972,3.194-24.113,4.713-36.086q1.287-10.214,2.539-20.448a1.1,1.1,0,0,1,.675-.915,1.259,1.259,0,0,1,1.217.148,1.116,1.116,0,0,1,.436,1.055C351.877,830.222,350.343,842.42,348.781,854.448Z" transform="translate(-285.146 -784.701)" fill="#101724"/>
      <path id="Path_41477" data-name="Path 41477" d="M338.617,823.431a5.686,5.686,0,0,1,2.314-2.314,6.067,6.067,0,0,1,6.626.541,18.758,18.758,0,0,0,4.41,2.476c1.027.373,3.383,1.315,4.291.246.485-.57,1.456.084.964.661a2.083,2.083,0,0,1-.232.2,6.575,6.575,0,0,1,.084,3.9.58.58,0,0,1-.591.394c-3.173-.042-6.345-.2-9.51-.485-1.512-.133-3.053-.239-4.544-.513a4.776,4.776,0,0,1-3.236-2.018C338.455,825.479,337.977,824.663,338.617,823.431Z" transform="translate(-282.979 -763.701)" fill="#a64c1a"/>
      <path id="Path_41478" data-name="Path 41478" d="M355.617,852.191c-5.2.022-10.34-.823-15.5-1.343-2.293-.232-4.629-.345-6.957-.5a14.668,14.668,0,0,1-.028-1.667l.028-.415c.007-.07,0-.014,0-.028-.007-.83.077-1.646.113-2.462a17.442,17.442,0,0,1,.528-3.9c.035-.119.091-.133.2-.274a.607.607,0,0,1,.527-.3c5.811.52,11.494,2.694,17.262,1.639A10.6,10.6,0,0,0,356,841.226l.105.063c.176-.274.352-.555.556-.816a46.78,46.78,0,0,0,1.885-5.628c.408-1.554.7-3.123.957-4.692.106-1.449.211-2.891.324-4.34a22.833,22.833,0,0,1,.7-4.516,5.891,5.891,0,0,1,2.019-3.384,5.413,5.413,0,0,1,3.834-.366,9.612,9.612,0,0,1,3.58,1.435,9.416,9.416,0,0,1,4.178,6.464l.014.1a7.06,7.06,0,0,1-2.567,7.548c-.415.331-.562,3.348-.76,4.017a27.151,27.151,0,0,1-3.116,6.739,23.238,23.238,0,0,1-3.461,4.621c-1.941,1.787-5.564,2.891-8.068,3.588C355.983,852.114,355.8,852.143,355.617,852.191Z" transform="translate(-263.401 -781.776)" fill="#fea22d"/>
      <path id="Path_41479" data-name="Path 41479" d="M361.122,843.358q-.443,2.121-.879,4.241-.918,4.378-1.85,8.751c-.2.928-.4,1.864-.6,2.792-5.585-.225-11.163-.45-16.748-.626-.584-.021-1.161-.035-1.745-.049.366-1.4.71-2.8,1.02-4.213a1.132,1.132,0,0,0-.021-.577c.612-2.384,1.252-4.917,1.709-7.238.577-2.933,1.252-5.564,1.547-8.539a15.964,15.964,0,0,1,1.442-4.08,11.291,11.291,0,0,1,2.377-3.095c1.829-1.984,3.735-3.883,5.684-5.747.162.056.316.112.471.155a7.43,7.43,0,0,0,1.984.408l3.3,5.908c.732,1.309,1.463,2.61,2.195,3.918a5.891,5.891,0,0,1,.971,3.735C361.791,840.53,361.41,841.951,361.122,843.358Z" transform="translate(-294.504 -735.901)" fill="#fea22d"/>
    </g>
  </g>
</svg>
