<svg xmlns="http://www.w3.org/2000/svg" width="324" height="232.503" viewBox="0 0 324 232.503">
  <g id="Group_26859" data-name="Group 26859" transform="translate(-408.551 -901.323)">
    <g id="Group_26853" data-name="Group 26853" transform="translate(408.551 919.571)">
      <path id="Path_41480" data-name="Path 41480" d="M454.063,939.9c6.209-7.291,3.654-17.4-6.016-19.231a11.641,11.641,0,0,0-2.168-.206l-.217-.016a11.376,11.376,0,0,0-6.146,1.09,8.252,8.252,0,0,0-2.306,1.341,7.858,7.858,0,0,0-2.256,5c-.232,1.768-.275,3.565-.368,5.346,0,.065-1.246,3.3-1.26,3.441-.024.094-.051.187-.068.283a.913.913,0,0,0,.077.786.971.971,0,0,0,.788.221c.428.01,1.642-.01,1.642-.01s-.24,4.89.839,6.736a5.006,5.006,0,0,0,.932,1.037,5.8,5.8,0,0,0,3.522.927,6.906,6.906,0,0,0,1.611-.393c.238-.088.47-.2.7-.314.19.3,3.3,5.007,3.946,6.907-.126.013-.254.019-.38.028a5.5,5.5,0,0,0,.223,6.23c.45.387.922.749,1.407,1.09a15.659,15.659,0,0,0,1.862-.055,19.534,19.534,0,0,0,9.931-11.359c0-.051.006-.1.006-.155C458.991,947.535,453.976,940,454.063,939.9Z" transform="translate(-404.709 -916.596)" fill="#a64c1a"/>
      <path id="Path_41481" data-name="Path 41481" d="M442.117,943c-.075.056,2.391-.648,4.536-3.811" transform="translate(-403.32 -913.669)" fill="none" stroke="#a64c1a" stroke-miterlimit="10" stroke-width="0.611" style="mix-blend-mode: multiply;isolation: isolate"/>
      <path id="Path_41482" data-name="Path 41482" d="M482.693,999.147a6.74,6.74,0,0,1,2.892-1.1c.215-.039.431-.077.645-.121.105-.021.21-.047.315-.069a.392.392,0,0,1,.124-.01c.112-.049.225-.133.327-.167.095-.091.3-.312.038-.013h.006a1.855,1.855,0,0,1,2.552-.384l2.571,2.42c.487.458,1.788.935,1.547,2.989-.325,2.757-1.866,5.824-2.931,8.388a1.916,1.916,0,0,1-2.381,1.087,20.821,20.821,0,0,1-7.805-3.65,1.814,1.814,0,0,1-.759-1.662c.324-1.426.641-2.855.972-4.28A5.7,5.7,0,0,1,482.693,999.147Z" transform="translate(-397.446 -904.674)" fill="#a64c1a"/>
      <path id="Path_41483" data-name="Path 41483" d="M488.076,969.2c1.058-2.5,2.947-4.8,5.79-5.2a5.142,5.142,0,0,1,5.93,3.955c.576,2.509-.415,5.332-.94,7.765q-1.033,4.787-2.144,9.555c-1.247,5.352-4.219,19.032-4.3,20.556a1.865,1.865,0,0,1-2.007,1.681,2.092,2.092,0,0,1-.344-.092,1.9,1.9,0,0,1-1.1-.044,1.8,1.8,0,0,1-.548-.328c-.132.13-.269.255-.415.377a1.872,1.872,0,0,1-3.014-1.6c.275-3.146.591-6.292.8-9.444a72.234,72.234,0,0,0-.084-9.032,49.144,49.144,0,0,1,.216-9.366A34.639,34.639,0,0,1,488.076,969.2Z" transform="translate(-396.64 -909.812)" fill="#a64c1a"/>
      <path id="Path_41484" data-name="Path 41484" d="M459.511,948.684c1.27-3.342,4.42-4.611,7.816-4.1a23.585,23.585,0,0,1,8.96,3.839c2.966,1.908,5.763,4.091,8.6,6.178q4.969,3.653,9.939,7.305c2.957,2.179,6.57,4.094,8.388,7.363.835,1.5-1.246,3.249-2.541,3.131a2.592,2.592,0,0,1-1.043.8l-1.564.677a2.022,2.022,0,0,1-1.425.186,1.947,1.947,0,0,1-.962-.646,14.962,14.962,0,0,1-3.7-.784c-1.757-.565-3.49-1.2-5.211-1.868a111.814,111.814,0,0,1-12.31-4.144c-5.2-2.1-11.133-4.648-14-9.8A9.9,9.9,0,0,1,459.511,948.684Z" transform="translate(-400.688 -912.846)" fill="#a64c1a"/>
      <path id="Path_41485" data-name="Path 41485" d="M423.177,956.282a6.732,6.732,0,0,1,0,3.1c-.038.215-.081.43-.116.646-.017.106-.03.213-.046.319a.439.439,0,0,1-.035.12c.006.121.044.257.039.364.052.121.186.388,0,.041l0,0a1.856,1.856,0,0,1-.55,2.522l-3.175,1.542a5.551,5.551,0,0,1-1.878.736,2.08,2.08,0,0,1-.425-.01,1.746,1.746,0,0,1-1.789-.343l-6.049-5.722a1.916,1.916,0,0,1-.169-2.612,20.8,20.8,0,0,1,6.187-6,1.812,1.812,0,0,1,1.824-.118c1.218.809,2.44,1.614,3.654,2.43A5.709,5.709,0,0,1,423.177,956.282Z" transform="translate(-408.551 -911.88)" fill="#a64c1a"/>
      <path id="Path_41486" data-name="Path 41486" d="M436.782,965.387a41.316,41.316,0,0,1,1.216-7.7,11.111,11.111,0,0,1,2.272-4.322,7.393,7.393,0,0,1,5.355-4.088,6,6,0,0,1,5.911,2.987c1.3,2.075,1.358,4.633,1.2,7a78.308,78.308,0,0,1-1.044,8.269c-.91,5.163-2.258,10.234-3.641,15.287a19.867,19.867,0,0,1-1.263,3.728q-.179.712-.356,1.424a1.706,1.706,0,0,1-2.255,1.229,4.452,4.452,0,0,1-5.016-1.216c-1.692-1.821-2.016-4.332-2.274-6.7a78.064,78.064,0,0,1-.1-15.9Z" transform="translate(-404.207 -912.107)" fill="#a64c1a"/>
      <path id="Path_41487" data-name="Path 41487" d="M414.565,961.99a5.026,5.026,0,0,0,1.081,3.95c.861,1.225,1.978,2.279,2.941,3.425,1.067,1.273,2.092,2.579,3.106,3.9,2.023,2.628,3.992,5.3,6.147,7.825a43.294,43.294,0,0,0,7.141,6.841c2.548,1.876,5.8,3.959,9.1,3.565a5.583,5.583,0,0,0,4.006-2.408,5.444,5.444,0,0,0,.431-4.6A13.569,13.569,0,0,0,446.5,980.6a1.757,1.757,0,0,0-.734-1.477l-1.808-1.372c-.457-.424-.922-.833-1.4-1.209a1.807,1.807,0,0,0-.621-.325l-6.119-4.645c-3.172-2.409-6.438-4.733-9.475-7.313-2.487-2.114-4.769-5.82-8.5-5.244A3.914,3.914,0,0,0,414.565,961.99Z" transform="translate(-407.628 -910.59)" fill="#a64c1a"/>
      <path id="Path_41488" data-name="Path 41488" d="M447.5,1012.889c-3.568,5.034-5.92,9.792-8.806,14.971-1.432,2.57-2.538,5.044-3.776,7.7-1.118,2.4-2.663,4.941-1.952,7.645s2.953,3.987,5.549,4.229c2.86.268,5.384-1.057,7.6-2.545s3.723-3.426,5.571-5.158c2.967-2.783,5.9-5.51,8.816-8.3,4.873-4.66,9.878-9.232,14.637-13.963a75.916,75.916,0,0,0,5.945-6.433c1.742-2.2,3.389-4.44,2.168-7.186-1.893-4.257-5.747-7.594-10.508-7.639C460.574,996.1,453.966,1003.765,447.5,1012.889Z" transform="translate(-404.774 -904.782)" fill="#a64c1a"/>
      <path id="Path_41489" data-name="Path 41489" d="M437.853,1030.622c2.164-.677,3.788.481,5.087,2.17,5.542,5.107,10.219,10.524,12.45,17.761,2.367,7.684,2.061,15.367,2.964,23.2a46.309,46.309,0,0,0,2.971,12.154,3.381,3.381,0,0,0,.172.55,7.243,7.243,0,0,1,1.162,4.131c0,.653.321,1.325.109,1.983-.533,1.654-1.134,3.009-2.917,3.576a5.411,5.411,0,0,1-5.04-.936,6.427,6.427,0,0,1-2.346-4.5c-2.44-9.1-5.023-18.128-8.086-27.036-1.609-4.68-3.448-9.25-5.272-13.846-.9-2.271-1.943-4.476-2.86-6.744s-2.134-4.313-2.121-6.865S435.266,1031.432,437.853,1030.622Z" transform="translate(-404.566 -899.451)" fill="#a64c1a"/>
      <path id="Path_41490" data-name="Path 41490" d="M460.987,1029.818A160.555,160.555,0,0,0,470.7,1044q2.6,3.383,5.375,6.621c1.671,1.948,3.457,4.713,6.188,5.122a6.227,6.227,0,0,0,6.246-3.43,11.94,11.94,0,0,0,.746-8.1,44.062,44.062,0,0,0-2.441-7.144q-1.853-5.772-3.706-11.541c-2.067-6.437-4.013-12.929-6.314-19.288a84.712,84.712,0,0,0-3.373-8.123c-1.215-2.509-2.557-4.873-5.636-5.093-4.774-.34-9.123,2.616-11.645,6.49C449.692,1009.415,455.581,1020.95,460.987,1029.818Z" transform="translate(-401.574 -905.284)" fill="#a64c1a"/>
      <path id="Path_41491" data-name="Path 41491" d="M474.049,1041.464a4.373,4.373,0,0,1,4.739-3,35.73,35.73,0,0,1,21.837-.856c7.556,2.156,14,6.688,20.935,10.214a36.88,36.88,0,0,0,11.853,4.028,1.886,1.886,0,0,1,.55.164,5.356,5.356,0,0,1,4.074,1.261,4.338,4.338,0,0,1,1.75.951,4.49,4.49,0,0,1,1.485,4.384,5.547,5.547,0,0,1-3.583,3.783,5.862,5.862,0,0,1-5.078-.528q-13.4-4.5-27.154-7.789-7.223-1.722-14.521-3.1-3.606-.683-7.228-1.281c-2.358-.391-4.862-.608-6.93-1.907S473.23,1043.933,474.049,1041.464Z" transform="translate(-398.379 -898.536)" fill="#a64c1a"/>
      <path id="Path_41492" data-name="Path 41492" d="M457.151,1023.648c.8-2.566,7.533-2.049,8.791-4.417,2.506-4.714,5.435-9.278,6.584-14.563a1.377,1.377,0,0,1,1.267-.965c.5-.283,1.92-.956,2.42-.608q.926,2.646,1.926,5.264c1.777,4.622,3.636,9.486,5.472,14.812-.11.353-1.827,1.141-2.2,1.29-6.075,2.405-10.28,4.242-16.377,7.228-.194.095-1.638.783-1.814.8-.974.6-.574.566-1.807-1.114C460.67,1030.371,456.784,1024.829,457.151,1023.648Z" transform="translate(-400.981 -903.725)" fill="#3a9081"/>
      <path id="Path_41493" data-name="Path 41493" d="M441.559,1017.053c.632-.942,4.64-7.629,5.22-8.145.021-.019-.135-1.582-.14-1.692-.027-.6-.155-1.23-.219-1.837-.083-.778-1.1-9.073-.831-9.144,1.417-.346,2.833-.7,4.27-.927,3.275-.509,6.587-.739,9.874-1.142,1.4-.172,2.805-.37,4.205-.573a104.059,104.059,0,0,1,15.477-2.909c.1.231.2.46.314.683a16.614,16.614,0,0,0,1.445,3.29c1.633,5.05,2.908,10.509.971,15.625-1.893,5-5.628,9.579-9.575,13.122-2.268,2.036-7.551,6.467-10.346,8.411-.142.1-2,1.387-2.148,1.418-1.174.647-1.339.632-2.106-.181-2.5-2.647-5.177-5.1-7.84-7.574-2.715-2.526-4.175-3.579-6.783-6.187C442.832,1018.773,441.163,1017.643,441.559,1017.053Z" transform="translate(-403.416 -905.645)" fill="#48b5a0"/>
      <path id="Path_41494" data-name="Path 41494" d="M435.381,975.758c-.036.371.682.922.8,1.032,3.355,3.025,5.116,4.566,8.508,7.691.625,4.59,1.878,22.245,2.167,24.229,13.829-1.975,21.532-2.766,35.36-5.927.774-.177-8.185-26.655-6.719-36.538,1.181.443,3.47,1.314,5.092,2.019.351.07.615-.662,1.2-1.762,2.151-4.062,4.018-7.166,5.913-11.355.431-1.052.925-1.757.643-1.9-2.7-1.348-5.792-3.846-8.422-5.318-2.356-1.318-4.37-2.6-7.024-3.2a28.793,28.793,0,0,0-8.009-.862c-2.233.2-4.435.246-5.175.74-3.323,2.216-6.7,9.387-11.459,9.117-1.215-.068-1.82-2.813-1.452-4.437.208-.915-4.43,2.141-5.941,3.575a14.785,14.785,0,0,0-3.214,5.728C436.026,964.126,435.832,971.043,435.381,975.758Z" transform="translate(-404.37 -912.949)" fill="#fea22d"/>
      <path id="Path_41495" data-name="Path 41495" d="M443.962,985.453c-.637-5.661-.988-12.178-1.646-18.652" transform="translate(-403.289 -909.367)" fill="none" stroke="#a64c1a" stroke-miterlimit="10" stroke-width="0.64"/>
      <path id="Path_41496" data-name="Path 41496" d="M450.441,936.9a2.578,2.578,0,0,0,.7-1.192,2.45,2.45,0,0,0-.793-2.373c-1.058-1.1-2.757,0-2.855-.088a3.2,3.2,0,0,0-.2,1.515,2.193,2.193,0,0,1-.337,1.085c-.631.007-1.261.016-1.892.036a.919.919,0,0,1-.058-.117,5.123,5.123,0,0,1,.066-1.911,9.061,9.061,0,0,0-.592-2.794c-.268-.879-.321-3.524-.535-3.849-.236-.358-2.378-.11-3.146-.037-.187.018-.92-.418-1.1-.431-.363-.027-.647.408-.948.573a8.378,8.378,0,0,1-3.839.238c-.014,0-.262.007-.361-.113-1.233-1.522-.161-4.39,1.017-6a4.587,4.587,0,0,1,2.142-1.6,4.7,4.7,0,0,1,1.348-.25,1.862,1.862,0,0,0,1.57-.674,4.553,4.553,0,0,1,2.029-1.551,4.412,4.412,0,0,1,2.594-.1,3.893,3.893,0,0,1,1.135.51c.4.268.724.631,1.12.9a1.55,1.55,0,0,0,1.559.03,3.587,3.587,0,0,1,1.348-.2,4.112,4.112,0,0,1,3.692,2.871c.133.483.095.993.222,1.475a1.763,1.763,0,0,0,1.016,1.092c.764.41,2.584.546,3.11,1.267a3.963,3.963,0,0,1,.741,2.411,3.672,3.672,0,0,1-.229,1.2,8.394,8.394,0,0,1-.666,1.163c-.552.97.39,1.736.646,2.559a5.215,5.215,0,0,1-.668,3.672,10.021,10.021,0,0,1-4.206,4.073Z" transform="translate(-404.584 -917.111)" fill="#1c0a08"/>
      <path id="Path_41497" data-name="Path 41497" d="M436.978,932.329a.419.419,0,0,1-.118-.128.357.357,0,0,1-.045-.16.408.408,0,0,1,.052-.207.538.538,0,0,1,.069-.1.3.3,0,0,1,.112-.078.4.4,0,0,1,.146-.029.631.631,0,0,1,.337.07.441.441,0,0,1,.2.277.343.343,0,0,1-.1.334.528.528,0,0,1-.095.073.284.284,0,0,1-.057.028.473.473,0,0,1-.243.04.566.566,0,0,1-.1-.022.448.448,0,0,1-.089-.043.257.257,0,0,1-.043-.03.7.7,0,0,1-.081-.073Z" transform="translate(-404.147 -914.849)" fill="#1c0a08"/>
      <path id="Path_41498" data-name="Path 41498" d="M439.444,931.215c.045-.04.035-.1,0-.161a.782.782,0,0,0-.214-.24,1.7,1.7,0,0,0-.43-.253,5.836,5.836,0,0,0-1.2-.326c-.15-.022-.3-.035-.439-.046s-.292-.01-.437-.011a.225.225,0,0,0-.146.013q-.069.017-.069.066c-.016.069.054.179.138.26a1.627,1.627,0,0,0,.415.3,1.365,1.365,0,0,0,.432.151c.12.015.244.031.362.043s.217.014.328.024c.192.017.392.044.593.082.122.028.244.059.365.1A.4.4,0,0,0,439.444,931.215Z" transform="translate(-404.194 -915.075)" fill="#1c0a08"/>
      <path id="Path_41499" data-name="Path 41499" d="M438.517,937.2a3.46,3.46,0,0,1-2.722.628" transform="translate(-404.305 -913.98)" fill="none" stroke="#1c0a08" stroke-miterlimit="10" stroke-width="0.519"/>
      <g id="Group_26851" data-name="Group 26851" transform="translate(33.282 183.766)">
        <path id="Path_41500" data-name="Path 41500" d="M448.892,1081.764a16,16,0,0,0,2.694,2.386,2.1,2.1,0,0,0,1.367.533,5.912,5.912,0,0,0,1.661-.481,11.805,11.805,0,0,0,5.456-4.307.289.289,0,0,0,.043-.26.386.386,0,0,0,0-.3.288.288,0,0,0-.11-.118l-.027-.067-.061-.171-.122-.341c-.086-.237-.541.142-.626-.095l-.49-2.439c-.051-.141-5.182,1.8-10.618,2.753A21.491,21.491,0,0,0,448.892,1081.764Z" transform="translate(-435.676 -1076.099)" fill="#e7d9b4"/>
        <path id="Path_41501" data-name="Path 41501" d="M437.64,1094.823a.327.327,0,0,1,.483-.267.344.344,0,0,1,.307-.209c3.513-.176,6.776-1.639,9.966-2.96l10.573-4.378,5.942-2.461.017,0a.342.342,0,0,1,.559-.3,9.5,9.5,0,0,0,.453,1.23c.138.312.288.618.439.924a.305.305,0,0,1-.142.154c-3.931,1.921-7.829,3.94-11.844,5.692-2.007.875-4.063,1.605-6.143,2.294-2.016.668-4.028,1.438-6.087,1.968a5.916,5.916,0,0,1-2.966.2A1.99,1.99,0,0,1,437.64,1094.823Z" transform="translate(-437.3 -1074.843)" fill="#fc4504"/>
        <path id="Path_41502" data-name="Path 41502" d="M437.355,1094.922a3.53,3.53,0,0,1,1.571-2.89,24.207,24.207,0,0,1,3.585-2.136,8.982,8.982,0,0,0,3.05-2.642,11.355,11.355,0,0,0,1.59-3.5,5.539,5.539,0,0,1,1.587-3.056,2.259,2.259,0,0,1,2.622-.02c.788.506,1.338,1.286,2.1,1.821,2.767,1.936,6.15-2.931,7.262-4.935a.276.276,0,0,1,.225-.135c2.163,2.18,3.062,5.049,4.515,7.636,0,.017.007.036.012.053a7.37,7.37,0,0,0,.327.963c-.561.344-2.357,1.218-3.516,1.749l-5.656,2.557c-2.841,1.284-5.663,2.629-8.549,3.818a25.37,25.37,0,0,1-8.225,2.127,3.208,3.208,0,0,1-1.774-.213A1.492,1.492,0,0,1,437.355,1094.922Z" transform="translate(-437.346 -1075.892)" fill="#fea22d"/>
        <path id="Path_41503" data-name="Path 41503" d="M446.537,1081.225a9.718,9.718,0,0,1,3.755,2.047" transform="translate(-435.913 -1075.3)" fill="none" stroke="#fc4504" stroke-miterlimit="10" stroke-width="0.573"/>
        <path id="Path_41504" data-name="Path 41504" d="M446.054,1082.595a7.088,7.088,0,0,1,2.883,1.754" transform="translate(-435.989 -1075.086)" fill="none" stroke="#fc4504" stroke-miterlimit="10" stroke-width="0.573"/>
        <path id="Path_41505" data-name="Path 41505" d="M445.474,1084.087a4.369,4.369,0,0,1,2.207,1.349" transform="translate(-436.079 -1074.854)" fill="none" stroke="#fc4504" stroke-miterlimit="10" stroke-width="0.573"/>
        <path id="Path_41506" data-name="Path 41506" d="M444.789,1085.319a3.036,3.036,0,0,1,1.249.926" transform="translate(-436.186 -1074.662)" fill="none" stroke="#fc4504" stroke-miterlimit="10" stroke-width="0.573"/>
      </g>
      <g id="Group_26852" data-name="Group 26852" transform="translate(131.545 152.598)">
        <path id="Path_41507" data-name="Path 41507" d="M525.3,1060.594a16.005,16.005,0,0,0,3.4-1.167,2.111,2.111,0,0,0,1.137-.927,5.9,5.9,0,0,0,.4-1.682,11.8,11.8,0,0,0-1.056-6.869.287.287,0,0,0-.206-.166.38.38,0,0,0-.259-.146.287.287,0,0,0-.157.036l-.07-.009-.179-.031-.357-.061c-.249-.043-.143.541-.392.5l-2.364-.776c-.147-.026-.988,5.4-2.84,10.594A21.258,21.258,0,0,0,525.3,1060.594Z" transform="translate(-522.359 -1049.108)" fill="#e7d9b4"/>
        <path id="Path_41508" data-name="Path 41508" d="M530.2,1078.838a.326.326,0,0,1,0-.551.345.345,0,0,1-.03-.371c1.579-3.143,1.914-6.7,2.338-10.13q.7-5.678,1.4-11.356.4-3.192.789-6.384l.006-.016a.342.342,0,0,1,.011-.636,9.624,9.624,0,0,0,1.293.211c.34.035.68.055,1.021.073a.3.3,0,0,1,.062.2c-.266,4.367-.431,8.754-.888,13.111-.229,2.176-.607,4.326-1.032,6.476-.413,2.083-.735,4.212-1.29,6.266a5.892,5.892,0,0,1-1.284,2.68A1.985,1.985,0,0,1,530.2,1078.838Z" transform="translate(-521.16 -1049.093)" fill="#fc4504"/>
        <path id="Path_41509" data-name="Path 41509" d="M530.242,1078.7a3.533,3.533,0,0,1-1.74-2.793,24.031,24.031,0,0,1-.09-4.171,8.992,8.992,0,0,0-.8-3.957,11.376,11.376,0,0,0-2.266-3.112,5.533,5.533,0,0,1-1.876-2.888,2.258,2.258,0,0,1,1.275-2.29c.83-.436,1.779-.529,2.621-.932,3.049-1.453.482-6.8-.714-8.752a.275.275,0,0,1-.006-.261c2.964-.808,5.9-.175,8.869-.164l.052.016a7.28,7.28,0,0,0,1,.191c.022.658-.1,2.65-.213,3.921l-.564,6.18c-.284,3.106-.505,6.224-.893,9.321a25.373,25.373,0,0,1-2.205,8.2,3.207,3.207,0,0,1-1.06,1.439A1.492,1.492,0,0,1,530.242,1078.7Z" transform="translate(-522.188 -1049.133)" fill="#fea22d"/>
        <path id="Path_41510" data-name="Path 41510" d="M523.991,1061.438a9.715,9.715,0,0,1,3.633-2.257" transform="translate(-522.105 -1047.568)" fill="none" stroke="#fc4504" stroke-miterlimit="10" stroke-width="0.573"/>
        <path id="Path_41511" data-name="Path 41511" d="M524.945,1062.451a7.085,7.085,0,0,1,2.947-1.644" transform="translate(-521.956 -1047.314)" fill="none" stroke="#fc4504" stroke-miterlimit="10" stroke-width="0.573"/>
        <path id="Path_41512" data-name="Path 41512" d="M525.957,1063.638a4.357,4.357,0,0,1,2.262-1.254" transform="translate(-521.798 -1047.068)" fill="none" stroke="#fc4504" stroke-miterlimit="10" stroke-width="0.573"/>
        <path id="Path_41513" data-name="Path 41513" d="M526.691,1064.757a3.025,3.025,0,0,1,1.422-.63" transform="translate(-521.684 -1046.797)" fill="none" stroke="#fc4504" stroke-miterlimit="10" stroke-width="0.573"/>
      </g>
    </g>
    <g id="Group_26857" data-name="Group 26857" transform="translate(489.917 945.816)">
      <path id="Path_41514" data-name="Path 41514" d="M552.878,951.35c-.244-.144-.755-.348-1.129-.571a1.2,1.2,0,0,1-.4-.334c-.381-.608.083-.547.488-1.125a1.335,1.335,0,0,0,.185-1.308,1.733,1.733,0,0,0-.55-.594,35.769,35.769,0,0,0-5.149-2.232c.133-.462.55-.869.714-1.364a1.644,1.644,0,0,0-.182-1.528,1.969,1.969,0,0,0-1.073-.6c-2.318-.608-5.362.573-7.535,1.347-2.239.8-4.113,2.982-6.059,4.493.051.134.091.245.118.309l.076.187c.023.058.046.113,0,.016a5.354,5.354,0,0,1,.283.96,6.4,6.4,0,0,1,.131,1c.786.037,1.572.076,2.359.1a10.127,10.127,0,0,1,2.673.357,7.32,7.32,0,0,0,4.041,2.309,5.724,5.724,0,0,0,2.49-.009,10.712,10.712,0,0,0,2.07,1.4,10.908,10.908,0,0,0,5.16,1.237,4.1,4.1,0,0,0,1.993-.437,1.855,1.855,0,0,0,.991-1.683C554.494,952.388,553.643,951.8,552.878,951.35Z" transform="translate(-470.648 -939.551)" fill="#7c0f18"/>
      <path id="Path_41515" data-name="Path 41515" d="M568.164,1012.911a2.126,2.126,0,0,0,1.474.765,1.982,1.982,0,0,0,.439-.016c.041.1.084.2.119.311.161.5.272,1.009.41,1.512a5.19,5.19,0,0,0,1.528,2.667,4.467,4.467,0,0,0,5.6-.188c1.714-1.466,2.076-3.485,2.068-5.549a12.6,12.6,0,0,0-1.246-6.19,5.342,5.342,0,0,0-.9-1.156,6.116,6.116,0,0,0-1.51-1.443,5,5,0,0,0-2.983-.93,5.583,5.583,0,0,0-3.205,1.43,12.758,12.758,0,0,0-2.3,2.285,3.98,3.98,0,0,0-.357,3.3C567.485,1010.708,567.489,1012.088,568.164,1012.911Z" transform="translate(-465.204 -930.018)" fill="#ea734c"/>
      <path id="Path_41516" data-name="Path 41516" d="M557.826,981.8c4.189,8.64,8.024,19.391,13.15,29.2.7,1.335.183.072,1.936.209a3.994,3.994,0,0,0,3.365-1.312,1.924,1.924,0,0,0,1.086-.143,1.24,1.24,0,0,0,.562-1.8c-3.709-6.876-5.794-14.535-7.348-21.863-.609-2.872-1.128-5.918-3.464-8.214a8.151,8.151,0,0,0-8.352-1.669C555.635,977.527,556.629,979.335,557.826,981.8Z" transform="translate(-466.832 -934.226)" fill="#ea734c"/>
      <path id="Path_41517" data-name="Path 41517" d="M489.45,980.9a2.092,2.092,0,0,0-1.6.368,1.921,1.921,0,0,0-.317.294c-.1-.051-.2-.1-.292-.158-.444-.274-.859-.59-1.289-.882a5.216,5.216,0,0,0-2.877-1.039,4.361,4.361,0,0,0-4.067,3.739c-.331,2.211.712,3.973,2.06,5.532a12.715,12.715,0,0,0,4.956,3.888,5.358,5.358,0,0,0,1.422.3,6.085,6.085,0,0,0,2.067.123,4.892,4.892,0,0,0,2.838-1.211,5.479,5.479,0,0,0,1.469-3.142,12.6,12.6,0,0,0,.236-3.209,4.008,4.008,0,0,0-1.875-2.725C491.39,982.134,490.491,981.091,489.45,980.9Z" transform="translate(-478.946 -933.635)" fill="#ea734c"/>
      <path id="Path_41518" data-name="Path 41518" d="M485.979,990.522a1.664,1.664,0,0,1,.609-.732c.025-.035.051-.068.079-.1a3.636,3.636,0,0,1,1.538-3.084,4.916,4.916,0,0,1,4.512-.541,25.613,25.613,0,0,1,4.307,2.227c1.434.831,2.848,1.7,4.265,2.552a70.832,70.832,0,0,0,8.515,4.622,32.928,32.928,0,0,0,4.547,1.6,26.816,26.816,0,0,1,4.737,1.451c2.545,1.217,4.548,4.114,3.188,7.1a7.25,7.25,0,0,1-7.173,3.856c-4.41-.506-8.219-3.857-11.979-5.967q-4.187-2.347-8.144-5.079c-1.4-.967-2.857-1.93-4.16-3.027-1.083-.912-1.995-2.177-3.316-2.773-.236-.105-.467-.222-.7-.324A1.358,1.358,0,0,1,485.979,990.522Z" transform="translate(-477.865 -932.657)" fill="#ea734c"/>
      <path id="Path_41519" data-name="Path 41519" d="M527.676,969.131c-3.52.3-6.655,2.623-6.141,6.149.124.843-.411,2.3-.41,3.164a5.492,5.492,0,0,1-.657,2.338c-.8,1.695-1.95,3.264-2.884,4.9a71.252,71.252,0,0,0-4.411,9.735c-1.223,3.056-3.685,7.533-2.552,10.849a5.84,5.84,0,0,0,.866,1.641,1.6,1.6,0,0,0-.151,1.585c1.854,4.509,7.371-.667,8.574-2.621a104.589,104.589,0,0,0,6.217-11.777c1.587-3.52,3.213-7.015,5.007-10.449.929-1.776,1.888-3.542,2.861-5.3.883-1.594,1.688-3.188,1.4-5.036C534.879,970.974,531.156,968.834,527.676,969.131Z" transform="translate(-474.054 -935.252)" fill="#ea734c"/>
      <path id="Path_41520" data-name="Path 41520" d="M515.361,1063.308a3.522,3.522,0,0,0,3.944-.765,8.53,8.53,0,0,1,4.184-2.852c6.844-2.576,10.91-8.223,15.617-13.451,3.732-4.147,10.094-11.385,13.032-14.025a12.093,12.093,0,0,0,7.651-4.148,21.591,21.591,0,0,0,4.472-9.782c.691-3.247.826-6.688-.747-9.709a16.148,16.148,0,0,0-6.18-5.924c-.654-.4-1.32-.778-1.99-1.149a2.03,2.03,0,0,0-2.324-.1,37.4,37.4,0,0,1-4.646,2.32c-3.226,1.274-6.694,1.722-9.916,2.982a3.816,3.816,0,0,0-2,1.278,2.8,2.8,0,0,0-.212,2.292c.351,1.456.76,2.9,1.2,4.337.023.076.05.151.073.228q-3.249,3.776-6.271,7.738a159.069,159.069,0,0,0-15.157,24.127c-1.131,2.219-2.88,4.556-3.9,7.585C510.952,1057.968,511.02,1061.539,515.361,1063.308Z" transform="translate(-473.873 -930.268)" fill="#ea734c"/>
      <path id="Path_41521" data-name="Path 41521" d="M511.768,1094.422c.118,2.173.261,3.967,2.284,5.211a5.289,5.289,0,0,0,6.024-.473c1.73-1.33,2.027-2.5,2.193-4.523.185-2.262.2-5.362.443-7.629a26.866,26.866,0,0,1,1.479-5.978c1.4-3.988,2.827-12.691,2.39-17.117-.445-4.517-1.266-9.967.487-14.348.4-.989-.41-1.651-1.3-1.712a5.813,5.813,0,0,0-4.1-1.985,14.836,14.836,0,0,0-7.35,1.838,6.028,6.028,0,0,0-2.464,2.3,9.354,9.354,0,0,0-.806,3.838c-.232,2.834-.621,6.43-.852,9.264-.839,10.272,1.686,13.023,1.378,23.325C511.483,1089.779,511.632,1091.917,511.768,1094.422Z" transform="translate(-474.101 -923.291)" fill="#ea734c"/>
      <path id="Path_41522" data-name="Path 41522" d="M541.981,1007.179a11.766,11.766,0,0,1,4.509-2.993l.008-.021a11.015,11.015,0,0,1,5.471.8,16.364,16.364,0,0,1,5.523,5.513,13.766,13.766,0,0,1,1.752,10.256,70.056,70.056,0,0,1,20.519,28.881,1.235,1.235,0,0,1,0,.836,8.5,8.5,0,0,1-.527,7.61c-1.355,2.509-3.962,4.762-6.991,3.859a9.755,9.755,0,0,1-3.7-2.4c-1.216-1.129-2.406-2.29-3.588-3.456q-3.5-3.457-6.831-7.081a200.247,200.247,0,0,1-12.813-15.391c-3.789-5.056-7.267-10.912-6.944-17.466A13.9,13.9,0,0,1,541.981,1007.179Z" transform="translate(-469.688 -929.796)" fill="#ea734c"/>
      <path id="Path_41523" data-name="Path 41523" d="M542.231,1030.769c.027-.024.059-.038.086-.06l0,0a41.429,41.429,0,0,0,4.319-3.948,47.063,47.063,0,0,1,4.037-3.355c2.864-2.174,5.843-4.252,8.158-7.04a.35.35,0,0,1,.563.012.416.416,0,0,1,.432.171q2.951,4.154,5.994,8.24a41.081,41.081,0,0,0-4.3,2.613c-2.828,1.942-5.49,4.146-8.42,5.937-1.793,1.095-3.673,2.061-5.451,3.182a50.143,50.143,0,0,1-4.6-5.322,1.779,1.779,0,0,0-.23.158h0c-.029.02-.054.044-.083.065C542.35,1031.688,541.882,1031.079,542.231,1030.769Z" transform="translate(-469.102 -927.908)" fill="#050810"/>
      <path id="Path_41524" data-name="Path 41524" d="M612.845,1066.842a6.5,6.5,0,0,0,6.03-1.394,5.1,5.1,0,0,0,.892-5.818,7.457,7.457,0,0,0-4.553-3.835c-2.122-.747-4.374-.925-6.488-1.727-1.9-.72-11.348-2.809-14.849-5.144a29.636,29.636,0,0,0-11.945-4.689c-4.421-.72-9.125-.978-12.927-3.743-.859-.625-1.671-.028-1.928.794a5.451,5.451,0,0,0-2.812,3.374,14.479,14.479,0,0,0,.118,7.417,6.151,6.151,0,0,0,1.654,2.914,9.571,9.571,0,0,0,3.494,1.73l7.98,2.8c9.643,3.388,18.542,1.54,28.185,4.927A57.567,57.567,0,0,0,612.845,1066.842Z" transform="translate(-465.715 -924.167)" fill="#ea734c"/>
      <path id="Path_41525" data-name="Path 41525" d="M531.688,1016.184l.014-.02-2.6-6.5a1.626,1.626,0,0,1,.722-1.835,1.651,1.651,0,0,1,.544-.458,40.222,40.222,0,0,1,10.449-3.658,29.588,29.588,0,0,0,9.409-3.728c.3-.245.811-.593,1.212-.5a1.2,1.2,0,0,1,.356.168c2.574,1.585,5.14,2.931,7.07,5.312a18.088,18.088,0,0,1,3.592,7.418c1.473,6.583-1.062,15.232-6.583,19.428-1.128.858-2.462,1.378-3.639,2.156-1.234.816-2.42,1.737-3.568,2.67-.384.282-3.764,2.844-3.856,2.76-6.126-5.512-10.736-11.524-16.828-17.529-.118-.117-.249-.213-.353-.334C528.322,1020.6,531.092,1016.951,531.688,1016.184Z" transform="translate(-471.359 -930.52)" fill="#101724"/>
      <path id="Path_41526" data-name="Path 41526" d="M521.086,972.091c1.892-4.623,8.192-6.182,13.23-6.755a12.421,12.421,0,0,1,7.341,1.206,9.723,9.723,0,0,1,4.144,5.014,22.359,22.359,0,0,1,1.323,6.292c.267,2.755.424,5.525.63,8.286.239,3.226.459,6.453.721,9.678a19.821,19.821,0,0,0,.783,4.634,40.359,40.359,0,0,0,5.332,5.168c-.83.328-2.039.749-2.821,1.132-1.438.705-2.865,1.433-4.3,2.153-2.995,1.506-15.569,8.46-15.636,8.326-2.775-5.555-3.239-11.834-6.105-17.411-.223-.433-1.3-2.766-1.526-3.2a9.6,9.6,0,0,1-4.411-2.268c-1.815-1.583-3.069-3.072-3.437-5.524C515.583,983.688,517.694,980.378,521.086,972.091Z" transform="translate(-473.14 -935.855)" fill="#23489e"/>
      <path id="Path_41527" data-name="Path 41527" d="M530.146,973.725c.681,3.466,4.116,7.248,7.565,6.354a17.877,17.877,0,0,1,2.4-.852,5.485,5.485,0,0,1,2.395.4c1.773.616,3.457,1.583,5.185,2.335a84.6,84.6,0,0,0,10.966,3.92c3.17.885,7.078,2.255,10.252.769a5.824,5.824,0,0,0,1.537-1.038,1.6,1.6,0,0,0,1.592-.022c4.281-2.333-1.463-7.255-3.537-8.239a104.672,104.672,0,0,0-12.382-4.9c-3.671-1.2-7.322-2.432-10.93-3.844-1.868-.73-3.727-1.491-5.578-2.268-1.681-.705-3.352-1.332-5.159-.847C531.2,966.363,529.474,970.3,530.146,973.725Z" transform="translate(-470.988 -935.843)" fill="#ea734c"/>
      <g id="Group_26854" data-name="Group 26854" transform="translate(35.31)">
        <path id="Path_41528" data-name="Path 41528" d="M532.289,969.336l-.051-.061-.18-.224-.2-.26q-.194-.262-.38-.528c-.265-.378-.51-.771-.764-1.192q-.406-.669-.763-1.364-.159-.309-.309-.623l-.132-.282a2.772,2.772,0,0,1-.429-1.094.368.368,0,0,1,.247-.435,8.219,8.219,0,0,0,2.358-1.513,7.386,7.386,0,0,0,1.8-2,.306.306,0,0,1,.384-.154,12.24,12.24,0,0,0,1.386-6.24,13.194,13.194,0,0,0-6.186-10.723,11.95,11.95,0,0,0-10.856-.6,9.608,9.608,0,0,0-4.163,2.93,10.322,10.322,0,0,0-2.315,6.067,33.13,33.13,0,0,0,.762,3.746c.1.284.2.566.283.855.037.126.072.257.1.39l0,.014a3.15,3.15,0,0,1,.068.579,5.97,5.97,0,0,1-.118,1.931,8.538,8.538,0,0,1-.555,1.738,1.883,1.883,0,0,0-.25.5c-.016.029-.029.06-.045.089l.008.008a.917.917,0,0,0-.1.724,1.156,1.156,0,0,0,.85.726,3.746,3.746,0,0,0,.429.074,7.871,7.871,0,0,1,1.271,3.464A2.913,2.913,0,0,0,516.4,968.5a5.068,5.068,0,0,0,2.934-.2.314.314,0,0,0,.1-.017c.077-.029.151-.065.228-.095.166-.059.328-.121.488-.184.594-.328,1.172-.688,1.74-1.063l.025.043a2.666,2.666,0,0,1,.229.584c.083.218.16.439.238.659a17.191,17.191,0,0,1,.518,3.39,19.028,19.028,0,0,1-.81,3.845,9.557,9.557,0,0,0,3.8-.186,10.542,10.542,0,0,0,4.222-2.224,14.367,14.367,0,0,0,2.6-3.238c-.07-.08-.142-.156-.211-.236Z" transform="translate(-509.145 -939.631)" fill="#ea734c"/>
        <path id="Path_41529" data-name="Path 41529" d="M535.846,946.187a12.663,12.663,0,0,0-2.8-3.508,23.319,23.319,0,0,0-6.019-2.58,17.111,17.111,0,0,0-4.939-.206,13.5,13.5,0,0,0-5.368,1.13c-2.729,1.312-5.839,3.983-6.825,6.917a6.735,6.735,0,0,0-.191,3.952,5.183,5.183,0,0,0,1.7,2.546,4.345,4.345,0,0,0,1.477.5h.024a25.042,25.042,0,0,1-.631-3.54,14.1,14.1,0,0,0,7.357,2.753c1.4.12,2.855.586,4.248.2,1.1-.3,2.391-1.35,3.125-1.35a2.255,2.255,0,0,1,1.585.549,2.14,2.14,0,0,1,.89,1.817,4.422,4.422,0,0,1-1.809,3.291c0,.015,0,.03,0,.044a6.533,6.533,0,0,0,3.194,4.63c.525-.363,1.424-.535,1.9-.978a13.657,13.657,0,0,0,1.867-1.567c1.245-1.943,2.767-4.2,2.862-6.506A13.988,13.988,0,0,0,535.846,946.187Z" transform="translate(-509.495 -939.817)" fill="#7c0f18"/>
        <path id="Path_41530" data-name="Path 41530" d="M532.548,944.691a.45.45,0,0,1,.541.307,44.219,44.219,0,0,1,1.721,5.6c.131.551-.718.786-.848.235a44.218,44.218,0,0,0-1.721-5.6A.443.443,0,0,1,532.548,944.691Z" transform="translate(-505.953 -939.06)" fill="#23489e"/>
        <path id="Path_41531" data-name="Path 41531" d="M514.608,944.6a7.4,7.4,0,0,0,3.361,2.1,48.726,48.726,0,0,0,6.633,1.986" transform="translate(-508.698 -939.072)" fill="none" stroke="#b84931" stroke-miterlimit="10" stroke-width="0.535"/>
        <path id="Path_41532" data-name="Path 41532" d="M524.27,952.42a1.3,1.3,0,0,1,1.634.542,1.6,1.6,0,0,1-.206,1.772" transform="translate(-507.192 -937.87)" fill="none" stroke="#b84931" stroke-miterlimit="10" stroke-width="0.535"/>
        <path id="Path_41533" data-name="Path 41533" d="M518.091,954.724a4.331,4.331,0,0,0-3.95-.741" transform="translate(-508.77 -937.639)" fill="none" stroke="#b84931" stroke-miterlimit="10" stroke-width="0.535"/>
        <path id="Path_41534" data-name="Path 41534" d="M514.623,955.747a.456.456,0,0,1,.045-.227l.068-.1a.488.488,0,0,1,.211-.136.4.4,0,0,1,.184-.02.381.381,0,0,1,.178.039.361.361,0,0,1,.148.109.338.338,0,0,1,.1.155l.024.114a.429.429,0,0,1-.045.227l-.068.1a.479.479,0,0,1-.21.136.573.573,0,0,1-.363-.02.351.351,0,0,1-.148-.109.34.34,0,0,1-.1-.154Z" transform="translate(-508.695 -937.409)" fill="#7c0f18"/>
      </g>
      <path id="Path_41535" data-name="Path 41535" d="M513.3,960.144a.8.8,0,0,1,.506-.01,2.4,2.4,0,0,1,.312.093.248.248,0,0,0,.047.029c.232.1.467.175.7.268.066.028.089.037.151.066.045.021.09.044.135.067.006.015.01.03.016.045.023.063-.131.332-.162.4a2.84,2.84,0,0,1-.231.435c-.148.222-.377.573-.689.418a.522.522,0,0,1-.273-.5.581.581,0,0,1,.223-.378c-.088-.019-.176-.038-.264-.065a.845.845,0,0,1-.513-.294C513.124,960.517,513.127,960.239,513.3,960.144Z" transform="translate(-473.613 -936.656)" fill="#b84931"/>
      <path id="Path_41536" data-name="Path 41536" d="M535.326,945.722c4.8-2.744,6.024,3.073,9.167-1.051" transform="translate(-470.159 -939.06)" fill="none" stroke="#b84931" stroke-miterlimit="10" stroke-width="0.535"/>
      <path id="Path_41537" data-name="Path 41537" d="M534.651,947.013c3.243-2.12,5.026,5.592,11.163,1.559,2.009-1.32,1.125,1.72,1.823,2.125a1.7,1.7,0,0,0,1.98.13" transform="translate(-470.264 -938.754)" fill="none" stroke="#b84931" stroke-miterlimit="10" stroke-width="0.535"/>
      <g id="Group_26855" data-name="Group 26855" transform="translate(22.039 170.285)">
        <path id="Path_41538" data-name="Path 41538" d="M511.561,1090.782a16.085,16.085,0,0,0,2.175,2.876,2.108,2.108,0,0,0,1.238.793,5.9,5.9,0,0,0,1.726-.145,11.831,11.831,0,0,0,6.209-3.152.288.288,0,0,0,.094-.247.388.388,0,0,0,.059-.292.28.28,0,0,0-.084-.138l-.013-.072-.027-.179-.053-.359c-.037-.25-.561.032-.6-.216v-2.493c-.022-.148-5.445.744-10.973.607A21.383,21.383,0,0,0,511.561,1090.782Z" transform="translate(-495.94 -1087.141)" fill="#e0e7eb"/>
        <path id="Path_41539" data-name="Path 41539" d="M498.147,1100.933a.328.328,0,0,1,.527-.168.346.346,0,0,1,.343-.145c3.485.521,6.979-.271,10.373-.94l11.249-2.212,6.323-1.243h.019a.342.342,0,0,1,.608-.187,9.636,9.636,0,0,0,.2,1.3c.073.334.16.665.248.994a.3.3,0,0,1-.171.123c-4.24,1.111-8.467,2.324-12.756,3.251-2.144.462-4.308.775-6.488,1.04-2.112.259-4.24.616-6.366.73a5.9,5.9,0,0,1-2.953-.385A1.989,1.989,0,0,1,498.147,1100.933Z" transform="translate(-497.999 -1085.775)" fill="#101724"/>
        <path id="Path_41540" data-name="Path 41540" d="M498.023,1101.08a3.541,3.541,0,0,1,2.114-2.529,24.3,24.3,0,0,1,3.944-1.389,9.009,9.009,0,0,0,3.517-1.993,11.36,11.36,0,0,0,2.254-3.128,5.545,5.545,0,0,1,2.163-2.689,2.264,2.264,0,0,1,2.579.5c.674.654,1.06,1.528,1.7,2.2,2.336,2.448,6.621-1.665,8.108-3.414a.278.278,0,0,1,.247-.088c1.694,2.568,2.01,5.563,2.927,8.391,0,.017,0,.036,0,.054a7.293,7.293,0,0,0,.131,1.01c-.618.228-2.554.73-3.8,1.023l-6.06,1.394c-3.043.7-6.081,1.465-9.15,2.062a25.4,25.4,0,0,1-8.5.465,3.225,3.225,0,0,1-1.7-.559A1.5,1.5,0,0,1,498.023,1101.08Z" transform="translate(-498.013 -1086.921)" fill="#23489e"/>
        <path id="Path_41541" data-name="Path 41541" d="M509.28,1090.07a9.729,9.729,0,0,1,3.285,2.751" transform="translate(-496.257 -1086.684)" fill="none" stroke="#aededa" stroke-miterlimit="10" stroke-width="0.574"/>
        <path id="Path_41542" data-name="Path 41542" d="M508.536,1091.319a7.087,7.087,0,0,1,2.484,2.292" transform="translate(-496.373 -1086.49)" fill="none" stroke="#aededa" stroke-miterlimit="10" stroke-width="0.574"/>
        <path id="Path_41543" data-name="Path 41543" d="M507.671,1092.67a4.367,4.367,0,0,1,1.9,1.761" transform="translate(-496.508 -1086.279)" fill="none" stroke="#aededa" stroke-miterlimit="10" stroke-width="0.574"/>
        <path id="Path_41544" data-name="Path 41544" d="M506.755,1093.745a3.039,3.039,0,0,1,1.044,1.156" transform="translate(-496.651 -1086.111)" fill="none" stroke="#aededa" stroke-miterlimit="10" stroke-width="0.574"/>
      </g>
      <g id="Group_26856" data-name="Group 26856" transform="translate(141.925 130.525)">
        <path id="Path_41545" data-name="Path 41545" d="M604.639,1064.055a16.014,16.014,0,0,0,3.465-.994,2.11,2.11,0,0,0,1.185-.869,5.838,5.838,0,0,0,.487-1.662,11.829,11.829,0,0,0-.705-6.927.287.287,0,0,0-.2-.177.385.385,0,0,0-.252-.16.275.275,0,0,0-.158.029l-.072-.014-.177-.039-.354-.08c-.246-.055-.171.533-.417.479l-2.326-.9c-.146-.032-1.265,5.348-3.383,10.456A21.262,21.262,0,0,0,604.639,1064.055Z" transform="translate(-601.734 -1052.742)" fill="#e0e7eb"/>
        <path id="Path_41546" data-name="Path 41546" d="M608.744,1082.547a.328.328,0,0,1,.034-.552.344.344,0,0,1-.012-.372c1.741-3.064,2.257-6.609,2.857-10.017q.992-5.645,1.985-11.29.557-3.173,1.114-6.347l.007-.016a.343.343,0,0,1,.045-.636,9.332,9.332,0,0,0,1.283.279c.338.052.677.089,1.017.125a.3.3,0,0,1,.052.2c-.489,4.355-.878,8.736-1.558,13.071-.34,2.167-.828,4.3-1.363,6.428-.52,2.063-.951,4.177-1.61,6.2a5.934,5.934,0,0,1-1.422,2.617A1.992,1.992,0,0,1,608.744,1082.547Z" transform="translate(-600.663 -1052.652)" fill="#101724"/>
        <path id="Path_41547" data-name="Path 41547" d="M608.673,1082.4a3.537,3.537,0,0,1-1.6-2.883,24.19,24.19,0,0,1,.123-4.18,8.987,8.987,0,0,0-.593-4,11.4,11.4,0,0,0-2.107-3.229,5.539,5.539,0,0,1-1.73-2.984,2.264,2.264,0,0,1,1.393-2.226c.853-.394,1.808-.439,2.671-.8,3.124-1.3.829-6.776-.268-8.794a.278.278,0,0,1,.007-.262c3.006-.656,5.914.127,8.883.289l.051.02a7.355,7.355,0,0,0,.991.242c-.012.659-.238,2.647-.413,3.911l-.881,6.156c-.443,3.092-.823,6.2-1.37,9.279a25.416,25.416,0,0,1-2.626,8.1,3.215,3.215,0,0,1-1.133,1.385A1.494,1.494,0,0,1,608.673,1082.4Z" transform="translate(-601.574 -1052.735)" fill="#23489e"/>
        <path id="Path_41548" data-name="Path 41548" d="M603.231,1064.827a9.718,9.718,0,0,1,3.75-2.073" transform="translate(-601.501 -1051.182)" fill="none" stroke="#aededa" stroke-miterlimit="10" stroke-width="0.574"/>
        <path id="Path_41549" data-name="Path 41549" d="M604.129,1065.893a7.07,7.07,0,0,1,3.033-1.493" transform="translate(-601.361 -1050.925)" fill="none" stroke="#aededa" stroke-miterlimit="10" stroke-width="0.574"/>
        <path id="Path_41550" data-name="Path 41550" d="M605.078,1067.138a4.371,4.371,0,0,1,2.328-1.14" transform="translate(-601.213 -1050.676)" fill="none" stroke="#aededa" stroke-miterlimit="10" stroke-width="0.574"/>
        <path id="Path_41551" data-name="Path 41551" d="M605.751,1068.3a3.042,3.042,0,0,1,1.455-.558" transform="translate(-601.108 -1050.404)" fill="none" stroke="#aededa" stroke-miterlimit="10" stroke-width="0.574"/>
      </g>
      <path id="Path_41552" data-name="Path 41552" d="M520.835,963.815a6.138,6.138,0,0,0,2.959-2.126" transform="translate(-472.417 -936.408)" fill="none" stroke="#b84931" stroke-miterlimit="10" stroke-width="0.535"/>
    </g>
    <g id="Group_26858" data-name="Group 26858" transform="translate(592.628 901.323)">
      <path id="Path_41553" data-name="Path 41553" d="M622.654,927.9c-.039.029-.083.05-.123.082q-.7-1.55-1.5-3.043l.106-.116a.274.274,0,0,1,.018-.1c.423-1.063.917-2.1,1.3-3.179a20.554,20.554,0,0,0,.818-3.13,22.234,22.234,0,0,0,.258-6.343,11.877,11.877,0,0,0-9.061-7.861,9.357,9.357,0,0,0-9.765,3.74c-1.644,2.329-3.151,4.168-3.8,7.058a13.594,13.594,0,0,0,.214,7.14c.272.84.7,1.612.97,2.454.625,1.982,1.3,3.765,3.335,4.648a8.259,8.259,0,0,0,5.118.356.205.205,0,0,1,.108-.052,3.208,3.208,0,0,0,.459-.106c.052-.016.1-.03.155-.047a7.216,7.216,0,0,0,1.426-.721.291.291,0,0,1,.295.5,8.529,8.529,0,0,1-1.354.7,34.938,34.938,0,0,1,1.766,5.6c-1.279,1.773-2.969,1.928-1.741,3.678.437.376,2.854,3.1,3.324,3.429a15.471,15.471,0,0,0,1.808-.053,18.974,18.974,0,0,0,9.643-11.029c0-.05.006-.1.006-.151A39.443,39.443,0,0,1,622.654,927.9Z" transform="translate(-562.707 -900.904)" fill="#f5a76e"/>
      <path id="Path_41554" data-name="Path 41554" d="M661.46,982.265a6.536,6.536,0,0,1,2.256-1.986c.182-.11.365-.216.544-.329.089-.055.175-.114.264-.17a.384.384,0,0,1,.11-.052c.084-.082.158-.2.239-.262.056-.116.164-.385.031-.025h0a1.8,1.8,0,0,1,2.193-1.215l3.16,1.328a5.38,5.38,0,0,1,1.74.9,1.962,1.962,0,0,1,.265.317,1.7,1.7,0,0,1,.9,1.525q-.149,4.04-.3,8.079a1.859,1.859,0,0,1-1.8,1.8,20.212,20.212,0,0,1-8.341-.669,1.764,1.764,0,0,1-1.255-1.255c-.19-1.407-.386-2.813-.569-4.222A5.536,5.536,0,0,1,661.46,982.265Z" transform="translate(-553.312 -889.354)" fill="#f5a76e"/>
      <path id="Path_41555" data-name="Path 41555" d="M655.938,953.273c.112-2.636,1.051-5.368,3.5-6.695a4.993,4.993,0,0,1,6.737,1.585c1.375,2.088,1.433,4.991,1.781,7.384q.686,4.7,1.295,9.419,1.025,7.937,1.8,15.9c.41,1.422.831,2.842,1.279,4.254a1.812,1.812,0,0,1-1.255,2.21,1.943,1.943,0,0,1-.344.032,1.846,1.846,0,0,1-1.018.335,1.762,1.762,0,0,1-.61-.113c-.075.163-.158.324-.249.484a1.818,1.818,0,0,1-3.285-.43c-.818-2.956-1.6-5.925-2.479-8.863a70.283,70.283,0,0,0-3.144-8.187A47.714,47.714,0,0,1,656.959,962,33.577,33.577,0,0,1,655.938,953.273Z" transform="translate(-554.075 -894.376)" fill="#f5a76e"/>
      <path id="Path_41556" data-name="Path 41556" d="M628.184,931.4c1.233-3.245,4.292-4.477,7.589-3.985a22.936,22.936,0,0,1,8.7,3.728c2.879,1.853,5.594,3.973,8.352,6q4.827,3.547,9.651,7.094c2.87,2.115,5.741,4.333,7.506,7.507a1.839,1.839,0,0,1-1.829,2.682,2.5,2.5,0,0,1-1.011.781l-1.519.658a1.969,1.969,0,0,1-1.385.181,1.9,1.9,0,0,1-.934-.628,14.538,14.538,0,0,1-3.592-.761c-1.7-.55-3.388-1.167-5.059-1.815a108.411,108.411,0,0,1-11.953-4.024c-5.05-2.036-10.81-4.512-13.6-9.516A9.6,9.6,0,0,1,628.184,931.4Z" transform="translate(-558.474 -897.273)" fill="#f5a76e"/>
      <path id="Path_41557" data-name="Path 41557" d="M578.746,953a6.526,6.526,0,0,1,1.715,2.469c.088.193.173.387.265.579.045.095.095.186.14.281a.426.426,0,0,1,.039.114c.072.094.178.18.232.269.109.067.364.207.022.034v0a1.8,1.8,0,0,1,.956,2.316l-1.681,2.988a5.381,5.381,0,0,1-1.091,1.626,1.96,1.96,0,0,1-.344.227,1.7,1.7,0,0,1-1.618.717l-7.992-1.219a1.859,1.859,0,0,1-1.58-1.99,20.214,20.214,0,0,1,1.617-8.209,1.767,1.767,0,0,1,1.391-1.1c1.421-.028,2.84-.062,4.26-.083A5.541,5.541,0,0,1,578.746,953Z" transform="translate(-567.807 -893.423)" fill="#f5a76e"/>
      <path id="Path_41558" data-name="Path 41558" d="M617.874,935.6a5.825,5.825,0,0,0-5.739-2.9,7.174,7.174,0,0,0-5.2,3.969,10.774,10.774,0,0,0-2.207,4.2,40.014,40.014,0,0,0-1.181,7.478,75.746,75.746,0,0,0,.1,15.436c.25,2.294.564,4.733,2.208,6.5a4.317,4.317,0,0,0,4.87,1.18,1.657,1.657,0,0,0,2.19-1.193q.172-.692.346-1.382a19.281,19.281,0,0,0,1.226-3.62q.74-2.708,1.441-5.429a14.148,14.148,0,0,1,.027-1.8.34.34,0,0,1,.021-.083q-.629-1.7-1.293-3.4c-.127-.324.394-.464.52-.143q.647,1.647,1.262,3.309c.591-2.418,1.126-4.85,1.558-7.3a76.288,76.288,0,0,0,1.014-8.03C619.194,940.1,619.135,937.614,617.874,935.6Z" transform="translate(-562.291 -896.441)" fill="#f5a76e"/>
      <path id="Path_41559" data-name="Path 41559" d="M575.351,962.127a4.878,4.878,0,0,0,3.048,2.552c1.365.5,2.839.725,4.241,1.106,1.556.424,3.1.9,4.634,1.389,3.068.979,6.119,2.022,9.234,2.843a42.045,42.045,0,0,0,9.484,1.507c3.071.087,6.816-.05,9.238-2.194a5.421,5.421,0,0,0,1.863-4.138,5.286,5.286,0,0,0-2.2-3.906,13.231,13.231,0,0,0-3.762-1.989,1.709,1.709,0,0,0-1.4-.772l-2.2-.095c-.6-.086-1.2-.154-1.785-.191a1.773,1.773,0,0,0-.675.084l-7.453-.32c-3.864-.167-7.756-.215-11.606-.594-3.154-.31-7.025-2-9.684.519A3.8,3.8,0,0,0,575.351,962.127Z" transform="translate(-566.674 -892.713)" fill="#f5a76e"/>
      <path id="Path_41560" data-name="Path 41560" d="M625.16,973.522a156,156,0,0,0-14,9.089q-3.346,2.438-6.556,5.057c-1.93,1.577-4.657,3.243-5.118,5.886a6.044,6.044,0,0,0,3.177,6.144,11.6,11.6,0,0,0,7.845.919,42.919,42.919,0,0,0,6.993-2.2L628.8,995.1c6.3-1.852,12.646-3.585,18.873-5.667a82.414,82.414,0,0,0,7.967-3.078c2.464-1.12,4.791-2.365,5.078-5.349.445-4.626-2.32-8.919-6.02-11.46C645.235,963.047,633.9,968.488,625.16,973.522Z" transform="translate(-562.882 -891.154)" fill="#f5a76e"/>
      <path id="Path_41561" data-name="Path 41561" d="M603.757,988.952a4.245,4.245,0,0,1,5.436.324,34.7,34.7,0,0,1,17.7,11.7c4.734,5.984,7.247,13.21,10.715,19.92a35.8,35.8,0,0,0,7.06,9.894,1.844,1.844,0,0,1,.342.442,5.2,5.2,0,0,1,2.5,3.3,4.228,4.228,0,0,1,.84,1.742,4.36,4.36,0,0,1-1.314,4.3,5.387,5.387,0,0,1-4.969.952,5.692,5.692,0,0,1-3.7-3.3q-8.013-11.14-16.992-21.534-4.719-5.451-9.691-10.677-2.455-2.582-4.971-5.106c-1.638-1.644-3.488-3.234-4.383-5.431S601.711,990.434,603.757,988.952Z" transform="translate(-562.503 -887.795)" fill="#f5a76e"/>
      <path id="Path_41562" data-name="Path 41562" d="M638.531,998.07a156.1,156.1,0,0,0,6.747,15.264q1.876,3.693,3.951,7.277c1.248,2.157,2.462,5.113,5,5.99a6.049,6.049,0,0,0,6.573-2.16,11.6,11.6,0,0,0,2.153-7.6,42.916,42.916,0,0,0-1.059-7.255q-.742-5.838-1.483-11.675c-.826-6.512-1.529-13.057-2.594-19.535a82.354,82.354,0,0,0-1.772-8.355c-.714-2.611-1.573-5.105-4.474-5.864-4.5-1.175-9.174.873-12.271,4.122C631.382,976.585,634.95,988.644,638.531,998.07Z" transform="translate(-557.407 -891.582)" fill="#f5a76e"/>
      <path id="Path_41563" data-name="Path 41563" d="M649.621,1007.574a4.244,4.244,0,0,1,5.387.793,34.678,34.678,0,0,1,16.622,13.188c4.2,6.37,6.079,13.787,8.953,20.772a35.8,35.8,0,0,0,6.179,10.467,1.818,1.818,0,0,1,.3.469,5.2,5.2,0,0,1,2.2,3.507,4.219,4.219,0,0,1,.687,1.808,4.358,4.358,0,0,1-1.681,4.168,5.385,5.385,0,0,1-5.033.52,5.7,5.7,0,0,1-3.405-3.6q-7.02-11.792-15.067-22.922-4.23-5.839-8.731-11.474-2.224-2.784-4.512-5.518c-1.489-1.779-3.195-3.523-3.9-5.79C646.922,1011.679,647.455,1008.875,649.621,1007.574Z" transform="translate(-555.413 -884.861)" fill="#f5a76e"/>
      <path id="Path_41564" data-name="Path 41564" d="M652.7,944.986a79.4,79.4,0,0,0,4.925-6.617,1.474,1.474,0,0,0,.178-.42q-.789-1.006-1.669-1.95c-8.474-7.072-19.269-12.563-30.538-9.646a1.285,1.285,0,0,0-1.017,1.3c-.942,1.715-1.872,3.438-2.838,5.139a13.268,13.268,0,0,1-2.712,3.626,3.677,3.677,0,0,1-6.062-1.691,8.9,8.9,0,0,1-.079-2.551s-.905.5-1.267.766a23.612,23.612,0,0,0-3.992,3.333c-.541.808-1.439,2.215-1.93,3.054a14.118,14.118,0,0,0-1.758,5.417c-.5,3.893-1.476,14.471-1.179,14.553,4.207,1.161,7.515,2.127,13.063,3.376.055-.586.427-3.092.435-3.118-.419-1.137-1.055-2.768-1.5-3.9-.127-.324.394-.464.52-.143,1.067,2.714,2.086,5.45,2.938,8.239,2.179,4.665,5.228,11.167,6.561,15.995,1.141-.14,2.286-.247,3.433-.34,8.687-2.665,17.8-5.057,25.367-10.286a27.092,27.092,0,0,0,2.536-1.869c-4.21-5.735-8.677-19.106-13.143-24.646.593.275,3.42,9.112,4.226,9.41C647.3,951.94,652.7,944.986,652.7,944.986Z" transform="translate(-562.368 -897.546)" fill="#387560"/>
      <path id="Path_41565" data-name="Path 41565" d="M623.755,974.536c1.2,1.152,1.771,2.839,2.583,4.26a51.337,51.337,0,0,0,5.434,7.5c1,1.188,2.026,2.351,3.035,3.529q.475.557.927,1.137l.024.079a16.634,16.634,0,0,0,1.961,4.178,36.436,36.436,0,0,1,2.858,4.608c.755,1.582,1.362,3.229,1.963,4.875.3.827.6,1.653.918,2.474.168.436.324.885.527,1.306a.889.889,0,0,0,.594.531c4.532-2.189,9.283-3.973,13.879-5.965.949-.458,1.908-.892,2.883-1.291.811-.376,1.614-.77,2.412-1.17a.417.417,0,0,0-.047-.187c-1.409-2.582-1.311-5.185-1.355-8.02-.061-3.991-.692-7.88-1.123-11.835a33.684,33.684,0,0,0-1.681-8.419,31.9,31.9,0,0,0-6.422-10.375.28.28,0,0,0-.358-.065.246.246,0,0,0-.19.016A54.572,54.572,0,0,1,647,964.548c-3.269,1.437-6.5,2.47-9.7,4.047-.621.305-1.232.628-1.849.94-4.056.844-7.481,3.517-11.537,4.4A.363.363,0,0,0,623.755,974.536Z" transform="translate(-559.104 -891.921)" fill="#050810"/>
      <path id="Path_41566" data-name="Path 41566" d="M602.615,915.75a13.367,13.367,0,0,1-.566,4.932c-.08.26-.139.608.1.747a.581.581,0,0,0,.288.058,11.751,11.751,0,0,0,1.562-.067" transform="translate(-562.482 -899.074)" fill="none" stroke="#be2b02" stroke-miterlimit="10" stroke-width="0.504"/>
      <path id="Path_41567" data-name="Path 41567" d="M604.671,922.506a3.3,3.3,0,0,0,1.737-.891" transform="translate(-562.062 -898.16)" fill="none" stroke="#be2b02" stroke-miterlimit="10" stroke-width="0.504"/>
      <path id="Path_41568" data-name="Path 41568" d="M605.25,916c-.611,0-.572.949.039.949S605.861,916,605.25,916Z" transform="translate(-562.04 -899.035)" fill="#be2b02"/>
      <path id="Path_41569" data-name="Path 41569" d="M601.131,916.474c-.55,0-.514.854.036.854S601.682,916.474,601.131,916.474Z" transform="translate(-562.675 -898.961)" fill="#be2b02"/>
      <path id="Path_41570" data-name="Path 41570" d="M623.9,919.768a15.264,15.264,0,0,0,.638-8.832,14.049,14.049,0,0,0-1.483-3.559,5.885,5.885,0,0,0-2.034-2.383,8.09,8.09,0,0,0-1.19.266c-1.651-2.735-5.525-4.181-9.1-3.9-5.258.408-14.433,3.064-12.164,8.521.172.413,1.774,3.224,3.6,3.122,3.3-.185,6.192-1.714,9.542-1.162a6.591,6.591,0,0,1,1,.286c-.069,2.5-.165,5-.165,7.5,0,.368.681.369.684,0a2.948,2.948,0,0,1,.169-1.5,1.551,1.551,0,0,1,2-.619,1.9,1.9,0,0,1,.936,1.675c.01.419-.746,1.61-.581,1.862a.294.294,0,0,0,.12.109,40.824,40.824,0,0,0,6.243,2.3A20.182,20.182,0,0,0,623.9,919.768Z" transform="translate(-563.069 -901.323)" fill="#be2b02"/>
      <path id="Path_41571" data-name="Path 41571" d="M674.885,1053.1a15.627,15.627,0,0,0,3.194,1.417,2.048,2.048,0,0,0,1.422.091,5.7,5.7,0,0,0,1.4-.933,11.46,11.46,0,0,0,3.785-5.587.28.28,0,0,0-.037-.253.367.367,0,0,0-.088-.275.265.265,0,0,0-.135-.077l-.045-.054-.106-.14-.214-.28c-.148-.194-.459.29-.608.1l-1.17-2.114c-.088-.115-4.267,3.188-9.019,5.665A20.821,20.821,0,0,0,674.885,1053.1Z" transform="translate(-551.372 -878.933)" fill="#e7d9b4"/>
      <path id="Path_41572" data-name="Path 41572" d="M667.993,1069.162a.317.317,0,0,1,.369-.388.333.333,0,0,1,.223-.285c3.2-1.194,5.79-3.506,8.355-5.666q4.251-3.577,8.5-7.156l4.777-4.021.015-.009a.332.332,0,0,1,.429-.444,9.239,9.239,0,0,0,.781,1c.218.248.447.489.677.727a.29.29,0,0,1-.088.183c-3.073,2.932-6.088,5.946-9.291,8.745-1.6,1.4-3.29,2.679-5.012,3.928-1.67,1.21-3.306,2.513-5.057,3.609a5.748,5.748,0,0,1-2.684,1.06A1.929,1.929,0,0,1,667.993,1069.162Z" transform="translate(-552.195 -877.97)" fill="#7b0727"/>
      <path id="Path_41573" data-name="Path 41573" d="M667.509,1069.177a3.43,3.43,0,0,1,.606-3.137,23.52,23.52,0,0,1,2.691-3.029,8.723,8.723,0,0,0,2.048-3.34,11.035,11.035,0,0,0,.443-3.711,5.373,5.373,0,0,1,.572-3.294,2.192,2.192,0,0,1,2.42-.787c.878.237,1.616.8,2.48,1.068,3.13.979,4.831-4.519,5.272-6.7a.268.268,0,0,1,.169-.191c2.642,1.382,4.316,3.774,6.421,5.741.009.015.017.031.027.045a6.978,6.978,0,0,0,.585.8c-.417.483-1.824,1.818-2.741,2.65l-4.484,4.026c-2.253,2.023-4.47,4.1-6.792,6.044a24.6,24.6,0,0,1-6.99,4.383,3.113,3.113,0,0,1-1.7.325A1.452,1.452,0,0,1,667.509,1069.177Z" transform="translate(-552.297 -878.766)" fill="#101724"/>
      <path id="Path_41574" data-name="Path 41574" d="M672.656,1052.87a9.43,9.43,0,0,1,4.077.792" transform="translate(-551.466 -877.704)" fill="none" stroke="#fea12e" stroke-miterlimit="10" stroke-width="0.557"/>
      <path id="Path_41575" data-name="Path 41575" d="M672.611,1054.279a6.875,6.875,0,0,1,3.183.777" transform="translate(-551.474 -877.484)" fill="none" stroke="#fea12e" stroke-miterlimit="10" stroke-width="0.557"/>
      <path id="Path_41576" data-name="Path 41576" d="M672.512,1055.831a4.235,4.235,0,0,1,2.439.6" transform="translate(-551.489 -877.244)" fill="none" stroke="#fea12e" stroke-miterlimit="10" stroke-width="0.557"/>
      <path id="Path_41577" data-name="Path 41577" d="M672.24,1057.172a2.926,2.926,0,0,1,1.427.49" transform="translate(-551.531 -877.034)" fill="none" stroke="#fea12e" stroke-miterlimit="10" stroke-width="0.557"/>
      <path id="Path_41578" data-name="Path 41578" d="M634.307,1033.236a15.225,15.225,0,0,0,3.328.648,1.993,1.993,0,0,0,1.365-.222,5.548,5.548,0,0,0,1.118-1.185,11.121,11.121,0,0,0,2.369-6.1.269.269,0,0,0-.09-.231.358.358,0,0,0-.142-.242.256.256,0,0,0-.146-.044l-.053-.042-.132-.109-.262-.219c-.183-.151-.371.373-.554.222l-1.565-1.745c-.108-.09-3.345,3.939-7.3,7.312A20.327,20.327,0,0,0,634.307,1033.236Z" transform="translate(-557.765 -882.209)" fill="#e7d9b4"/>
      <path id="Path_41579" data-name="Path 41579" d="M630.914,1050.319a.307.307,0,0,1,.264-.447.325.325,0,0,1,.15-.317c2.767-1.823,4.716-4.57,6.674-7.169l6.488-8.609,3.647-4.838.013-.011a.321.321,0,0,1,.309-.512,8.938,8.938,0,0,0,.956.78c.26.188.528.365.8.54a.285.285,0,0,1-.043.193c-2.272,3.439-4.471,6.942-6.892,10.282-1.21,1.67-2.53,3.247-3.889,4.8-1.316,1.506-2.582,3.093-4,4.508a5.579,5.579,0,0,1-2.309,1.583A1.87,1.87,0,0,1,630.914,1050.319Z" transform="translate(-557.978 -881.517)" fill="#7b0727"/>
      <path id="Path_41580" data-name="Path 41580" d="M630.342,1050.27a3.331,3.331,0,0,1-.106-3.1,22.875,22.875,0,0,1,1.889-3.448,8.449,8.449,0,0,0,1.212-3.6,10.677,10.677,0,0,0-.385-3.6,5.213,5.213,0,0,1-.172-3.24,2.129,2.129,0,0,1,2.117-1.269c.883.035,1.7.4,2.578.473,3.172.248,3.59-5.32,3.535-7.478a.258.258,0,0,1,.118-.217c2.8.735,4.9,2.634,7.315,4.039.013.011.023.025.035.038a6.976,6.976,0,0,0,.727.625c-.291.547-1.331,2.115-2.018,3.1l-3.368,4.78c-1.692,2.4-3.339,4.842-5.113,7.186a23.856,23.856,0,0,1-5.66,5.659,3.017,3.017,0,0,1-1.541.677A1.407,1.407,0,0,1,630.342,1050.27Z" transform="translate(-558.129 -882.081)" fill="#101724"/>
      <path id="Path_41581" data-name="Path 41581" d="M632.316,1033.283a9.16,9.16,0,0,1,4.027-.134" transform="translate(-557.754 -880.805)" fill="none" stroke="#fea12e" stroke-miterlimit="10" stroke-width="0.54"/>
      <path id="Path_41582" data-name="Path 41582" d="M632.579,1034.607a6.655,6.655,0,0,1,3.179.045" transform="translate(-557.713 -880.577)" fill="none" stroke="#fea12e" stroke-miterlimit="10" stroke-width="0.54"/>
      <path id="Path_41583" data-name="Path 41583" d="M632.822,1036.094a4.11,4.11,0,0,1,2.437.041" transform="translate(-557.675 -880.344)" fill="none" stroke="#fea12e" stroke-miterlimit="10" stroke-width="0.54"/>
      <path id="Path_41584" data-name="Path 41584" d="M632.855,1037.4a2.861,2.861,0,0,1,1.456.154" transform="translate(-557.67 -880.119)" fill="none" stroke="#fea12e" stroke-miterlimit="10" stroke-width="0.54"/>
      <path id="Path_41585" data-name="Path 41585" d="M611.876,980.113a115.909,115.909,0,0,1,10.747-5.7l-.01-.033a22.327,22.327,0,0,0,2.371-.875c.915-.245,1.818-.531,2.7-.814,2.127-.682,4.266-1.348,6.369-2.1,2.425-.869,4.337-1.808,6.724-2.777,2.193-.892,4.33-1.75,6.524-2.641,2.069-.84,7.2-3.5,7.449-3.61a32.619,32.619,0,0,1,5.479,9.117,22.392,22.392,0,0,1,1.782,5.79,9.824,9.824,0,0,1-1.291,5.763,16.931,16.931,0,0,1-3.343,4.8,13.929,13.929,0,0,1-4.807,2.8c-1.982.734-4.046,1.259-6.075,1.845l-6.521,1.88c-4.774,1.377-10.59,2.463-15.364,3.84C622.726,995.17,611.851,980.113,611.876,980.113Z" transform="translate(-560.939 -891.934)" fill="#101724"/>
    </g>
  </g>
</svg>
