<?xml version="1.0" encoding="UTF-8"?>
<svg width="38px" height="38px" viewBox="0 0 38 38" version="1.1" xmlns="http://www.w3.org/2000/svg" xmlns:xlink="http://www.w3.org/1999/xlink">
    <!-- Generator: Sketch 52.6 (67491) - http://www.bohemiancoding.com/sketch -->
    <title>Group 3</title>
    <desc>Created with Sketch.</desc>
    <g id="Version-2.0" stroke="none" stroke-width="1" fill="none" fill-rule="evenodd">
        <g id="Tovar_drop_vigruzki" transform="translate(-58.000000, -449.000000)">
            <g id="Group-3" transform="translate(58.000000, 449.000000)">
                <circle id="Oval" fill="#F7F7F7" fill-rule="nonzero" cx="19" cy="19" r="19"></circle>
                <g id="no-photo-(1)" transform="translate(4.000000, 4.000000)" fill="#9FA3AB">
                    <path d="M20.7618164,21.5039062 L9.23824219,21.5039062 C7.79513672,21.5039062 6.62109375,20.3298633 6.62109375,18.8867578 L6.62109375,13.7305078 C6.62109375,12.7328906 7.17539062,11.8359961 8.06765625,11.3897461 L9.89607422,10.475625 C10.189043,10.3291406 10.3710937,10.0345898 10.3710937,9.70699219 C10.3710937,8.26388672 11.5451367,7.08984375 12.9881836,7.08984375 L17.0117578,7.08984375 C18.4548633,7.08984375 19.6289062,8.26388672 19.6289062,9.70699219 C19.6289062,10.0345313 19.8108984,10.329082 20.1039258,10.4755664 L21.9321094,11.3896289 C22.8244922,11.8358203 23.3788477,12.7327734 23.3788477,13.7305078 L23.3788477,18.8867578 C23.3789062,20.3298633 22.2048633,21.5039062 20.7618164,21.5039062 Z M12.9881836,8.84765625 C12.5143945,8.84765625 12.1289062,9.23314453 12.1289062,9.70699219 C12.1289062,10.704668 11.5745508,11.6016211 10.6822266,12.0478125 L8.85386719,12.9619336 C8.56089844,13.108418 8.37890625,13.4029102 8.37890625,13.7305078 L8.37890625,18.8867578 C8.37890625,19.3606055 8.76439453,19.7460937 9.23824219,19.7460937 L20.7618164,19.7460937 C21.2356055,19.7460937 21.6210938,19.3606055 21.6210938,18.8867578 L21.6210938,13.7305078 C21.6210938,13.4029102 21.4391016,13.108418 21.1460742,12.961875 L19.317832,12.0477539 C18.4254492,11.6015625 17.8710938,10.7046094 17.8710938,9.70699219 C17.8710938,9.23314453 17.4856055,8.84765625 17.0117578,8.84765625 L12.9881836,8.84765625 Z" id="Shape" fill-rule="nonzero"></path>
                    <path d="M15,30 C10.9933594,30 7.22654297,28.439707 4.39335938,25.6066406 C1.56029297,22.773457 0,19.0066406 0,15 C0,10.9933594 1.56029297,7.22654297 4.39335938,4.39335937 C7.22654297,1.56029297 10.9933594,-5.68434189e-14 15,-5.68434189e-14 C19.0066406,-5.68434189e-14 22.773457,1.56029297 25.6066406,4.39335937 C28.439707,7.22654297 30,10.9933594 30,15 C30,19.0066406 28.439707,22.773457 25.6066406,25.6066406 C22.773457,28.439707 19.0066406,30 15,30 Z M15,1.7578125 C7.69822266,1.7578125 1.7578125,7.69822266 1.7578125,15 C1.7578125,22.3017773 7.69822266,28.2421875 15,28.2421875 C22.3017773,28.2421875 28.2421875,22.3017773 28.2421875,15 C28.2421875,7.69822266 22.3017773,1.7578125 15,1.7578125 Z" id="Shape" fill-rule="nonzero"></path>
                    <path d="M24.9732422,25.8521484 C24.7483008,25.8521484 24.5233594,25.7663086 24.3517969,25.5946875 L15.7045312,16.9474219 C15.3612891,16.6042383 15.3612891,16.0477148 15.7045312,15.7044727 C16.0477148,15.3612891 16.6042383,15.3612891 16.9474805,15.7044727 L25.5947461,24.3517383 C25.9379883,24.6949219 25.9379883,25.2514453 25.5947461,25.5946875 C25.423125,25.7663086 25.1981836,25.8521484 24.9732422,25.8521484 Z" id="Path"></path>
                    <path d="M13.6740234,14.5529297 C13.449082,14.5529297 13.2241406,14.4671484 13.0525781,14.2954687 L4.4053125,5.64820312 C4.06207031,5.30496094 4.06207031,4.74849609 4.4053125,4.40525391 C4.74849609,4.06201172 5.30501953,4.06201172 5.64826172,4.40525391 L14.2955273,13.0525195 C14.6387695,13.3957617 14.6387695,13.9522266 14.2955273,14.2954687 C14.1239062,14.4671484 13.8989648,14.5529297 13.6740234,14.5529297 Z" id="Path"></path>
                    <path d="M15,17.7539062 C13.4814844,17.7539062 12.2460938,16.5185156 12.2460938,15 C12.2460938,13.4814844 13.4814844,12.2460938 15,12.2460938 C16.5185156,12.2460938 17.7539062,13.4814844 17.7539062,15 C17.7539062,16.5185156 16.5185156,17.7539062 15,17.7539062 Z M15,14.0039062 C14.4507422,14.0039062 14.0039062,14.4507422 14.0039062,15 C14.0039062,15.5492578 14.4507422,15.9960938 15,15.9960938 C15.5492578,15.9960938 15.9960938,15.5492578 15.9960938,15 C15.9960938,14.4507422 15.5492578,14.0039062 15,14.0039062 Z" id="Shape" fill-rule="nonzero"></path>
                </g>
            </g>
        </g>
    </g>
</svg>