<?xml version="1.0" encoding="UTF-8"?>
<svg width="23px" height="25px" viewBox="0 0 23 25" version="1.1" xmlns="http://www.w3.org/2000/svg" xmlns:xlink="http://www.w3.org/1999/xlink">
    <!-- Generator: Sketch 52.6 (67491) - http://www.bohemiancoding.com/sketch -->
    <title>xlsx-file-format-extension</title>
    <desc>Created with Sketch.</desc>
    <g id="Version-2.0" stroke="none" stroke-width="1" fill="none" fill-rule="evenodd">
        <g id="Tovar_drop_vigruzki" transform="translate(-217.000000, -405.000000)" fill="#000000" fill-rule="nonzero">
            <g id="xlsx-file-format-extension" transform="translate(217.000000, 405.000000)">
                <path d="M20.7288707,8.93082878 L20.129326,8.93082878 L20.129326,6.03806922 C20.129326,6.02003643 20.1265027,6.00186703 20.1243625,5.98342441 C20.1234062,5.86867031 20.086612,5.75587432 20.007969,5.66648452 L15.1938525,0.167440801 C15.1923497,0.166029144 15.1909381,0.165528233 15.1899818,0.164025501 C15.1612933,0.131967213 15.1278689,0.105282332 15.0923953,0.0822404372 C15.0819672,0.0752276867 15.0714026,0.0693533698 15.0604281,0.0631602914 C15.029827,0.0465391621 14.9972678,0.0325591985 14.9638434,0.0224954463 C14.9547359,0.0201275046 14.9465847,0.0163934426 14.9375683,0.0140255009 C14.901184,0.00537340619 14.8634335,0 14.8252277,0 L2.99439891,0 C2.45418944,0 2.01530055,0.4393898 2.01530055,0.979143898 L2.01530055,8.93055556 L1.41584699,8.93055556 C0.643032787,8.93055556 0.0163934426,9.55696721 0.0163934426,10.3300546 L0.0163934426,17.6074681 C0.0163934426,18.379827 0.643032787,19.0068761 1.41584699,19.0068761 L2.01530055,19.0068761 L2.01530055,23.9886157 C2.01530055,24.5284153 2.45418944,24.967714 2.99439891,24.967714 L19.1499545,24.967714 C19.6897086,24.967714 20.1290528,24.5284153 20.1290528,23.9886157 L20.1290528,19.0069217 L20.7285974,19.0069217 C21.501184,19.0069217 22.1279144,18.3801457 22.1279144,17.6075137 L22.1279144,10.3303279 C22.1279599,9.55701275 21.5016393,8.93082878 20.7288707,8.93082878 Z M2.99439891,0.979143898 L14.3356557,0.979143898 L14.3356557,5.98852459 C14.3356557,6.25901639 14.5550091,6.47809654 14.8252277,6.47809654 L19.15,6.47809654 L19.15,8.93078324 L2.99439891,8.93078324 L2.99439891,0.979143898 Z M12.9132969,14.3288251 C11.9513661,13.9937158 11.3236794,13.4615665 11.3236794,12.6191712 C11.3236794,11.631102 12.1483607,10.8752277 13.5147541,10.8752277 C14.1673497,10.8752277 14.6487705,11.0124772 14.9920765,11.1672587 L14.7001366,12.223725 C14.468306,12.1123406 14.0559654,11.948816 13.4889344,11.948816 C12.9219035,11.948816 12.6470401,12.2066485 12.6470401,12.507377 C12.6470401,12.8769126 12.9735883,13.0399818 13.7208106,13.3234517 C14.7429417,13.7016393 15.2241348,14.2341985 15.2241348,15.0502732 C15.2241348,16.0212659 14.4766393,16.8460383 12.8872495,16.8460383 C12.2258652,16.8460383 11.5729964,16.674408 11.2464936,16.4937158 L11.5125683,15.4112933 C11.8649362,15.5915301 12.4063297,15.7722678 12.9645264,15.7722678 C13.566439,15.7722678 13.8838342,15.5231785 13.8838342,15.1450364 C13.8840619,14.7844718 13.6091985,14.5778689 12.9132969,14.3288251 Z M10.6974954,15.6602914 L10.6974954,16.760337 L7.08005464,16.760337 L7.08005464,10.9691257 L8.39503643,10.9691257 L8.39503643,15.6602914 L10.6974954,15.6602914 Z M2.87964481,16.760337 L1.38483607,16.760337 L3.06006375,13.8298725 L1.44471767,10.968898 L2.94840619,10.968898 L3.45500911,12.0258197 C3.62686703,12.3780965 3.75582878,12.6612477 3.89344262,12.9882514 L3.91015483,12.9882514 C4.04799636,12.6187158 4.15956284,12.3609745 4.30519126,12.0258197 L4.79499089,10.968898 L6.28984517,10.968898 L4.65742259,13.7952186 L6.37600182,16.7598361 L4.86407104,16.7598361 L4.33970856,15.7114754 C4.12527322,15.3082423 3.98770492,15.0072404 3.82440801,14.6721311 L3.80733151,14.6721311 C3.68688525,15.0072404 3.54116576,15.3082423 3.36056466,15.7114754 L2.87964481,16.760337 Z M19.15,23.7234973 L2.99439891,23.7234973 L2.99439891,19.0069217 L19.15,19.0069217 L19.15,23.7234973 Z M19.1588342,16.760337 L18.6346084,15.7119763 C18.4198998,15.3083789 18.2824681,15.0077413 18.1191712,14.6725865 L18.1025046,14.6725865 C17.9820128,15.0077413 17.8357468,15.3083789 17.6550091,15.7119763 L17.1745446,16.760337 L15.6792805,16.760337 L17.3545082,13.8298725 L15.7392532,10.968898 L17.2428962,10.968898 L17.7501366,12.0258197 C17.9218124,12.3780965 18.0503643,12.6612477 18.1881148,12.9882514 L18.2052823,12.9882514 C18.3424863,12.6187158 18.4538707,12.3609745 18.6001366,12.0258197 L19.0897541,10.968898 L20.5849727,10.968898 L18.9525046,13.7952186 L20.670765,16.7598361 L19.1588342,16.7598361 L19.1588342,16.760337 Z" id="Shape"></path>
            </g>
        </g>
    </g>
</svg>