<?xml version="1.0" encoding="UTF-8"?>
<svg width="23px" height="25px" viewBox="0 0 23 25" version="1.1" xmlns="http://www.w3.org/2000/svg" xmlns:xlink="http://www.w3.org/1999/xlink">
    <!-- Generator: Sketch 52.6 (67491) - http://www.bohemiancoding.com/sketch -->
    <title>yml-file-format-extension</title>
    <desc>Created with Sketch.</desc>
    <g id="Version-2.0" stroke="none" stroke-width="1" fill="none" fill-rule="evenodd">
        <g id="Tovar_drop_vigruzki" transform="translate(-246.000000, -405.000000)" fill="#D72214" fill-rule="nonzero">
            <g id="yml-file-format-extension" transform="translate(246.000000, 405.000000)">
                <path d="M20.7285974,8.9298725 L20.1275046,8.9298725 L20.1275046,6.03825137 C20.1275046,6.02003643 20.1229508,6.00182149 20.1229508,5.98360656 C20.1229508,5.86976321 20.0865209,5.75591985 20.0045537,5.66484517 L15.1958106,0.16848816 C15.1958106,0.16848816 15.1912568,0.16848816 15.1912568,0.163934426 C15.1639344,0.132058288 15.1275046,0.104735883 15.0956284,0.0819672131 C15.0865209,0.072859745 15.0728597,0.0683060109 15.0637523,0.0637522769 C15.0318761,0.0455373406 15,0.0318761384 14.9681239,0.0227686703 C14.9590164,0.0182149362 14.9499089,0.0182149362 14.9408015,0.0136612022 C14.9043716,0.00455373406 14.8679417,0 14.8269581,0 L2.99635701,0 C2.45446266,5.0556604e-18 2.01730419,0.43715847 2.01730419,0.979052823 L2.01730419,8.9298725 L1.41621129,8.9298725 C0.642076503,8.9298725 0.0182149362,9.5582878 0.0182149362,10.3278689 L0.0182149362,17.6047359 C0.0182149362,18.3788707 0.646630237,19.0027322 1.41621129,19.0027322 L2.01730419,19.0027322 L2.01730419,23.9845173 C2.01730419,24.5264117 2.45446266,24.9635701 2.99635701,24.9635701 L19.1530055,24.9635701 C19.6948998,24.9635701 20.1320583,24.5264117 20.1320583,23.9845173 L20.1320583,19.007286 L20.7331512,19.007286 C21.507286,19.007286 22.1311475,18.3788707 22.1311475,17.6092896 L22.1311475,10.3324226 C22.1265938,9.5582878 21.5027322,8.9298725 20.7285974,8.9298725 Z M2.99635701,0.979052823 L14.3397086,0.979052823 L14.3397086,5.98816029 C14.3397086,6.2568306 14.5582878,6.47996357 14.8315118,6.47996357 L19.1575592,6.47996357 L19.1575592,8.93442623 L2.99635701,8.93442623 L2.99635701,0.979052823 Z M15.204918,17.2859745 L13.7295082,17.2859745 L13.6202186,14.7176685 C13.5883424,13.9116576 13.56102,12.9371585 13.56102,11.9581056 L13.5428051,11.9581056 C13.3242259,12.8142077 13.0464481,13.7704918 12.7868852,14.5582878 L11.9717668,17.1766849 L10.787796,17.1766849 L10.0728597,14.5901639 C9.85428051,13.7932605 9.63570128,12.8369763 9.46721311,11.9626594 L9.44899818,11.9626594 C9.41712204,12.8688525 9.38069217,13.9025501 9.33970856,14.7404372 L9.21220401,17.2905282 L7.80965392,17.2905282 L8.23770492,10.5783242 L10.2459016,10.5783242 L10.9016393,12.8187614 C11.1202186,13.5974499 11.3205829,14.4307832 11.4708561,15.2185792 L11.5118397,15.2185792 C11.6894353,14.4398907 11.9216758,13.5564663 12.1493625,12.8096539 L12.8551913,10.5783242 L14.845173,10.5783242 L15.204918,17.2859745 Z M1.58469945,10.5737705 L3.3287796,10.5737705 L4.00728597,12.1857923 C4.21675774,12.6730419 4.36703097,13.0327869 4.52641166,13.4699454 L4.54462659,13.4699454 C4.69489982,13.0510018 4.85428051,12.6639344 5.05464481,12.1857923 L5.73315118,10.5737705 L7.43624772,10.5737705 L5.2276867,14.4854281 L5.2276867,17.2814208 L3.71584699,17.2814208 L3.71584699,14.5355191 L1.58469945,10.5737705 Z M19.1484517,23.7249545 L2.99635701,23.7249545 L2.99635701,19.007286 L19.1530055,19.007286 L19.1530055,23.7249545 L19.1484517,23.7249545 Z M20.5601093,17.2859745 L16.3797814,17.2859745 L16.3797814,10.5737705 L17.8916211,10.5737705 L17.8916211,16.010929 L20.5601093,16.010929 L20.5601093,17.2859745 Z" id="Shape"></path>
            </g>
        </g>
    </g>
</svg>