<svg width="65" height="65" viewBox="0 0 65 65" fill="none" xmlns="http://www.w3.org/2000/svg">
<g clip-path="url(#clip0)">
<path d="M57.9978 56.9978L49.7751 42.7556C51.1389 41.6071 52.0814 39.9737 52.3332 38.1228C52.5042 36.8643 53.1516 35.743 54.1559 34.9655C56.7595 32.9502 57.7069 29.4144 56.4599 26.3671C55.9789 25.1916 55.9789 23.8968 56.4599 22.7215C57.7069 19.6741 56.7595 16.1384 54.1559 14.123C53.1516 13.3456 52.5041 12.2243 52.3332 10.9657C51.8895 7.70328 49.301 5.11482 46.0386 4.67131C44.7801 4.50015 43.6588 3.85284 42.8815 2.84849C40.866 0.244795 37.3305 -0.702546 34.2829 0.54445C33.1074 1.02555 31.8127 1.02555 30.6373 0.54445C27.5902 -0.702673 24.0543 0.244795 22.0389 2.84849C21.2614 3.85284 20.1401 4.50015 18.8816 4.67131C15.619 5.11495 13.0307 7.70328 12.5872 10.9658C12.416 12.2244 11.7687 13.3457 10.7643 14.1231C8.16064 16.1386 7.2133 19.6744 8.4603 22.7216C8.94139 23.897 8.94139 25.1918 8.4603 26.3672C7.21317 29.4144 8.16064 32.9502 10.7643 34.9657C11.7687 35.7431 12.416 36.8644 12.5872 38.1228C12.8421 39.9981 13.8066 41.6496 15.1994 42.8001L7.00227 56.9978C6.74553 57.4426 6.78185 57.9982 7.09458 58.4056C7.40719 58.8129 7.93425 58.992 8.43059 58.8591L15.5755 56.9446L17.4817 64.0587C17.6146 64.5548 18.0333 64.9219 18.5424 64.9889C18.598 64.9963 18.6535 64.9999 18.7085 64.9999C19.1577 64.9999 19.579 64.7612 19.8077 64.365L28.6529 49.0449C29.3235 48.9726 29.9914 48.8085 30.6372 48.5441C31.8127 48.063 33.1076 48.063 34.2828 48.5441C34.9562 48.8198 35.6535 48.9878 36.353 49.0548L45.1923 64.365C45.4211 64.7613 45.8423 64.9999 46.2915 64.9999C46.3466 64.9999 46.402 64.9963 46.4577 64.9889C46.9669 64.9219 47.3855 64.5548 47.5184 64.0587L49.4248 56.9446L56.5697 58.8591C57.0654 58.992 57.5929 58.8131 57.9055 58.4056C58.2181 57.9982 58.2546 57.4426 57.9978 56.9978ZM19.1411 60.4407L17.6996 55.061C17.6123 54.7357 17.3997 54.4584 17.108 54.29C16.8164 54.1216 16.47 54.076 16.1445 54.1631L10.7341 55.6128L17.4056 44.0574C17.8773 44.2262 18.3711 44.3479 18.8814 44.4174C20.14 44.5885 21.2613 45.2358 22.0387 46.2402C23.0254 47.5149 24.3768 48.3916 25.8567 48.8091L19.1411 60.4407ZM29.6752 46.194C27.6806 47.0104 25.3662 46.3901 24.0468 44.6859C22.8591 43.1516 21.1461 42.1625 19.2235 41.9012C17.0879 41.6108 15.3935 39.9165 15.1032 37.7808C14.8418 35.8582 13.8528 34.1453 12.3185 32.9575C10.6141 31.6382 9.994 29.3236 10.8103 27.329C11.5453 25.5333 11.5453 23.5554 10.8103 21.7596C9.994 19.765 10.6141 17.4505 12.3185 16.1312C13.8528 14.9435 14.8418 13.2306 15.1032 11.3079C15.3936 9.17236 17.0879 7.47791 19.2235 7.18752C21.1461 6.92621 22.8591 5.93722 24.0468 4.40289C24.9773 3.20084 26.4023 2.53817 27.8614 2.53817C28.4713 2.53817 29.0872 2.6541 29.6751 2.89471C31.471 3.62963 33.449 3.62963 35.2446 2.89471C37.2391 2.07828 39.5538 2.69854 40.8731 4.40289C42.0608 5.93722 43.7736 6.92621 45.6961 7.18752C47.8317 7.47791 49.5261 9.17223 49.8165 11.3079C50.0779 13.2306 51.0669 14.9435 52.6013 16.1312C54.3056 17.4505 54.9257 19.7649 54.1094 21.7596C53.3745 23.5554 53.3745 25.5333 54.1094 27.329C54.9257 29.3236 54.3055 31.6382 52.6013 32.9575C51.0669 34.1452 50.0779 35.858 49.8165 37.7807C49.5261 39.9163 47.8317 41.6108 45.6962 41.901C43.7735 42.1623 42.0606 43.1513 40.8729 44.6858C39.5536 46.3903 37.2391 47.0103 35.2446 46.1938C33.4489 45.4591 31.4711 45.4591 29.6752 46.194ZM48.8554 54.1631C48.1778 53.9814 47.482 54.3837 47.3004 55.061L45.8588 60.4407L39.1318 48.789C40.5847 48.3639 41.9098 47.4952 42.8814 46.2402C43.6587 45.2357 44.78 44.5884 46.0384 44.4174C46.5726 44.3447 47.0884 44.2136 47.5799 44.0324L54.2657 55.6128L48.8554 54.1631Z" fill="#2F2483"/>
<path d="M26.6898 19.8475L22.7393 23.7979C22.5013 24.036 22.3674 24.359 22.3674 24.6957C22.3674 25.0325 22.5013 25.3555 22.7393 25.5936L30.1486 33.0029C30.3866 33.241 30.7097 33.3748 31.0464 33.3748C31.3831 33.3748 31.7061 33.241 31.9442 33.0029L42.2607 22.6864C42.7566 22.1906 42.7566 21.3866 42.2607 20.8908L38.3104 16.9403C38.0722 16.7022 37.7493 16.5684 37.4125 16.5684C37.0758 16.5684 36.7528 16.7022 36.5147 16.9403L31.0465 22.4086L28.4857 19.8477C28.2477 19.6096 27.9246 19.4758 27.5879 19.4758C27.2509 19.4756 26.9279 19.6095 26.6898 19.8475ZM30.1484 25.1021C30.3865 25.3401 30.7095 25.474 31.0463 25.474C31.383 25.474 31.706 25.3401 31.9441 25.1021L37.4123 19.6337L39.5671 21.7886L31.0463 30.3094L25.4328 24.6959L27.5877 22.5411L30.1484 25.1021Z" fill="#2F2483"/>
<path d="M49.0064 24.9717C49.0064 21.5988 47.9955 18.3549 46.0833 15.5907C44.2159 12.8916 41.622 10.8277 38.5821 9.62223C37.9299 9.36384 37.1922 9.68267 36.9337 10.3345C36.6752 10.9864 36.9941 11.7244 37.6459 11.9829C43.0045 14.1078 46.467 19.2062 46.467 24.9717C46.467 32.6731 40.2015 38.9386 32.5001 38.9386C24.7987 38.9386 18.5331 32.6731 18.5331 24.9717C18.5331 19.2061 21.9956 14.1077 27.3543 11.9828C28.0061 11.7243 28.3251 10.9863 28.0666 10.3344C27.8081 9.68254 27.07 9.36359 26.4182 9.6221C23.3781 10.8277 20.7842 12.8915 18.9168 15.5906C17.0045 18.3548 15.9937 21.5987 15.9937 24.9715C15.9937 34.0732 23.3984 41.478 32.5001 41.478C41.6017 41.4781 49.0064 34.0733 49.0064 24.9717Z" fill="#2F2483"/>
<path d="M32.4999 11.0042C32.8339 11.0042 33.1615 10.8696 33.3975 10.6321C33.6337 10.396 33.7697 10.0697 33.7697 9.73444C33.7697 9.40051 33.6338 9.07292 33.3975 8.83675C33.1615 8.60058 32.8339 8.46472 32.4999 8.46472C32.166 8.46472 31.8384 8.60058 31.6023 8.83675C31.3661 9.07292 31.2302 9.40051 31.2302 9.73444C31.2302 10.0697 31.3661 10.396 31.6023 10.6321C31.8384 10.8696 32.166 11.0042 32.4999 11.0042Z" fill="#2F2483"/>
</g>
<defs>
<clipPath id="clip0">
<rect width="65" height="65" fill="white"/>
</clipPath>
</defs>
</svg>
