<svg width="43" height="65" viewBox="0 0 43 65" fill="none" xmlns="http://www.w3.org/2000/svg">
<path d="M36.9314 26.4825C36.8299 26.2667 36.7791 26.0128 36.8045 25.7716L37.7058 14.8409C37.8201 13.4952 37.325 12.1876 36.3347 11.2608C35.3699 10.3341 34.0369 9.90243 32.7039 10.0929C31.8152 10.2198 30.9773 10.4737 30.1775 10.88C30.1775 10.8673 30.1648 10.8673 30.1648 10.8546C28.324 8.65829 25.0486 8.37899 22.865 10.2071L16.1238 15.8438V15.2725C16.1238 15.2472 16.1365 15.2218 16.1492 15.1964L17.6726 12.962C17.8758 12.67 17.9392 12.3272 17.8758 11.9718C17.8123 11.629 17.6092 11.3243 17.3299 11.1339C17.0379 10.9307 16.6951 10.8673 16.3396 10.9307C15.9969 10.9942 15.6922 11.1974 15.5017 11.4766L13.9783 13.711C13.6609 14.1681 13.4959 14.714 13.4959 15.2725V18.0528L8.39236 22.3184V14.2696C8.39236 13.3302 8.67165 12.4288 9.20486 11.6544L14.575 3.78329C14.9558 3.22469 15.5398 2.84383 16.2127 2.71688C16.8855 2.58993 17.5584 2.72958 18.1297 3.12313C18.6883 3.50399 19.0691 4.08797 19.1961 4.76083C19.323 5.43368 19.1834 6.10653 18.7898 6.67782L17.7869 8.12508C17.3806 8.72176 17.533 9.54696 18.1297 9.95321C18.4217 10.1563 18.7644 10.2198 19.1199 10.1563C19.4627 10.0929 19.7674 9.88973 19.9578 9.61044L20.948 8.16317C21.7351 7.02059 22.0144 5.6368 21.7605 4.2784C21.5066 2.92001 20.7322 1.73934 19.5896 0.952232C18.447 0.165123 17.0633 -0.114174 15.7049 0.139733C14.3465 0.393639 13.1658 1.16805 12.3787 2.31063L7.00857 10.1817C6.18337 11.4005 5.73904 12.8097 5.73904 14.2823V24.5274L3.06033 26.7745C0.940208 28.5518 -0.189675 31.2559 0.0261458 34.0108L0.622826 41.6153C0.673607 42.3009 1.25759 42.8341 1.93044 42.8341C1.96853 42.8341 1.99392 42.8341 2.03201 42.8341C2.38747 42.8087 2.70486 42.6436 2.93337 42.377C3.16189 42.1104 3.27615 41.7677 3.25076 41.4249L2.65408 33.8204C2.50173 31.9161 3.28884 30.0372 4.7615 28.8184L24.5408 12.2257C25.0613 11.794 25.7215 11.5782 26.407 11.6417C27.0926 11.7052 27.7019 12.0225 28.1336 12.5431C29.0349 13.6222 28.8953 15.2345 27.8162 16.1358L17.5838 24.7179C16.9109 24.8956 16.2635 25.2384 15.7302 25.7081L10.6902 30.088C10.1443 30.5704 10.0808 31.3956 10.5633 31.9415C11.0457 32.4874 11.8709 32.5509 12.4168 32.0684L17.4568 27.6886C18.1931 27.0538 19.2595 27.0411 20.0086 27.6759L27.6258 34.1505C28.1463 34.5948 28.4636 35.2042 28.5144 35.8897C28.5652 36.5753 28.3621 37.2354 27.9177 37.7432C27.6385 38.0733 27.283 38.3145 26.8894 38.4669L21.7224 34.0743C19.9832 32.589 17.4695 32.6016 15.7429 34.1124L10.7029 38.4923C10.157 38.9747 10.0935 39.7999 10.576 40.3458C11.0584 40.8917 11.8836 40.9552 12.4295 40.4727L17.4695 36.0929C18.2058 35.4581 19.2722 35.4454 20.0213 36.0802L27.6385 42.5548C28.159 42.9991 28.4763 43.6085 28.5271 44.294C28.5779 44.9796 28.3748 45.6397 27.9304 46.1475C27.4861 46.6681 26.8767 46.9854 26.1912 47.0362C25.5056 47.087 24.8455 46.8839 24.3377 46.4395L19.6277 42.4278C19.1072 41.9835 18.3201 42.0216 17.8504 42.504L16.4539 43.9005C15.9461 44.4083 15.9461 45.2462 16.4539 45.7667C16.9617 46.2745 17.7996 46.2745 18.3201 45.7667L18.866 45.2208L22.6619 48.4454C23.6013 49.2452 24.7947 49.6768 26.0135 49.6768C26.1531 49.6768 26.2927 49.6768 26.4324 49.6641C27.8162 49.5499 29.073 48.9151 29.9617 47.8614C30.8631 46.8077 31.2947 45.462 31.1804 44.0909C31.0662 42.7071 30.4314 41.4503 29.3777 40.5616L29.0603 40.295C29.3904 40.0538 29.6951 39.7745 29.9617 39.4571C31.8152 37.2735 31.5486 33.9981 29.3777 32.1446L26.1658 29.4151L28.1336 19.3477L29.5554 18.1544C30.6219 17.2657 31.2693 16.0216 31.3836 14.6378C31.4217 14.1807 31.409 13.7237 31.3201 13.2667C31.8787 12.9747 32.4754 12.7716 33.0847 12.6954C33.6306 12.6192 34.1638 12.797 34.5574 13.1651C34.951 13.546 35.1541 14.0665 35.116 14.6124L34.2146 25.5431C34.1511 26.254 34.2908 26.9776 34.5955 27.6124L36.2713 31.0782C38.3279 35.3438 38.4041 40.2569 36.4617 44.5733L35.3826 46.9727C35.2429 47.2901 35.2302 47.6456 35.3572 47.9757C35.4842 48.3057 35.7254 48.5597 36.0427 48.712C36.2078 48.7882 36.3982 48.8263 36.576 48.8263C37.0965 48.8263 37.5662 48.5216 37.782 48.0518L38.8611 45.6524C41.1209 40.6251 41.032 34.8995 38.6326 29.9356L36.9314 26.4825ZM24.8836 22.0391L23.8172 27.46L21.7097 25.67C21.5193 25.505 21.3035 25.3526 21.0877 25.2257L24.8836 22.0391Z" fill="#2F2483"/>
<path d="M35.446 49.9941C34.7859 49.7021 33.9988 49.9941 33.7068 50.6543L31.2947 56.0117C31.2185 56.1767 31.1804 56.3672 31.1804 56.5449V63.667C31.1804 64.3906 31.7771 64.9873 32.5007 64.9873C33.2244 64.9873 33.821 64.3906 33.821 63.667V56.8242L36.1062 51.7207C36.4109 51.0732 36.1062 50.2988 35.446 49.9941Z" fill="#2F2483"/>
<path d="M29.8347 6.60156C30.5584 6.60156 31.155 6.00488 31.155 5.28125V1.32031C31.155 0.59668 30.5584 0 29.8347 0C29.1111 0 28.5144 0.59668 28.5144 1.32031V5.29395C28.5144 6.00488 29.1111 6.60156 29.8347 6.60156Z" fill="#2F2483"/>
<path d="M33.6687 7.49018C33.8591 7.60444 34.0876 7.65522 34.3034 7.65522C34.7858 7.65522 35.2175 7.40132 35.4587 6.98237L37.3884 3.51655C37.7438 2.88179 37.5153 2.08198 36.8806 1.72651C36.2458 1.37104 35.446 1.59956 35.0905 2.23432L33.1608 5.70015C32.8054 6.33491 33.0339 7.13472 33.6687 7.49018Z" fill="#2F2483"/>
<path d="M42.1873 6.65237C41.8064 6.0303 40.9939 5.83987 40.3718 6.22073L36.9949 8.31545C36.3728 8.69631 36.1824 9.50881 36.5633 10.1309C36.8045 10.5244 37.2234 10.7529 37.6804 10.7529C37.9217 10.7529 38.1629 10.6895 38.3787 10.5498L41.7556 8.4551C42.0603 8.26467 42.2634 7.98537 42.3396 7.6426C42.4285 7.29983 42.3777 6.94436 42.1873 6.65237Z" fill="#2F2483"/>
<path d="M6.22146 51.5937C4.78689 49.791 3.87283 47.6328 3.58083 45.3477C3.49197 44.624 2.83181 44.1162 2.10818 44.2178C1.7654 44.2685 1.44802 44.4463 1.2322 44.7256C1.01638 45.0049 0.927515 45.3477 0.965601 45.7031C1.32107 48.458 2.42556 51.0732 4.16482 53.2441L7.96071 58.0176V63.6416C7.96071 64.3652 8.55739 64.9619 9.28102 64.9619C10.0047 64.9619 10.6013 64.3652 10.6013 63.6416V57.5605C10.6013 57.2685 10.4998 56.9766 10.3093 56.7353L6.22146 51.5937Z" fill="#2F2483"/>
</svg>
