<svg width="65" height="65" viewBox="0 0 65 65" fill="none" xmlns="http://www.w3.org/2000/svg">
<g clip-path="url(#clip0)">
<path d="M32.4995 28.6914C35.9996 28.6914 38.8471 25.8439 38.8471 22.3439C38.8471 18.8439 35.9996 15.9963 32.4995 15.9963C28.9995 15.9963 26.152 18.8439 26.152 22.3439C26.152 25.8439 28.9995 28.6914 32.4995 28.6914ZM32.4995 18.5354C34.5996 18.5354 36.3081 20.2439 36.3081 22.3439C36.3081 24.4439 34.5996 26.1524 32.4995 26.1524C30.3995 26.1524 28.691 24.4439 28.691 22.3439C28.691 20.2439 30.3995 18.5354 32.4995 18.5354Z" fill="#2F2483"/>
<path d="M23.1975 57.2257C22.576 54.529 20.2316 52.4836 17.3904 52.3155C15.7333 48.8904 11.8618 46.7519 7.85739 47.3174C3.67168 47.9083 0 52.0182 0 56.1129C0 60.7122 4.00709 64.9994 9.14048 64.9994H26.7867C27.4877 64.9994 28.0562 64.4311 28.0562 63.7299C28.0562 63.0288 27.4877 62.4604 26.7867 62.4604H9.14048C5.62381 62.4604 2.53902 59.4943 2.53902 56.1129C2.53902 53.2957 5.29615 50.2431 8.21222 49.8316C10.7906 49.4672 13.365 50.6738 14.7163 52.7356C13.8998 53.0526 13.15 53.5366 12.5228 54.1648C12.0275 54.6609 12.0281 55.4648 12.5242 55.9603C12.772 56.2077 13.0967 56.3313 13.4211 56.3313C13.7464 56.3313 14.0715 56.2071 14.3195 55.9589C14.9598 55.3175 15.7968 54.8863 17.0113 54.8435C19.1114 54.8435 20.8199 56.552 20.8199 58.652C20.8199 59.3532 21.3883 59.9215 22.0894 59.9215C25.6677 59.9215 28.6908 57.0147 28.6908 53.574V49.0037H36.3079V53.574C36.3079 57.0147 39.331 59.9215 42.9094 59.9215C43.6104 59.9215 44.1789 59.3532 44.1789 58.652C44.1789 56.552 45.8874 54.8435 47.985 54.8435C49.1298 54.879 50.0035 55.2821 50.6793 55.9589C51.1726 56.453 51.9762 56.4577 52.4746 55.9603C52.9707 55.4649 52.9714 54.661 52.476 54.1648C51.8489 53.5366 51.0991 53.0526 50.2824 52.7356C51.6334 50.674 54.2074 49.4676 56.7869 49.8316C59.7578 50.2505 62.5148 53.3529 62.4601 56.2152C62.3942 59.6005 59.3711 62.4604 55.8584 62.4604H38.2123C37.5113 62.4604 36.9428 63.0288 36.9428 63.7299C36.9428 64.4311 37.5113 64.9994 38.2123 64.9994H55.8585C60.7211 64.9994 64.9067 60.9993 64.9987 56.2641C65.0783 52.0996 61.4068 47.9189 57.1417 47.3174C53.1354 46.752 49.2652 48.8915 47.6086 52.3155C44.7674 52.4835 42.423 54.529 41.8015 57.2257C40.1366 56.7488 38.847 55.2459 38.847 53.5738V49.0036H40.1166C40.753 49.0036 41.2909 48.5325 41.3749 47.9018L41.9052 43.9256H47.4924C49.7255 43.9256 51.5422 42.1089 51.5422 39.8758C51.5422 38.9103 51.1961 37.9746 50.5676 37.2406L43.8427 29.3951L44.4965 24.4919C45.7887 14.7929 41.0698 4.93314 33.1528 0.181489C32.7506 -0.0598453 32.2483 -0.0598453 31.8461 0.181489C23.9272 4.93416 19.2105 14.795 20.5024 24.4923L21.1562 29.3952L14.431 37.2411C13.8029 37.9747 13.4568 38.9103 13.4568 39.8758C13.4568 42.1089 15.2736 43.9256 17.5066 43.9256H23.0938L23.6241 47.9018C23.7081 48.5325 24.246 49.0036 24.8824 49.0036H26.1519V53.5738C26.1519 55.2459 24.8624 56.7488 23.1975 57.2257ZM48.6394 38.8926C48.874 39.1665 49.0031 39.5157 49.0031 39.8759C49.0031 40.709 48.3254 41.3867 47.4924 41.3867H42.2438L43.3925 32.7715L48.6394 38.8926ZM32.4995 2.76913C34.4333 4.0403 36.1677 5.68761 37.6141 7.61753H27.3849C28.8311 5.68761 30.5656 4.0403 32.4995 2.76913ZM25.7416 10.1565H39.2575C41.6476 14.4528 42.6141 19.3959 41.9799 24.1565L39.6819 41.3865H25.3169L23.0192 24.1567C22.3849 19.3961 23.3514 14.4531 25.7416 10.1565ZM17.5066 41.3865C16.6735 41.3865 15.9958 40.7089 15.9958 39.8758C15.9958 39.5157 16.1251 39.1664 16.3592 38.893L21.6065 32.7715L22.7552 41.3865H17.5066ZM25.6554 43.9256H39.3434L39.0051 46.4646H25.994L25.6554 43.9256Z" fill="#2F2483"/>
<path d="M32.4995 64.9995C33.2007 64.9995 33.769 64.4311 33.769 63.73C33.769 63.0288 33.2007 62.4604 32.4995 62.4604C31.7984 62.4604 31.23 63.0288 31.23 63.73C31.23 64.4311 31.7984 64.9995 32.4995 64.9995Z" fill="#2F2483"/>
</g>
<defs>
<clipPath id="clip0">
<rect width="65" height="65" fill="white"/>
</clipPath>
</defs>
</svg>
