<svg width="233" height="31" viewBox="0 0 233 31" fill="none" xmlns="http://www.w3.org/2000/svg">
<path d="M233 0H0V30.1676H233V0Z" fill="#2F2483"/>
<path fill-rule="evenodd" clip-rule="evenodd" d="M8.79761 26.8495H55.2819L55.2515 3.31815H8.79761V26.8495Z" fill="white"/>
<path fill-rule="evenodd" clip-rule="evenodd" d="M26.3321 25.2361H28.2194L38.6913 4.96198H36.804L26.3321 25.2361ZM22.4964 7.94526H33.638L32.0246 11.0503H22.4964C20.8221 11.0503 19.3914 12.0853 18.7825 13.5161H30.7461L30.1068 14.7642H11.3548L12.0245 13.5161H15.5253C16.2559 10.3501 19.1174 7.94526 22.4964 7.94526ZM29.1327 16.6211H18.7825C19.3914 18.0823 20.8221 19.0869 22.4964 19.0869H27.8541L26.2407 22.1919H22.4964C19.1174 22.1919 16.2559 19.787 15.5253 16.6211H10.3502L11.0199 15.373H29.772L29.1327 16.6211ZM34.6426 22.2224H38.7218L44.0491 11.9027L49.3763 22.2224H53.4555L46.0887 7.97569H42.0095L34.6426 22.2224ZM29.6502 25.2361H31.5376L42.0095 4.96198H40.1221L29.6502 25.2361Z" fill="#2F2483"/>
<path fill-rule="evenodd" clip-rule="evenodd" d="M203.563 19.026H201.706V24.3837H205.572V22.8616H220.306V24.3837H224.172V19.026H222.528V7.48863H207.186V11.3243C207.186 12.8768 206.881 14.4902 206.151 15.9514C205.603 17.0777 204.75 18.1432 203.563 19.026ZM218.662 11.3243V19.026H208.677C209.377 18.2954 209.864 17.443 210.23 16.5298C210.839 14.9773 211.082 13.2116 211.052 11.3243H218.662ZM183.441 11.3243V14.2162C184.963 14.8859 187.551 15.1295 189.864 15.2817C191.204 15.373 193.426 15.1599 194.37 14.4598C195.953 13.303 195.618 11.3243 193.274 11.3243H183.441ZM179.575 22.8616V7.48863H193.883C197.049 7.73216 199.484 9.86307 199.606 12.755C199.727 15.8905 198.053 17.3213 195.374 18.2041C193.304 18.8738 190.991 18.9955 189.59 18.9651C187.459 18.9347 185.328 18.5389 183.472 17.9301V22.8312H179.575V22.8616ZM163.471 16.6211L165.998 11.7505L168.525 16.6211H163.471ZM155.831 22.8616H160.214L161.462 20.4567H170.503L171.752 22.8616H176.135L168.19 7.48863H163.806L155.831 22.8616ZM137.687 19.026V17.443C139.209 16.7733 141.767 16.408 144.111 16.3776C145.389 16.3776 146.607 16.4384 147.55 16.6515C150.168 17.169 150.351 19.0564 147.49 19.0564H137.687V19.026ZM133.791 7.48863V22.8616H148.098C149.499 22.7399 150.777 22.2528 151.691 21.5526C153.121 20.4872 153.943 18.9956 153.852 17.991C153.669 16.408 152.543 15.0686 150.808 14.1858C149.133 13.3334 146.82 12.755 143.745 12.6941C141.553 12.6333 139.544 13.0899 137.657 13.6987V11.3243H151.447V7.48863H133.791ZM128.768 7.48863H124.871L117.2 17.5648L109.529 7.48863H105.632V22.8616H109.498V13.8509L116.287 22.8616H118.113L124.902 13.8509V22.8616H128.768V7.48863ZM91.6597 10.0457C95.0692 10.0457 97.8698 12.3288 97.8698 15.099C97.8698 17.8997 95.0996 20.1523 91.6597 20.1523C88.2502 20.1523 85.4496 17.8692 85.4496 15.099C85.4801 12.3288 88.2502 10.0457 91.6597 10.0457ZM91.6597 6.81891C97.2609 6.81891 101.827 10.5632 101.827 15.1295C101.827 19.6957 97.2609 23.44 91.6597 23.44C86.0584 23.44 81.4922 19.6957 81.4922 15.1295C81.4922 10.5328 86.0584 6.81891 91.6597 6.81891ZM60.5179 22.8616H64.9015L70.655 11.72L76.4085 22.8616H80.792L72.8468 7.48863H68.4632L60.5179 22.8616Z" fill="white"/>
</svg>
